<svg width="88" height="89" viewBox="0 0 88 89" fill="none" xmlns="http://www.w3.org/2000/svg">
<path d="M62.0893 24.7583C60.6544 22.7903 58.8141 21.7013 56.6234 21.5133C54.4928 21.3364 52.3951 22.0938 51.0588 22.9285L52.2692 20.5293C52.4882 20.0981 52.4718 19.5895 52.2199 19.1694C51.9679 18.7492 51.5243 18.5005 51.0423 18.5005H34.1514C31.2267 18.4728 28.7292 19.7056 27.7926 20.2418C27.4366 20.4464 27.234 20.8278 27.2668 21.2369C27.2997 21.6349 27.5462 21.9666 27.9186 22.0993C29.8629 22.8124 31.6539 24.3216 32.8205 26.2233C33.6365 27.5556 34.0309 29.2195 34.0309 31.3147C34.0309 34.8804 32.333 38.2636 29.485 40.3753C25.4978 43.3384 23.1317 47.9047 23.0058 52.9021C22.8743 57.8996 24.9994 62.5874 28.8332 65.7551L31.8839 68.2759C32.2509 68.5799 32.5028 69.0111 32.585 69.4866L32.7164 70.2384C32.93 71.438 33.7735 72.4275 34.9072 72.8145C36.2271 73.2733 38.2536 73.5 41.0962 73.5C43.9387 73.5 45.9652 73.2789 47.2851 72.82C48.4243 72.4331 49.2623 71.4435 49.4759 70.2384L49.6073 69.4866C49.6895 69.0111 49.9414 68.5855 50.3084 68.2759L53.3591 65.7551C57.067 62.6925 59.192 58.1594 59.192 53.3223C59.192 51.2934 58.8196 49.3088 58.0857 47.4237C58.1076 46.2462 59.0606 44.3888 60.1669 42.2328C62.7301 37.2519 66.2354 30.4302 62.0784 24.7528L62.0893 24.7583ZM33.7625 69.2765C33.7625 69.2765 33.7351 69.2433 33.7406 69.2267C33.7461 69.2102 33.768 69.2046 33.7789 69.2102C34.9674 69.5418 36.1943 69.7353 37.4211 69.868C38.648 69.9952 39.8857 70.056 41.1181 70.056C42.3504 70.0615 43.5882 70.0117 44.815 69.8846C46.0418 69.7574 47.2687 69.5584 48.4572 69.2212C48.4736 69.2212 48.4955 69.2267 48.501 69.2433C48.501 69.2599 48.501 69.2765 48.4846 69.2875C47.3563 69.8625 46.1185 70.2329 44.8807 70.4485C43.6375 70.6806 42.3778 70.7636 41.1235 70.7746C39.8638 70.758 38.6041 70.6641 37.3664 70.4319C36.1286 70.2107 34.9017 69.8459 33.768 69.282L33.7625 69.2765ZM52.0939 65.8933C52.0939 65.8933 52.0665 65.9154 52.0501 65.9209C47.7945 68.7292 42.0437 69.2875 37.6073 66.7833C36.0902 65.9264 35.0167 64.572 34.2993 63.5106C33.6365 62.2392 33.1436 60.8737 32.8424 59.453C33.0943 61.5316 33.7516 63.5825 34.8086 65.4289C35.0989 65.943 35.422 66.4405 35.7671 66.927C35.7561 66.916 35.7452 66.9049 35.7342 66.8939C34.9181 66.0149 34.1733 65.0696 33.5434 64.0524C32.2783 62.007 31.506 59.6409 31.2705 57.203C31.3198 59.652 31.9168 62.1175 33.0669 64.3288C33.4503 65.064 33.894 65.7716 34.3759 66.4516C33.5106 65.4952 32.7109 64.4725 32.0537 63.3558C31.3965 62.2336 30.8652 61.0285 30.5037 59.7626C30.1368 58.5021 29.9396 57.1809 29.8739 55.8597C29.8465 57.1864 29.9505 58.5242 30.2353 59.8289C30.5147 61.1391 30.9693 62.4105 31.5717 63.6212C31.9715 64.4283 32.448 65.1912 32.9629 65.9264C32.9355 65.8933 32.9081 65.8656 32.8807 65.8325C31.9003 64.7213 31.024 63.5162 30.3449 62.1949C29.6548 60.8792 29.1454 59.4585 28.8716 57.9825C28.5868 56.5065 28.5156 54.9862 28.5977 53.477C28.4225 54.9807 28.4006 56.512 28.5977 58.0267C28.784 59.5414 29.2221 61.034 29.8465 62.4382C30.3065 63.4719 30.8762 64.4559 31.5224 65.3791C31.495 65.346 31.4677 65.3183 31.4403 65.2907C30.3778 64.0579 29.4467 62.7091 28.7401 61.2386C28.0446 59.7626 27.5735 58.176 27.3654 56.5341C27.3161 56.125 27.2942 55.7104 27.2559 55.3013L27.234 54.0575L27.2942 52.8137L27.3928 51.5698L27.223 52.8081L27.0916 54.052L27.0423 55.3069C27.0587 55.727 27.0587 56.1416 27.0861 56.5617C27.2066 58.2368 27.5954 59.8952 28.2308 61.4597C28.7182 62.6427 29.3481 63.7649 30.071 64.8153C29.9998 64.7324 29.9232 64.6494 29.852 64.5665C28.6854 63.1347 27.6667 61.5703 26.993 59.8399C26.3084 58.1207 25.9359 56.2632 25.9195 54.3837C25.8757 52.5041 26.1879 50.6356 26.5822 48.7837C26.1057 50.6079 25.6949 52.4709 25.6456 54.3781C25.5744 56.2798 25.8592 58.2091 26.4836 60.0279C26.9875 61.5371 27.7488 62.9523 28.6361 64.2625C28.5539 64.163 28.4608 64.0634 28.3787 63.9639C27.119 62.3884 26.0674 60.6415 25.4156 58.7233C24.7529 56.8105 24.5119 54.7596 24.616 52.7197C24.7255 50.6687 25.2404 48.6676 25.8483 46.6995C25.1527 48.6344 24.5448 50.6245 24.3421 52.6976C24.145 54.7651 24.2983 56.8824 24.8953 58.8946C25.0651 59.4806 25.2787 60.0555 25.5142 60.6139C24.2764 58.2921 23.6356 55.6607 23.7068 52.9298C23.7725 50.4476 24.4188 48.076 25.558 45.9754C37.1637 48.2806 49.109 46.9759 51.6174 46.5945C51.4695 46.3623 51.3162 46.1357 51.1464 45.909C39.5078 47.5453 28.4827 45.7542 25.9524 45.2899C26.0729 45.0908 26.1988 44.8918 26.3303 44.6928C30.1915 45.4889 41.3152 46.8377 50.6699 45.3009C50.4727 45.0687 50.2701 44.8476 50.0565 44.6375C39.7379 46.0914 29.2714 44.4938 26.8068 44.0239C27.6776 42.8796 28.7128 41.8458 29.9013 40.9613C31.6429 39.6733 32.9903 37.9208 33.8228 35.8865C33.8228 35.8533 33.8228 35.8257 33.8337 35.7925C33.8337 35.7814 33.8447 35.7649 33.8501 35.7538C34.8196 33.4375 35.181 30.7951 34.6607 28.2853C34.3978 27.0359 33.8885 25.8308 33.1217 24.797C32.3604 23.7577 31.3362 22.9174 30.1751 22.3204C31.3746 22.829 32.4754 23.6085 33.3353 24.6256C34.2007 25.6373 34.8196 26.859 35.192 28.1526C35.8164 30.386 35.7726 32.7797 35.192 35.0462C35.307 35.0407 35.422 35.0296 35.5425 35.0241C36.0354 33.5425 36.2162 31.9283 36.1012 30.3307C35.9588 28.4124 35.4001 26.4886 34.3705 24.8136C35.548 26.3836 36.3093 28.2853 36.6434 30.2644C36.9008 31.8178 36.8953 33.4375 36.5722 35.013C36.6653 35.013 36.7584 35.013 36.8515 35.0186C37.0487 34.1838 37.1856 33.3269 37.2349 32.4646C37.3061 31.2152 37.2239 29.9327 36.7748 28.7331C37.3937 29.8608 37.6676 31.1654 37.7826 32.459C37.8538 33.3214 37.8428 34.1893 37.7716 35.0573C37.8757 35.0628 37.9798 35.0683 38.0784 35.0738C38.2372 34.2501 38.3029 33.3822 38.2974 32.5143C38.5384 33.3546 38.7301 34.2225 38.8068 35.1236C39.4202 35.1733 40.0391 35.2342 40.647 35.2894C44.3933 35.6543 45.8282 35.6322 47.0934 35.4774C46.4855 32.9953 46.5786 30.4136 47.1701 28.0033C47.8109 25.4106 49.0104 22.9727 50.6754 20.9439C49.1528 23.0833 48.156 25.5654 47.7068 28.1139C47.2632 30.6624 47.4001 33.3159 48.271 35.6819V35.693L48.3203 35.8146C49.1309 37.8545 50.5001 39.6346 52.2856 40.9558C53.2167 41.6468 54.0711 42.4484 54.8324 43.3384C55.8785 44.5657 56.7219 45.9477 57.3354 47.4569L57.4066 47.6559C58.1186 49.4581 58.48 51.3763 58.48 53.3223C58.48 57.9438 56.4481 62.2723 52.9045 65.2022L52.0775 65.8877L52.0939 65.8933ZM33.6913 19.197C35.6301 19.009 37.5197 19.2744 39.3928 19.3241C41.2714 19.4015 43.161 19.4126 45.0505 19.4292H47.8876C48.8351 19.4458 49.7771 19.4292 50.7247 19.385C48.857 19.7553 46.9565 19.8935 45.067 19.9931C43.1719 20.087 41.2714 20.1091 39.3709 20.0428C38.4179 19.9986 37.4704 19.9267 36.5284 19.8549C35.5863 19.7775 34.6553 19.7222 33.7296 19.7609C31.8784 19.8327 30.0491 20.369 28.2472 20.9384C29.9505 20.1091 31.7525 19.3794 33.6913 19.2025V19.197ZM42.6461 33.1169C42.8324 33.1169 42.9857 33.2717 42.9857 33.4596C42.9857 33.6476 42.8324 33.8024 42.6461 33.8024C42.4599 33.8024 42.3066 33.6476 42.3066 33.4596C42.3066 33.2717 42.4599 33.1169 42.6461 33.1169ZM41.8684 31.5635C41.8684 31.2871 42.093 31.0604 42.3668 31.0604C42.6407 31.0604 42.8652 31.2871 42.8652 31.5635C42.8652 31.8399 42.6407 32.0665 42.3668 32.0665C42.093 32.0665 41.8684 31.8399 41.8684 31.5635ZM41.5617 33.0284C41.5617 33.4209 41.244 33.7416 40.8552 33.7416C40.4663 33.7416 40.1486 33.4209 40.1486 33.0284C40.1486 32.6359 40.4663 32.3153 40.8552 32.3153C41.244 32.3153 41.5617 32.6359 41.5617 33.0284ZM57.4668 22.6576C58.7155 23.0004 59.8219 23.7633 60.6927 24.7086C61.5581 25.6594 62.2263 26.8314 62.5001 28.1139C63.0478 30.6679 62.5823 33.2496 61.8484 35.6322C61.4705 36.8318 61.0159 37.9982 60.4956 39.1315C59.9588 40.2592 59.3837 41.3649 58.7265 42.4207C59.2413 41.2875 59.7507 40.1542 60.1724 38.9933C60.6215 37.8379 61.0104 36.6659 61.3171 35.4774C61.6183 34.2833 61.8758 33.0837 61.9798 31.8675C62.0894 30.6569 62.0729 29.4351 61.8046 28.2742C61.569 27.1188 60.9666 26.0519 60.1888 25.1619C59.4111 24.2663 58.4143 23.5698 57.3025 23.1828C56.1852 22.7958 54.9474 22.7903 53.7918 23.133C52.6197 23.4481 51.5626 24.0894 50.5439 24.797C51.4641 23.9678 52.5047 23.2491 53.6877 22.8014C54.8762 22.3702 56.2181 22.2983 57.4613 22.6576H57.4668ZM52.7237 40.3809C49.5088 37.9982 47.8273 34.1009 48.2545 30.1262C49.1418 30.6016 49.821 30.7232 50.3687 30.5131C51.1738 30.2091 51.475 29.2472 51.7708 28.3184C51.9022 27.9094 52.0391 27.4837 52.2144 27.1188C52.554 26.4057 53.2769 25.8474 54.197 25.5875C55.3308 25.2669 56.5686 25.4714 57.5873 26.1404C58.6827 26.8645 61.0761 29.1366 59.6576 34.5487C58.9291 37.3293 57.3792 40.121 55.1829 42.6363C54.4435 41.8016 53.622 41.0387 52.7292 40.3753L52.7237 40.3809ZM58.1624 53.3278C58.1624 57.2141 56.6726 60.8737 53.9725 63.6323C53.9451 63.6599 53.9122 63.6709 53.8739 63.6709C53.8356 63.6709 53.8027 63.6599 53.7753 63.6323C53.7206 63.577 53.7206 63.4885 53.7753 63.4388C56.4262 60.7355 57.8885 57.1422 57.8885 53.3278C57.8885 51.498 57.549 49.7069 56.8753 47.9876L56.815 47.8162C56.596 47.291 56.3495 46.7659 56.0702 46.2739C56.0318 46.2075 56.0537 46.1246 56.1249 46.0859C56.1907 46.0472 56.2728 46.0693 56.3112 46.1412C56.5905 46.6443 56.8479 47.175 57.0724 47.7222L57.1327 47.8936C57.8173 49.635 58.1678 51.4648 58.1678 53.3278H58.1624ZM53.978 46.0583C53.7972 46.1025 53.5234 45.9201 53.3426 45.6215L52.6799 44.5436C52.4663 44.2008 52.4718 43.847 52.6799 43.7973L54.0766 43.4435C54.2628 43.3937 54.5421 43.5927 54.7228 43.8912L55.3636 44.9748C55.5663 45.3175 55.5608 45.6547 55.3527 45.7045L53.9725 46.0527L53.978 46.0583ZM52.6909 45.6602C52.8935 46.003 52.8881 46.3402 52.6799 46.39C52.4992 46.4342 52.2253 46.2518 52.0446 45.9532L51.3819 44.8752C51.1683 44.5325 51.1738 44.1787 51.3819 44.129H51.3983C51.5845 44.0792 51.8639 44.2727 52.0446 44.5767L52.6854 45.6602H52.6909ZM52.0884 41.7353C50.1989 40.3366 48.731 38.4571 47.8492 36.2956C47.8219 36.2237 47.8493 36.1463 47.9259 36.1131C47.9917 36.0855 48.0738 36.1131 48.1067 36.1905C48.9666 38.3023 50.4015 40.1432 52.2527 41.5086C52.784 41.9066 53.2988 42.3434 53.7753 42.8132C53.8301 42.8685 53.8301 42.9515 53.7753 43.0067C53.7479 43.0344 53.7151 43.051 53.6767 43.051C53.6384 43.051 53.6055 43.0399 53.5836 43.0123C53.1126 42.5534 52.6142 42.1222 52.0884 41.7353Z" fill="white"/>
</svg>
