<svg width="88" height="88" viewBox="0 0 88 88" fill="none" xmlns="http://www.w3.org/2000/svg">
<path d="M59.3235 44.9035C59.3076 44.6182 59.1688 41.8766 59.3116 37.4501C59.4622 32.773 58.4076 30.741 54.8831 29.2719C53.2101 28.1074 50.5459 27.0895 46.6487 27.8337C45.0827 28.1306 43.033 27.8259 41.6771 27.6216C41.3005 27.5637 40.9952 27.5213 40.7494 27.4943C40.8882 26.9391 40.8446 26.5111 40.8287 26.3916L41.134 25.7939C41.134 25.7939 41.1459 25.7669 41.1459 25.7515C41.1459 25.6165 41.1141 25.4546 41.0468 25.258C41.4194 25.0729 41.8555 25.0999 42.1846 25.3351C42.478 25.5471 42.8189 25.6975 43.1995 25.7785C43.2748 25.7939 43.3462 25.8016 43.4215 25.8016C43.5603 25.8016 43.6951 25.7746 43.814 25.7207C45.3285 25.0305 45.8835 23.7812 46.0778 23.0987C46.1531 22.8133 46.0778 22.5087 45.8716 22.2967C44.4484 20.8584 42.8784 21.9304 41.9229 22.5974C41.7406 22.4393 41.4551 22.2851 41.2291 22.1771C44.5633 20.8893 44.9241 19.6477 44.4206 18.1825C44.377 18.0629 44.266 17.9935 44.1352 18.0051C44.0083 18.0167 43.9092 18.1092 43.8933 18.2287C43.6436 19.8636 41.5621 20.9625 39.1596 20.735C39.0209 20.6734 38.8781 20.6078 38.7275 20.5461C37.9901 20.2492 37.2606 20.0988 36.5549 20.0988C35.8492 20.0988 35.1157 20.2492 34.3823 20.5461C34.2316 20.6078 34.0889 20.6695 33.9502 20.735C31.5437 20.9625 29.4662 19.8636 29.2164 18.2287C29.2006 18.1054 29.1015 18.0167 28.9746 18.0013C28.8438 17.9897 28.7288 18.0591 28.6852 18.1786C28.1817 19.64 28.5425 20.8816 31.8767 22.1694C31.6547 22.2812 31.3652 22.4355 31.1829 22.5897C30.2274 21.9226 28.6574 20.8507 27.2342 22.289C27.032 22.4972 26.9527 22.8056 27.028 23.091C27.2223 23.7735 27.7773 25.0189 29.2918 25.7129C29.4147 25.7669 29.5455 25.7939 29.6843 25.7939C29.7596 25.7939 29.831 25.7862 29.9063 25.7708C30.2869 25.686 30.6278 25.5394 30.9212 25.3274C31.2463 25.096 31.6824 25.0652 32.0551 25.2502C31.9877 25.4469 31.9599 25.6088 31.9599 25.7476C31.9599 25.7631 31.9599 25.7785 31.9718 25.7901L32.2771 26.3877C32.2573 26.5188 32.2018 27.0316 32.4079 27.6794C32.4595 27.8491 32.5467 28.173 32.6418 28.5701C32.6934 28.7783 32.7489 29.0135 32.8084 29.268C32.8084 29.268 32.9313 29.8194 32.9907 30.1125C32.9669 30.1973 32.9511 30.2783 32.9273 30.3631C32.8837 30.4441 32.8401 30.5212 32.7965 30.6022C32.7965 30.6022 32.7885 30.6099 32.7885 30.6137C30.9648 33.7524 29.601 37.6776 29.5693 38.792C29.5614 39.1043 29.4781 39.486 29.383 39.9294C29.3433 40.1107 29.3037 40.2996 29.264 40.5001C29.0063 41.8342 28.8834 43.4344 29.9261 45.2235C30.1917 50.5292 32.0709 54.8978 32.3366 55.4878C32.285 55.8965 32.067 57.8553 32.5982 58.9388C32.5744 59.4362 32.6141 59.9297 32.6498 60.4078C32.7092 61.1713 32.7647 61.8923 32.5943 62.6442C32.3485 63.7894 31.9243 64.8536 31.2979 65.8986C31.2899 65.914 31.282 65.9294 31.278 65.9448C30.7943 67.3214 30.7151 67.6838 30.7111 67.6992C30.6952 67.7725 30.7151 67.8496 30.7626 67.9075C30.8102 67.9653 30.8855 68 30.9609 68H33.8233C33.9858 68 34.1444 67.9614 34.2871 67.892C34.5885 67.7494 34.8461 67.5913 35.0444 67.4216C35.2426 67.2481 35.3179 66.9666 35.2228 66.7199C35.1792 66.6003 35.1475 66.4962 35.1276 66.3921C34.9968 65.8137 35.1038 65.2431 35.3933 64.9385C35.7858 64.5375 35.643 64.0786 35.4805 63.5426C35.421 63.3421 35.3497 63.1147 35.2902 62.8525C35.2743 62.7946 35.2624 62.7252 35.2505 62.6558C35.0721 61.6263 35.0246 59.0082 35.425 57.9864C35.8452 56.9144 35.9721 55.4724 35.31 54.6665C35.1197 54.439 35.2585 54.1228 35.4607 53.7334C35.5241 53.6138 35.5756 53.5059 35.6073 53.4133C35.7104 53.1203 35.8769 52.8581 36.0871 52.6306C36.4201 53.3401 36.8879 53.7411 37.5659 53.4133C38.113 53.1473 37.9583 52.1525 38.8662 51.8209C39.8217 51.4739 40.0556 51.2425 40.8366 51.4199C40.8366 51.4469 40.8366 51.4739 40.8327 51.5008C40.8089 51.8556 40.7891 52.1949 40.7692 52.5149C40.686 53.8606 40.6225 54.9248 40.2895 56.0045C40.2102 56.2551 40.1666 56.5212 40.1587 56.8103C40.123 58.0635 40.2182 59.5403 40.4481 61.3255C40.46 61.4296 40.4798 61.5492 40.5036 61.6841C40.6027 62.3049 40.7534 63.2457 40.5551 64.1673C40.4045 64.8691 40.2142 65.6672 39.9842 66.5386C39.9842 66.5386 39.9842 66.5425 39.9842 66.5464C39.9842 66.5502 39.9842 66.5579 39.9803 66.5618C39.7979 67.2288 39.6671 67.6761 39.6671 67.6761C39.6433 67.7532 39.6591 67.8342 39.7107 67.8959C39.7583 67.9576 39.8336 67.9961 39.9168 67.9961H43.9647C44.044 67.9961 44.1193 67.9614 44.1708 67.8997C44.2184 67.8381 44.2343 67.7571 44.2144 67.6838L43.9488 66.7006C43.9488 66.6736 43.9409 66.6505 43.929 66.6273L43.8061 66.1685H43.9528C44.036 66.1685 44.1114 66.1299 44.1589 66.0682C44.2065 66.0027 44.2224 65.9217 44.1986 65.8446C44.1986 65.833 43.8775 64.8344 43.5682 63.6892C43.3819 62.9797 43.3026 62.1892 43.2392 61.5569C43.2273 61.4219 43.2114 61.2947 43.1995 61.1752C43.2748 60.9245 43.3898 60.6276 43.5088 60.3192C43.7783 59.6213 44.0836 58.8308 44.1034 58.1599L44.1272 57.1959C44.151 56.4093 44.2184 54.0765 44.6506 52.3376C45.3919 52.353 46.0302 52.2951 46.5456 52.1679C46.6685 52.1371 46.7795 52.1101 46.8945 52.0831C47.2672 52.6075 47.8936 53.1396 48.405 53.4403C48.8371 54.9364 49.7252 58.4761 49.3763 61.2253C49.3208 61.6649 49.2415 62.035 49.1503 62.3319C48.8094 63.026 48.4724 63.774 48.2464 64.2753C47.9848 64.8613 47.8064 65.2701 47.8064 65.2701C47.7746 65.3472 47.7826 65.4359 47.8301 65.5053C47.8777 65.5747 47.957 65.6171 48.0442 65.6171H50.7838C51.1049 65.6171 51.3903 65.4937 51.5846 65.2701C51.7828 65.0387 51.8582 64.738 51.8027 64.4179L51.6441 63.5465L51.7432 63.0105C51.87 63.0028 51.989 62.9566 52.0841 62.8756C52.2546 62.7291 52.3101 62.4939 52.2348 62.2972L52.1238 61.8461C52.1238 61.661 52.1238 60.6161 52.1595 59.3359C52.1991 57.8823 52.2665 56.6831 52.3537 55.7616C52.5559 55.7616 52.7343 55.6459 52.8136 55.4646C52.885 55.3027 52.9603 55.0983 53.0039 54.8708C53.0594 55.0791 53.1387 55.2719 53.2378 55.4377C53.3251 55.588 53.4955 55.6767 53.6581 55.6574C53.8325 55.6497 53.9832 55.5456 54.0506 55.3875C54.225 54.9672 54.221 54.52 54.1854 54.2115C54.2726 54.1652 54.3598 54.1151 54.447 54.065C54.7047 54.8284 54.9822 55.5109 55.1765 55.9659C55.7633 57.3347 56.0923 59.2781 55.9417 60.4888C55.7989 61.6186 55.9337 63.2804 55.9615 63.5735L55.4421 65.5477C55.4223 65.6209 55.4421 65.7019 55.4897 65.7636C55.5373 65.8253 55.6126 65.86 55.6919 65.86H59.0578C59.1292 65.86 59.1966 65.8292 59.2481 65.779C59.2957 65.7289 59.3195 65.6595 59.3155 65.5901C59.3155 65.5901 59.2799 65.1505 59.2045 64.5413C58.9984 62.9566 58.7367 61.8692 58.4275 61.3101C57.8566 60.2729 57.2302 56.9106 57.5909 55.3066C57.8169 54.3118 57.7971 51.5433 57.7693 48.3352C57.7495 46.041 57.7337 43.6696 57.805 41.7648C57.805 41.7648 58.0191 34.593 58.0191 34.4194C58.0191 33.6984 57.8566 32.9889 57.5394 32.2987C58.0389 32.9234 58.368 33.9028 58.5187 35.2793C58.6812 36.7754 58.6733 41.0708 58.6693 43.6388V44.649C58.1896 45.4317 58.261 45.825 58.3561 46.3726C58.4195 46.735 58.4988 47.1823 58.4394 47.8841C58.2847 49.6924 58.9746 50.1243 59.0063 50.1397C59.0222 50.1474 59.042 50.1552 59.0578 50.1552C59.0777 50.1552 59.1014 50.1474 59.1173 50.1359C59.149 50.1127 59.1649 50.0703 59.153 50.0356C59.153 50.0241 58.8834 49.01 59.6842 47.9496C60.5089 46.8545 59.4741 45.1348 59.3314 44.9151L59.3235 44.9035ZM32.2454 25.9019L32.2335 25.8826C32.622 25.5664 33.1572 25.9019 33.1374 26.4417C32.9788 26.5111 32.8321 26.5188 32.7132 26.5034C32.7885 26.4571 32.844 26.3607 32.844 26.245C32.844 26.0908 32.741 25.9636 32.6181 25.9636C32.5031 25.9636 32.4119 26.0677 32.396 26.2065L32.2414 25.9019H32.2454ZM32.3009 23.2722L31.8767 24.1089C31.7538 24.1089 31.3177 24.132 30.9728 24.2978C30.6239 24.4714 30.2235 24.5138 29.8468 24.4212C29.1372 24.2439 28.2412 23.8776 28.0112 23.118C27.9676 22.9637 28.035 22.7941 28.1777 22.7054C28.3958 22.5704 28.6099 22.501 28.8358 22.501C29.2442 22.501 29.6803 22.7247 30.2076 23.1874C30.9648 23.8506 31.9401 23.4573 32.3009 23.2722ZM40.8604 25.9019L40.7098 26.1988C40.6899 26.0638 40.5988 25.9636 40.4877 25.9636C40.3609 25.9636 40.2578 26.0908 40.2578 26.2489C40.2578 26.3569 40.3093 26.4494 40.3807 26.4995C40.2618 26.5111 40.123 26.4995 39.9724 26.434C39.9525 25.8942 40.4917 25.5587 40.8763 25.8749L40.8644 25.8942L40.8604 25.9019ZM40.8049 23.2722C41.1657 23.4573 42.141 23.8506 42.8982 23.1874C43.7109 22.4702 44.3215 22.3275 44.9281 22.7054C45.0708 22.7941 45.1382 22.9637 45.0946 23.118C44.8646 23.8776 43.9686 24.2477 43.259 24.4212C42.8823 24.5138 42.4819 24.4714 42.133 24.2978C41.7881 24.132 41.352 24.1089 41.2291 24.1089L40.8049 23.2722ZM37.5024 35.8615C36.9474 35.9811 37.0742 35.4065 37.1853 35.1212C37.3002 34.8359 37.0544 34.9014 37.1853 34.6238C37.3161 34.3462 37.6689 34.1611 37.1853 34.1611C36.7016 34.1611 36.872 34.6238 36.5787 34.5968C36.5668 34.5968 36.5588 34.593 36.5509 34.593C36.543 34.593 36.5351 34.5968 36.5232 34.5968C36.2298 34.6238 36.4003 34.1611 35.9166 34.1611C35.4329 34.1611 35.7858 34.3462 35.9166 34.6238C36.0474 34.9014 35.8016 34.8359 35.9166 35.1212C36.0276 35.4065 36.1545 35.9811 35.5994 35.8615C35.1237 35.7574 35.306 36.0775 35.5558 36.4129C35.4607 36.4206 35.3734 36.4245 35.2862 36.4283C35.1831 36.2818 35.0444 36.1314 34.9017 35.9695C34.6043 35.6417 34.2713 35.2716 34.2594 34.9515C34.2435 34.4696 34.3744 33.8642 34.5964 33.7292C34.636 33.7061 34.6995 33.683 34.8065 33.7408C35.1197 33.9066 35.3378 33.7331 35.5122 33.5981C35.7025 33.4478 35.8333 33.3591 36.0514 33.4709C36.21 33.5519 36.3725 33.5789 36.5509 33.548C36.7293 33.5789 36.8919 33.5519 37.0505 33.4709C37.2725 33.3552 37.3993 33.4439 37.5936 33.5981C37.768 33.737 37.9821 33.9066 38.2993 33.7408C38.4063 33.683 38.4737 33.7061 38.5094 33.7292C38.7314 33.8642 38.8623 34.4696 38.8464 34.9515C38.8345 35.2716 38.5015 35.6456 38.2041 35.9695C38.0614 36.1276 37.9227 36.2818 37.8196 36.4283C37.7363 36.4283 37.6491 36.4206 37.55 36.4129C37.7958 36.0775 37.9821 35.7574 37.5064 35.8615H37.5024ZM34.4497 39.6788C33.4863 38.5606 32.5586 35.9772 32.733 33.7524C32.737 33.6984 32.7846 33.656 32.8401 33.6637C32.8956 33.6676 32.9352 33.7138 32.9313 33.7678C32.7608 35.9464 33.6647 38.4681 34.6043 39.5554C35.532 40.6351 35.2941 42.3856 35.2862 42.4627C35.2783 42.5129 35.2386 42.5476 35.1871 42.5476C35.1831 42.5476 35.1792 42.5476 35.1752 42.5476C35.1197 42.5399 35.084 42.4897 35.092 42.4396C35.092 42.4242 35.3259 40.6968 34.4576 39.6827L34.4497 39.6788ZM37.1734 38.9693C37.1654 38.9963 37.1575 39.0195 37.1496 39.0465C36.8403 39.1583 36.5707 39.1737 36.206 38.6455C36.206 38.6416 36.1981 38.6339 36.1941 38.63C36.1743 38.6107 36.1505 38.6069 36.1227 38.6069C36.1188 38.0632 36.0871 37.5581 36.0197 37.1262C36.1664 37.1262 36.313 37.1262 36.4558 37.1185H36.547C36.6857 37.1185 36.8443 37.1224 36.9989 37.1224C37.3716 37.1224 37.7562 37.1108 38.0495 37.0106C37.6927 37.7046 37.324 38.4912 37.1694 38.9655L37.1734 38.9693ZM44.8091 28.4506C46.2959 28.3812 47.5843 28.1961 48.2583 27.9609C48.3099 27.9416 48.3654 27.9686 48.3852 28.0187C48.405 28.0689 48.3773 28.1228 48.3257 28.1421C47.6319 28.385 46.3236 28.574 44.8171 28.6434C44.8171 28.6434 44.8171 28.6434 44.8131 28.6434C44.7616 28.6434 44.718 28.6048 44.714 28.5508C44.714 28.4969 44.7536 28.4544 44.8091 28.4506ZM39.0922 20.9163C39.5164 21.1206 39.8455 21.3327 40.0794 21.5024C39.6988 21.6952 39.4688 22.2003 39.4609 22.2273C39.457 22.2388 39.453 22.2504 39.453 22.2658C39.453 22.6861 39.8098 23.3108 40.1864 23.9701C40.3093 24.186 40.4322 24.402 40.5432 24.614C40.5432 24.7837 40.5195 25.2155 40.3292 25.3505C40.0635 25.5394 39.6988 25.7978 39.671 26.4648C39.671 26.4841 39.675 26.5034 39.6869 26.5188C39.8138 26.7232 40.1389 26.835 40.2499 26.862C40.3014 26.9391 40.3173 27.2437 40.3014 27.6409C40.1785 29.1793 39.4728 31.6471 39.2191 33.5249C39.1636 33.1277 39.0962 32.7267 38.7671 32.5069C38.2676 32.1715 38.335 31.3425 38.3627 31.0263C38.3786 30.8682 38.335 30.7795 38.2993 30.7024C38.2517 30.5983 38.2002 30.4865 38.2676 30.1279C38.2834 30.0392 38.3072 29.9428 38.327 29.8387C38.4618 29.1832 38.6482 28.2886 38.4936 27.8452C38.3389 27.4057 38.5094 26.8504 38.7235 26.4725C38.9971 25.9944 38.7473 25.2425 38.5729 24.8377C38.4777 24.6102 38.5292 24.3287 38.7116 24.1051C38.9455 23.8159 39.3261 23.6886 39.7622 23.7542C39.8058 23.7619 39.8494 23.7387 39.8653 23.7002C39.8851 23.6616 39.8732 23.6154 39.8415 23.5884C39.227 23.0486 38.8504 22.3159 38.9812 21.9188C39.0446 21.7337 39.2191 21.6257 39.5006 21.5949C39.5442 21.591 39.5799 21.5602 39.5878 21.5178C39.5957 21.4754 39.5759 21.433 39.5402 21.4137C39.2627 21.2633 39.0486 21.0666 38.9019 20.8276C38.9693 20.8584 39.0327 20.8854 39.1001 20.9163H39.0922ZM33.5735 21.4137C33.5339 21.433 33.518 21.4754 33.5259 21.5178C33.5339 21.5602 33.5696 21.591 33.6132 21.5949C33.8947 21.6219 34.0691 21.7337 34.1325 21.9188C34.2673 22.3159 33.8867 23.0486 33.2722 23.5884C33.2405 23.6154 33.2286 23.6616 33.2484 23.7002C33.2682 23.7387 33.3079 23.7619 33.3515 23.7542C33.7876 23.6886 34.1682 23.8197 34.3982 24.1051C34.5805 24.3287 34.6321 24.6102 34.5369 24.8377C34.3625 25.2425 34.1127 25.9944 34.3863 26.4725C34.6003 26.8466 34.7748 27.4057 34.6162 27.8452C34.4616 28.2848 34.6479 29.1832 34.7827 29.8348C34.8025 29.939 34.8263 30.0353 34.8422 30.124C34.9096 30.4826 34.858 30.5906 34.8105 30.6986C34.7748 30.7757 34.7312 30.8644 34.747 31.0263C34.7748 31.3386 34.8422 32.1676 34.3426 32.5031C34.0136 32.7229 33.9422 33.1239 33.8907 33.521C33.744 32.4414 33.4506 31.169 33.2008 29.9852C33.2008 29.9852 33.2008 29.9814 33.2008 29.9775C33.0224 29.1369 32.8718 28.3465 32.8123 27.7064C32.7925 27.2321 32.8163 26.9275 32.8599 26.8581C32.9709 26.8311 33.296 26.7232 33.4229 26.5188C33.4348 26.5034 33.4387 26.4841 33.4387 26.4648C33.4149 25.7978 33.0502 25.5394 32.7647 25.3389C32.6101 25.231 32.5626 24.8454 32.5665 24.6179C32.6775 24.4058 32.8004 24.1899 32.9233 23.974C33.3 23.3146 33.6568 22.69 33.6568 22.2697C33.6568 22.2581 33.6568 22.2427 33.6488 22.2311C33.637 22.208 33.411 21.699 33.0304 21.5062C33.2643 21.3366 33.5933 21.1245 34.0176 20.9201C34.081 20.8893 34.1484 20.8623 34.2118 20.8314C34.0691 21.0705 33.855 21.2633 33.5735 21.4175V21.4137ZM31.2305 50.2323C31.2305 50.2323 31.2106 50.2361 31.2027 50.2361C31.1591 50.2361 31.1194 50.2091 31.1076 50.1667C30.7626 49.037 30.3543 47.4599 30.382 46.3687C30.382 46.3147 30.4177 46.28 30.4851 46.2762C30.5406 46.2762 30.5842 46.3224 30.5803 46.3764C30.5604 47.217 30.8062 48.5126 31.2979 50.1127C31.3137 50.1629 31.282 50.2168 31.2305 50.2323ZM35.0166 64.5953C34.6598 64.9655 34.5012 65.5593 34.5686 66.1916C34.3902 66.1068 34.192 66.0567 33.9938 66.0605C33.6488 66.0682 33.3079 66.2147 33.0066 66.4847C33.0026 66.3343 32.9313 66.1955 32.8084 66.0837C32.5943 65.8947 32.2652 65.8292 31.8767 65.887C32.4476 64.8768 32.848 63.8473 33.0859 62.7483C33.1097 62.6442 33.1295 62.5401 33.1453 62.4399C33.2088 62.382 33.2564 62.3628 33.2881 62.3589C33.403 62.3473 33.5378 62.5363 33.6726 62.7175C33.8629 62.9758 34.0731 63.265 34.3982 63.2959C34.418 63.2959 34.4338 63.2959 34.4537 63.2959C34.5766 63.2959 34.7034 63.2535 34.8343 63.1763C34.8818 63.3614 34.9334 63.5349 34.977 63.6853C35.1435 64.2251 35.1831 64.4141 35.0087 64.5914L35.0166 64.5953ZM35.1554 53.182C34.3506 52.4609 34.2673 50.5677 33.5814 50.1513C32.7727 49.6577 31.9084 48.4509 31.9203 46.5307C30.8102 45.6322 29.8865 43.8393 29.601 42.0579C29.6089 41.5412 29.6803 41.0515 29.7675 40.5965C29.8072 40.4037 29.8468 40.2148 29.8865 40.0374C29.9895 39.5709 30.0768 39.1698 30.0847 38.8113C30.0926 38.4411 30.279 37.7008 30.5882 36.7677C30.382 37.6931 30.279 38.4295 30.2908 38.8035C30.3067 39.274 30.1759 39.8639 30.0807 40.5502C30.0609 42.7442 31.3415 45.3739 32.8361 46.5307C33.7519 47.109 33.9422 46.7736 34.1087 46.2916C34.3823 46.7389 34.751 47.1862 35.092 47.6219C35.1038 47.7722 35.1237 47.9303 35.1514 48.0961C35.1871 48.3043 35.2188 48.4933 35.2426 48.6745C35.3655 49.5459 35.5241 51.0227 35.8888 52.1178C35.5637 52.407 35.314 52.7733 35.1594 53.1781L35.1554 53.182ZM43.4651 65.6672C43.3859 65.6672 43.3105 65.7019 43.263 65.7636C43.2154 65.8253 43.1995 65.9063 43.2193 65.9795V65.995C42.9815 65.8677 42.7198 65.7945 42.47 65.7945H42.4621C42.133 65.7945 41.8476 65.9101 41.6177 66.1299C41.4155 66.0142 41.1459 65.9294 40.8604 65.9603C40.8009 65.968 40.7296 65.9795 40.6582 66.0027C40.8168 65.378 40.9516 64.7997 41.0626 64.2714C41.0705 64.229 41.0745 64.1866 41.0824 64.1442C41.6811 63.7509 42.0775 63.8511 42.4304 63.9475C42.6484 64.0053 42.8705 64.067 43.1083 63.9784C43.2986 64.6724 43.485 65.3009 43.596 65.6634H43.4651V65.6672ZM43.6475 56.1086C43.1599 55.3413 41.7604 57.4543 40.6741 56.98C40.6741 56.9299 40.6741 56.8759 40.6741 56.8258C40.682 56.579 40.7177 56.3592 40.7851 56.151C41.1379 55.0135 41.2053 53.9223 41.2886 52.5458C41.3084 52.2257 41.3282 51.8903 41.352 51.5355C41.3877 51.0651 41.4036 50.5716 41.4036 50.0742C41.4036 50.0742 41.4036 49.4997 41.4036 49.3184C41.4036 47.109 41.4036 45.6515 40.7217 44.4601C40.6582 44.3521 40.5274 44.302 40.4085 44.3482C40.2895 44.3907 40.2182 44.5102 40.2419 44.6297C40.6582 46.7659 40.1983 48.0923 39.6591 49.0292C39.4371 48.7092 39.2151 48.3892 38.8742 48.3236C38.0178 48.1578 37.324 47.2093 37.1456 45.185C37.1813 44.9382 37.213 44.6876 37.2289 44.4177C37.2447 44.1632 37.2447 43.8933 37.2289 43.6118C37.1496 42.3239 37.1139 40.8086 37.6689 39.1236C37.8751 38.4951 38.5134 37.1957 38.9455 36.4592C38.9455 36.4592 38.9455 36.4592 38.9455 36.4553C39.0843 36.3628 39.2032 36.2433 39.2944 36.1006C39.5719 35.6726 39.6354 35.0402 39.4609 34.4079C39.4847 34.0608 39.5244 33.683 39.5719 33.2897C42.4264 30.579 46.4584 31.4196 45.5743 34.1804C44.6743 36.999 46.7597 32.719 47.9372 34.4156C49.1147 36.1122 48.0641 33.7138 48.2861 31.8669C48.5081 30.0238 49.9631 27.8259 51.4934 30.0315C53.0237 32.237 55.2518 36.999 54.5739 33.602C53.9475 30.4595 56.3421 31.597 57.4918 34.4233C57.4918 34.593 57.3887 38.738 57.3808 38.8884C56.8099 39.1776 55.5769 38.7457 56.1875 40.5502C56.354 41.0438 56.4333 41.4178 56.4333 41.7031C56.4333 42.7442 55.3708 42.6324 53.555 43.1221C51.2397 43.7506 54.6571 44.8958 52.1119 48.1231C51.3903 49.037 51.0335 49.33 50.8194 49.33C50.2684 49.33 50.6212 47.4599 48.2861 49.0948C46.2998 50.4868 46.2364 49.2953 46.2126 48.2234C46.2205 48.2041 46.2324 48.1848 46.2364 48.1617C46.843 44.1362 46.0897 38.8035 45.5902 37.8781C45.5307 37.7663 45.3959 37.7162 45.277 37.7586C45.158 37.7972 45.0827 37.9206 45.1065 38.0401C45.7091 41.2096 45.3523 45.2505 44.9519 48.0846C44.821 48.9984 44.6942 49.7233 44.6228 50.1552L44.5832 50.3865C44.5197 50.7644 44.3294 51.497 44.1907 52.0175C43.8418 53.3131 43.707 54.9634 43.6475 56.1086ZM55.6443 55.8078C55.6047 55.8078 55.565 55.7847 55.5531 55.7461C55.5214 55.6652 55.462 55.5379 55.3866 55.3798C55.0259 54.6125 54.2805 53.0162 54.2171 51.47C54.2171 51.416 54.2567 51.3736 54.3122 51.3697C54.3717 51.3697 54.4113 51.4083 54.4153 51.4623C54.4787 52.9699 55.2122 54.5431 55.569 55.2989C55.6443 55.4646 55.7038 55.5919 55.7395 55.6767C55.7593 55.7268 55.7355 55.7808 55.684 55.8001C55.6721 55.804 55.6602 55.8078 55.6483 55.8078H55.6443ZM54.1061 47.8224C54.6215 47.2209 55.0933 46.5576 55.5095 45.8443C55.5373 45.798 55.5968 45.7826 55.6443 45.8096C55.6919 45.8366 55.7078 45.8944 55.68 45.9407C55.2598 46.6618 54.7801 47.3365 54.2567 47.9458C54.2369 47.9689 54.2092 47.9805 54.1814 47.9805C54.1576 47.9805 54.1378 47.9727 54.118 47.9573C54.0744 47.9226 54.0704 47.8609 54.1061 47.8224ZM48.9323 54.1228C48.9204 54.0727 48.9521 54.0187 49.0076 54.0071C49.0631 53.9956 49.1147 54.0264 49.1266 54.0804C49.2415 54.5508 49.6261 56.1973 49.8124 57.7396C49.8204 57.7936 49.7807 57.8399 49.7252 57.8476C49.7252 57.8476 49.7173 57.8476 49.7133 57.8476C49.6657 57.8476 49.6221 57.8129 49.6142 57.7627C49.4279 56.2358 49.0433 54.5932 48.9323 54.1267V54.1228ZM51.7234 62.49C51.7234 62.49 51.6758 62.5054 51.6322 62.4823C51.5608 62.4476 51.4736 62.4476 51.4022 62.4823C51.3309 62.517 51.2793 62.5825 51.2674 62.6635L51.1168 63.4925C51.1128 63.5234 51.1128 63.5504 51.1168 63.5812L51.2199 64.1442C50.423 63.7663 49.8521 64.1943 49.6539 64.3832C49.5349 64.2753 49.2851 64.0863 48.9838 64.0709C48.9521 64.0709 48.9204 64.0709 48.8847 64.0786C49.0909 63.6198 49.3486 63.0568 49.6182 62.5093C49.7292 62.1507 49.8164 61.7497 49.8759 61.2831C49.9591 60.6353 49.971 59.949 49.9433 59.2549C50.4983 58.2023 51.2714 57.5661 51.6639 58.3488C51.652 58.6573 51.6401 58.9812 51.6322 59.3166C51.5965 60.7279 51.5965 61.8576 51.5965 61.8692C51.5965 61.8885 51.5965 61.9078 51.6044 61.927L51.7273 62.4322C51.7273 62.4322 51.7432 62.4823 51.7273 62.4939L51.7234 62.49ZM54.0228 53.7064C53.9435 53.7527 53.8642 53.7951 53.781 53.8298C53.6739 53.876 53.6145 53.9879 53.6383 54.0997C53.67 54.2693 53.7215 54.6781 53.6065 55.0598C53.4995 54.8361 53.4361 54.5662 53.4281 54.2848C53.4281 54.2115 53.3885 54.1421 53.329 54.0958C53.2695 54.0496 53.1903 54.0341 53.1149 54.0496C52.996 54.0765 52.8771 54.092 52.7581 54.0997C52.6907 54.1035 52.6233 54.1344 52.5797 54.1845C52.5361 54.2346 52.5123 54.3002 52.5163 54.3696C52.5401 54.6626 52.441 54.9788 52.3498 55.2102C52.2467 54.894 52.2031 54.5585 52.2427 54.358C52.2546 54.2925 52.2427 54.2231 52.1991 54.1652C52.1595 54.1112 52.096 54.0727 52.0286 54.0611C51.874 54.038 51.7194 54.0033 51.5687 53.957C50.4151 53.6138 49.8283 52.7656 49.5428 52.1101C49.4675 51.9404 49.3605 51.79 49.2296 51.6666C49.3129 51.6319 49.4001 51.6049 49.4834 51.5702C50.2446 51.2618 50.978 50.8762 51.6679 50.4251C51.9057 50.2708 52.1357 50.105 52.3577 49.9392C52.7462 49.65 53.1149 49.3416 53.4559 49.0138C53.8404 49.5421 53.8246 50.1127 53.8087 50.9263V51.1037C53.7929 51.6821 53.9515 52.5072 54.2726 53.5522C54.1893 53.6061 54.1061 53.6601 54.0228 53.7064ZM58.6217 64.175C58.483 64.1056 58.3323 64.0709 58.1856 64.0825C57.9993 64.0979 57.7456 64.1904 57.5116 64.5259C57.4165 64.3331 57.2341 64.1519 57.0161 64.0516C56.8099 63.9552 56.5879 63.9437 56.3698 63.9976L56.461 63.6506C56.469 63.6236 56.469 63.5928 56.469 63.5658C56.469 63.5465 56.2985 61.7073 56.4452 60.5428C56.5205 59.949 56.4848 59.2125 56.3738 58.4491C56.6513 57.9555 56.6434 57.6856 57.139 58.6303C57.3332 59.8449 57.6544 60.9785 57.9596 61.5415C58.138 61.8615 58.3878 62.5787 58.6217 64.1789V64.175ZM35.6391 35.287C35.6192 35.3564 35.5518 35.4991 35.2981 35.4991C35.2664 35.4991 35.2307 35.4991 35.1911 35.4914C35.0206 35.4682 34.9135 35.422 34.862 35.3487C34.8025 35.2677 34.8224 35.1675 34.8422 35.0711C34.862 34.967 34.8858 34.8629 34.8224 34.7626C34.6836 34.5428 34.5567 34.0377 34.6677 33.9567C34.6836 33.9452 34.7312 33.922 34.7906 33.9876C34.9215 34.138 34.9651 34.2691 35.0047 34.3732C35.0523 34.512 35.088 34.6045 35.2862 34.6894C35.532 34.7896 35.7025 35.0749 35.643 35.287H35.6391ZM37.8077 35.4991C37.554 35.4991 37.4826 35.3564 37.4667 35.287C37.4073 35.0749 37.5777 34.7896 37.8235 34.6894C38.0218 34.6084 38.0535 34.5158 38.105 34.3732C38.1407 34.2691 38.1883 34.138 38.3191 33.9876C38.3786 33.922 38.4262 33.9452 38.442 33.9567C38.5491 34.0339 38.442 34.5197 38.2874 34.7626C38.224 34.8629 38.2478 34.967 38.2676 35.0711C38.2874 35.1675 38.3072 35.2677 38.2478 35.3487C38.1962 35.422 38.0892 35.4644 37.9187 35.4914C37.8791 35.4952 37.8434 35.4991 37.8117 35.4991H37.8077ZM50.5657 43.045C50.6926 42.1466 50.752 41.2366 50.7441 40.3305C50.7441 39.4243 50.6727 38.5182 50.5498 37.6159C50.4904 37.1648 50.4032 36.7175 50.304 36.2702L50.1455 35.6032C50.0781 35.3834 50.0146 35.1636 49.9552 34.94C50.3794 35.7651 50.6569 36.6597 50.8512 37.5658C51.0454 38.4719 51.1326 39.4012 51.1445 40.3305C51.1445 41.2597 51.0692 42.189 50.871 43.099C50.6727 44.0051 50.3754 44.9035 49.8759 45.6901C50.0424 45.2582 50.2049 44.8302 50.304 44.3829C50.3635 44.1632 50.419 43.9434 50.4587 43.7197C50.5062 43.4961 50.5419 43.2725 50.5736 43.0488L50.5657 43.045ZM51.0811 36.8101C50.9344 35.9772 50.7164 35.1559 50.4468 34.3423C50.6609 34.7163 50.8274 35.1135 50.9899 35.5145C51.1406 35.9194 51.2635 36.3319 51.3784 36.7484C51.6005 37.5851 51.7154 38.4411 51.767 39.3009C51.8066 40.1608 51.7789 41.0284 51.6401 41.8805C51.5013 42.7288 51.2793 43.5771 50.8829 44.3444C51.0018 43.9318 51.1049 43.5192 51.1683 43.099C51.2436 42.6825 51.3031 42.2622 51.3348 41.8419C51.4022 41.0014 51.4181 40.1569 51.3705 39.3164C51.3309 38.4758 51.2278 37.6352 51.0811 36.8024V36.8101ZM51.6044 36.0119C51.43 35.2484 51.208 34.4927 50.9344 33.7485C51.767 35.1173 52.2031 36.7021 52.3815 38.2869C52.544 39.8716 52.4489 41.5142 51.8899 43.0103C52.0207 42.2275 52.0762 41.4448 52.096 40.6621C52.1079 39.8793 52.0722 39.1004 51.989 38.3254C51.9097 37.5504 51.7789 36.7792 51.6044 36.0158V36.0119ZM52.6114 37.3345C52.3696 35.9078 51.9811 34.5158 51.426 33.1509C52.2625 34.3809 52.7462 35.8191 53 37.2728C53.2458 38.7303 53.2537 40.2379 52.9008 41.6684C52.9405 40.2032 52.8572 38.7611 52.6114 37.3345ZM53.2339 36.3551C52.9167 35.0557 52.4806 33.7909 51.9137 32.5494C52.7542 33.6406 53.2854 34.94 53.6184 36.2625C53.9396 37.5889 54.0664 38.9693 53.9078 40.3227C53.7532 38.9732 53.559 37.6506 53.2339 36.3512V36.3551ZM53.551 53.5637C53.5669 53.6138 53.5391 53.6678 53.4876 53.6871C53.1823 53.7874 52.885 53.8298 52.5995 53.8298C51.1604 53.8298 50.0067 52.7231 49.6935 51.9327C49.6737 51.8826 49.7014 51.8286 49.749 51.8093C49.8005 51.79 49.856 51.817 49.8759 51.8633C50.1613 52.592 51.5886 54.0997 53.4202 53.5059C53.4717 53.4905 53.5272 53.5174 53.5471 53.5676L53.551 53.5637ZM41.8278 51.0921C41.9229 52.8697 41.7049 54.4737 41.5027 55.5071C41.4947 55.5533 41.4511 55.5842 41.4036 55.5842C41.3956 55.5842 41.3917 55.5842 41.3837 55.5842C41.3282 55.5726 41.2926 55.5225 41.3044 55.4724C41.5027 54.4506 41.7207 52.862 41.6256 51.1037C41.6256 51.0497 41.6652 51.0034 41.7207 51.0034C41.7762 50.9996 41.8238 51.042 41.8238 51.096L41.8278 51.0921Z" fill="white"/>
</svg>
