<svg width="88" height="89" viewBox="0 0 88 89" fill="none" xmlns="http://www.w3.org/2000/svg">
<path d="M53.0029 42.1844V68.4243C53.0029 68.4929 52.948 68.5467 52.8781 68.5467C52.8083 68.5467 52.7533 68.4929 52.7533 68.4243V42.1844C52.7533 42.1159 52.8083 42.062 52.8781 42.062C52.948 42.062 53.0029 42.1159 53.0029 42.1844ZM52.369 35.5363C52.6235 35.9231 52.7583 36.3686 52.7583 36.8239V37.612C52.7583 37.6806 52.8132 37.7344 52.8831 37.7344C52.953 37.7344 53.0079 37.6806 53.0079 37.612V36.8239C53.0079 36.3245 52.8582 35.8301 52.5786 35.4042L50.7865 32.7067C50.1725 31.7864 49.853 30.7192 49.853 29.6226V26.7293C49.853 26.6608 49.7981 26.6069 49.7282 26.6069C49.6584 26.6069 49.6034 26.6608 49.6034 26.7293V29.6226C49.6034 30.7681 49.9429 31.8843 50.5819 32.8438L52.374 35.5412L52.369 35.5363ZM61 47.6331C61 48.9794 59.8868 50.0711 58.519 50.0711C58.0148 50.0711 57.5356 49.9193 57.1213 49.6403C56.1828 49.8361 55.1195 49.9536 54.0313 49.9976V68.4243C54.0313 69.3055 53.3624 70.0349 52.4738 70.128C50.8315 70.2993 47.422 70.5 40.5181 70.5C33.6143 70.5 30.2048 70.2944 28.5575 70.128C27.6689 70.0398 27 69.3055 27 68.4243V36.8239C27 36.1434 27.1997 35.4776 27.584 34.8999L29.3761 32.2025C29.8853 31.4339 30.1549 30.5429 30.1549 29.6226V26.2496C29.8354 26.1223 29.6108 25.8188 29.6108 25.4663C29.6108 25.3684 29.6307 25.2803 29.6607 25.1921C29.3362 25.0698 29.1016 24.7662 29.1016 24.404C29.1016 23.934 29.491 23.5522 29.9652 23.5522H30.5742C31.2132 22.6024 33.1301 22.1814 37.2185 22.0639H37.2285C37.2933 22.0639 37.3532 22.059 37.4131 22.0541L37.2634 21.0555C36.7642 17.6482 44.2571 17.6482 43.7579 21.0555L43.6081 22.0541C47.8263 22.1667 49.8031 22.5926 50.4471 23.5522H51.0561C51.5303 23.5522 51.9197 23.934 51.9197 24.404C51.9197 24.7662 51.6851 25.0747 51.3606 25.1921C51.3905 25.2803 51.4105 25.3684 51.4105 25.4663C51.4105 25.8237 51.1859 26.1223 50.8664 26.2496V29.6226C50.8664 30.5429 51.136 31.4339 51.6451 32.1976L53.4372 34.895C53.8166 35.4727 54.0213 36.1385 54.0213 36.819V40.1234L59.118 47.2072C59.3577 47.5401 59.2778 47.9954 58.9383 48.2304C58.8784 48.2744 58.8085 48.3038 58.7437 48.3234C58.8185 48.3479 58.8984 48.3626 58.9783 48.3626C59.138 48.3626 59.2978 48.3136 59.4375 48.2206C59.7969 47.9709 59.8868 47.4814 59.6322 47.1289L58.2544 45.2147C58.3393 45.205 58.4242 45.1952 58.509 45.1952C59.8768 45.1952 60.99 46.2869 60.99 47.6282L61 47.6331ZM52.4039 69.4915C52.963 69.4328 53.3823 68.9775 53.3823 68.4243V41.7732L45.2505 30.4793H43.2188C42.4051 30.4793 41.7412 29.8331 41.7412 29.0302V28.3595C41.7412 27.5616 42.4001 26.9105 43.2188 26.9105H46.5534C47.3671 26.9105 48.031 27.5567 48.031 28.3595V29.0302C48.031 29.51 47.7914 29.9359 47.422 30.1953L45.8545 28.0217C45.5899 27.6546 45.0758 27.5714 44.7064 27.8259C44.6065 27.8945 44.5266 27.9875 44.4667 28.0854C44.8012 27.8602 45.2655 27.9385 45.5001 28.2665L53.3873 39.2178V36.8141C53.3873 36.256 53.2226 35.7077 52.9081 35.2328L51.116 32.5354C50.5369 31.664 50.2274 30.6506 50.2274 29.6128V26.3034H35.3765L34.6726 29.2358L34.8074 26.3034H34.3082L34.0486 27.9777V27.9581C34.0137 28.291 33.9238 28.5309 33.8389 28.805C33.7541 29.0694 33.6592 29.3288 33.5544 29.5883C33.3497 30.1023 33.1351 30.6164 32.8306 31.0814C33.0652 30.5821 33.205 30.0534 33.3397 29.5247C33.4046 29.2603 33.4595 28.9911 33.5095 28.7267C33.5544 28.4672 33.6043 28.1784 33.5943 27.9581L33.6193 26.3034H33.155C33.155 26.3034 32.9004 28.6973 32.8106 29.3925C32.6658 30.0828 32.3463 30.6653 32.0319 31.2479C31.7074 31.8255 31.3529 32.3787 30.9835 32.9221C31.2881 32.3396 31.5826 31.7521 31.8372 31.1549C32.0868 30.5576 32.3314 29.9408 32.3863 29.3337C32.4013 28.7316 32.3863 28.0413 32.3963 27.3951V26.2985H31.967L31.8222 28.1539C31.7523 28.9617 31.7124 29.7254 31.6175 30.5723C31.4628 31.4339 30.9636 32.1144 30.5143 32.7753C30.0501 33.4362 29.5758 34.0873 29.1365 34.758C29.5159 34.0481 29.9303 33.3578 30.3296 32.6627C30.719 31.9724 31.1283 31.2577 31.1882 30.5136C31.2082 29.7645 31.1832 28.9274 31.1832 28.1392L31.1682 26.2985H30.8188V29.6079C30.8188 30.6506 30.5143 31.664 29.9303 32.5354L28.1481 35.223C29.5409 35.4384 30.9586 35.5804 32.3813 35.6881C34.0636 35.8203 35.7508 35.9084 37.4431 35.9818C40.8276 36.1385 44.2122 36.1825 47.6067 36.2756C44.2221 36.4273 40.8326 36.628 37.4381 36.7162C35.7408 36.7651 34.0386 36.7945 32.3364 36.7896C30.7938 36.7798 29.2464 36.7406 27.6839 36.5987C27.6789 36.6721 27.6689 36.7406 27.6689 36.8141V68.4145C27.6689 68.7915 27.8686 69.1195 28.1681 69.3153C28.1531 69.2663 28.1282 69.2223 28.1132 69.1733C28.0533 68.9824 28.0084 68.7866 27.9884 68.5761C27.9734 68.4831 27.9734 68.3313 27.9734 68.2579L28.4277 37.5435L28.882 68.2579C28.882 68.3607 28.882 68.3852 28.8969 68.4635C28.9169 68.6054 28.9568 68.7523 29.0018 68.8894C29.0766 69.1195 29.1964 69.3349 29.3312 69.5405C29.3612 69.5405 29.3961 69.5454 29.4311 69.5503C29.4061 69.4768 29.3712 69.4083 29.3462 69.3349C29.2963 69.1586 29.2564 68.9824 29.2314 68.7915C29.2214 68.7083 29.2164 68.5663 29.2214 68.5026L29.6757 40.9361L30.1299 68.2677C30.1349 68.4292 30.1299 68.5908 30.1449 68.6838C30.1649 68.8062 30.1948 68.9383 30.2398 69.0607C30.3047 69.2614 30.4045 69.4475 30.5193 69.6237C30.5592 69.6237 30.5942 69.6237 30.6291 69.6286C30.6141 69.5845 30.5942 69.5454 30.5792 69.5013C30.5343 69.3447 30.4993 69.1831 30.4794 69.0118C30.4594 68.8111 30.4794 68.6789 30.4744 68.5418L30.9286 44.3287L31.3829 68.5369C31.3879 68.6789 31.3829 68.8257 31.3979 68.9041C31.4129 69.0118 31.4428 69.1244 31.4778 69.2321C31.5327 69.3936 31.6075 69.5405 31.6974 69.6825C31.7423 69.6825 31.7823 69.6825 31.8272 69.6874C31.8272 69.6776 31.8222 69.6727 31.8172 69.6629C31.7773 69.5209 31.7473 69.3789 31.7323 69.2272C31.7124 69.046 31.7323 68.9334 31.7323 68.816L32.1866 47.7212L32.6409 68.8111C32.6409 68.9334 32.6409 69.0656 32.6558 69.1244C32.6708 69.2125 32.6958 69.3104 32.7257 69.3985C32.7657 69.5111 32.8156 69.6188 32.8755 69.7265C32.9304 69.7265 32.9903 69.7265 33.0502 69.7314C33.0302 69.6384 33.0053 69.5503 32.9953 69.4475C32.9803 69.2663 32.9953 69.2027 32.9953 69.0901L33.4496 51.1138L33.9038 69.0803C33.9038 69.1733 33.9038 69.3153 33.9138 69.3447C33.9238 69.4181 33.9438 69.4964 33.9687 69.5699C33.9887 69.6335 34.0186 69.6971 34.0486 69.7608C34.1235 69.7608 34.1934 69.7608 34.2682 69.7657C34.2682 69.7314 34.2533 69.702 34.2483 69.6678L34.7025 54.5113L35.1618 69.5503C35.1618 69.5503 35.1618 69.5601 35.1618 69.5699C35.1718 69.6237 35.1867 69.6874 35.2067 69.7461C35.2117 69.7608 35.2217 69.7755 35.2267 69.7902C35.3115 69.7902 35.4064 69.7901 35.4913 69.795L35.9505 57.9088L36.4098 69.7853V69.795C36.4098 69.795 36.4148 69.8097 36.4148 69.8146C36.5296 69.8146 36.6394 69.8146 36.7542 69.8146L37.1985 61.3014L37.6478 69.8244C37.7776 69.8244 37.8974 69.8244 38.0321 69.8244L38.4565 64.6939L38.8808 69.8293C39.0505 69.8293 39.2202 69.8293 39.3949 69.8293L39.7094 68.0865L40.0239 69.8293C40.1987 69.8293 40.3634 69.8293 40.5381 69.8293C47.412 69.8293 50.7965 69.6286 52.4239 69.4573L52.4039 69.4915ZM35.631 25.2509L35.5262 25.6768H50.5519C50.6717 25.6768 50.7715 25.5838 50.7715 25.4663C50.7715 25.3488 50.6717 25.2509 50.5519 25.2509H35.631ZM51.0661 24.1886H35.5112C35.4563 24.3452 35.4763 24.497 35.5212 24.6145H51.0661C51.1859 24.6145 51.2807 24.5215 51.2807 24.404C51.2807 24.2865 51.1859 24.1886 51.0661 24.1886ZM49.5136 23.5522C48.4253 22.9108 45.8295 22.7493 43.5582 22.6905C42.6846 22.6661 41.6912 22.6563 40.5181 22.6563C39.345 22.6563 38.3466 22.6661 37.4731 22.6905C37.4082 22.6905 37.3333 22.6905 37.2684 22.7003C37.2584 22.7003 37.2484 22.7003 37.2384 22.7003C36.879 22.7101 36.5046 22.7248 36.1202 22.7444C35.7359 22.9011 35.4913 23.1067 35.4264 23.3025C35.3964 23.3857 35.4064 23.4689 35.4413 23.5522H49.5086H49.5136ZM38.0072 20.9526L38.107 21.6282C38.8209 21.6135 42.2054 21.6135 42.9192 21.6282L43.0191 20.9575C43.074 20.5806 42.9891 20.2673 42.7545 20.0078C42.3352 19.533 41.4766 19.2392 40.5082 19.2392C39.5397 19.2392 38.6811 19.533 38.2618 20.0078C38.0322 20.2722 37.9423 20.5806 37.9972 20.9575L38.0072 20.9526ZM54.0313 45.2735C54.7152 45.298 55.3891 45.3616 56.028 45.4497L54.0313 42.6789V45.2735Z" fill="white"/>
</svg>
