<svg width="36" height="36" fill="none" xmlns="http://www.w3.org/2000/svg"><path d="M19 4.5a1 1 0 10-2 0h2zM17 21a1 1 0 102 0h-2zm7.707-2.293a1 1 0 00-1.414-1.414l1.414 1.414zm-5.646 4.232l-.707-.707.707.707zm-2.122 0l.707-.707-.707.707zm-4.232-5.646a1 1 0 00-1.414 1.414l1.414-1.414zM5.5 24a1 1 0 10-2 0h2zm27 0a1 1 0 10-2 0h2zm-3.457 7.01l-.454-.892.454.892zm1.966-1.967l.892.454-.892-.454zm-26.019 0l-.89.454.89-.454zm1.967 1.966l-.454.892.454-.892zM18 4.5h-1V21h2V4.5h-1zM24 18l-.707-.707-4.94 4.94.708.706.707.707 4.94-4.939L24 18zm-7.06 4.94l.706-.708-4.939-4.94L12 18l-.707.707 4.94 4.94.706-.708zm2.12 0l-.706-.708a.5.5 0 01-.708 0l-.707.707-.707.707a2.5 2.5 0 003.536 0l-.707-.707zM4.5 24h-1v.3h2V24h-1zm7.2 7.5v1h12.6v-2H11.7v1zm19.8-7.2h1V24h-2v.3h1zm-7.2 7.2v1c1.244 0 2.236 0 3.037-.065.812-.066 1.514-.205 2.16-.535l-.454-.89-.454-.892c-.317.162-.726.268-1.415.324-.7.057-1.597.058-2.874.058v1zm7.2-7.2h-1c0 1.277 0 2.174-.058 2.874-.056.689-.162 1.098-.323 1.415l.89.454.892.454c.329-.646.468-1.348.534-2.16.066-.8.065-1.793.065-3.037h-1zm-2.457 6.71l.454.89a5.5 5.5 0 002.404-2.403l-.892-.454-.89-.454a3.5 3.5 0 01-1.53 1.53l.454.89zM4.5 24.3h-1c0 1.244 0 2.236.065 3.037.066.812.205 1.514.534 2.16l.891-.454.891-.454c-.161-.317-.267-.726-.323-1.415-.057-.7-.058-1.597-.058-2.874h-1zm7.2 7.2v-1c-1.277 0-2.174 0-2.874-.058-.689-.056-1.098-.162-1.415-.323l-.454.89-.454.892c.646.329 1.348.468 2.16.534.8.066 1.793.065 3.037.065v-1zm-6.71-2.457l-.89.454a5.5 5.5 0 002.403 2.404l.454-.892.454-.89a3.5 3.5 0 01-1.53-1.53l-.89.454z" fill="#fff"/></svg>