<svg width="85" height="79" viewBox="0 0 85 79" fill="none" xmlns="http://www.w3.org/2000/svg">
<path d="M62.6232 55.6177H59.4693V64.2361H62.6232V55.6177ZM62.0231 59.6521V60.2151H60.0694V59.6521H62.0231ZM60.0694 59.0489V58.486H62.0231V59.0489H60.0694ZM62.0231 60.8182V61.3812H60.0694V60.8182H62.0231ZM62.0231 57.8828H60.0694V57.3199H62.0231V57.8828ZM60.0694 61.9776H62.0231V62.5406H60.0694V61.9776ZM62.0231 56.2208V56.7167H60.0694V56.2208H62.0231ZM60.0694 63.6396V63.1437H62.0231V63.6396H60.0694ZM22.3768 64.2428H25.5307V55.6244H22.3768V64.2428ZM22.9769 60.2084V59.6454H24.9306V60.2084H22.9769ZM24.9306 60.8182V61.3812H22.9769V60.8182H24.9306ZM22.9769 59.0489V58.486H24.9306V59.0489H22.9769ZM22.9769 61.9776H24.9306V62.5406H22.9769V61.9776ZM24.9306 57.8828H22.9769V57.3199H24.9306V57.8828ZM22.9769 63.6396V63.1437H24.9306V63.6396H22.9769ZM24.9306 56.2208V56.7167H22.9769V56.2208H24.9306ZM61.2563 74.8315H64.4101V66.2131H61.2563V74.8315ZM61.8564 70.7971V70.2341H63.81V70.7971H61.8564ZM63.81 71.4002V71.9632H61.8564V71.4002H63.81ZM61.8564 69.631V69.068H63.81V69.631H61.8564ZM61.8564 72.5663H63.81V73.1293H61.8564V72.5663ZM63.81 68.4716H61.8564V67.9086H63.81V68.4716ZM61.8564 74.2217V73.7257H63.81V74.2217H61.8564ZM63.81 66.8096V67.3055H61.8564V66.8096H63.81ZM23.7437 66.2064H20.5899V74.8248H23.7437V66.2064ZM23.1436 70.2341V70.7971H21.19V70.2341H23.1436ZM21.19 69.631V69.068H23.1436V69.631H21.19ZM23.1436 71.4002V71.9632H21.19V71.4002H23.1436ZM23.1436 68.4716H21.19V67.9086H23.1436V68.4716ZM21.19 72.5663H23.1436V73.1293H21.19V72.5663ZM23.1436 66.8096V67.3055H21.19V66.8096H23.1436ZM21.19 74.2217V73.7257H23.1436V74.2217H21.19ZM18.9896 53.5535L0 66.0523V67.8684L1.63358 66.7895V79H83.3664V66.7895L85 67.8684V66.0523L66.0104 53.5535V44.5397L67.6839 46.1012V43.9969L52.0948 29.434C52.1148 29.3871 52.1282 29.3335 52.1282 29.2799V13.7452H53.9618L42.5 0L31.0382 13.7452H32.8718V29.2799C32.8718 29.3335 32.8851 29.3871 32.9052 29.434L17.3161 43.9969V46.1012L18.9896 44.5397V53.5535ZM2.50039 66.7425L17.7828 56.6832L17.3161 78.1355H2.50039V66.7492V66.7425ZM49.9678 56.7167C50.0612 56.7167 50.1345 56.7905 50.1345 56.8843C50.1345 56.9781 50.0612 57.0518 49.9678 57.0518H35.0988V77.8674C35.0988 77.9612 35.0255 78.035 34.9321 78.035C34.8388 78.035 34.7654 77.9612 34.7654 77.8674V56.7167H49.9678ZM50.9947 67.9153H56.0088L50.9947 76.2657V67.9153ZM57.189 66.575H52.1749L57.189 58.2246V66.575ZM57.189 68.5453V77.5658H51.7748L57.189 68.5453ZM50.9947 65.945V56.9245H56.4088L50.9947 65.945ZM32.8318 66.575H27.8177V58.2246L32.8318 66.575ZM34.012 76.2657L28.9979 67.9153H34.012V76.2657ZM27.8177 68.5453L33.2319 77.5658H27.8177V68.5453ZM34.012 65.945L28.5978 56.9245H34.012V65.945ZM65.1435 78.1355H58.4358V55.9259C58.4358 55.7852 58.3225 55.678 58.1825 55.678H26.8109C26.6708 55.678 26.5642 55.7919 26.5642 55.9259V78.1355H19.8564V45.679H65.1435V78.1355ZM82.4996 78.1355H67.964L67.5039 56.8776L82.4996 66.7492V78.1355ZM19.8898 43.6953L42.5 22.5714L65.1102 43.6953H19.8831H19.8898ZM45.3471 23.1277V17.4379L45.6405 17.4245L45.3471 17.4111V16.0909L48.1876 15.9568L45.3471 15.8228V14.6969L48.781 14.5629V26.3311L45.3471 23.1277ZM42.3666 1.50789L43.7735 12.8606H41.1798L41.2331 10.7831L40.333 12.8606H39.5062L40.7997 8.43078L38.4527 12.8606H37.8193L40.9798 6.16559L36.5657 12.8606H36.119L41.1198 4.6644C41.1198 4.6644 34.6721 12.8539 34.6654 12.8606H34.4254L42.3133 2.14455L35.0255 10.314L42.3733 1.50789H42.3666ZM48.5009 12.8673L43.7269 3.16322L50.2212 12.8673H48.5009ZM46.1872 12.8673L43.2468 2.95546L48.1276 12.8673H46.1872ZM45.8405 12.8673H44.1136L42.8934 2.92195L45.8405 12.8673ZM35.1588 15.099L39.6529 14.9248V15.5614L35.1588 15.3537V15.099ZM35.1588 13.8793V13.7385H39.6529V14.0535L35.1588 13.8793ZM35.1588 19.4551L39.6529 19.1334V20.2727L35.1588 19.8371V19.4551ZM35.1588 18.3292V18.0075L39.6529 17.7596V18.6509L35.1588 18.3292ZM35.1588 16.8347V16.5533L39.6529 16.3455V17.0827L35.1588 16.8347ZM39.9863 16.3321L45.0137 16.0976V17.3843L39.9863 17.1028V16.3321ZM39.9863 15.5815V14.9114L45.0137 14.717V15.8161L39.9863 15.5815ZM39.9863 14.0669V13.7385H45.0137V14.268L39.9863 14.0736V14.0669ZM35.1588 22.2631L37.9993 21.8275L35.1588 21.3919V20.8826L39.6529 20.447V22.2766L35.1588 25.1248V22.2698V22.2631ZM39.9863 22.0621V20.4135L40.5464 20.3599L39.9863 20.3062V19.1133L43.0934 18.8922L39.9863 18.671V17.7395L45.0137 17.458V22.8127L42.5 20.4604L39.9863 22.0554V22.0621ZM45.3471 14.2747V13.7318H48.781V14.4087L45.3471 14.2747ZM50.6146 12.8673L44.5803 3.84679L52.1015 12.8673H50.6146ZM51.2614 28.6499L49.1144 26.6461V14.5562L50.7346 14.4958L49.1144 14.4355V13.7452H51.2614V28.6566V28.6499ZM71.0978 60.2955C71.0978 60.2016 71.1712 60.1279 71.2579 60.1212C71.3445 60.1212 71.4245 60.1949 71.4312 60.2821L71.8779 77.0029C71.8779 77.0967 71.8046 77.1704 71.7179 77.1771C71.6312 77.1771 71.5512 77.1034 71.5446 77.0163L71.0978 60.2955ZM13.8088 60.4764L13.4554 77.157C13.4554 77.2508 13.3821 77.3179 13.2887 77.3179C13.1954 77.3179 13.1221 77.2374 13.1221 77.1436L13.4754 60.463C13.4754 60.3692 13.5488 60.3022 13.6421 60.3022C13.7355 60.3022 13.8088 60.3826 13.8088 60.4764ZM73.1715 77.09V61.5018C73.1715 61.408 73.2448 61.3342 73.3382 61.3342C73.4315 61.3342 73.5049 61.408 73.5049 61.5018V77.09C73.5049 77.1838 73.4315 77.2576 73.3382 77.2576C73.2448 77.2576 73.1715 77.1838 73.1715 77.09ZM11.8552 61.6693L11.8352 77.1168C11.8352 77.2106 11.7618 77.2844 11.6685 77.2844C11.5752 77.2844 11.5018 77.2106 11.5018 77.1168L11.5218 61.6693C11.5218 61.5755 11.5952 61.5018 11.6885 61.5018C11.7818 61.5018 11.8552 61.5755 11.8552 61.6693ZM74.7251 77.0833L75.0851 62.7684C75.0851 62.6746 75.1651 62.6076 75.2518 62.6076C75.3452 62.6076 75.4185 62.688 75.4185 62.7818L75.0584 77.0967C75.0584 77.1905 74.9784 77.2576 74.8917 77.2576C74.7984 77.2576 74.7251 77.1771 74.7251 77.0833ZM9.92154 63.1035L10.2749 77.2106C10.2749 77.3045 10.2016 77.3782 10.1149 77.3849C10.0216 77.3849 9.94821 77.3112 9.94154 77.224L9.58815 63.1169C9.58815 63.0231 9.66151 62.9494 9.74819 62.9427C9.85488 62.9494 9.91487 63.0164 9.92154 63.1035ZM77.1988 76.9627V64.2361C77.1988 64.1423 77.2721 64.0686 77.3655 64.0686C77.4588 64.0686 77.5322 64.1423 77.5322 64.2361V76.9627C77.5322 77.0565 77.4588 77.1302 77.3655 77.1302C77.2721 77.1302 77.1988 77.0565 77.1988 76.9627ZM7.80121 64.3232V77.1034C7.80121 77.1972 7.72787 77.271 7.63452 77.271C7.54117 77.271 7.46783 77.1972 7.46783 77.1034V64.3232C7.46783 64.2294 7.54117 64.1557 7.63452 64.1557C7.72787 64.1557 7.80121 64.2294 7.80121 64.3232ZM81.0194 77.224V66.6353C81.0194 66.5415 81.0927 66.4678 81.1861 66.4678C81.2794 66.4678 81.3528 66.5415 81.3528 66.6353V77.224C81.3528 77.3179 81.2794 77.3916 81.1861 77.3916C81.0927 77.3916 81.0194 77.3179 81.0194 77.224ZM3.98063 66.8297V77.2911C3.98063 77.3849 3.90728 77.4586 3.81393 77.4586C3.72058 77.4586 3.64724 77.3849 3.64724 77.2911V66.8297C3.64724 66.7358 3.72058 66.6621 3.81393 66.6621C3.90728 66.6621 3.98063 66.7358 3.98063 66.8297ZM21.35 65.3486L21.31 46.5301C21.31 46.4363 21.3834 46.3626 21.4767 46.3626C21.57 46.3626 21.6434 46.4363 21.6434 46.5301L21.6834 65.3486C21.6834 65.4424 21.6101 65.5161 21.5167 65.5161C21.4234 65.5161 21.35 65.4424 21.35 65.3486ZM25.0906 65.047L25.344 77.4921C25.344 77.5859 25.2706 77.6597 25.1773 77.6664C25.0839 77.6664 25.0106 77.5926 25.0106 77.5055L24.7572 65.0604C24.7572 64.9666 24.8305 64.8929 24.9239 64.8862C25.0372 64.8862 25.0906 64.9599 25.0906 65.047ZM22.3235 75.5352L22.2835 77.5055C22.2835 77.5993 22.2101 77.6664 22.1168 77.6664C22.0234 77.6664 21.9501 77.5859 21.9501 77.4921L21.9901 75.5218C21.9901 75.428 22.0701 75.3744 22.1635 75.361C22.2568 75.361 22.3302 75.4414 22.3235 75.5352ZM23.3303 54.7866L23.277 46.6172C23.277 46.5234 23.3503 46.4497 23.4437 46.4497C23.537 46.4497 23.6104 46.5234 23.6104 46.6172L23.6637 54.7866C23.6637 54.8805 23.5904 54.9542 23.497 54.9542C23.4037 54.9542 23.3303 54.8805 23.3303 54.7866ZM27.3443 46.6105L27.6443 54.7799C27.6443 54.8738 27.5777 54.9475 27.4843 54.9542C27.3976 54.9542 27.3176 54.8805 27.3109 54.7934L27.0109 46.6239C27.0109 46.5301 27.0776 46.4564 27.1709 46.4497C27.2709 46.4497 27.3376 46.5167 27.3443 46.6105ZM29.7713 46.6105L29.858 54.7799C29.858 54.8738 29.7847 54.9475 29.6913 54.9475C29.598 54.9475 29.5246 54.8738 29.5246 54.7799L29.438 46.6105C29.438 46.5167 29.5113 46.443 29.6046 46.443C29.6913 46.4296 29.7713 46.5167 29.7713 46.6105ZM32.0717 46.6239L31.6916 54.7934C31.6916 54.8805 31.6116 54.9542 31.5249 54.9542H31.5183C31.4249 54.9542 31.3583 54.8738 31.3583 54.7799L31.7383 46.6105C31.7383 46.5167 31.825 46.443 31.9117 46.4497C32.005 46.4497 32.0717 46.5301 32.0717 46.6239ZM33.4719 46.6172V54.7866C33.4719 54.8805 33.3986 54.9542 33.3052 54.9542C33.2119 54.9542 33.1385 54.8805 33.1385 54.7866V46.6172C33.1385 46.5234 33.2119 46.4497 33.3052 46.4497C33.3986 46.4497 33.4719 46.5234 33.4719 46.6172ZM37.8793 46.6105L37.966 54.7799C37.966 54.8738 37.8926 54.9475 37.7993 54.9475C37.7059 54.9475 37.6326 54.8738 37.6326 54.7799L37.5459 46.6105C37.5459 46.5167 37.6192 46.443 37.7126 46.443C37.8059 46.443 37.8793 46.5167 37.8793 46.6105ZM39.9863 46.6172V54.7866C39.9863 54.8805 39.9129 54.9542 39.8196 54.9542C39.7262 54.9542 39.6529 54.8805 39.6529 54.7866V46.6172C39.6529 46.5234 39.7262 46.4497 39.8196 46.4497C39.9129 46.4497 39.9863 46.5234 39.9863 46.6172ZM42.6667 46.6172L42.6 54.7866C42.6 54.8805 42.5267 54.9542 42.4333 54.9542C42.34 54.9542 42.2666 54.8805 42.2666 54.7866L42.3333 46.6172C42.3333 46.5234 42.4067 46.4497 42.5 46.4497C42.5933 46.4497 42.6667 46.5234 42.6667 46.6172ZM44.5803 46.6172V54.7866C44.5803 54.8805 44.507 54.9542 44.4136 54.9542C44.3203 54.9542 44.2469 54.8805 44.2469 54.7866V46.6172C44.2469 46.5234 44.3203 46.4497 44.4136 46.4497C44.507 46.4497 44.5803 46.5234 44.5803 46.6172ZM47.4541 46.6172V54.7866C47.4541 54.8805 47.3808 54.9542 47.2874 54.9542C47.1941 54.9542 47.1207 54.8805 47.1207 54.7866V46.6172C47.1207 46.5234 47.1941 46.4497 47.2874 46.4497C47.3808 46.4497 47.4541 46.5234 47.4541 46.6172ZM49.1144 46.6105L49.181 54.7799C49.181 54.8738 49.1077 54.9475 49.0143 54.9475C48.921 54.9475 48.8477 54.8738 48.8477 54.7799L48.781 46.6105C48.781 46.5167 48.8543 46.443 48.9477 46.443C49.041 46.443 49.1144 46.5167 49.1144 46.6105ZM51.8615 46.6172V54.7866C51.8615 54.8805 51.7881 54.9542 51.6948 54.9542C51.6014 54.9542 51.5281 54.8805 51.5281 54.7866V46.6172C51.5281 46.5234 51.6014 46.4497 51.6948 46.4497C51.7881 46.4497 51.8615 46.5234 51.8615 46.6172ZM54.2552 46.6172L54.1352 54.7866C54.1352 54.8805 54.0618 54.9542 53.9685 54.9542C53.8751 54.9542 53.8018 54.8738 53.8018 54.7866L53.9218 46.6172C53.9218 46.5234 53.9951 46.4497 54.0885 46.4497C54.1818 46.4497 54.2552 46.5301 54.2552 46.6172ZM55.7754 46.6172L55.7554 54.7866C55.7554 54.8805 55.6821 54.9542 55.5887 54.9542C55.4954 54.9542 55.422 54.8805 55.422 54.7866L55.442 46.6172C55.442 46.5234 55.5154 46.4497 55.6087 46.4497C55.7021 46.4497 55.7754 46.5234 55.7754 46.6172ZM57.3557 46.6172V54.7866C57.3557 54.8805 57.2823 54.9542 57.189 54.9542C57.0956 54.9542 57.0223 54.8805 57.0223 54.7866V46.6172C57.0223 46.5234 57.0956 46.4497 57.189 46.4497C57.2823 46.4497 57.3557 46.5234 57.3557 46.6172ZM61.3896 54.7799L61.6563 46.6843C61.6563 46.5904 61.7364 46.5234 61.823 46.5234C61.9164 46.5234 61.9897 46.6038 61.9897 46.6977L61.723 54.7934C61.723 54.8872 61.643 54.9542 61.5563 54.9542C61.463 54.9542 61.3896 54.8738 61.3896 54.7799ZM63.4633 65.4826V46.5301C63.4633 46.4363 63.5366 46.3626 63.63 46.3626C63.7233 46.3626 63.7967 46.4363 63.7967 46.5301V65.4826C63.7967 65.5764 63.7233 65.6502 63.63 65.6502C63.5366 65.6502 63.4633 65.5764 63.4633 65.4826ZM60.5028 64.9733L60.0428 77.5256C60.0428 77.6127 59.9627 77.6865 59.8761 77.6865C59.7827 77.6865 59.7094 77.606 59.7094 77.5122L60.1694 64.9599C60.1694 64.8661 60.2495 64.8057 60.3428 64.799C60.4362 64.799 60.5095 64.8795 60.5028 64.9733ZM62.6298 75.3945L62.7765 77.606C62.7765 77.6999 62.7165 77.7803 62.6232 77.787H62.6098C62.5231 77.787 62.4498 77.72 62.4431 77.6329L62.2964 75.4213C62.2964 75.3275 62.3564 75.247 62.4498 75.2403C62.5431 75.2403 62.6232 75.3006 62.6298 75.3945ZM44.927 42.0936H62.6298C62.7232 42.0936 62.7965 42.1673 62.7965 42.2611C62.7965 42.3549 62.7232 42.4287 62.6298 42.4287H44.927C44.8337 42.4287 44.7603 42.3549 44.7603 42.2611C44.7603 42.1673 44.8337 42.0936 44.927 42.0936ZM40.4597 42.2611C40.4597 42.3549 40.3863 42.4287 40.293 42.4287H22.3235C22.2301 42.4287 22.1568 42.3549 22.1568 42.2611C22.1568 42.1673 22.2301 42.0936 22.3235 42.0936H40.293C40.3863 42.0936 40.4597 42.1673 40.4597 42.2611ZM44.8604 39.8016H59.9894C60.0828 39.8016 60.1561 39.8753 60.1561 39.9691C60.1561 40.0629 60.0828 40.1367 59.9894 40.1367H44.8604C44.767 40.1367 44.6937 40.0629 44.6937 39.9691C44.6937 39.8753 44.767 39.8016 44.8604 39.8016ZM44.907 37.8045H46.3539C46.4473 37.8045 46.5206 37.8782 46.5206 37.972C46.5206 38.0658 46.4473 38.1395 46.3539 38.1395H44.907C44.8137 38.1395 44.7403 38.0658 44.7403 37.972C44.7403 37.8782 44.8137 37.8045 44.907 37.8045ZM40.0663 37.8045C40.1596 37.8045 40.233 37.8782 40.233 37.972C40.233 38.0658 40.1596 38.1395 40.0663 38.1395H38.6994C38.606 38.1395 38.5327 38.0658 38.5327 37.972C38.5327 37.8782 38.606 37.8045 38.6994 37.8045H40.0663ZM26.5842 37.972C26.5842 37.8782 26.6575 37.8045 26.7509 37.8045H34.072C34.1653 37.8045 34.2387 37.8782 34.2387 37.972C34.2387 38.0658 34.1653 38.1395 34.072 38.1395H26.7509C26.6575 38.1395 26.5842 38.0658 26.5842 37.972ZM50.8613 35.5058H55.6887C55.7821 35.5058 55.8554 35.5795 55.8554 35.6733C55.8554 35.7671 55.7821 35.8409 55.6887 35.8409H50.8613C50.768 35.8409 50.6946 35.7671 50.6946 35.6733C50.6946 35.5795 50.768 35.5058 50.8613 35.5058ZM29.2713 35.6733C29.2713 35.5795 29.3446 35.5058 29.438 35.5058H34.0253C34.1187 35.5058 34.192 35.5795 34.192 35.6733C34.192 35.7671 34.1187 35.8409 34.0253 35.8409H29.438C29.3446 35.8409 29.2713 35.7671 29.2713 35.6733ZM50.7546 33.9979H53.9885C54.0818 33.9979 54.1552 34.0716 54.1552 34.1654C54.1552 34.2592 54.0818 34.333 53.9885 34.333H50.7546C50.6613 34.333 50.5879 34.2592 50.5879 34.1654C50.5879 34.0716 50.6613 33.9979 50.7546 33.9979ZM38.6927 33.9979H46.1272C46.2206 33.9979 46.2939 34.0716 46.2939 34.1654C46.2939 34.2592 46.2206 34.333 46.1272 34.333H38.6927C38.5994 34.333 38.526 34.2592 38.526 34.1654C38.526 34.0716 38.5994 33.9979 38.6927 33.9979ZM44.6937 31.7059H51.5681C51.6614 31.7059 51.7348 31.7796 51.7348 31.8734C51.7348 31.9673 51.6614 32.041 51.5681 32.041H44.6937C44.6003 32.041 44.527 31.9673 44.527 31.8734C44.527 31.7796 44.6003 31.7059 44.6937 31.7059ZM33.3119 31.8734C33.3119 31.7796 33.3852 31.7059 33.4786 31.7059H40.1996C40.293 31.7059 40.3663 31.7796 40.3663 31.8734C40.3663 31.9673 40.293 32.041 40.1996 32.041H33.4786C33.3852 32.041 33.3119 31.9673 33.3119 31.8734ZM35.4389 29.6753C35.4389 29.5814 35.5122 29.5077 35.6056 29.5077H40.2263C40.3197 29.5077 40.393 29.5814 40.393 29.6753C40.393 29.7691 40.3197 29.8428 40.2263 29.8428H35.6056C35.5122 29.8428 35.4389 29.7691 35.4389 29.6753ZM40.2463 25.3996H44.547C44.6403 25.3996 44.7137 25.4733 44.7137 25.5671C44.7137 25.6609 44.6403 25.7346 44.547 25.7346H40.2463C40.153 25.7346 40.0796 25.6609 40.0796 25.5671C40.0796 25.4733 40.153 25.3996 40.2463 25.3996ZM44.6737 27.2157H46.9273C47.0207 27.2157 47.094 27.2894 47.094 27.3833C47.094 27.4771 47.0207 27.5508 46.9273 27.5508H44.6737C44.5803 27.5508 44.507 27.4771 44.507 27.3833C44.507 27.2894 44.5803 27.2157 44.6737 27.2157ZM50.2879 47.2204C49.8745 47.2204 49.6545 47.8504 49.6545 48.4803C49.6545 49.1103 49.8745 49.7402 50.2879 49.7402C50.7013 49.7402 50.9213 49.1103 50.9213 48.4803C50.9213 47.8504 50.7013 47.2204 50.2879 47.2204ZM50.2879 49.3985C50.2012 49.3985 49.9879 49.0835 49.9879 48.4736C49.9879 47.8638 50.2012 47.5488 50.2879 47.5488C50.3746 47.5488 50.5879 47.8638 50.5879 48.4736C50.5879 49.0835 50.3746 49.3985 50.2879 49.3985ZM58.8226 52.1797C58.4092 52.1797 58.0824 52.7158 58.0824 53.3927C58.0824 54.0696 58.4092 54.6057 58.8226 54.6057C59.236 54.6057 59.5627 54.0696 59.5627 53.3927C59.5627 52.7158 59.236 52.1797 58.8226 52.1797ZM58.8226 54.2773C58.6292 54.2773 58.4158 53.902 58.4158 53.3994C58.4158 52.8968 58.6292 52.5215 58.8226 52.5215C59.0159 52.5215 59.2293 52.8968 59.2293 53.3994C59.2293 53.902 59.0159 54.2773 58.8226 54.2773ZM26.2641 52.9504C25.9241 52.9504 25.6507 53.2654 25.6507 53.6541C25.6507 54.0428 25.9241 54.3577 26.2641 54.3577C26.6042 54.3577 26.8776 54.0428 26.8776 53.6541C26.8776 53.2654 26.6042 52.9504 26.2641 52.9504ZM26.2641 54.016C26.1108 54.016 25.9841 53.8484 25.9841 53.6474C25.9841 53.4463 26.1108 53.2788 26.2641 53.2788C26.4175 53.2788 26.5442 53.4463 26.5442 53.6474C26.5442 53.8484 26.4175 54.016 26.2641 54.016ZM41.2265 51.5363C40.8997 51.5363 40.633 51.8446 40.633 52.2199C40.633 52.5952 40.8997 52.9035 41.2265 52.9035C41.5532 52.9035 41.8199 52.5952 41.8199 52.2199C41.8199 51.8446 41.5532 51.5363 41.2265 51.5363ZM41.2265 52.5617C41.0864 52.5617 40.9664 52.4008 40.9664 52.2132C40.9664 52.0255 41.0864 51.8647 41.2265 51.8647C41.3665 51.8647 41.4865 52.0255 41.4865 52.2132C41.4865 52.4008 41.3665 52.5617 41.2265 52.5617ZM8.88138 73.9938C8.54799 73.9938 8.28796 74.3289 8.28796 74.7578C8.28796 75.1867 8.54799 75.5218 8.88138 75.5218C9.21476 75.5218 9.47482 75.1867 9.47482 74.7578C9.47482 74.3289 9.21476 73.9938 8.88138 73.9938ZM8.88138 75.1934C8.76136 75.1934 8.62135 75.0192 8.62135 74.7645C8.62135 74.5098 8.75469 74.3356 8.88138 74.3356C9.00807 74.3356 9.14143 74.5098 9.14143 74.7645C9.14143 75.0192 9.00807 75.1934 8.88138 75.1934ZM23.6437 75.7899C23.3103 75.7899 23.0503 76.125 23.0503 76.5539C23.0503 76.9828 23.3103 77.3179 23.6437 77.3179C23.9771 77.3179 24.2371 76.9828 24.2371 76.5539C24.2371 76.125 23.9771 75.7899 23.6437 75.7899ZM23.6437 76.9895C23.5237 76.9895 23.3837 76.8152 23.3837 76.5606C23.3837 76.3059 23.5237 76.1317 23.6437 76.1317C23.7637 76.1317 23.9037 76.3059 23.9037 76.5606C23.9037 76.8152 23.7704 76.9895 23.6437 76.9895ZM76.0586 76.7281C76.4453 76.7281 76.7587 76.3863 76.7587 75.9641C76.7587 75.5419 76.4453 75.2001 76.0586 75.2001C75.6719 75.2001 75.3585 75.5419 75.3585 75.9641C75.3585 76.3863 75.6719 76.7281 76.0586 76.7281ZM76.0586 75.5285C76.2586 75.5285 76.4253 75.7229 76.4253 75.9574C76.4253 76.192 76.2586 76.3863 76.0586 76.3863C75.8586 76.3863 75.6919 76.192 75.6919 75.9574C75.6919 75.7229 75.8586 75.5285 76.0586 75.5285ZM44.0802 26.7935H40.9264V33.1535H44.0802V26.7935ZM41.5265 32.5503V31.9874H43.4802V32.5503H41.5265ZM43.4802 27.3967V27.8926H41.5265V27.3967H43.4802ZM43.4802 29.052H41.5265V28.4891H43.4802V29.052ZM43.4802 29.6552V30.2181H41.5265V29.6552H43.4802ZM41.5265 30.8213H43.4802V31.3842H41.5265V30.8213ZM40.9264 42.9916H44.0802V36.6317H40.9264V42.9916ZM43.4802 37.2348V37.7307H41.5265V37.2348H43.4802ZM41.5265 42.3884V41.8255H43.4802V42.3884H41.5265ZM41.5265 39.4933H43.4802V40.0562H41.5265V39.4933ZM41.5265 40.6594H43.4802V41.2223H41.5265V40.6594ZM43.4802 38.8901H41.5265V38.3272H43.4802V38.8901ZM50.1412 32.805H46.9874V39.1649H50.1412V32.805ZM47.5875 38.5618V37.9988H49.5411V38.5618H47.5875ZM49.5411 33.4081V33.9041H47.5875V33.4081H49.5411ZM49.5411 35.0635H47.5875V34.5005H49.5411V35.0635ZM49.5411 35.6733V36.2363H47.5875V35.6733H49.5411ZM47.5875 36.8327H49.5411V37.3957H47.5875V36.8327ZM34.8588 39.1649H38.0126V32.805H34.8588V39.1649ZM37.4125 33.4081V33.9041H35.4589V33.4081H37.4125ZM35.4589 38.5618V37.9988H37.4125V38.5618H35.4589ZM35.4589 36.8327H37.4125V37.3957H35.4589V36.8327ZM35.4589 36.2296V35.6666H37.4125V36.2296H35.4589ZM37.4125 35.0635H35.4589V34.5005H37.4125V35.0635Z" fill="#164194"/>
</svg>
