<svg width="118" height="106" viewBox="0 0 118 106" fill="none" xmlns="http://www.w3.org/2000/svg">
<g clip-path="url(#clip0_524_2788)">
<path d="M13.3516 41.195C20.9285 41.7137 32.9246 41.546 38.3133 39.748L13.3516 41.195Z" fill="#EAECF7"/>
<path d="M13.3516 41.195C20.9285 41.7137 32.9246 41.546 38.3133 39.748" stroke="#173B91" stroke-width="1.73" stroke-miterlimit="10"/>
<path d="M29.5717 63.8902C28.7035 63.8902 27.8235 63.8902 26.0286 62.4666C24.9656 61.6202 24.7437 58.5586 21.8975 58.1725C19.0474 57.7864 18.5958 55.7934 16.9566 53.2075C15.3174 50.6217 11.5367 44.6934 11.5367 44.6934L10.8125 44.4282V41.7098L11.6808 41.5811C13.355 44.358 14.8891 46.8853 14.8891 46.8853C14.8891 46.8853 19.0708 54.1982 20.1688 55.1654C21.2668 56.1366 21.3563 56.7099 22.6295 57.0609C23.9027 57.4119 24.479 58.0321 24.7398 58.5586C25.0046 59.089 26.3245 61.4837 27.7729 62.4666C28.0143 62.6304 29.3381 63.7536 29.564 63.8902H29.5717Z" fill="#173B91"/>
<path d="M20.1722 18.1684C31.6583 18.1684 34.4461 19.3579 35.0885 20.0678C35.2598 20.255 35.2443 20.3837 35.2248 20.5982C35.1936 20.8985 34.5006 21.4992 33.8971 21.8346L33.5544 22.0257V22.4196C33.5467 22.7082 33.461 29.4867 33.461 30.6256C33.461 32.0453 34.2202 32.9774 35.5635 34.5063C36.7589 35.8636 37.8724 38.7068 38.036 39.9666C38.106 40.5321 38.1605 47.763 38.036 79.0075C38.0321 80.1776 38.0282 80.8991 38.0282 81.02C38.0282 81.254 37.9814 83.3523 36.4123 84.7408C35.217 85.7977 28.2514 86.6909 21.2001 86.6909C18.132 86.6909 15.0132 86.5778 12.1865 86.3633C8.88865 86.1136 6.18651 85.7353 4.57846 85.3024C1.72447 84.5302 1.39351 83.793 1.00805 82.9428L0.969115 82.857C0.653736 82.1628 0.661523 78.0948 0.673203 74.1596C0.673203 73.3873 0.673203 72.5878 0.673203 71.7726V70.3374C0.665416 63.9098 0.649842 46.8348 1.16769 40.1148C1.2183 39.4712 1.26503 38.9681 1.31954 38.5742L1.32732 38.5274C1.36626 38.231 1.40909 38.0009 1.44802 37.841C2.04764 35.4345 3.5817 33.8628 4.4928 32.9228C4.90941 32.4938 5.1625 32.2364 5.2832 31.9556C5.54796 31.3315 5.45841 26.4251 5.33771 22.4157L5.32603 22.0491L5.01065 21.858C5.01065 21.858 4.53174 21.5655 4.09566 21.1832C3.51941 20.6801 3.48826 20.4344 3.48826 20.4344C3.48826 20.4071 3.51162 20.3447 3.5856 20.2628C4.15017 19.6388 6.89903 18.184 20.1683 18.184M20.1722 17.4937C4.13849 17.4937 2.7329 19.6076 2.82246 20.489C2.86139 20.8868 3.24686 21.3236 3.65958 21.6825C4.15017 22.1115 4.67191 22.4274 4.67191 22.4274C4.67191 22.4274 4.93667 31.0624 4.67191 31.6826C4.40714 32.2988 1.68164 34.1475 0.801691 37.6693C0.751075 37.8683 0.704352 38.1413 0.661523 38.4767C0.603119 38.9096 0.552503 39.44 0.50578 40.0563C-0.0626823 47.3886 0.00740205 66.9364 0.00740205 71.7648C0.00740205 77.3187 -0.0821502 82.1589 0.361717 83.13C0.801691 84.1011 1.15211 85.0684 4.40714 85.9498C6.13978 86.4179 8.92369 86.7923 12.1437 87.0341C14.9665 87.2486 18.1242 87.3617 21.2079 87.3617C27.8075 87.3617 35.3689 86.5661 36.8679 85.2439C38.363 83.9217 38.7134 81.9833 38.7134 81.0161C38.7134 80.0488 38.8925 41.1912 38.7134 39.873C38.5382 38.5508 37.3935 35.5515 36.0775 34.0578C34.7576 32.5601 34.1424 31.7684 34.1424 30.6217C34.1424 29.475 34.2319 22.4235 34.2319 22.4235C34.2319 22.4235 35.8166 21.546 35.9062 20.6645C35.9957 19.7831 36.2138 17.4937 20.1839 17.4937H20.1722Z" fill="#173B91"/>
<path d="M4.97656 22.2246C8.31725 23.5468 14.2861 24.0265 18.9623 24.0967C24.2381 24.1786 30.5729 23.6131 33.828 22.2909" stroke="#173B91" stroke-width="1.73" stroke-miterlimit="10"/>
<path d="M8.81853 32.5209C9.41814 32.7627 10.0489 32.9421 10.629 33.1059C14.4136 34.1667 16.96 32.8407 16.96 31.1714C16.96 29.233 14.4993 28.2618 11.4194 27.7314C8.33962 27.2049 5.87109 28.2735 6.14364 29.6698C6.30328 30.5045 6.70432 31.1207 7.23384 31.5809" stroke="#173B91" stroke-width="1.73" stroke-miterlimit="10"/>
<path d="M8.4137 23.0942V27.7276C6.91467 28.024 5.97243 28.7807 6.14374 29.6699C6.30727 30.5201 6.71999 31.1442 7.26899 31.62C6.97308 32.088 6.5954 32.5443 6.12428 32.9656C3.73751 35.0795 2.15283 36.1013 0.965289 39.2878C0.821226 39.6778 0.66159 39.9274 0.501953 40.0561C0.587612 38.9563 0.684951 38.1294 0.797865 37.6692C1.67781 34.1473 4.40721 32.2947 4.66808 31.6824C4.93284 31.0662 4.66808 22.4272 4.66808 22.4272L8.40981 23.0981L8.4137 23.0942Z" fill="#173B91"/>
<path d="M12.143 87.0301C8.92302 86.7922 6.143 86.4178 4.40647 85.9498C1.14755 85.0683 0.797124 84.0972 0.361043 83.13C-0.0789308 82.1588 0.00672787 77.3187 0.00672787 71.7648C0.00672787 66.9403 -0.059463 47.3886 0.501212 40.0523C0.547935 39.4361 0.598551 38.9057 0.656955 38.4766L1.57195 37.8994C3.59271 39.9275 6.78544 40.7973 11.3682 41.0586C12.5207 51.4994 12.1469 87.0301 12.1469 87.0301H12.143Z" fill="#173B91"/>
<path d="M5.21776 18.9561C4.42737 19.4865 3.76546 20.0559 4.97636 20.7618C6.18726 21.4678 12.4754 22.4818 17.5331 22.7431C22.5909 23.0045 31.2541 22.0372 33.014 21.6433C34.7739 21.2494 35.4786 20.5863 35.4786 20.5863" stroke="#173B91" stroke-width="0.87" stroke-miterlimit="10"/>
<path d="M7.97461 21.5965C12.1485 20.0598 21.7111 20.1924 26.1342 20.5863C30.5574 20.9802 32.6015 21.7252 32.6015 21.7252" fill="#EAECF7"/>
<path d="M7.97461 21.5965C12.1485 20.0598 21.7111 20.1924 26.1342 20.5863C30.5573 20.9802 32.6015 21.7252 32.6015 21.7252" stroke="#173B91" stroke-width="1.73" stroke-miterlimit="10"/>
<path d="M9.65948 29.2646C9.65948 29.2646 7.15201 31.3005 6.95344 32.065C6.75487 32.8294 6.80159 33.3169 7.50244 34.5923C8.20328 35.8677 14.8924 46.8818 14.8924 46.8818C14.8924 46.8818 19.0702 54.1947 20.1682 55.1658C21.2662 56.137 21.3558 56.7064 22.6329 57.0613C23.91 57.4162 24.4784 58.0286 24.7432 58.559C25.008 59.0894 26.5226 61.9366 27.9749 62.9194C29.4272 63.9023 30.3733 64.0232 32.0865 62.9662C32.1293 62.1745 31.9113 61.3359 31.0313 61.6011C30.1514 61.8664 29.4466 62.1745 28.6134 61.2033C27.7802 60.2322 25.8879 57.151 25.0508 56.488C24.2137 55.825 23.688 56.1799 22.5433 55.1229C21.3986 54.066 16.298 46.0043 16.298 46.0043C16.298 46.0043 8.77953 33.8006 8.64715 33.274C8.51476 32.7475 9.39471 31.4527 9.83469 31.2381C10.2747 31.0236 10.847 30.54 10.847 30.54C10.847 30.54 10.847 30.0993 10.5394 29.8341C10.2318 29.5689 9.65948 29.2607 9.65948 29.2607V29.2646Z" stroke="#173B91" stroke-width="1.73" stroke-miterlimit="10"/>
<path d="M29.392 63.5431C29.392 63.5431 30.1785 64.7482 31.4984 65.2787C32.8184 65.8091 33.5231 65.8091 34.4887 64.8379C35.4543 63.8668 36.4238 63.1648 37.4868 62.8996C38.5497 62.6343 40.5588 61.6671 41.5283 61.203C42.4978 60.7388 43.0234 59.7287 43.6386 59.1983C44.2538 58.6678 45.0442 59.0228 45.9241 58.4065C46.8041 57.7903 46.1889 56.0274 45.3946 54.795C44.6042 53.5625 43.4595 53.387 42.6691 53.5625C41.8787 53.738 41.5244 54.9705 40.9988 55.0602C40.4731 55.1499 38.7872 55.2357 37.3933 55.6764C35.9994 56.1171 34.403 57.9658 33.2583 58.4962C32.1136 59.0267 31.148 58.7614 30.2681 58.937C29.3881 59.1125 28.6834 59.9939 28.6172 61.2069C28.6172 61.2069 29.0338 59.1476 30.708 59.5688C32.3823 59.99 32.8339 60.6413 33.5893 62.217C34.1889 63.469 33.7801 64.4128 33.4997 64.8145C33.0948 65.3957 31.7009 65.8169 30.7509 64.8652" fill="#EAECF7"/>
<path d="M29.392 63.5431C29.392 63.5431 30.1785 64.7482 31.4984 65.2787C32.8184 65.8091 33.5231 65.8091 34.4887 64.8379C35.4543 63.8668 36.4238 63.1648 37.4868 62.8996C38.5497 62.6343 40.5588 61.6671 41.5283 61.203C42.4978 60.7388 43.0234 59.7287 43.6386 59.1983C44.2538 58.6678 45.0442 59.0228 45.9241 58.4065C46.8041 57.7903 46.1889 56.0274 45.3946 54.795C44.6042 53.5625 43.4595 53.387 42.6691 53.5625C41.8787 53.738 41.5244 54.9705 40.9988 55.0602C40.4731 55.1499 38.7872 55.2357 37.3933 55.6764C35.9994 56.1171 34.403 57.9658 33.2583 58.4962C32.1136 59.0267 31.148 58.7614 30.2681 58.937C29.3881 59.1125 28.6834 59.9939 28.6172 61.2069C28.6172 61.2069 29.0338 59.1476 30.708 59.5688C32.3823 59.99 32.8339 60.6413 33.5893 62.217C34.1889 63.469 33.7801 64.4128 33.4997 64.8145C33.0948 65.3957 31.7009 65.8169 30.7509 64.8652" stroke="#173B91" stroke-width="1.73" stroke-miterlimit="10"/>
<path d="M33.8262 29.9233C33.8262 29.9233 38.7749 38.4609 39.5653 40.0521C40.3557 41.6434 42.2908 44.7207 42.0299 46.3978C41.7691 48.0748 42.3804 49.6622 42.7347 50.6295C43.0851 51.5967 43.7898 52.8487 43.7003 53.5" stroke="#173B91" stroke-width="1.73" stroke-miterlimit="10"/>
<path d="M33.8262 26.8071C33.8262 26.8071 39.2149 36.5303 40.3557 38.6481C41.4965 40.7659 42.906 42.3494 43.0812 45.255C43.2564 48.1607 43.9612 49.5726 44.4868 50.8947C45.0124 52.2169 45.9391 54.1124 45.3901 54.7949" stroke="#173B91" stroke-width="1.73" stroke-miterlimit="10"/>
<path d="M9.58203 34.9433C10.8942 35.0798 28.2362 37.6266 34.7267 32.3887L9.58203 34.9433Z" fill="#EAECF7"/>
<path d="M9.58203 34.9433C10.8942 35.0798 28.2362 37.6266 34.7267 32.3887" stroke="#173B91" stroke-width="1.73" stroke-miterlimit="10"/>
<path d="M7.5057 34.5959C5.87819 34.4204 4.45703 33.4883 4.45703 33.4883" stroke="#173B91" stroke-width="0.87" stroke-miterlimit="10"/>
<path d="M18.4785 87.034L19.1054 64.6079L19.7322 87.034H18.4785Z" fill="#173B91"/>
<path d="M19.9238 87.0339L20.5118 67.3379L21.0997 87.0339H19.9238Z" fill="#173B91"/>
<path d="M21.2852 87.0341L21.8147 70.9497L22.3442 87.0341H21.2852Z" fill="#173B91"/>
<path d="M22.5859 87.0341L23.0726 73.4497L23.5593 87.0341H22.5859Z" fill="#173B91"/>
<path d="M23.7891 87.0342L24.229 76.0278L24.6651 87.0342H23.7891Z" fill="#173B91"/>
<path d="M24.8789 87.0339L25.2838 77.7124L25.6888 87.0339H24.8789Z" fill="#173B91"/>
<path d="M17.002 87.0342L17.6522 62.8218L18.3024 87.0342H17.002Z" fill="#173B91"/>
<path d="M15.4023 86.5933L16.0759 60.8403L16.7456 86.5933H15.4023Z" fill="#173B91"/>
<path d="M12.3262 86.5933L13.0815 54.2334L13.833 86.5933H12.3262Z" fill="#173B91"/>
<path d="M13.7988 86.5935L14.4958 58.793L15.1927 86.5935H13.7988Z" fill="#173B91"/>
<path d="M11.9406 51.4877C11.8666 49.249 12.9179 46.8543 14.2144 48.8902C15.511 50.9261 14.2144 46.9947 14.2144 46.9947L11.5395 43.8901L10.4844 46.1366L11.9406 51.4877Z" fill="#173B91"/>
<path d="M14.36 32.1429C14.9169 32.1429 15.3684 31.6906 15.3684 31.1327C15.3684 30.5748 14.9169 30.1226 14.36 30.1226C13.8031 30.1226 13.3516 30.5748 13.3516 31.1327C13.3516 31.6906 13.8031 32.1429 14.36 32.1429Z" fill="#173B91"/>
<path d="M7.50179 30.185C7.8609 30.185 8.15202 29.8934 8.15202 29.5337C8.15202 29.1739 7.8609 28.8823 7.50179 28.8823C7.14268 28.8823 6.85156 29.1739 6.85156 29.5337C6.85156 29.8934 7.14268 30.185 7.50179 30.185Z" fill="#173B91"/>
<path d="M34.7116 59.5496C35.6967 58.8203 36.6934 58.0441 37.8109 57.5254C38.4027 57.2485 39.0296 57.0691 39.672 56.9365C40.3144 56.8039 41.0114 56.7571 41.6538 56.5581C41.7395 56.5308 41.7239 56.406 41.6344 56.4021C40.9725 56.367 40.2989 56.4879 39.6525 56.6244C39.0062 56.761 38.3793 56.9521 37.7797 57.2329C36.6 57.7828 35.6149 58.6096 34.6454 59.4638C34.5987 59.5028 34.661 59.5886 34.7116 59.5496Z" fill="#173B91"/>
<path d="M27.8887 32.6187C27.9121 32.6187 27.9121 32.5835 27.8887 32.5835C27.8652 32.5835 27.8652 32.6187 27.8887 32.6187Z" fill="#173B91"/>
<path d="M28.0215 31.8272C28.0449 31.8272 28.0449 31.792 28.0215 31.792C27.9981 31.792 27.9981 31.8272 28.0215 31.8272Z" fill="#173B91"/>
<path d="M15.4771 22.4002C15.4771 22.4002 15.1695 20.3292 16.0066 19.7559C16.8437 19.1825 20.5348 19.358 21.0643 19.4048C21.5939 19.4516 22.2947 20.3448 22.4699 20.6958C21.59 20.5203 18.0429 20.3994 17.455 20.5203C16.8398 20.649 16.5984 20.8635 16.5751 21.5772C16.5595 22.0648 16.5751 22.4002 16.5751 22.4002H15.4771Z" fill="#EAECF7" stroke="#173B91" stroke-width="0.87" stroke-miterlimit="10"/>
<path d="M22.4697 20.7583C22.8435 21.2224 22.8124 22.6967 22.8124 22.6967L21.9714 22.7357C21.9714 22.7357 22.022 20.9494 21.5742 20.6647C22.166 20.6608 22.4697 20.7583 22.4697 20.7583Z" fill="#EAECF7" stroke="#173B91" stroke-width="0.87" stroke-miterlimit="10"/>
<path d="M32.039 76.2383C32.0625 76.2383 32.0625 76.2031 32.039 76.2031C32.0156 76.2031 32.0156 76.2383 32.039 76.2383Z" fill="#173B91"/>
<path d="M29.9142 84.1828C30.6189 84.526 31.2847 84.3427 32.0011 84.1165C32.628 83.9176 33.2587 83.707 33.835 83.3872C35.1471 82.6695 35.6611 81.4722 35.7779 80.0252C35.9258 78.2389 35.8947 76.4175 35.8713 74.6234C35.848 72.8294 35.7467 70.8715 35.5482 68.9994C35.5326 68.8707 35.334 68.8668 35.3418 68.9994C35.5559 72.2404 35.6844 75.4815 35.5443 78.7264C35.482 80.1617 35.4508 81.7374 34.2399 82.7202C33.687 83.1688 33.0095 83.4418 32.3437 83.6758C31.5884 83.941 30.7591 84.2569 29.9453 84.1087C29.9064 84.1009 29.8713 84.1594 29.9142 84.1828Z" fill="#173B91"/>
<path d="M35.6218 54.721C35.5128 53.7694 35.5478 52.7748 35.54 51.8154C35.5322 50.8559 35.54 49.877 35.5478 48.9098C35.5556 47.9425 35.5556 46.9714 35.5712 46.0002C35.5867 45.0291 35.7036 44.0462 35.6257 43.0946C35.614 42.9503 35.4193 42.9542 35.4037 43.0946C35.2947 44.0462 35.396 45.0447 35.4037 46.0002C35.4115 46.9558 35.4193 47.9386 35.4388 48.9098C35.4583 49.8809 35.4933 50.8481 35.5244 51.8154C35.5556 52.7826 35.6413 53.7616 35.5906 54.721C35.5906 54.7444 35.6257 54.7405 35.6257 54.721H35.6218Z" fill="#173B91"/>
<path d="M31.2967 25.1145C31.1487 26.2611 31.0475 27.4156 31.0748 28.5739C31.0864 29.1395 31.1215 29.705 31.176 30.2705C31.2032 30.5474 31.2266 30.8282 31.2811 31.0973C31.3278 31.3353 31.3551 31.5927 31.542 31.7604C31.6199 31.8306 31.7522 31.8267 31.8106 31.7253C31.9313 31.503 31.8807 31.2612 31.8613 31.0154C31.834 30.7229 31.7873 30.4304 31.7522 30.1418C31.6899 29.5997 31.651 29.0536 31.6276 28.5076C31.5809 27.3727 31.5848 26.2416 31.7016 25.1106C31.7289 24.8492 31.3317 24.857 31.2967 25.1106V25.1145Z" fill="#173B91"/>
<path d="M59.7279 93.5984C56.0718 93.5984 52.3612 93.4658 48.9933 93.2084C45.053 92.912 41.8174 92.4595 39.8784 91.933C36.3041 90.9658 35.8525 89.9634 35.3775 88.9065L35.3307 88.8051C34.918 87.9002 34.9297 83.2395 34.9414 78.3058C34.9414 77.3853 34.9453 76.4376 34.9453 75.4703V73.762C34.9375 66.1216 34.918 45.8289 35.5332 37.8296C35.5916 37.0612 35.65 36.4528 35.7162 35.977V35.9458C35.7707 35.5674 35.8213 35.271 35.8758 35.0604C36.6156 32.0924 38.4845 30.1774 39.5981 29.0346C40.0459 28.5744 40.3418 28.2702 40.4547 28.0089C40.7778 27.2522 40.5598 19.2724 40.4858 16.8465L40.478 16.6281L40.2912 16.515C40.2912 16.515 39.6915 16.1523 39.1464 15.6726C38.6286 15.224 38.3171 14.8028 38.286 14.5181C38.2704 14.3543 38.3444 14.1827 38.504 14.0033C39.3839 13.0321 43.149 11.4019 58.4975 11.4019C71.6033 11.4019 75.528 12.7006 76.5131 13.7888C76.8363 14.1437 76.8051 14.4401 76.7778 14.7287C76.7156 15.3371 75.6526 16.1445 74.9946 16.5072L74.7921 16.6203V16.8543C74.7882 16.9362 74.6831 25.2475 74.6831 26.597C74.6831 28.1376 75.5514 29.1984 77.0815 30.9418C78.5494 32.6072 79.9122 36.0979 80.1185 37.6385C80.2003 38.2547 80.2704 46.8078 80.1224 84.0702C80.1185 85.4587 80.1146 86.3167 80.1146 86.4611C80.1146 87.8027 79.5773 89.8425 78.0588 91.1842C76.552 92.5142 68.3288 93.5984 59.724 93.5984H59.7279Z" fill="#EAECF7"/>
<path d="M58.5009 11.8034C72.144 11.8034 75.4574 13.2153 76.2206 14.0578C76.423 14.2801 76.4075 14.4361 76.3841 14.6896C76.3491 15.0445 75.5197 15.7582 74.8072 16.1561L74.3984 16.3823V16.8503C74.3867 17.1935 74.2894 25.2435 74.2894 26.5969C74.2894 28.2818 75.1927 29.3933 76.789 31.2069C78.2102 32.8177 79.5301 36.1991 79.7287 37.6929C79.8105 38.3638 79.8767 46.9559 79.7287 84.0701C79.7248 85.4586 79.7209 86.3166 79.7209 86.4609C79.7209 86.7378 79.6664 89.234 77.8014 90.8838C76.3841 92.1396 68.1064 93.1966 59.7313 93.1966C56.083 93.1966 52.3841 93.0639 49.024 92.8104C45.107 92.514 41.8987 92.0655 39.9831 91.5468C36.5918 90.6302 36.1985 89.7527 35.743 88.7425L35.6962 88.6372C35.3225 87.8143 35.3341 82.982 35.3419 78.3056C35.3419 77.3852 35.3458 76.4374 35.3458 75.4702V73.7658C35.338 66.1292 35.3186 45.8443 35.9338 37.8645C35.9922 37.104 36.0506 36.5034 36.1129 36.0353L36.1206 35.9768C36.1674 35.6258 36.2141 35.3528 36.2647 35.1578C36.9811 32.299 38.7994 30.4308 39.8857 29.3153C40.3841 28.8044 40.68 28.4963 40.8241 28.1647C41.1395 27.4237 41.0343 21.5929 40.8864 16.8308L40.8708 16.394L40.497 16.1678C40.497 16.1678 39.9247 15.8206 39.4068 15.3682C38.7216 14.7715 38.6865 14.479 38.6865 14.479C38.6865 14.4478 38.7138 14.3737 38.8033 14.2723C39.473 13.5312 42.7397 11.7995 58.5009 11.7995M58.5009 11C39.4535 11 37.7832 13.5117 37.8883 14.557C37.9351 15.0289 38.3945 15.5476 38.8812 15.9727C39.4613 16.4837 40.0843 16.8542 40.0843 16.8542C40.0843 16.8542 40.3958 27.1117 40.0843 27.8488C39.7728 28.5782 36.5334 30.7779 35.486 34.9628C35.4276 35.2007 35.3692 35.5244 35.3186 35.9222C35.2524 36.4371 35.1901 37.065 35.1356 37.7982C34.4659 46.5113 34.5476 69.7369 34.5476 75.4702C34.5476 82.0654 34.4425 87.8182 34.9681 88.9726C35.4899 90.1232 35.9065 91.2738 39.7728 92.3229C41.8325 92.8806 45.1343 93.3214 48.9617 93.61C52.314 93.8635 56.0674 94 59.7274 94C67.5652 94 76.5515 93.0562 78.327 91.4844C80.1025 89.9165 80.5191 87.6115 80.5191 86.4609C80.5191 85.3104 80.7332 39.1516 80.5191 37.5837C80.3127 36.0119 78.9539 32.4511 77.3887 30.6765C75.8234 28.8941 75.0914 27.958 75.0914 26.5969C75.0914 25.2357 75.1966 16.8581 75.1966 16.8581C75.1966 16.8581 77.0772 15.8167 77.1823 14.7676C77.2874 13.7223 77.5483 11 58.5048 11L58.5009 11Z" fill="#173B91"/>
<path d="M50.3984 39.1555C59.4004 39.7718 73.647 39.5729 80.0519 37.4395L50.3984 39.1555Z" fill="#EAECF7"/>
<path d="M50.3984 39.1555C59.4004 39.7718 73.647 39.5729 80.0519 37.4395" stroke="#173B91" stroke-width="2.06" stroke-miterlimit="10"/>
<path d="M69.6677 66.1175C68.6398 66.1175 67.5924 66.1175 65.4588 64.4249C64.1933 63.4225 63.9325 59.7836 60.5529 59.3234C57.1693 58.8671 56.632 56.4997 54.6852 53.4263C52.7384 50.353 48.2492 43.3131 48.2492 43.3131L47.3887 43.0011V39.7717L48.4166 39.6196C50.4062 42.9192 52.2284 45.9184 52.2284 45.9184C52.2284 45.9184 57.1966 54.6042 58.5009 55.7547C59.8053 56.9053 59.9104 57.5878 61.425 58.0051C62.9396 58.4225 63.621 59.1557 63.9325 59.7836C64.244 60.4155 65.8131 63.2587 67.5379 64.4249C67.8261 64.6199 69.3952 65.9576 69.6677 66.1175Z" fill="#173B91"/>
<path d="M40.4512 16.624C44.4226 18.1958 51.5128 18.7613 57.0651 18.8471C63.3337 18.9446 70.8561 18.2699 74.7224 16.702" stroke="#173B91" stroke-width="2.06" stroke-miterlimit="10"/>
<path d="M45.0096 28.8549C45.7221 29.1435 46.4697 29.358 47.1588 29.5492C51.652 30.8089 54.6812 29.2371 54.6812 27.2519C54.6812 24.9508 51.7571 23.7964 48.1011 23.1684C44.445 22.5444 41.5131 23.8159 41.8324 25.4695C42.0193 26.4602 42.4982 27.1895 43.1251 27.7395" stroke="#173B91" stroke-width="2.06" stroke-miterlimit="10"/>
<path d="M44.53 17.6575V23.1606C42.7467 23.5155 41.6292 24.4126 41.8356 25.4695C42.0264 26.4797 42.5209 27.2246 43.175 27.7863C42.8207 28.3401 42.3729 28.8861 41.8122 29.3814C38.9777 31.8932 37.0932 33.1061 35.6838 36.8932C35.5124 37.3573 35.3217 37.6498 35.1348 37.8059C35.236 36.4993 35.3528 35.5164 35.4891 34.9704C36.5326 30.7855 39.7759 28.5858 40.0874 27.8565C40.3989 27.1232 40.0874 16.8618 40.0874 16.8618L44.5339 17.6614L44.53 17.6575Z" fill="#173B91"/>
<path d="M48.9616 93.6061H48.9578C45.1343 93.3214 41.8286 92.8807 39.7689 92.323C35.8987 91.2777 35.4821 90.1232 34.9642 88.9727C34.4386 87.8221 34.5437 82.0694 34.5437 75.4702C34.5437 69.7369 34.462 46.5152 35.1317 37.7983C35.1862 37.065 35.2485 36.4332 35.3147 35.9262L36.401 35.2397C38.7994 37.6462 42.5957 38.6797 48.0389 38.9917C49.4094 51.3943 48.9616 93.6022 48.9616 93.6022V93.6061Z" fill="#173B91"/>
<path d="M40.735 12.7393C39.7928 13.3672 39.0102 14.0458 40.4469 14.8844C41.8836 15.7229 49.3554 16.9242 55.3632 17.2401C61.371 17.556 71.6617 16.4015 73.7526 15.9335C75.8434 15.4655 76.6766 14.6777 76.6766 14.6777" stroke="#173B91" stroke-width="1.03" stroke-miterlimit="10"/>
<path d="M44.0098 15.8753C48.9663 14.05 60.3277 14.2061 65.5802 14.678C70.8326 15.1499 73.2622 16.0313 73.2622 16.0313" fill="#EAECF7"/>
<path d="M44.0098 15.8753C48.9663 14.05 60.3277 14.2061 65.5802 14.678C70.8326 15.1499 73.2622 16.0313 73.2622 16.0313" stroke="#173B91" stroke-width="2.06" stroke-miterlimit="10"/>
<path d="M46.0143 24.9863C46.0143 24.9863 43.0358 27.4044 42.8021 28.3132C42.5685 29.2219 42.6191 29.7992 43.4563 31.3163C44.2934 32.8335 52.2324 45.9187 52.2324 45.9187C52.2324 45.9187 57.1967 54.6044 58.501 55.7588C59.8054 56.9133 59.9105 57.5919 61.4251 58.0093C62.9397 58.4266 63.6211 59.1598 63.9326 59.7877C64.2441 60.4157 66.0468 63.7971 67.7716 64.9672C69.4965 66.1373 70.6178 66.2777 72.6581 65.0218C72.7087 64.078 72.4478 63.0873 71.4043 63.3993C70.3609 63.7113 69.5237 64.078 68.5309 62.9274C67.538 61.7768 65.2914 58.1146 64.2986 57.3267C63.3057 56.5389 62.6788 56.9601 61.32 55.7042C59.9611 54.4484 53.9027 44.8695 53.9027 44.8695C53.9027 44.8695 44.9709 30.3725 44.8112 29.7446C44.6516 29.1166 45.699 27.58 46.2207 27.3264C46.7424 27.0729 47.4238 26.4996 47.4238 26.4996C47.4238 26.4996 47.4238 25.977 47.0578 25.6611C46.6918 25.3451 46.0143 24.9824 46.0143 24.9824V24.9863Z" stroke="#173B91" stroke-width="2.06" stroke-miterlimit="10"/>
<path d="M69.4501 65.7081C69.4501 65.7081 70.3846 67.1394 71.9498 67.7674C73.515 68.3953 74.3521 68.3953 75.5008 67.2448C76.6494 66.0942 77.798 65.2557 79.0595 64.9436C80.321 64.6316 82.7078 63.4772 83.8603 62.9272C85.0128 62.3773 85.6357 61.1722 86.3677 60.5442C87.0997 59.9163 88.0381 60.3336 89.0854 59.6004C90.1328 58.8671 89.4008 56.7727 88.4586 55.3102C87.5163 53.8476 86.1614 53.637 85.2191 53.8437C84.2769 54.0504 83.8603 55.5169 83.2334 55.6222C82.6065 55.7275 80.6052 55.8328 78.9505 56.3554C77.2957 56.878 75.3995 59.0777 74.0407 59.7057C72.6818 60.3336 71.5332 60.0216 70.4897 60.2283C69.4462 60.435 68.6091 61.4842 68.5312 62.9233C68.5312 62.9233 69.0257 60.474 71.0115 60.981C72.9972 61.4881 73.5345 62.2525 74.4339 64.1285C75.1464 65.6145 74.6597 66.7377 74.3288 67.2175C73.846 67.9117 72.1951 68.407 71.0621 67.276" fill="#EAECF7"/>
<path d="M69.4501 65.7081C69.4501 65.7081 70.3846 67.1394 71.9498 67.7674C73.515 68.3953 74.3521 68.3953 75.5008 67.2448C76.6494 66.0942 77.798 65.2557 79.0595 64.9436C80.321 64.6316 82.7078 63.4772 83.8603 62.9272C85.0128 62.3773 85.6357 61.1722 86.3677 60.5442C87.0997 59.9163 88.0381 60.3336 89.0854 59.6004C90.1328 58.8671 89.4008 56.7727 88.4586 55.3102C87.5163 53.8476 86.1614 53.637 85.2191 53.8437C84.2769 54.0504 83.8603 55.5169 83.2334 55.6222C82.6065 55.7275 80.6052 55.8328 78.9505 56.3554C77.2957 56.878 75.3995 59.0777 74.0407 59.7057C72.6818 60.3336 71.5332 60.0216 70.4897 60.2283C69.4462 60.435 68.6091 61.4842 68.5312 62.9233C68.5312 62.9233 69.0257 60.474 71.0115 60.981C72.9972 61.4881 73.5345 62.2525 74.4339 64.1285C75.1464 65.6145 74.6597 66.7377 74.3288 67.2175C73.846 67.9117 72.1951 68.407 71.0621 67.276" stroke="#173B91" stroke-width="2.06" stroke-miterlimit="10"/>
<path d="M74.7207 25.77C74.7207 25.77 80.6 35.9144 81.5384 37.8021C82.4767 39.6898 84.7778 43.3443 84.4624 45.3373C84.147 47.3303 84.879 49.2141 85.2995 50.3646C85.7162 51.5152 86.5533 53.0012 86.4482 53.7773" stroke="#173B91" stroke-width="2.06" stroke-miterlimit="10"/>
<path d="M74.7207 22.0649C74.7207 22.0649 81.1217 33.6173 82.4806 36.129C83.8395 38.6408 85.5098 40.5246 85.7201 43.9801C85.9303 47.4357 86.7635 49.1089 87.3904 50.6807C88.0173 52.2524 89.1152 54.5028 88.4611 55.3102" stroke="#173B91" stroke-width="2.06" stroke-miterlimit="10"/>
<path d="M45.916 31.7297C47.4734 31.8935 68.0782 34.9161 75.7875 28.6953L45.916 31.7297Z" fill="#EAECF7"/>
<path d="M45.916 31.7297C47.4734 31.8935 68.0782 34.9161 75.7875 28.6953" stroke="#173B91" stroke-width="2.06" stroke-miterlimit="10"/>
<path d="M43.4531 31.3163C41.5218 31.1057 39.832 29.998 39.832 29.998" stroke="#173B91" stroke-width="1.03" stroke-miterlimit="10"/>
<path d="M56.4883 93.61L57.232 66.9678L57.9756 93.61H56.4883Z" fill="#173B91"/>
<path d="M58.2051 93.6101L58.902 70.2129L59.599 93.6101H58.2051Z" fill="#173B91"/>
<path d="M59.8203 93.61L60.4511 74.5029L61.0818 93.61H59.8203Z" fill="#173B91"/>
<path d="M61.3711 93.6102L61.9473 77.4751L62.5275 93.6102H61.3711Z" fill="#173B91"/>
<path d="M62.7988 93.6101L63.3167 80.5366L63.8384 93.6101H62.7988Z" fill="#173B91"/>
<path d="M64.0918 93.6098L64.5707 82.5371L65.0496 93.6098H64.0918Z" fill="#173B91"/>
<path d="M54.7363 93.6101L55.5073 64.8501L56.2821 93.6101H54.7363Z" fill="#173B91"/>
<path d="M52.8359 93.0873L53.6302 62.4941L54.4284 93.0873H52.8359Z" fill="#173B91"/>
<path d="M49.1836 93.0873L50.0752 54.6431L50.9668 93.0873H49.1836Z" fill="#173B91"/>
<path d="M50.9277 93.0874L51.7571 60.0605L52.5825 93.0874H50.9277Z" fill="#173B91"/>
<path d="M48.7248 51.3825C48.6392 48.7225 49.8851 45.8793 51.4231 48.2974C52.961 50.7155 51.4231 46.047 51.4231 46.047L48.2459 42.3574L46.9922 45.0252L48.7248 51.3825Z" fill="#173B91"/>
<path d="M51.5938 28.3986C52.2539 28.3986 52.7891 27.8625 52.7891 27.2013C52.7891 26.54 52.2539 26.0039 51.5938 26.0039C50.9336 26.0039 50.3984 26.54 50.3984 27.2013C50.3984 27.8625 50.9336 28.3986 51.5938 28.3986Z" fill="#173B91"/>
<path d="M43.4526 26.0743C43.8783 26.0743 44.2235 25.7285 44.2235 25.302C44.2235 24.8755 43.8783 24.5298 43.4526 24.5298C43.0268 24.5298 42.6816 24.8755 42.6816 25.302C42.6816 25.7285 43.0268 26.0743 43.4526 26.0743Z" fill="#173B91"/>
<path d="M75.7688 60.9613C76.9408 60.0955 78.1244 59.175 79.4521 58.5588C80.1569 58.2312 80.9005 58.0167 81.6598 57.8607C82.419 57.7047 83.2523 57.6501 84.0154 57.4082C84.1166 57.377 84.0972 57.2288 83.992 57.2249C83.2055 57.182 82.4035 57.3263 81.6403 57.4901C80.8772 57.654 80.1257 57.8802 79.4171 58.2117C78.0154 58.863 76.8434 59.8459 75.6948 60.8599C75.6403 60.9067 75.7143 61.0081 75.7727 60.9652L75.7688 60.9613Z" fill="#173B91"/>
<path d="M67.667 28.9683C67.6943 28.9683 67.6943 28.9292 67.667 28.9292C67.6397 28.9292 67.6397 28.9683 67.667 28.9683Z" fill="#173B91"/>
<path d="M67.8252 28.0284C67.8525 28.0284 67.8525 27.9893 67.8252 27.9893C67.7979 27.9893 67.7979 28.0284 67.8252 28.0284Z" fill="#173B91"/>
<path d="M52.9214 16.8306C52.9214 16.8306 52.5554 14.3696 53.5482 13.6909C54.5411 13.0123 58.9292 13.219 59.556 13.2736C60.1829 13.3282 61.02 14.3891 61.2264 14.8103C60.1829 14.5997 55.9662 14.4593 55.2692 14.5997C54.5372 14.7518 54.2491 15.0092 54.2257 15.8555C54.2102 16.4328 54.2257 16.8306 54.2257 16.8306H52.9214Z" fill="#EAECF7" stroke="#173B91" stroke-width="1.03" stroke-miterlimit="10"/>
<path d="M61.2309 14.8769C61.6748 15.4307 61.6358 17.1819 61.6358 17.1819L60.6352 17.2287C60.6352 17.2287 60.6936 15.107 60.1641 14.7677C60.8688 14.7638 61.2309 14.8769 61.2309 14.8769Z" fill="#EAECF7" stroke="#173B91" stroke-width="1.03" stroke-miterlimit="10"/>
<path d="M72.6006 80.7862C72.6279 80.7862 72.6279 80.7471 72.6006 80.7471C72.5732 80.7471 72.5732 80.7862 72.6006 80.7862Z" fill="#173B91"/>
<path d="M70.0696 90.2248C71.2377 90.8098 72.6705 90.1585 73.7958 89.7099C74.921 89.2614 76.0073 88.5984 76.5446 87.4478C77.1403 86.1686 77.0897 84.6553 77.1248 83.2785C77.1676 81.5585 77.1754 79.8347 77.1365 78.1147C77.0897 76.1334 76.9768 74.1638 76.7666 72.1942C76.751 72.0421 76.5135 72.0343 76.5213 72.1942C76.7821 76.1412 76.934 80.0921 76.7471 84.0469C76.6653 85.8058 76.5135 87.6116 74.9366 88.6959C74.3058 89.1288 73.5855 89.4096 72.8691 89.6592C72.0047 89.9595 71.0352 90.3223 70.1085 90.1429C70.0579 90.1351 70.0229 90.2053 70.0735 90.2287L70.0696 90.2248Z" fill="#173B91"/>
<path d="M76.8549 55.2244C76.7108 54.1168 76.7692 52.935 76.7575 51.8196C76.7458 50.7041 76.7575 49.4834 76.7653 48.3172C76.7731 47.151 76.777 46.0473 76.7926 44.9123C76.8081 43.7774 76.9756 42.5488 76.8587 41.41C76.8432 41.2384 76.6173 41.2423 76.594 41.41C76.446 42.5137 76.5823 43.7033 76.5901 44.8148C76.5979 45.981 76.6057 47.151 76.629 48.3172C76.6524 49.4834 76.6913 50.5871 76.7303 51.7221C76.7692 52.857 76.8899 54.0778 76.812 55.2244C76.812 55.2517 76.8549 55.2478 76.851 55.2244H76.8549Z" fill="#173B91"/>
<path d="M71.7111 20.0563C71.5359 21.4214 71.4152 22.7903 71.4463 24.1632C71.4619 24.8379 71.5047 25.5088 71.567 26.1796C71.5982 26.5072 71.6254 26.8387 71.6916 27.1624C71.7461 27.4472 71.7812 27.7514 71.9992 27.9503C72.0926 28.0361 72.2523 28.0283 72.3146 27.9113C72.4586 27.65 72.4002 27.3614 72.373 27.0688C72.3418 26.7217 72.2834 26.3746 72.2445 26.0275C72.1705 25.384 72.1238 24.7365 72.0965 24.0852C72.042 22.7396 72.0459 21.3941 72.1861 20.0524C72.2172 19.7443 71.7461 19.7521 71.7072 20.0524L71.7111 20.0563Z" fill="#173B91"/>
</g>
<defs>
<clipPath id="clip0_524_2788">
<rect width="90" height="83" fill="white" transform="translate(0 11)"/>
</clipPath>
</defs>
</svg>
