<svg width="118" height="106" viewBox="0 0 118 106" fill="none" xmlns="http://www.w3.org/2000/svg">
<g clip-path="url(#clip0_524_2794)">
<path d="M37.8619 9.5918V10.3785H37.7339C33.9422 10.4336 30.7094 12.4554 28.6642 14.1468C27.0846 15.4527 26.1066 16.6564 25.5905 17.9387C21.8454 27.2572 30.1932 34.3021 33.9577 36.8982C35.9215 38.2514 38.0366 39.3095 40.2448 40.0372C41.184 40.3479 41.968 40.4974 42.6432 40.4974C43.3185 40.4974 43.8813 40.344 44.3314 40.0254C45.488 39.2033 45.7131 37.4096 45.8334 35.7929L46.5358 26.325C46.7221 23.8429 46.9123 21.2743 46.6872 18.7805C46.5397 17.1441 46.2331 15.9011 45.7286 14.8666C44.4129 12.184 41.2539 10.3785 37.8658 10.3785V9.5918M37.8619 9.5918C41.3198 9.5918 44.8825 11.3776 46.4194 14.5166C47.0559 15.8146 47.3275 17.2661 47.4556 18.7097C47.6846 21.2625 47.4944 23.8311 47.3081 26.384C47.0753 29.5386 46.8385 32.6972 46.6057 35.8519C46.4737 37.6299 46.2137 39.6438 44.7739 40.6705C44.1452 41.1189 43.4078 41.288 42.6394 41.288C41.7584 41.288 40.8386 41.0678 40.0003 40.7885C37.7028 40.0293 35.514 38.9279 33.5153 37.5512C27.1467 33.1575 21.5349 25.9316 24.8686 17.6437C25.5322 15.9916 26.8052 14.666 28.1674 13.5371C30.884 11.295 34.2139 9.64293 37.7183 9.59573C37.7649 9.59573 37.8115 9.59573 37.8581 9.59573L37.8619 9.5918Z" fill="#173B91"/>
<path d="M47.3927 15.9606C44.9982 16.8338 43.8184 16.944 41.7887 16.9479C39.9763 16.9479 37.9388 16.3579 36.5067 17.475C35.3114 18.4072 35.1096 20.1144 34.9039 21.6288C34.7176 23.0016 34.446 24.3626 34.0967 25.7039C33.9997 26.0815 33.7862 26.5378 33.402 26.5181C32.9285 26.4945 32.8509 25.8337 32.8354 25.3538C32.781 23.745 31.7138 22.2188 30.2352 21.6327C28.9894 21.141 27.3167 21.4557 26.7307 22.6751C26.036 24.1226 27.1615 25.7314 28.023 27.0806C28.6712 28.0955 29.2184 29.2873 29.0127 30.4792C28.807 31.671 27.5418 32.7173 26.4319 32.2689C26.0205 29.189 24.049 26.7069 22.4694 24.0439C20.886 21.381 19.6713 18.0532 20.9481 15.225C21.4061 14.2062 22.1551 13.3527 22.9041 12.5266C23.8316 11.5039 24.7825 10.5048 25.7333 9.50176C26.6608 8.52231 27.6544 7.50353 28.9506 7.14952C29.9674 6.87024 31.0463 7.04331 32.0941 7.17705C37.6244 7.89295 43.2207 7.56647 48.7976 7.5468C49.3487 7.5468 49.9347 7.55467 50.4082 7.84182C51.2931 8.37284 51.4328 9.63156 51.2077 10.6464C50.7458 12.7508 49.4419 15.3588 47.3966 15.9606H47.3927Z" fill="#173B91"/>
<path d="M26.8978 32.0879C28.1591 36.281 28.3531 40.0532 27.6351 44.3762C30.3518 45.3006 33.0296 47.342 35.3815 48.9941C35.8627 49.3324 36.3983 49.7022 36.9765 49.6156C38.0865 49.4504 38.2922 47.9281 38.2107 46.7953C38.0477 44.5217 37.5975 41.4378 37.4345 39.1603" stroke="#173B91" stroke-width="2" stroke-miterlimit="10"/>
<path d="M27.6346 44.3799C26.2142 44.372 25.0693 45.5246 24.2039 46.6692C23.3384 47.8139 22.4846 49.1001 21.1457 49.5839C26.0279 51.6018 29.1016 56.4401 31.8571 60.999C34.2283 58.1826 36.2037 55.024 37.7056 51.649C39.7198 53.7102 42.3783 55.6809 43.7754 58.2141C43.5581 55.3308 43.1894 53.7417 42.3317 51.5232C41.4818 49.3322 39.324 47.5936 38.1054 45.5875C38.1054 45.5875 38.9475 49.4699 36.976 49.6193C34.8803 48.6438 31.0266 45.9769 30.1223 45.5049C29.218 45.0329 27.6346 44.376 27.6346 44.376V44.3799Z" fill="#173B91" stroke="#173B91" stroke-width="2" stroke-linejoin="bevel"/>
<path d="M40.8686 49.2184C47.6835 52.4124 48.5023 55.9761 52.977 62.0888C54.3276 63.9376 55.5617 65.9082 57.2383 67.458C58.9149 69.0079 61.1735 70.1092 63.4206 69.771C67.4063 69.1691 71.3377 65.5857 73.1772 61.9551C75.3855 57.5967 78.6416 52.8293 81.4824 47.1611" stroke="#173B91" stroke-width="2" stroke-miterlimit="10"/>
<path d="M41.1097 25.5232C41.0903 26.9943 41.4512 29.6337 42.8716 29.3151C44.5754 28.9336 44.4939 26.1408 44.5676 24.3707C44.5948 23.7374 44.5482 23.0726 44.2416 22.518C43.935 21.9634 43.3141 21.5464 42.6931 21.6605C42.6931 21.6605 41.1485 22.3213 41.1058 25.5232H41.1097Z" stroke="#173B91" stroke-width="2" stroke-miterlimit="10"/>
<path d="M47.1285 24.1779C48.0017 23.0294 48.5993 23.0726 49.0806 23.4935C49.5618 23.9144 49.6317 24.6382 49.589 25.2793C49.4958 26.7033 49.0068 28.0957 48.1918 29.26C48.0133 29.5157 47.796 29.7753 47.4933 29.8383C47.1906 29.9012 46.8219 29.6455 46.8917 29.3426" stroke="#173B91" stroke-width="2" stroke-miterlimit="10"/>
<path d="M34.6052 22.3174C36.8057 22.3449 39.0023 22.6006 41.1484 23.0805" stroke="#173B91" stroke-width="2" stroke-miterlimit="10"/>
<path d="M44.7768 23.8672C45.553 23.8672 46.6164 24.1779 47.3926 24.1779" stroke="#173B91" stroke-width="2" stroke-miterlimit="10"/>
<path d="M47.1757 19.0524C47.6104 18.8675 47.9248 18.4781 48.1809 18.073C48.8523 17.0109 49.2326 15.7601 49.2637 14.5013C48.8562 14.1867 48.5263 14.0372 48.0334 13.8995C47.5017 13.754 46.8497 13.7579 46.5043 14.1906C46.2792 14.4738 46.2482 14.875 46.3258 15.229C46.4034 15.5831 46.5664 15.9135 46.7023 16.2478C47.071 17.1643 47.2805 18.069 47.1757 19.0524Z" fill="#173B91"/>
<path d="M21.1038 49.5801C20.9757 49.6155 20.8476 49.6548 20.7235 49.6981C14.9836 51.476 10.4312 55.9602 7.31097 61.1721C3.39512 67.7018 3.562 76.8786 6.95005 84.5883C7.01603 84.7457 7.08588 84.903 7.15962 85.0564C7.27217 85.3121 7.39248 85.5638 7.52055 85.8156C7.60593 85.9965 7.69907 86.1775 7.79609 86.3584C7.93192 86.622 8.07164 86.8855 8.21912 87.1451C8.33942 87.3654 8.46749 87.5817 8.59557 87.7981C8.75856 88.0734 8.92544 88.3448 9.0962 88.6123C9.25532 88.8601 9.4222 89.1079 9.58908 89.3518C9.7676 89.6114 9.95 89.8632 10.1363 90.1149C10.3497 90.406 10.571 90.6931 10.796 90.9724C11.0173 91.2478 11.2424 91.5152 11.4752 91.7788C11.743 92.0895 12.0224 92.3885 12.3096 92.6835C12.5852 92.9706 12.8723 93.2539 13.1673 93.5253C13.4933 93.8321 13.827 94.131 14.1725 94.4142C14.5994 94.7722 15.0418 95.1144 15.4958 95.433C15.915 95.7359 16.3458 96.0191 16.7882 96.2905C17.0094 96.4243 17.2345 96.558 17.4635 96.6839C17.9486 96.9553 18.4531 97.1834 18.9732 97.3722C19.3884 97.5296 19.8153 97.6673 20.2461 97.7892C20.6575 97.9072 21.0727 98.0134 21.488 98.1117C21.7868 98.1865 22.0857 98.2533 22.3806 98.3241C26.5759 99.3154 30.9109 99.9133 35.1915 99.4452C39.4761 98.981 43.7218 97.3801 46.8848 94.4182" stroke="#173B91" stroke-width="2" stroke-miterlimit="10"/>
<path d="M81.7662 33.8697C81.673 40.5685 81.576 47.2673 81.4829 53.9661C81.4635 55.327 81.4635 64.3584 82.1465 65.5306C82.8295 66.7028 84.4518 67.4265 85.5578 66.6556C86.5242 65.9869 86.6406 64.6101 86.66 63.4222C86.7726 56.279 86.9123 40.9265 86.8774 33.7832" stroke="#173B91" stroke-width="2" stroke-miterlimit="10"/>
<path d="M87.6023 33.8701H80.9854C80.5738 33.8701 80.2402 33.532 80.2402 33.1149V32.3282C80.2402 31.9111 80.5738 31.5729 80.9854 31.5729H87.6023C88.0139 31.5729 88.3475 31.9111 88.3475 32.3282V33.1149C88.3475 33.532 88.0139 33.8701 87.6023 33.8701Z" stroke="#173B91" stroke-width="2" stroke-miterlimit="10"/>
<path d="M46.0571 87.2002C46.0609 87.8374 46.0997 88.687 46.2201 89.757C46.5189 92.4357 46.6431 93.9304 46.8837 94.4182C47.1243 94.9059 56.5511 95.1773 57.7542 94.5047C58.9534 93.836 59.3725 90.6695 59.6869 89.3321C59.7296 89.1433 59.7722 88.8719 59.8111 88.5454C59.9158 87.5345 59.9546 85.9926 59.7296 84.7181C59.5239 83.5263 59.0853 82.5665 58.2703 82.5036C57.661 82.4564 54.3816 83.1959 54.2613 82.7396C54.141 82.2833 55.4101 78.6527 55.4101 77.0714C55.4101 76.5325 55.2743 76.0133 55.0608 75.5806H55.0569V75.5727C54.6378 74.7349 53.9237 74.2275 53.3066 74.5972C53.2678 74.6208 53.2329 74.6405 53.198 74.668C52.0841 75.4547 51.8901 77.5198 51.4709 78.7038C51.4089 78.8808 51.3429 79.0342 51.2653 79.164C50.6637 80.1985 50.0234 81.3392 48.5797 83.2863C47.396 84.8794 46.7285 85.5717 46.1269 85.7566C46.1269 85.7566 46.0493 86.2365 46.0571 87.2002Z" stroke="#173B91" stroke-width="2" stroke-miterlimit="10"/>
<path d="M81.666 41.2295C80.9131 41.969 79.7217 42.795 79.6091 43.8492C79.4694 45.1355 80.3853 46.2644 81.243 47.2242" stroke="#173B91" stroke-width="2.3" stroke-miterlimit="10"/>
<path d="M59.5358 84.6905C59.6018 84.7023 59.6639 84.7101 59.7298 84.718C63.017 85.1743 67.5926 84.1673 70.0415 82.1494C74.4075 78.5581 77.5161 72.1622 80.2366 66.6357H80.2405C80.7644 65.5618 81.2767 64.5234 81.7812 63.5479" stroke="#173B91" stroke-width="2" stroke-miterlimit="10"/>
<path d="M46.127 85.7569C43.0727 87.9951 39.1258 88.7425 35.369 88.4003C31.6162 88.0581 29.8038 88.0659 26.408 86.406C24.6072 85.5249 22.6163 84.0341 21.2425 82.3702C20.932 81.9965 20.6526 81.611 20.412 81.2255C19.1429 79.1526 18.3163 76.3991 18.1067 73.7243C18.1028 73.7086 18.1028 73.6968 18.1028 73.6811C17.998 72.3397 18.0524 71.0181 18.2813 69.8184" stroke="#173B91" stroke-width="2" stroke-miterlimit="10"/>
<path d="M37.7062 51.6494C39.8485 56.999 41.3388 78.7041 40.1706 88.0187" stroke="#173B91" stroke-width="2" stroke-miterlimit="10"/>
<path d="M27.8451 55.1543C31.4893 63.159 33.5695 81.9533 33.7441 88.2548" stroke="#173B91" stroke-width="2" stroke-miterlimit="10"/>
<path d="M42.6001 52.3457C44.7773 59.0563 44.9131 75.3528 43.939 87.1691" stroke="#173B91" stroke-width="2" stroke-miterlimit="10"/>
<path d="M85.2402 43.9082H81.6232" stroke="#173B91" stroke-width="2.3" stroke-miterlimit="10"/>
<path d="M81.6797 60.5157C79.6771 59.4772 77.9152 57.9668 76.5724 56.1416" stroke="#173B91" stroke-width="2" stroke-miterlimit="10"/>
<path d="M78.6063 64.3272C78.195 65.5151 77.7719 66.6834 77.2092 67.8044C76.6465 68.9255 75.944 70.0544 75.2222 71.1125C74.5003 72.1706 73.7823 73.1146 72.9674 74.043C72.1524 74.9713 71.2675 76.0215 70.1808 76.6351C70.045 76.7099 69.8587 76.5525 69.9558 76.407C70.631 75.4039 71.5702 74.574 72.3619 73.6614C73.1536 72.7488 73.9647 71.73 74.6866 70.7034C76.1031 68.6934 77.3916 66.4906 78.4356 64.2603C78.4783 64.1659 78.6374 64.2328 78.6025 64.3311L78.6063 64.3272Z" fill="#173B91"/>
<path d="M20.8974 74.5266C22.7952 74.3771 24.6929 74.2945 26.5946 74.2119C27.037 74.1922 27.4833 74.1765 27.9258 74.145C28.3449 74.1135 28.7757 74.0388 29.1909 74.1096C29.9632 74.2355 30.1262 75.0733 30.2039 75.7381C30.4328 77.6852 30.5376 79.6834 30.3979 81.6383C30.3397 82.4604 30.1651 83.2708 29.6023 83.8962C29.1056 84.4469 28.3837 84.797 27.6851 84.9897C26.8624 85.2178 25.9814 85.2729 25.1315 85.1746C24.3553 85.0841 23.5132 84.9346 22.9776 84.3053C22.8456 84.1479 22.9155 83.8096 23.1677 83.8411C23.7344 83.9119 24.2699 84.0929 24.8288 84.1833C25.4769 84.2856 26.1638 84.2817 26.8081 84.1637C27.4057 84.0535 27.9995 83.8568 28.504 83.5028C29.1366 83.0583 29.3229 82.3818 29.3733 81.6383C29.482 79.9941 29.4083 78.3224 29.2686 76.6821C29.2375 76.3045 29.1987 75.923 29.156 75.5453C29.1056 75.1244 29.0551 74.7901 28.5778 74.735C27.8443 74.6485 27.0681 74.7154 26.3307 74.7232C24.5183 74.7468 22.7098 74.7901 20.9013 74.6524C20.8198 74.6446 20.8198 74.5305 20.9013 74.5226L20.8974 74.5266Z" fill="#173B91"/>
<path d="M11.4742 91.7793C11.742 92.09 12.0214 92.389 12.3086 92.684L27.8711 92.2435L11.4742 91.7793Z" fill="#173B91"/>
<path d="M10.1357 90.1152C10.3491 90.4063 10.5703 90.6935 10.7954 90.9727L24.6426 90.5558L10.1357 90.1152Z" fill="#173B91"/>
<path d="M9.09508 88.6123C9.2542 88.8601 9.42108 89.1079 9.58796 89.3518L20.373 88.9899L9.09508 88.6123Z" fill="#173B91"/>
<path d="M8.21823 87.1455C8.33854 87.3658 8.46661 87.5821 8.59468 87.7985L17.416 87.4799L8.21823 87.1455Z" fill="#173B91"/>
<path d="M7.51931 85.8154C7.60469 85.9964 7.69783 86.1773 7.79485 86.3583L14.3691 86.0947L7.51931 85.8154Z" fill="#173B91"/>
<path d="M6.94949 84.5889C7.01547 84.7462 7.08532 84.9035 7.15906 85.057L12.3789 84.8288L6.94949 84.5889Z" fill="#173B91"/>
<path d="M13.1664 93.5254C13.4924 93.8322 13.8261 94.1311 14.1715 94.4144L29.9785 93.9856L13.1664 93.5254Z" fill="#173B91"/>
<path d="M15.4946 95.4336C15.9137 95.7365 16.3445 96.0197 16.7869 96.2911L32.3223 95.8781L15.4946 95.4336Z" fill="#173B91"/>
<path d="M18.9721 97.3721C19.3873 97.5294 19.8142 97.6671 20.245 97.789C20.6564 97.907 21.0716 98.0132 21.4869 98.1116L34.7441 97.7733L18.9721 97.3721Z" fill="#173B91"/>
<path d="M25.0312 7.41666C24.8644 7.66447 24.81 7.93588 24.6936 8.20729C24.5888 8.45904 24.4957 8.72258 24.4219 8.98613C24.2667 9.52895 24.2046 10.1111 24.2162 10.6736C24.2318 11.7514 24.6199 12.841 25.3534 13.6316C25.9471 14.2767 25.0118 15.2325 24.3948 14.6032C23.3741 13.5647 22.8696 12.129 22.9161 10.6736C22.9394 9.94197 23.1102 9.26541 23.4284 8.60851C23.5798 8.29776 23.7622 8.02242 23.9873 7.76281C24.2124 7.50319 24.5112 7.35372 24.779 7.15705C24.9303 7.04691 25.136 7.26325 25.0351 7.41666H25.0312Z" fill="#173B91"/>
</g>
<defs>
<clipPath id="clip0_524_2794">
<rect width="85" height="93" fill="white" transform="matrix(-1 0 0 1 89 7)"/>
</clipPath>
</defs>
</svg>
