<svg width="118" height="106" viewBox="0 0 118 106" fill="none" xmlns="http://www.w3.org/2000/svg">
<g clip-path="url(#clip0_524_2790)">
<path d="M77.3425 79.1389C74.5353 82.1535 70.1258 87.7971 66.917 88.896C63.7082 89.999 50.6245 92.3128 45.1261 93.1712C41.2631 93.7766 22.5319 92.715 21.4637 92.263C20.3955 91.8111 18.9215 85.7736 18.6565 78.9855C18.3874 72.1975 19.5219 67.01 19.5219 67.01C20.9959 66.5539 23.9769 65.8489 25.5834 64.1903C26.8255 62.9007 29.2394 61.8806 31.5911 61.4494C32.2702 61.3208 32.945 61.2462 33.5868 61.2254C34.5225 61.1964 35.3175 61.3374 36.071 61.5738C36.071 61.5779 36.071 61.5779 36.071 61.5779C38.2654 62.2662 40.1493 63.7881 44.3229 64.4598C49.9372 65.3638 55.2245 66.1019 58.069 68.8636C60.4621 71.1898 60.7644 74.0095 59.5429 74.8264C59.0792 75.1374 58.0731 75.324 57.2202 75.4318C59.1579 75.4318 62.1431 75.2826 64.6522 74.9716C66.5361 74.7435 68.155 74.4201 68.8713 74.0095C70.9539 72.807 80.5472 66.0148 82.5553 64.6547C84.5592 63.2988 86.5632 63.4729 87.4989 65.4965C88.4346 67.5242 80.1456 76.1202 77.3384 79.1389H77.3425Z" stroke="#173B91" stroke-width="2.06" stroke-miterlimit="10"/>
<path d="M57.2242 75.4319C52.9265 75.689 44.0081 73.993 40.3107 75.3034C37.7519 76.2115 37.5035 78.6829 37.2344 80.1922" stroke="#173B91" stroke-width="2.06" stroke-miterlimit="10"/>
<path d="M18.039 92.313C18.0224 92.8894 15.8115 93.4534 13.5094 93.9136C11.4806 94.3242 9.38143 94.6559 8.64858 94.8549C7.08351 95.2779 4.60755 94.9005 2.81476 92.2052C1.02611 89.5141 -0.0710975 72.6746 -0.000710709 69.8756C0.0448337 68.2294 0.566524 66.9729 1.20829 66.1892C1.65545 65.646 2.16058 65.3309 2.61188 65.2811C3.70494 65.1567 15.7866 66.4173 15.7866 66.4173C15.7866 66.4173 15.2442 72.7865 15.2981 78.6996C15.3643 86.0267 18.0638 91.2225 18.0349 92.313H18.039Z" fill="#173B91"/>
<path d="M7.45641 74.9427C8.99534 74.9427 10.2429 73.6933 10.2429 72.152C10.2429 70.6108 8.99534 69.3613 7.45641 69.3613C5.91747 69.3613 4.66992 70.6108 4.66992 72.152C4.66992 73.6933 5.91747 74.9427 7.45641 74.9427Z" fill="white" stroke="#173B91" stroke-width="3.41" stroke-miterlimit="10"/>
<path d="M64.8974 74.8516L64.9968 70.6096V70.5889L65.916 30.6857C65.9325 30.0637 65.4315 29.5537 64.8105 29.5537H36.2541C35.6372 29.5537 35.1362 30.0555 35.1487 30.6774C35.1901 33.0286 35.2977 38.8463 35.4344 44.8092C35.4592 45.9786 35.4882 47.1479 35.5172 48.2965C35.6869 55.1965 35.8898 61.4041 36.072 61.5741C36.072 61.5782 36.0761 61.5782 36.0761 61.5782" stroke="#173B91" stroke-width="2.06" stroke-miterlimit="10"/>
<path d="M35.1484 31.208L65.9157 31.2163" stroke="#173B91" stroke-width="2.06" stroke-miterlimit="10"/>
<path d="M65.9396 33.9406C65.9396 33.9406 58.4455 32.3649 58.5325 27.7248C58.6111 23.6486 63.8529 22.8898 60.4909 19.0625C59.6421 18.0963 57.3607 17.9221 56.189 18.0922C53.0754 18.5358 50.0281 21.82 50.4421 25.0087C50.6988 26.9991 51.9948 28.6827 53.2618 30.1713C53.2618 30.1713 53.2617 30.1796 53.2659 30.1796C54.7854 31.9668 56.2594 33.472 55.8495 34.8819C55.2326 36.9925 51.3613 39.1156 46.3514 37.233C41.3457 35.3546 36.3565 37.1791 35.3711 41.9353" stroke="#173B91" stroke-width="2.06" stroke-miterlimit="10"/>
<path d="M71.4886 9.72412V10.5783C72.5982 10.5783 73.5091 10.9101 74.126 11.5362C74.6312 12.0504 74.921 12.7512 74.921 13.4602C74.921 14.273 74.5194 15.2184 73.3849 15.2184C70.0519 15.2184 67.1785 15.4133 65.7749 17.7852C65.6134 18.0589 65.4726 18.1708 65.4271 18.204C65.2697 18.0713 65.0213 17.4452 65.2325 16.4583C65.7045 14.2564 67.7623 10.7152 71.2733 10.5866C71.3478 10.5866 71.4182 10.5866 71.4886 10.5866V9.73241M71.4886 9.72412C71.4058 9.72412 71.323 9.72412 71.2402 9.72827C67.1412 9.87755 64.893 13.9661 64.3961 16.2758C64.0483 17.8972 64.6487 19.0665 65.4105 19.0665C65.7666 19.0665 66.1599 18.8094 66.5077 18.2206C67.5966 16.3795 69.8118 16.0726 73.3849 16.0726C76.9581 16.0726 76.7428 9.72412 71.4886 9.72412Z" fill="#173B91"/>
<path d="M43.2497 7.85421C43.3201 7.85421 43.3946 7.85421 43.465 7.85421C46.9761 7.98275 49.0338 11.524 49.5058 13.7259C49.717 14.7045 49.4727 15.3347 49.3154 15.4716C49.2533 15.4343 49.1166 15.3182 48.9635 15.0569C47.5599 12.685 44.6864 12.4902 41.3534 12.4902C40.2189 12.4902 39.8173 11.5406 39.8173 10.732C39.8173 9.34285 40.8938 7.85006 43.2497 7.85006M43.2497 7C37.9914 7 37.8299 13.3485 41.3534 13.3485C44.8769 13.3485 47.1417 13.6554 48.2306 15.4965C48.5784 16.0853 48.9717 16.3424 49.3278 16.3424C50.0896 16.3424 50.69 15.173 50.3422 13.5517C49.8454 11.242 47.5971 7.15757 43.4981 7.00415C43.4153 7.00415 43.3325 7 43.2497 7Z" fill="#173B91"/>
<path d="M40.1738 63.7054L40.9646 43.5693L41.7513 63.7054H40.1738Z" fill="#173B91"/>
<path d="M47.1836 64.879L47.9703 44.7471L48.7569 64.879H47.1836Z" fill="#173B91"/>
<path d="M53.7539 65.2729L54.5406 45.4644L55.3314 65.2729H53.7539Z" fill="#173B91"/>
<path d="M59.7012 75.0299L60.492 43.8057L61.2787 75.0299H59.7012Z" fill="#173B91"/>
<path d="M35.4303 44.813L34.9707 45.7916C35.0866 45.182 35.3847 44.8586 35.4303 44.813Z" fill="#173B91"/>
<path d="M64.995 70.5887V70.6095L64.6555 74.9717C62.1464 75.2827 59.1612 75.432 57.2235 75.432C58.0764 75.3242 59.0825 75.1376 59.5463 74.8266C60.7677 74.0097 60.4654 71.19 58.0723 68.8637C55.2278 66.1021 49.9405 65.364 44.3262 64.46C40.1526 63.7882 38.2688 62.2664 36.0743 61.5781C36.0743 61.5781 36.0743 61.5781 36.0743 61.5739C35.8922 61.4039 35.6893 55.1964 35.5195 48.2964C36.2565 49.6772 37.2088 55.0264 40.3431 57.2822C48.8475 63.3943 49.8412 59.6872 55.8116 62.8511C61.7821 66.015 64.9992 70.5887 64.9992 70.5887H64.995Z" fill="#173B91"/>
<path d="M55.9527 87.5773C57.9525 87.2 59.9606 86.918 61.9562 86.4992C63.7656 86.1177 65.6412 85.7487 67.3098 84.9152C68.9783 84.0817 70.2577 82.8004 71.5661 81.5606C73.0608 80.1465 74.5389 78.7118 76.0005 77.2605C76.7913 76.4768 77.5779 75.6889 78.3646 74.8969C79.201 74.0551 79.9877 73.1843 80.795 72.3135C80.9938 72.0979 80.6874 71.7911 80.4721 71.9901C77.5614 74.7062 74.7625 77.5425 71.8932 80.3083C70.5683 81.5813 69.264 82.9704 67.6948 83.949C66.1256 84.9276 64.279 85.3299 62.4821 85.7404C61.3973 85.9892 60.3084 86.238 59.236 86.5365C58.1636 86.8351 57.0457 87.2207 55.9361 87.5151C55.8947 87.5276 55.9112 87.5898 55.9527 87.5815V87.5773Z" fill="#173B91"/>
</g>
<defs>
<clipPath id="clip0_524_2790">
<rect width="88" height="88" fill="white" transform="translate(0 7)"/>
</clipPath>
</defs>
</svg>
