<svg width="118" height="67" viewBox="0 0 118 67" fill="none" xmlns="http://www.w3.org/2000/svg">
<path d="M34.6126 12.0785C32.8466 14.5818 29.5813 15.5048 29.4947 12.53C29.3081 6.1753 23.0506 13.1808 27.7954 6.97213C29.0748 5.30543 30.0611 5.30542 32.9466 4.6414C35.8321 3.97073 33.0266 8.02129 35.7588 8.63883C38.4844 9.25638 36.3785 9.56846 34.6126 12.0785ZM107.43 41.4947C107.236 42.1388 108.563 43.3341 109.002 42.1056C108.756 41.5943 108.116 41.415 107.43 41.4947ZM117.492 55.5189C117.059 56.0634 115.886 57.3051 114.147 57.4313C113.58 57.916 112.887 58.1086 112.181 58.1086C111.295 58.1086 110.382 57.8098 109.662 57.418C109.296 57.2255 108.922 56.9798 108.596 56.6942C106.417 54.1909 103.618 52.1523 100.239 50.5919C97.3604 49.4962 95.6078 47.4178 94.9014 44.2571C94.8948 44.2172 94.8814 44.1641 94.8748 44.1176C93.0755 42.1654 90.8697 40.0604 89.5169 39.4495C88.1908 38.8586 87.5977 39.1706 87.1579 39.403C87.0979 39.4362 87.0446 39.4628 86.9913 39.4894C86.6714 39.6288 86.1117 40.6315 85.7385 41.2955C85.3653 41.9662 85.0121 42.597 84.6789 42.9224C84.6389 42.9622 84.5856 42.9954 84.539 43.0353C84.7855 44.0778 85.1054 45.2664 85.4186 46.4351C85.6785 47.4178 85.9517 48.4404 86.1716 49.3236C86.3182 49.8946 86.3915 50.4059 86.3782 50.8442C86.3449 52.2453 87.4245 54.0182 88.4707 55.7314C89.457 57.3516 90.3966 58.8855 90.4232 60.114L92.8822 63.5934C92.9156 63.6466 92.9222 63.713 92.8956 63.7661C92.8689 63.8192 92.8089 63.8524 92.749 63.8524H87.5177C87.4644 63.8524 87.4178 63.8258 87.3845 63.786C87.3512 63.7462 87.3445 63.693 87.3578 63.6399C87.3578 63.6399 87.4578 63.2614 87.4977 62.8165C87.5444 62.2787 87.4978 61.6014 87.0046 61.3822C86.3716 61.11 85.8984 60.4792 85.7385 59.6956C84.9655 56.1696 83.3528 53.7858 82.0533 51.8734C81.8067 51.5082 81.5668 51.1563 81.3403 50.811C81.3269 50.7977 81.3203 50.7844 81.3136 50.7711C80.8938 50.127 80.394 49.5892 79.7876 49.1177C77.3219 47.212 77.1753 44.7949 77.2353 43.7856C76.329 43.8188 75.516 43.8985 74.7829 44.0379C72.5505 44.4828 71.271 43.0751 70.0382 41.7139C69.5984 41.2291 69.1386 40.7377 68.6254 40.2995C68.3922 40.7377 68.1656 41.176 67.9524 41.6076C67.0794 43.3606 66.413 44.9344 66.0865 46.03C65.6933 47.3182 65.5134 48.3143 65.3601 49.1841C65.2268 49.9146 65.1135 50.5454 64.9069 51.2028C64.767 51.6344 64.6204 51.9996 64.4471 52.3648C64.1006 53.0753 63.6275 53.8057 62.9477 54.649C61.9881 56.7938 61.6749 58.8988 61.4483 60.446C61.2817 61.5881 61.1551 62.4115 60.8486 62.9161C60.7286 63.1087 60.7286 63.2481 60.8486 63.4739C60.9619 63.6997 61.1751 63.9653 61.4217 64.2708C61.8482 64.7953 62.3813 65.4527 62.8145 66.389C62.8744 66.5218 62.8678 66.6812 62.7878 66.8007C62.7078 66.9268 62.5679 66.9999 62.4213 66.9999H58.2896C57.7565 66.9999 57.2634 66.8339 56.8635 66.5152C56.4637 66.1831 56.2105 65.7316 56.1305 65.207C56.0172 64.4102 55.8106 63.7395 55.5374 63.2481C55.2509 62.7435 55.2109 62.1259 55.4241 61.5615C55.9106 60.2999 56.3971 59.191 56.8635 58.1219C57.1234 57.5375 57.37 56.9731 57.5899 56.4353C58.3696 54.5494 58.8694 52.9624 58.7694 51.3422C58.7028 50.147 59.0227 48.7259 59.3892 47.0792C59.5291 46.4483 59.6824 45.791 59.8157 45.1004C60.1755 43.2942 60.5354 40.8971 60.1422 38.334C60.1356 38.2676 60.1156 38.2078 60.1089 38.1414C51.4591 36.1626 43.8089 43.5997 35.3989 39.4562C35.379 39.496 35.359 39.5292 35.3323 39.5624C34.8192 40.1202 34.1461 40.6381 33.3731 41.1029C33.2198 41.6607 32.9666 42.1853 32.6734 42.7697C32.1469 43.8055 31.4939 45.1004 31.214 47.2385C30.8008 50.313 31.6871 55.3795 33.4664 60.1538C33.693 60.3729 36.9783 63.5403 36.9783 63.5403C37.0316 63.5934 37.0449 63.6665 37.0183 63.7395C36.9916 63.8059 36.925 63.8524 36.8517 63.8524L30.4343 63.8258C30.0744 63.8258 29.7213 63.7063 29.4214 63.4872C29.0682 63.2482 28.795 62.8896 28.6617 62.4712C28.5817 62.2123 28.4884 61.9666 28.4018 61.7541C28.1619 61.1498 27.9153 60.5057 27.8887 59.8284C27.6421 54.483 26.0961 49.6357 23.0573 44.7617C23.024 44.8414 22.9907 44.9211 22.9573 44.9941C22.7774 45.3793 22.3709 45.5785 21.9511 45.5121C21.5246 45.439 21.2114 45.107 21.1647 44.6754C21.0714 43.8122 21.0648 43.022 21.1514 42.3247C19.3855 41.6873 17.986 40.8838 17.926 40.8506L17.2063 40.4389C17.133 40.5385 17.0731 40.6315 16.9998 40.7311C16.0202 42.099 14.8273 43.5532 13.7877 44.8148L12.7948 46.0034C11.5953 47.4311 10.4691 48.7791 9.55612 49.9876C7.86347 52.232 7.35035 55.1006 6.81056 58.1418C6.55067 59.5761 6.27079 61.1299 5.83763 62.624C6.0642 62.8763 6.27745 63.1419 6.47737 63.4208C7.09712 64.2375 7.59691 65.0941 7.87014 65.5523C7.95677 65.705 8.02341 65.8113 8.05673 65.8578C8.17668 65.9839 8.19 66.1499 8.1167 66.3093C8.01674 66.5417 7.97676 66.628 6.39074 66.628C5.74433 66.628 4.83803 66.6147 3.56522 66.5882C3.06542 66.5815 2.59228 66.4155 2.20577 66.1167C1.68598 65.7382 1.35945 65.1207 1.32613 64.4368C1.30614 63.7594 1.25949 63.029 1.19951 62.2588C1.15953 61.8205 1.24616 61.369 1.44608 60.9506C2.01918 59.7288 2.65226 57.7633 3.22536 55.4193C4.17164 51.5746 5.24453 44.3766 5.35116 41.1561C5.37781 40.4721 5.69102 39.828 6.22414 39.33C6.53734 39.0312 6.83056 38.7855 7.11711 38.5398C8.26331 37.5637 9.16294 36.7934 10.709 33.46C11.1488 32.5171 11.5153 30.9766 11.8019 28.865C12.2883 25.339 12.4616 20.8037 12.5216 17.1184C12.3816 17.882 12.215 18.7519 12.0085 19.7612C10.9689 24.8344 9.25624 26.262 6.77724 27.8623C4.74474 29.1704 3.65185 31.6805 3.30532 33.6194C3.51191 34.7217 3.53856 35.6513 3.1054 36.8266C2.61894 38.1215 0.759691 38.7589 0.546444 38.8254C0.499797 38.8386 0.459815 38.8453 0.413167 38.8453C0.346528 38.8453 0.28655 38.8253 0.226575 38.7988C0.213247 38.7988 0.206583 38.7855 0.193255 38.7789C0.139944 38.7457 0.0932966 38.6992 0.0533129 38.6461C0.0533129 38.6461 0.0466475 38.6461 0.0466475 38.6394C0.0466475 38.6261 0.0466497 38.6195 0.0333218 38.6062C0.0266579 38.5863 0.0133293 38.573 0.00666538 38.5465C0.00666538 38.5332 0.00666538 38.5199 0.00666538 38.5133C1.42372e-06 38.4867 0 38.4535 0 38.4269C0 38.4004 0 38.3738 0 38.3473C0 38.3207 0.0133296 38.2941 0.0199936 38.2676C0.0266576 38.241 0.039985 38.2144 0.0533129 38.1945C0.0666408 38.1746 0.0866325 38.1547 0.0999604 38.1348C0.119952 38.1148 0.139943 38.0949 0.166599 38.075C0.173263 38.0684 0.179927 38.0551 0.193255 38.0484C0.253231 38.0086 0.793011 37.6367 0.633076 36.0829C0.439822 34.2701 1.41942 33.4534 1.8859 33.1679C2.06583 32.1718 3.01211 28.2142 6.91719 26.0362C10.9689 23.7719 11.4354 16.4079 11.4354 11.0625C11.4354 8.61891 12.2284 6.75299 13.7944 5.51127C16.4333 3.41295 20.3117 3.92427 20.3451 3.93091C21.7645 4.26292 22.6108 3.87113 23.6837 3.37976C24.8832 2.82862 26.3759 2.13804 29.0349 2.41693C29.568 2.47006 30.1144 2.4966 30.6609 2.48332C32.9533 2.45012 35.8388 2.21771 39.1841 1.94546C40.9234 1.80602 42.756 1.65993 44.6352 1.52712C47.5007 1.24159 53.0584 0.643976 56.3771 0.285403C58.1675 0.0950498 59.076 -0.00012207 59.1026 -0.00012207C61.1351 -0.00012207 67.7724 0.358443 74.0566 2.00522H74.0699C74.5164 2.11811 75.0295 2.17124 75.6226 2.22436C78.7613 2.52981 83.506 3.00126 89.0238 13.6256C89.5569 14.635 90.5299 16.1888 91.6161 17.8555C91.6761 17.8754 91.7227 17.9153 91.736 17.9817C91.736 18.0016 91.736 18.0215 91.736 18.0414C93.6886 21.0162 95.9943 24.2832 96.9006 25.3523C98.2667 26.9592 100.612 29.8345 102.392 32.0258C102.832 30.6645 103.458 29.8345 104.278 29.5622C105.377 29.197 106.417 29.9407 106.943 30.4188C107.256 30.7043 107.55 31.043 107.829 31.375C108.736 32.4374 109.589 33.4401 111.408 33.2011C111.608 33.1811 111.788 33.294 111.848 33.48C111.908 33.6659 111.835 33.8651 111.661 33.9647C111.588 34.0045 110.155 34.808 108.563 34.808C108.196 34.808 107.823 34.7682 107.45 34.6619C106.777 34.4694 106.21 34.1041 105.75 33.5663C105.777 33.7788 105.87 33.9514 105.91 34.0178C106.65 34.6951 106.983 35.2795 107.31 35.8439C107.596 36.3485 107.863 36.82 108.423 37.3645C109.749 38.6461 110.595 40.0007 110.935 41.3885C112.381 42.8626 113.487 44.1508 113.634 45.9902C113.694 46.8202 114.633 48.3209 115.46 49.6556C115.953 50.4458 116.419 51.1895 116.686 51.7805C116.686 51.7805 116.686 51.7871 116.686 51.7937C116.813 52.0793 116.886 52.2851 116.919 52.4644C116.986 52.8363 117.206 53.062 117.446 53.3011C117.965 53.8389 118.359 54.41 117.486 55.5056L117.492 55.5189ZM108.329 40.7311C107.25 40.6979 106.237 41.2822 106.39 42.3978C106.537 43.52 109.182 43.7458 109.422 42.8294C109.742 41.6076 109.409 40.7709 108.329 40.7311ZM112.887 45.9902C111.435 43.188 109.742 43.3673 110.295 44.9875C110.842 46.6077 112.714 49.7087 113.914 51.1164C114.4 51.6941 115.8 51.0965 114.327 49.5427C112.854 47.9955 114.347 48.7923 112.894 45.9835L112.887 45.9902ZM102.118 49.2439C102.272 49.2439 102.398 49.1177 102.405 48.965C102.405 48.8056 102.278 48.6795 102.125 48.6795C99.5395 48.6662 97.4004 47.1323 96.9206 44.9543C96.8873 44.8016 96.7407 44.7086 96.5807 44.7352C96.4275 44.7684 96.3275 44.9211 96.3608 45.0738C96.8939 47.5108 99.2596 49.224 102.118 49.2439ZM95.4745 31.1758C95.7144 33.3472 96.8606 35.4919 97.6603 36.2024C98.1867 35.97 98.8665 35.9037 99.1663 35.8837C99.0397 33.4733 97.9602 32.0855 95.4745 31.1758ZM98.0401 28.0217C98.0002 27.9752 94.1151 23.42 92.3558 20.5846C92.3091 20.5049 92.2025 20.485 92.1292 20.5315C92.0492 20.578 92.0293 20.6842 92.0759 20.7573C93.8485 23.6192 97.7536 28.1943 97.7936 28.2342C97.8269 28.274 97.8735 28.2939 97.9202 28.2939C97.9602 28.2939 98.0002 28.2806 98.0268 28.2541C98.1001 28.1943 98.1068 28.0881 98.0468 28.0217H98.0401ZM110.295 33.5995C109.889 33.5995 108.623 33.1944 107.77 32.1386C106.283 30.3059 105.071 29.6751 104.171 30.2594C104.098 30.3059 104.078 30.4055 104.124 30.4786C104.171 30.5516 104.271 30.5715 104.344 30.5251C105.091 30.047 106.157 30.6512 107.523 32.3378C108.423 33.4534 109.775 33.9116 110.295 33.9116C110.302 33.9116 110.308 33.9116 110.322 33.9116C110.408 33.9116 110.475 33.8385 110.475 33.7522C110.475 33.6659 110.402 33.5995 110.315 33.5995C110.315 33.5995 110.302 33.5995 110.295 33.5995ZM19.2722 35.1002C19.1855 35.0603 19.0922 35.1002 19.0523 35.1865C17.3529 39.0312 11.7352 45.8175 9.88265 47.8561C9.82267 47.9225 9.82934 48.0287 9.89598 48.0885C9.9293 48.1151 9.96928 48.1283 10.0093 48.1283C10.0559 48.1283 10.1026 48.1084 10.1292 48.0752C11.9951 46.0234 17.6395 39.1972 19.3588 35.3127C19.3988 35.2263 19.3588 35.1334 19.2722 35.0935V35.1002ZM2.0525 62.2056C2.11248 62.9958 2.15912 63.7395 2.17911 64.4168C2.19911 64.802 2.37237 65.1473 2.65226 65.3863C3.1987 64.8949 4.37822 63.9321 5.49776 63.62C5.34449 63.4274 5.19122 63.2216 5.02462 63.0489C4.918 62.9361 4.87802 62.7767 4.92466 62.6306C5.38448 61.11 5.67103 59.4898 5.93092 58.0555C5.95091 57.9426 5.9709 57.8297 5.9909 57.7168C5.69768 57.2255 5.24454 57.086 4.7714 56.9466C4.43153 56.847 4.09167 56.7407 3.8451 56.5017C3.31199 58.5402 2.75888 60.2003 2.2191 61.3358C2.08582 61.6213 2.02584 61.9135 2.0525 62.2056ZM18.3392 40.1268C18.3392 40.1268 19.2588 40.6581 20.505 41.176C20.8915 41.342 21.3113 41.5014 21.7512 41.6475C21.9511 41.7139 22.0777 41.9197 22.0377 42.1322C21.9111 42.8228 21.9044 43.6794 22.0044 44.609C22.0044 44.6289 22.0044 44.6688 22.0777 44.682C22.1377 44.6953 22.151 44.6621 22.1577 44.6422C22.4575 44.0114 22.6908 43.2278 22.8174 42.4376C22.8374 42.3248 22.8974 42.2185 22.9973 42.1521C23.0973 42.0857 23.2172 42.0591 23.3305 42.0791C23.737 42.1587 24.1169 42.2119 24.4567 42.2384C24.8632 42.265 25.2897 42.2716 25.7362 42.265C25.8828 42.265 26.0161 42.265 26.1494 42.265C26.2627 42.265 26.3826 42.3048 26.4692 42.3845C26.5559 42.4642 26.6025 42.5771 26.6025 42.6966C26.6025 43.3805 26.6958 44.0313 26.8757 44.6422C26.8891 44.702 26.9291 44.7285 26.989 44.7285C27.049 44.7285 27.089 44.702 27.109 44.6422C27.2489 44.1575 27.4089 43.4138 27.3955 42.5638C27.3955 42.3447 27.5488 42.1588 27.762 42.1322C28.1152 42.0791 28.4618 42.0193 28.795 41.9529C28.9082 41.9263 29.0282 41.9529 29.1215 42.0127C29.2215 42.0791 29.2881 42.1787 29.3081 42.2916C29.4147 42.8228 29.6146 43.5997 29.9478 44.2438C29.9878 44.3235 30.0744 44.3168 30.1144 44.3102C30.2144 44.2903 30.221 44.2172 30.221 44.1973C30.2744 43.427 30.1611 42.5904 30.0678 42.0326C30.0345 41.8201 30.1544 41.6209 30.361 41.5545C31.4006 41.2158 32.3602 40.7643 33.1732 40.253C33.7463 39.8878 34.2461 39.496 34.6393 39.0843C33.1798 38.1414 32.1469 36.5411 30.4809 35.5252C25.7828 32.6698 22.4242 35.5318 19.2788 37.2516C19.0589 37.5305 18.8657 37.8094 18.7124 38.0949C18.4325 38.6195 18.086 39.1773 17.6995 39.7616L18.3592 40.1401L18.3392 40.1268ZM31.4405 57.345C31.4672 57.418 31.5338 57.4579 31.6071 57.4579C31.6271 57.4579 31.6538 57.4579 31.6738 57.4446C31.7671 57.4114 31.8137 57.3051 31.7737 57.2122C30.3477 53.5667 29.9145 49.5759 30.5542 45.9703C30.5742 45.8707 30.5076 45.7777 30.4076 45.7644C30.3143 45.7511 30.2144 45.8109 30.2011 45.9105C29.548 49.5759 29.9878 53.6397 31.4405 57.345ZM53.2584 36.9594C53.245 36.8665 53.1517 36.8067 53.0651 36.8266C50.7327 37.2317 48.7935 37.8293 47.0875 38.3605C44.4286 39.1839 42.3295 39.8347 39.8971 39.4761C39.8105 39.4628 39.7239 39.5226 39.7105 39.6155C39.6972 39.7085 39.7572 39.7882 39.8505 39.8015C40.3236 39.8679 40.7834 39.9011 41.2432 39.9011C43.2158 39.9011 45.0817 39.3234 47.1875 38.6726C48.8868 38.148 50.8127 37.5504 53.1251 37.152C53.2184 37.1387 53.2783 37.0524 53.2584 36.9594ZM61.7016 55.4193C60.562 56.1763 59.1093 56.5548 58.4162 56.7075C58.4029 56.7341 57.9098 57.9028 57.6499 58.4937C57.1834 59.5562 56.7036 60.6518 56.2238 61.8935C56.1039 62.2189 56.1238 62.5708 56.2838 62.8564C56.617 63.4474 56.8502 64.2043 56.9768 65.1141C57.0168 65.3664 57.1368 65.5789 57.2967 65.7582C57.8165 65.1871 58.9094 64.0915 59.9689 63.6731C59.829 63.2681 59.8557 62.8829 60.0889 62.4978C60.3022 62.1392 60.4288 61.3092 60.5687 60.3464C60.7686 59.0117 61.0285 57.2719 61.7016 55.4193ZM83.8992 43.8852C83.8726 43.7989 83.7726 43.7524 83.686 43.779C83.5993 43.8055 83.5527 43.9051 83.5794 43.9915C84.7722 47.4975 85.3853 49.7021 85.5186 50.9305C85.5252 51.0168 85.5985 51.0766 85.6852 51.0766C85.6852 51.0766 85.6985 51.0766 85.7052 51.0766C85.7985 51.07 85.8651 50.9836 85.8518 50.8907C85.7185 49.6224 85.1187 47.4643 83.8992 43.8852ZM77.775 30.5383C77.8417 30.4786 77.8484 30.3723 77.7884 30.3059C77.7284 30.2395 77.6218 30.2329 77.5551 30.2926C75.396 32.2449 74.3231 34.4561 72.9637 37.2516C72.5838 38.0418 72.184 38.8586 71.7308 39.7484C71.6909 39.828 71.7242 39.9276 71.8041 39.9741C71.8308 39.9874 71.8575 39.994 71.8774 39.994C71.9374 39.994 71.9974 39.9608 72.024 39.9011C72.4839 39.0046 72.877 38.1879 73.2635 37.3977C74.6563 34.5225 75.6626 32.4441 77.775 30.5383ZM94.7415 42.7298C94.7415 42.3978 94.7415 42.0459 94.7681 41.6806C93.3021 40.1667 91.5828 38.5465 90.25 37.8094C90.17 37.7629 90.1367 37.6633 90.1833 37.5836C90.23 37.5039 90.3299 37.4774 90.4099 37.5172C91.716 38.2344 93.3687 39.7616 94.8015 41.2358C94.9481 39.6886 95.3812 38.002 96.2275 36.8731C94.7015 35.6845 93.8618 33.0351 93.8419 30.9633C93.8419 30.4985 94.0484 30.0602 94.4149 29.7681C94.7881 29.4759 95.2613 29.3697 95.7144 29.4759C97.1072 29.8146 99.5262 30.7243 100.932 33.1015C101.092 32.8956 101.265 32.7695 101.459 32.7097C101.525 32.6898 101.592 32.6898 101.652 32.6831C100.619 31.1492 98.9931 29.9208 96.7473 28.9712C94.6415 28.0814 92.6223 28.4998 91.1496 28.8052C90.1833 29.0044 89.4836 29.1505 89.1371 28.8119C88.9372 28.6193 88.8905 28.3072 88.9905 27.8291C89.2304 26.6472 90.1567 25.7773 90.903 25.0734C91.4362 24.5754 91.896 24.1372 91.836 23.8317C91.8027 23.6524 91.5894 23.4798 91.1896 23.3071C90.8431 23.1544 90.4299 22.995 89.9901 22.8157C87.9176 21.9924 85.3386 20.9631 85.1987 19.8077C85.152 19.4292 85.3586 19.0773 85.8051 18.7652C86.898 17.9883 88.3241 18.4929 89.4703 18.9046C90.21 19.1702 90.9164 19.4226 91.2096 19.1835C91.2562 19.1437 91.2962 19.0906 91.3295 19.0242C90.0434 17.0786 88.8572 15.1994 88.2441 14.0374C82.9463 3.82466 78.4814 3.3864 75.5293 3.09423C74.9229 3.03447 74.3564 2.98135 73.85 2.84855C73.85 2.84855 73.8366 2.84855 73.83 2.84855C73.1036 2.65598 72.3706 2.48997 71.6442 2.33061C70.6579 2.31069 69.6384 2.397 68.6054 2.52316C67.9057 3.49928 69.4651 3.59888 69.4118 4.18322C69.3451 4.92029 72.0307 4.40236 72.2173 5.41831C72.4106 6.43427 74.583 5.09959 76.4956 4.59493C78.4081 4.08363 77.2619 6.3081 76.4956 6.77956C75.7292 7.25101 77.3219 9.80752 78.2815 11.8129C79.2345 13.8182 76.942 15.6576 75.8558 14.5752C74.7696 13.4929 73.9433 12.7956 73.8766 14.7678C73.8167 16.7333 70.498 15.8435 70.7512 15.2127C71.0045 14.5752 70.3714 13.3003 68.772 11.7664C67.1794 10.2258 66.9261 12.4105 66.413 10.3786C65.8999 8.34666 63.4809 10.0001 62.5212 8.27361C61.5616 6.55379 59.8423 8.72515 59.2692 11.016C58.6961 13.3003 57.35 13.9377 55.8839 11.7664C55.9506 8.63883 56.2705 8.91772 58.9494 6.14875C61.6283 3.38641 61.2418 4.33596 63.8807 3.3864C64.2139 3.26688 64.5737 3.14734 64.9269 3.02118C63.994 3.1407 63.081 3.22704 62.208 3.22704C61.595 3.22704 60.9952 3.18719 60.4221 3.08758C59.7557 2.9747 59.0027 2.83525 58.1897 2.68917C56.3438 2.35051 54.1313 1.94547 51.9122 1.64666C49.2533 1.93219 46.4678 2.22435 44.6952 2.40364C42.8093 2.53645 40.9767 2.68253 39.244 2.82198C35.9987 3.08095 33.1865 3.30672 30.9074 3.35984C30.8941 3.44616 30.8741 3.53249 30.8208 3.61882C30.5742 4.05707 29.8812 4.2961 28.7483 4.32931C27.1889 4.36251 26.4559 4.91366 25.7495 5.44488C25.303 5.78353 24.8766 6.10227 24.2835 6.25499C24.0302 6.32139 23.9902 6.3878 23.9902 6.40108C23.9636 6.46084 24.0902 6.64675 24.1835 6.77956C24.3834 7.06509 24.63 7.42368 24.5234 7.85529C24.4367 8.21386 24.1235 8.53922 23.5571 8.85795C23.2439 9.0306 22.964 9.10364 22.7041 9.10364C21.8644 9.10364 21.2714 8.30019 20.605 7.39711C19.9119 6.46084 19.1389 5.42496 17.9061 4.84062C16.7332 4.9867 15.3071 5.37848 14.1876 6.33467C14.0809 6.42099 13.9876 6.52059 13.8944 6.6202C13.2013 7.7092 13.2679 9.15013 13.3546 10.943C13.4012 11.9722 13.4479 13.1276 13.3679 14.376C13.3879 14.6947 13.4079 15.0267 13.4212 15.3322C13.4212 15.3587 13.4145 15.3787 13.4079 15.4052C13.3812 19.3363 13.2346 24.8609 12.6615 29.0111C12.6282 29.2435 12.5949 29.4626 12.5616 29.6818C13.7011 31.6605 14.4475 27.2979 13.961 24.4492C13.4212 21.335 15.5137 25.2129 17.293 28.3271C19.0789 31.4414 21.398 26.78 19.792 24.3098C16.7998 19.6948 23.837 16.4876 25.8895 20.7838C26.3626 21.7799 26.7091 23.6657 24.4101 27.3577C22.1976 30.9235 22.5442 31.2754 24.8566 30.1532C25.0032 29.9474 25.1431 29.7415 25.2831 29.5224C25.9161 28.533 26.4359 27.4905 26.8691 26.3417C27.3555 25.0601 27.7221 23.6325 27.9686 22.0919C28.0086 21.8595 28.2285 21.6935 28.4618 21.7334C28.695 21.7732 28.8616 21.9923 28.8216 22.2248C28.5884 23.7055 28.2352 25.0801 27.782 26.3351C28.1086 28.2275 29.0415 29.0443 30.7408 29.8544C32.6134 30.7442 34.4127 27.8822 35.8388 29.0244C37.2582 30.1731 38.2644 23.6989 38.9642 26.2222C39.6639 28.7388 41.2632 23.9844 41.5831 25.764C41.8963 27.5436 41.6031 28.7123 43.8355 29.2833C46.0679 29.8544 47.7739 25.2859 48.4736 27.5436C49.1733 29.8013 49.8531 30.5848 51.4924 29.788C53.1517 28.9845 54.851 26.0495 56.1305 24.7746C57.41 23.4997 55.2775 34.1705 57.1301 31.1824C57.2567 30.9766 57.37 30.8172 57.4766 30.6911C59.0293 26.7202 62.7811 23.7321 64.8403 22.9552C65.0336 22.8821 65.2535 22.9552 65.3601 23.1278C65.4667 23.3005 65.4401 23.5329 65.2868 23.6723C65.2535 23.7055 62.0281 26.7667 60.6953 30.6247C60.0289 32.557 59.949 34.3698 60.4687 36.0099C60.702 36.7337 60.8753 37.4774 60.9819 38.2277C61.3884 40.9237 61.0152 43.4138 60.6487 45.2863C60.562 45.7312 60.4687 46.1562 60.3755 46.5745C60.4954 47.7166 60.8952 49.2439 61.6949 50.4192C62.2414 51.2227 62.9078 51.734 63.6608 51.9531C63.8074 51.6476 63.934 51.3289 64.0473 50.9704C64.2339 50.3661 64.3472 49.7618 64.4738 49.058C64.6337 48.1615 64.8203 47.1389 65.2268 45.8042C65.5667 44.6621 66.2531 43.0419 67.146 41.249C67.8724 39.7683 68.7254 38.2277 69.6117 36.8001C70.2181 35.8107 70.8179 34.9076 71.391 34.1174C72.6571 32.3445 74.543 30.0403 76.3756 29.1439C79.9009 27.4108 80.5672 22.8489 81.1004 19.1769C81.1603 18.7519 81.2203 18.3469 81.2803 17.9551C81.3136 17.736 81.5069 17.5832 81.7268 17.5899C81.9467 17.5965 82.1266 17.7758 82.1399 17.9949C82.6664 25.8835 79.8609 29.4228 77.815 32.0058C77.0487 32.9687 76.3956 33.812 76.0291 34.7084C76.4756 35.8306 76.8821 38.3539 74.9629 39.1242C72.8904 39.9542 76.5356 41.84 77.6551 41.84C77.9017 41.84 78.1882 41.7869 78.4881 41.6607C80.1474 40.9768 82.893 38.8851 83.6593 39.9011C83.9525 40.2928 84.2791 40.585 84.6256 40.7842C84.7389 40.844 84.8255 40.9303 84.8922 41.0233C84.9188 40.9768 84.9388 40.937 84.9655 40.8905C85.6119 39.7351 86.0783 38.9582 86.6048 38.7191L86.7314 38.6527C87.2245 38.3937 88.1441 37.909 89.8501 38.6793C91.1563 39.2636 93.0488 41.0034 94.7215 42.7365L94.7415 42.7298ZM112.621 57.2587C111.821 57.0196 111.028 56.5481 110.235 55.8443C110.235 55.8443 110.222 55.8377 110.222 55.831C110.209 55.8377 110.202 55.8443 110.189 55.8576C110.082 55.9771 109.975 56.2161 109.989 56.6677C110.009 56.681 110.029 56.6942 110.049 56.7009C110.795 57.1059 111.775 57.3981 112.628 57.2587H112.621ZM116.859 53.8788C116.593 53.6065 116.233 53.228 116.119 52.6238C116.099 52.5374 116.066 52.4246 116.006 52.2785C115.3 51.9996 115.04 52.3515 114.487 53.4073C113.967 54.4033 113.227 55.7978 111.321 55.6716C112.221 56.3423 113.121 56.661 113.967 56.6278C115.446 56.5747 116.479 55.4791 116.852 55.0143C117.352 54.3901 117.246 54.2838 116.866 53.8854L116.859 53.8788ZM115.093 54.0713C114.88 54.4365 114.907 54.8416 115.147 54.981C115.386 55.1205 115.753 54.9346 115.96 54.5694C116.173 54.2041 116.146 53.7991 115.906 53.6596C115.666 53.5202 115.3 53.7061 115.093 54.0713ZM56.2705 6.18858C55.8639 6.43427 55.5108 6.753 55.1243 7.03189C54.931 7.17133 54.7577 7.33069 54.5911 7.50334L54.0913 8.008C53.7382 8.33337 53.4583 8.71851 53.1584 9.09037C51.9855 10.5977 51.1325 12.3308 50.5061 14.117C49.893 15.9165 49.4932 17.7824 49.3266 19.6616C49.1667 21.5342 49.1134 23.4532 49.5332 25.2925C49.4532 24.3563 49.4665 23.4266 49.5332 22.497C49.5798 21.5674 49.6865 20.6444 49.8331 19.728C50.1196 17.8953 50.5261 16.0825 51.1392 14.3362C51.7323 12.5898 52.5386 10.9164 53.5782 9.39581C54.6178 7.8752 55.9439 6.54715 57.5099 5.49799C57.0968 5.72376 56.6836 5.95618 56.2771 6.19523L56.2705 6.18858ZM51.8256 8.89779C52.8052 7.50998 54.0314 6.29482 55.4708 5.30542C55.0909 5.51127 54.7111 5.72377 54.3312 5.9429C53.9447 6.15539 53.6249 6.4542 53.265 6.71317C52.9052 6.9655 52.6119 7.29749 52.2987 7.60959C52.1455 7.76895 51.9855 7.92169 51.8323 8.08106L51.4191 8.59235C50.3062 9.96688 49.4865 11.5539 48.8735 13.194C48.2804 14.8474 47.8872 16.5673 47.6939 18.3004C47.6006 19.1702 47.5473 20.0401 47.5273 20.91C47.554 21.7799 47.5673 22.6564 47.7206 23.513C47.7273 21.7799 47.9005 20.0667 48.2004 18.3734C48.5069 16.6868 48.9068 15.0201 49.4999 13.4198C50.0796 11.8195 50.8527 10.2856 51.8256 8.89779ZM50.0796 8.40642C50.9926 7.13814 52.1255 6.02922 53.4449 5.11287C53.0918 5.2988 52.7386 5.49136 52.3854 5.69057C52.0388 5.88977 51.7256 6.15538 51.3924 6.38778C51.0526 6.61355 50.7927 6.93228 50.4928 7.19789C50.1863 7.47014 49.933 7.78224 49.6731 8.09433C48.6269 9.34269 47.8539 10.7903 47.2608 12.291C46.681 13.8049 46.2878 15.372 46.0813 16.9723C45.8747 18.566 45.808 20.1796 45.9813 21.7666C46.0413 20.9697 46.0879 20.1796 46.2079 19.396C46.3012 18.6125 46.4278 17.8289 46.5811 17.0587C46.9009 15.5181 47.3074 13.9909 47.8805 12.5367C48.4403 11.0758 49.1667 9.68135 50.073 8.41307L50.0796 8.40642ZM48.427 7.79551C49.2533 6.69987 50.2662 5.73041 51.4191 4.9203C51.1059 5.07966 50.7927 5.23902 50.4795 5.41167C50.1729 5.59095 49.8931 5.81009 49.5932 6.00266C49.0334 6.44091 48.5069 6.93229 48.0338 7.47015C47.0809 8.53922 46.3478 9.79422 45.7747 11.0957C45.215 12.4105 44.8151 13.7784 44.5752 15.1795C44.3353 16.5739 44.222 17.9883 44.2953 19.396C44.4086 18.6988 44.4886 18.0082 44.6352 17.3243C44.7485 16.6403 44.8951 15.9564 45.075 15.2857C45.4215 13.9444 45.828 12.623 46.3811 11.3613C46.9209 10.0931 47.6006 8.89115 48.4203 7.79551H48.427ZM48.267 5.45815C47.3674 5.96945 46.5544 6.66668 45.888 7.47679C45.2083 8.28026 44.6618 9.18333 44.2087 10.1329C43.3291 12.032 42.8492 14.1038 42.8226 16.1755C43.3757 14.1834 43.9555 12.2378 44.8151 10.4184C45.6614 8.59235 46.781 6.91236 48.2737 5.47143L48.267 5.45815ZM45.2683 6.11553C44.1687 6.82604 43.3424 7.88849 42.7293 9.03725C42.1362 10.1927 41.7364 11.4476 41.6564 12.7425C42.2428 11.5871 42.7293 10.4383 43.3157 9.3427C43.8888 8.23378 44.5419 7.19125 45.2616 6.11553H45.2683ZM79.2011 17.5567C79.1078 17.5633 79.0412 17.643 79.0479 17.7359C79.3278 20.9432 79.3944 24.8742 77.3752 26.8198C77.3086 26.8862 77.3086 26.9858 77.3752 27.0522C77.4085 27.0854 77.4485 27.1053 77.4952 27.1053C77.5418 27.1053 77.5818 27.0921 77.6084 27.0588C79.7276 25.0137 79.6676 20.9897 79.3811 17.7094C79.3744 17.6164 79.2878 17.5434 79.2011 17.5567ZM23.3172 41.3553C23.2306 41.342 23.1439 41.4151 23.1373 41.508C23.1306 41.601 23.1972 41.6807 23.2905 41.6873C23.6704 41.7205 24.2968 41.7603 25.0698 41.7603C27.1823 41.7603 30.381 41.4615 32.6734 39.9144C32.7134 39.8878 32.7667 39.8612 32.8067 39.8347C32.88 39.7815 32.9 39.6753 32.8466 39.6023C32.7933 39.5292 32.6867 39.5093 32.6134 39.5624C32.5334 39.6156 32.4468 39.6687 32.3668 39.7218C29.3281 41.6807 24.7033 41.4748 23.3239 41.3553H23.3172Z" fill="#164194"/>
</svg>
