<svg width="118" height="106" viewBox="0 0 118 106" fill="none" xmlns="http://www.w3.org/2000/svg">
<g clip-path="url(#clip0_524_2792)">
<path d="M55.3378 59.6914C53.2583 60.4419 51.3782 61.627 50.0052 63.3335C49.0193 64.5581 48.3407 65.996 47.4107 67.264C46.4767 68.528 45.1874 69.6697 43.6187 69.8672C42.3814 70.0252 41.152 69.5788 39.9186 69.3813C39.1363 69.2588 38.2661 69.2707 37.5476 69.5512L35.5918 61.6744C35.6996 61.4848 35.8073 61.2991 35.9191 61.1135C36.5338 60.0785 37.1804 59.0554 37.9747 58.1508L53.9847 54.252L55.3378 59.6914Z" fill="#173B91"/>
<path d="M16.3974 55.2079L33.9361 59.4781L33.1698 62.5672L32.3315 65.9288L24.592 97.0486L18.2375 87.4575L17.8304 86.8413L17.1797 87.1968L7.05327 92.7745L14.0823 64.5107L16.1459 56.2113L16.3974 55.204M15.8146 54.252L15.3716 56.0256L13.308 64.325L5.83984 94.3506L17.5669 87.892L24.9273 99L33.1059 66.1184L33.9441 62.7568L34.9021 58.9014L15.8146 54.252Z" fill="#173B91"/>
<path d="M33.9447 62.7568L33.1065 66.1184C31.9849 66.1895 30.8034 66.628 29.7417 67.0467C28.193 67.6629 26.5924 68.2357 24.9199 68.3108C23.2515 68.3898 21.4832 67.9079 20.3536 66.6912C19.9066 66.2093 19.5713 65.6325 19.1083 65.1664C17.9188 63.9655 16.0268 63.6851 14.3663 64.0327C14.0071 64.1078 13.6519 64.2065 13.3086 64.325L15.3722 56.0256C16.402 55.8952 17.4917 56.1086 18.4656 56.4996C19.8427 57.0527 21.0561 57.9296 22.3254 58.696C25.331 60.5091 28.6999 61.7258 32.1805 62.2551C32.7752 62.346 33.3979 62.425 33.9168 62.737C33.9248 62.7449 33.9368 62.7489 33.9447 62.7568Z" fill="#173B91"/>
<path d="M53.403 55.2079L54.5646 59.881L62.7472 92.7784L52.6207 87.2007L51.9701 86.8452L51.5629 87.4614L45.2084 97.0526L38.3231 69.3655L36.3672 61.4888L35.8683 59.482L38.1674 58.9211L53.403 55.2119M53.9858 54.252L37.9758 58.1508L34.9023 58.9014L35.5929 61.6744L37.5487 69.5512L44.8732 99L52.2335 87.892L63.9606 94.3506L55.3389 59.6914L53.9858 54.252Z" fill="#173B91"/>
<path d="M42.3934 66.2966C41.144 66.2966 39.8108 65.8937 38.3939 65.471C36.9449 65.0365 35.4441 64.5822 33.9992 64.5822C32.5543 64.5822 31.0535 65.0325 29.6045 65.471C28.1915 65.8976 26.8544 66.2966 25.605 66.2966C25.0981 66.2966 24.6471 66.2334 24.232 66.0991C22.5515 65.5579 21.3181 63.9304 20.1287 62.3582C19.2465 61.1968 18.3365 59.992 17.2308 59.1941C16.1052 58.3803 14.6523 57.8905 13.2513 57.4125C11.2994 56.7489 9.45935 56.1248 8.43353 54.7343C7.62724 53.6322 7.45561 52.1666 7.39573 50.8749C7.37178 50.389 7.3638 49.8992 7.35183 49.4054C7.32389 47.9281 7.29594 46.4033 6.86087 45.0721C6.44575 43.8119 5.58358 42.5992 4.74936 41.43C3.59581 39.8104 2.40234 38.1394 2.40234 36.346C2.40234 34.5526 3.59581 32.8817 4.74936 31.266C5.58358 30.0928 6.44974 28.8801 6.86087 27.616C7.29594 26.2888 7.32389 24.76 7.35183 23.2826C7.38775 21.2522 7.42367 19.3324 8.43353 17.9617C9.45536 16.5752 11.2994 15.9471 13.2513 15.2835C14.6563 14.8055 16.1052 14.3117 17.2308 13.5019C18.3365 12.7079 19.2426 11.507 20.1247 10.3496C20.7154 9.57144 21.3261 8.76165 21.9847 8.10196C22.7311 7.33957 23.4696 6.84579 24.2359 6.60088C24.6511 6.46262 25.1021 6.39941 25.609 6.39941C26.8584 6.39941 28.1915 6.80234 29.6045 7.22501C31.0535 7.65953 32.5543 8.11381 34.0032 8.11381C35.4521 8.11381 36.9489 7.66348 38.3979 7.22501C39.8109 6.79839 41.148 6.39941 42.3974 6.39941C42.9083 6.39941 43.3553 6.46657 43.7704 6.60088C45.4549 7.1381 46.6842 8.76559 47.8777 10.3417C48.7558 11.5031 49.6659 12.7079 50.7755 13.5059C51.9012 14.3157 53.3541 14.8094 54.7551 15.2874C56.7069 15.951 58.551 16.5752 59.5729 17.9657C60.5787 19.3364 60.6146 21.2562 60.6546 23.2866C60.6825 24.764 60.7104 26.2927 61.1495 27.62C61.5606 28.8841 62.4268 30.0968 63.265 31.2739C64.4186 32.8896 65.608 34.5645 65.608 36.35C65.608 38.1355 64.4146 39.8143 63.261 41.43C62.4268 42.6032 61.5606 43.8119 61.1495 45.076C60.7144 46.4033 60.6825 47.932 60.6546 49.4094C60.6146 51.4438 60.5787 53.3596 59.5729 54.7343C58.551 56.1248 56.7069 56.7529 54.7551 57.4125C53.3541 57.8905 51.9012 58.3803 50.7755 59.1941C49.6699 59.992 48.7598 61.1968 47.8777 62.3582C46.6842 63.9344 45.4549 65.5618 43.7704 66.103C43.3633 66.2334 42.9003 66.3005 42.4013 66.3005L42.3934 66.2966Z" fill="#EAECF7"/>
<path d="M42.3942 6.79004C42.8612 6.79004 43.2683 6.8493 43.6435 6.97175C45.2042 7.46948 46.3418 8.97846 47.5512 10.5704C48.4493 11.7555 49.3753 12.984 50.5329 13.8175C51.7064 14.6628 53.1872 15.1685 54.6202 15.6543C56.5122 16.2982 58.2964 16.9026 59.2424 18.1904C60.1764 19.4623 60.2123 21.3189 60.2482 23.2862C60.2762 24.7912 60.3081 26.3476 60.7591 27.7302C61.1902 29.0535 62.0723 30.2899 62.9265 31.4908C64.096 33.1301 65.1977 34.6786 65.1977 36.3416C65.1977 38.0047 64.0921 39.5571 62.9225 41.1964C62.0684 42.3934 61.1862 43.6298 60.7551 44.9492C60.3001 46.3357 60.2722 47.8921 60.2442 49.3971C60.2083 51.3643 60.1724 53.2249 59.2384 54.4968C58.2924 55.7886 56.5042 56.3929 54.6122 57.0368C53.1832 57.5227 51.7024 58.0244 50.5289 58.8697C49.3713 59.7032 48.4453 60.9317 47.5472 62.1168C46.3378 63.7127 45.2002 65.2217 43.6355 65.7234C43.2683 65.8419 42.8492 65.9011 42.3902 65.9011C41.2007 65.9011 39.8915 65.5061 38.5104 65.0913C37.0336 64.6449 35.5048 64.1867 33.996 64.1867C32.4872 64.1867 30.9625 64.6449 29.4816 65.0913C28.0965 65.5061 26.7873 65.9011 25.6018 65.9011C25.1388 65.9011 24.7277 65.8419 24.3525 65.7234C22.7918 65.2217 21.6502 63.7167 20.4448 62.1208C19.5467 60.9357 18.6167 59.7072 17.4591 58.8737C16.2856 58.0283 14.8048 57.5227 13.3718 57.0368C11.4838 56.3929 9.69565 55.7886 8.74966 54.5008C8.00324 53.4816 7.84358 52.0872 7.7877 50.8547C7.76375 50.3807 7.75577 49.883 7.74779 49.4011C7.71985 47.896 7.6919 46.3396 7.23687 44.9531C6.80579 43.6337 5.92366 42.4013 5.07347 41.2044C3.90395 39.565 2.7983 38.0126 2.7983 36.3456C2.7983 34.6786 3.90395 33.1341 5.06948 31.4908C5.92366 30.2938 6.8018 29.0574 7.23687 27.7381C7.6919 26.3555 7.71985 24.7951 7.74779 23.2901C7.78371 21.3229 7.81963 19.4663 8.74966 18.1943C9.69964 16.9066 11.4838 16.2982 13.3758 15.6583C14.8088 15.1724 16.2896 14.6668 17.4631 13.8214C18.6167 12.9919 19.5427 11.7673 20.4408 10.5862C21.0236 9.81591 21.6263 9.02192 22.2689 8.37408C22.9674 7.65909 23.65 7.20087 24.3605 6.9757C24.7317 6.85325 25.1428 6.79399 25.6058 6.79399C26.7953 6.79399 28.1005 7.18902 29.4856 7.60379C30.9625 8.05016 32.4912 8.50839 34 8.50839C35.5088 8.50839 37.0336 8.05016 38.5144 7.60379C39.8995 7.18902 41.2087 6.79399 42.3942 6.79399M42.3942 6C39.7518 6 36.7502 7.7144 34 7.7144C31.2498 7.7144 28.2482 6 25.6058 6C25.0909 6 24.592 6.0632 24.109 6.22121C23.183 6.51748 22.4006 7.09816 21.6942 7.82105C20.0417 9.48804 18.7803 11.8937 16.9921 13.1815C14.4136 15.0421 9.99102 15.1724 8.10702 17.7282C6.24698 20.2603 7.47636 24.4554 6.47848 27.4931C5.51653 30.4282 2 33.0946 2 36.3456C2 39.5966 5.51653 42.263 6.47848 45.1941C7.0373 46.8966 6.89759 48.9586 6.99339 50.8903C7.06524 52.4111 7.28876 53.8451 8.10702 54.963C9.99102 57.5188 14.4136 57.6491 16.9921 59.5097C19.5507 61.3544 21.0355 65.4863 24.109 66.4739C24.592 66.628 25.0909 66.6912 25.6058 66.6912C28.2482 66.6912 31.2498 64.9768 34 64.9768C36.7502 64.9768 39.7518 66.6912 42.3942 66.6912C42.9051 66.6912 43.408 66.628 43.887 66.4739C46.9645 65.4863 48.4453 61.3544 51.0039 59.5097C53.5864 57.6491 58.009 57.5227 59.889 54.963C61.749 52.4309 60.5236 48.2357 61.5215 45.1941C62.4795 42.263 66 39.6006 66 36.3456C66 33.0906 62.4795 30.4282 61.5215 27.4931C60.5236 24.4554 61.749 20.2603 59.889 17.7282C58.009 15.1724 53.5864 15.0421 51.0039 13.1815C48.4453 11.3367 46.9645 7.20482 43.891 6.22121C43.408 6.0632 42.9091 6 42.3942 6Z" fill="#173B91"/>
<path d="M34.0004 16.9385C44.8134 16.9385 53.6108 25.6448 53.6108 36.3459C53.6108 42.5319 50.5892 48.398 45.5319 52.0441C42.1631 54.4695 38.1756 55.7533 34.0004 55.7533C23.1874 55.7533 14.3901 47.047 14.3901 36.3459C14.3901 29.433 18.1541 22.9902 24.2092 19.5259C27.1709 17.8312 30.5557 16.9385 34.0004 16.9385ZM34.0004 16.1484C30.2883 16.1484 26.8077 17.1281 23.8101 18.8425C17.7031 22.3345 13.5918 28.8642 13.5918 36.3459C13.5918 47.5013 22.7284 56.5434 34.0004 56.5434C38.4869 56.5434 42.6341 55.1094 46.0029 52.684C51.1001 49.0103 54.4091 43.0613 54.4091 36.3459C54.4091 25.1905 45.2725 16.1484 34.0004 16.1484Z" fill="#173B91"/>
<path d="M48.1384 50.9143C47.4678 51.5502 46.7573 52.1428 46.0029 52.684C42.6341 55.1094 38.4869 56.5433 34.0004 56.5433C22.7284 56.5433 13.5918 47.5013 13.5918 36.3459C13.5918 29.2434 17.2959 22.9981 22.9 19.3994C19.0243 23.0731 16.6134 28.244 16.6134 33.9757C16.6134 45.1311 25.75 54.1732 37.022 54.1732C41.1213 54.1732 44.9412 52.9763 48.1384 50.9143Z" fill="#173B91"/>
<path d="M45.3594 11.3642C45.7026 12.1463 45.9461 12.9324 46.3732 13.683C46.7724 14.3822 47.2593 15.03 47.8221 15.6107C48.9318 16.7641 50.3448 17.6845 51.8695 18.1981C52.7557 18.4983 53.7096 18.6523 54.5518 19.0671C55.3941 19.4819 55.909 20.1139 56.2323 20.9356C56.8549 22.5275 56.6234 24.2577 56.7631 25.9207C56.9028 27.5838 57.3738 29.231 59.0144 29.9539C59.0942 29.9895 59.1461 29.8947 59.0822 29.8433C57.8049 28.8676 57.4776 27.011 57.4058 25.5099C57.3339 24.0088 57.5215 22.3221 56.9907 20.8013C56.4318 19.2054 55.0987 18.3679 53.4981 17.9808C52.6559 17.7754 51.7777 17.6648 50.9675 17.3527C50.1572 17.0407 49.4068 16.618 48.7282 16.1084C47.9419 15.5198 47.2514 14.8088 46.6766 14.0187C46.1018 13.2287 45.547 12.2925 45.4033 11.3523C45.4033 11.3247 45.3554 11.3405 45.3674 11.3681L45.3594 11.3642Z" fill="#173B91"/>
<path d="M17.2112 63.5307L13.543 74.5281L15.6665 63.1396L17.2112 63.5307Z" fill="#173B91"/>
<path d="M15.762 63.4008L12.0938 74.3943L14.2172 63.0098L15.762 63.4008Z" fill="#173B91"/>
<path d="M19.0647 63.894L15.3965 74.8875L17.52 63.499L19.0647 63.894Z" fill="#173B91"/>
<path d="M20.8127 64.8745L17.1445 75.8679L19.264 64.4834L20.8127 64.8745Z" fill="#173B91"/>
<path d="M22.592 65.0483L18.9238 76.0418L21.0473 64.6572L22.592 65.0483Z" fill="#173B91"/>
<path d="M25.6943 66.5882L22.1777 76.7522L24.2374 66.2051L25.6943 66.5882Z" fill="#173B91"/>
<path d="M27.6572 66.7308L24.1406 76.8947L26.2002 66.3477L27.6572 66.7308Z" fill="#173B91"/>
<path d="M29.7372 66.1341L26.2207 76.2981L28.2803 65.751L29.7372 66.1341Z" fill="#173B91"/>
<path d="M31.8173 65.4584L28.3008 75.6262L30.3604 65.0752L31.8173 65.4584Z" fill="#173B91"/>
<path d="M24.0413 65.7231L20.3691 76.7166L22.4926 65.3281L24.0413 65.7231Z" fill="#173B91"/>
<path d="M40.2794 67.292L41.9958 78.7437L38.7188 67.6278L40.2794 67.292Z" fill="#173B91"/>
<path d="M42.0958 66.7861L43.8161 78.2418L40.5391 67.1259L42.0958 66.7861Z" fill="#173B91"/>
<path d="M44.1017 66.8887L45.8181 78.3404L42.541 67.2244L44.1017 66.8887Z" fill="#173B91"/>
<path d="M45.7715 66.249L47.4919 77.7047L44.2148 66.5887L45.7715 66.249Z" fill="#173B91"/>
<path d="M48.5138 63.7998L50.6612 76.7763L47.0449 64.1237L48.5138 63.7998Z" fill="#173B91"/>
<path d="M49.9572 62.5156L52.1047 75.4921L48.4844 62.8395L49.9572 62.5156Z" fill="#173B91"/>
<path d="M51.6076 61.2275L53.755 74.204L50.1387 61.5515L51.6076 61.2275Z" fill="#173B91"/>
<path d="M53.1311 60.1816L55.2785 73.1581L51.6582 60.5056L53.1311 60.1816Z" fill="#173B91"/>
<path d="M54.6329 59.6992L56.7804 72.6757L53.1641 60.0231L54.6329 59.6992Z" fill="#173B91"/>
<path d="M47.3282 65.7627L49.0485 77.2144L45.7715 66.1024L47.3282 65.7627Z" fill="#173B91"/>
<path d="M30.3945 33.8178C31.085 33.6124 31.2926 33.407 32.4701 31.4872C33.6476 29.5674 35.5156 28.7457 36.2101 27.5804C36.9047 26.4151 37.3198 25.7317 37.2479 24.7718C37.1761 23.8119 37.3158 22.5123 38.5651 22.4412C39.8145 22.3701 41.5428 23.33 41.5428 25.1115C41.5428 26.8931 39.9502 30.1836 40.0899 30.6971C40.2296 31.2107 43.5505 31.2107 44.2451 31.3489C44.9396 31.4872 46.0452 32.376 45.9055 34.2286C45.7658 36.0813 46.2767 37.5192 45.9175 39.0242C45.5583 40.5292 45.0753 41.1494 44.728 42.2436C44.3808 43.3378 45.0753 44.0923 43.6902 44.8468C42.3052 45.6013 39.3994 46.2176 37.0444 45.6013C34.6894 44.9851 32.059 45.4631 31.7835 44.9179C31.5081 44.3728 30.7457 42.5201 30.3985 39.5061C30.0512 36.4921 30.3985 33.8178 30.3985 33.8178H30.3945Z" fill="#173B91"/>
<path d="M28.9463 33.6128C28.9463 33.6128 23.5457 33.202 23.0628 33.2691C22.5798 33.3363 21.9531 34.0908 21.9531 35.3233C21.9531 36.5557 22.6437 43.9584 23.4779 45.1198C24.3121 46.2812 25.4178 46.4234 26.1083 46.218C26.7988 46.0125 30.2635 45.4635 30.2635 44.9855C30.2635 44.5075 28.9982 42.2519 28.8784 39.0246C28.7826 36.4214 28.9463 33.6128 28.9463 33.6128Z" fill="#173B91"/>
<path d="M25.2418 36.804C25.7886 36.804 26.2317 36.3654 26.2317 35.8244C26.2317 35.2833 25.7886 34.8447 25.2418 34.8447C24.6951 34.8447 24.252 35.2833 24.252 35.8244C24.252 36.3654 24.6951 36.804 25.2418 36.804Z" fill="#EAECF7"/>
<path d="M6.81367 33.8645C6.06725 35.1246 5.42462 36.6257 5.68008 38.1149C5.91957 39.4936 6.98131 40.5285 7.84348 41.5595C8.36238 42.1837 8.80943 42.8433 9.0569 43.6176C9.30438 44.3918 9.39618 45.2767 9.42013 46.122C9.46803 47.8285 9.30837 49.618 9.94302 51.2494C10.4699 52.6004 11.5716 53.7341 13.0843 53.8566C13.224 53.8684 13.248 53.6551 13.1163 53.6195C11.7791 53.268 10.8371 52.0632 10.43 50.7991C9.92705 49.2348 10.0947 47.5639 9.99491 45.9482C9.91109 44.5577 9.63966 43.1752 8.80544 42.0217C8.05104 40.9709 6.98929 40.1493 6.33868 39.0274C5.35676 37.3288 5.97146 35.4801 6.87354 33.9001C6.89749 33.8566 6.83363 33.821 6.80968 33.8645H6.81367Z" fill="#173B91"/>
</g>
<defs>
<clipPath id="clip0_524_2792">
<rect width="64" height="93" fill="white" transform="translate(2 6)"/>
</clipPath>
</defs>
</svg>
