<svg width="96" height="63" viewBox="0 0 96 63" fill="none" xmlns="http://www.w3.org/2000/svg">
<path d="M24.98 8.43001C21.81 9.01001 22.12 10.97 22.33 12.26C22.43 12.86 22.54 13.54 22.5 14.38C22.5 14.46 22.5 14.53 22.49 14.6C22.43 14.56 22.36 14.53 22.3 14.49C21.85 14.23 21.29 13.91 20.63 13.62C19.91 13.3 19.28 13.14 18.71 13.14C15.89 13.14 15.39 16.6 14.98 19.38C14.92 19.79 14.86 20.09 14.8 20.32C14.62 20.14 14.43 19.94 14.28 19.78C14.02 19.51 13.76 19.23 13.48 18.97C12.86 18.39 12.25 18.27 11.84 18.27C11.4 18.27 10.76 18.41 10.15 19.06C9.03 20.27 8.65 22.58 8.78 24.23C8.81 24.57 8.78 24.65 7.92 25.14C7.08 25.62 5.56 26.5 5.9 28.6H2.29C1.66 28.6 1.08 28.86 0.669998 29.27C0.259998 29.69 0 30.26 0 30.9C0 32.17 1.02 33.2 2.29 33.2H5.91C5.91 40 9.67 47.25 15.98 52.59C21.36 57.15 31.23 62.58 47.68 62.58C64.13 62.58 74 57.15 79.38 52.59C85.68 47.25 89.44 40 89.44 33.2H93.06C93.7 33.2 94.27 32.94 94.69 32.53C95.1 32.11 95.36 31.54 95.36 30.9C95.36 29.63 94.33 28.6 93.06 28.6H88.31C88.86 25.88 87.12 24.1 85.27 22.58C85.72 22.35 86.14 21.99 86.4 21.4C87.08 19.84 86.28 18.94 85.8 18.4C85.46 18.02 85.15 17.66 84.94 16.9C84.59 15.57 83.91 14.89 82.92 14.89C82.3 14.89 81.79 15.2 81.35 15.48C81 15.7 80.64 15.92 80.31 15.95C80.18 15.95 80.05 15.97 79.93 15.97C79.14 15.97 78.73 15.82 77.25 14.1C76.53 13.27 75.96 12.68 75.41 12.11C74.67 11.35 73.98 10.63 73.01 9.42C72.37 8.61 71.56 7.78999 70.38 7.78999C69.42 7.78999 68.65 8.34 67.68 9.03C67.26 9.33 66.79 9.66 66.23 10.02C65.45 10.51 65.07 10.57 64.94 10.57C64.72 10.57 64.48 10.26 64.01 9.61C63.82 9.35 63.61 9.04999 63.37 8.75999C62.15 7.29999 60.88 5.79 58.12 5.02C57.85 4.94 57.58 4.91 57.32 4.91C55.5 4.91 54.82 6.62999 54.36 7.75999C54.21 8.14999 54 8.68001 53.79 8.99001C53.64 8.27001 53.62 6.97999 53.61 6.28999C53.61 5.79999 53.6 5.33 53.57 4.91C53.44 2.86 52.13 2.50999 51.18 2.25999C50.49 2.07999 49.62 1.85 48.43 1C47.44 0.3 46.74 0 46.09 0C44.22 0 44.12 2.01 44.07 3.09C44.04 3.68 44.01 4.35 43.86 4.92C43.79 5.18 43.72 5.26999 43.7 5.28999C43.7 5.28999 43.67 5.28999 43.64 5.28999C43.21 5.28999 42.25 4.88 40.83 3.73C40.24 3.25 39.51 2.75999 38.62 2.75999C37.94 2.75999 37.41 3.03001 36.86 3.32001C36.22 3.66001 35.41 4.07001 33.91 4.35001C30.87 4.92001 30.22 6 29.7 7.34C29.51 7.84 29.34 8.27 28.8 8.77C28.61 8.95 28.47 9.05 28.38 9.11C28.35 9.09 28.31 9.07 28.28 9.05C27.85 8.79 27.13 8.34 25.96 8.34C25.65 8.34 25.32 8.37001 24.98 8.43001ZM47.68 61.28C44.91 61.28 42.31 61.12 39.85 60.83C39.48 60.72 39.12 60.6 38.77 60.48C39.49 60.48 40.2 60.48 40.92 60.48C43.89 60.44 46.85 60.35 49.81 60.18C52.77 59.99 55.73 59.79 58.65 59.25C55.71 59.62 52.75 59.67 49.8 59.69C46.85 59.69 43.89 59.62 40.94 59.49C39.08 59.4 37.22 59.28 35.36 59.15C34.71 58.86 34.07 58.55 33.46 58.22C35.65 58.31 37.83 58.35 40.02 58.36C43.45 58.36 46.88 58.27 50.29 58.07C53.7 57.84 57.14 57.59 60.48 56.83C57.11 57.42 53.68 57.5 50.28 57.57C46.87 57.61 43.46 57.53 40.05 57.36C36.93 57.2 33.81 56.96 30.71 56.62C30.13 56.25 29.58 55.87 29.04 55.48C32.32 55.67 35.61 55.78 38.89 55.8C42.82 55.82 46.74 55.74 50.66 55.55C54.57 55.32 58.51 55.1 62.36 54.34C58.48 54.93 54.56 54.98 50.65 55.05C46.74 55.08 42.82 54.99 38.92 54.8C35.02 54.61 31.12 54.32 27.24 53.89C27.15 53.88 27.05 53.87 26.96 53.86C26.58 53.54 26.21 53.21 25.84 52.88C25.86 52.88 25.88 52.88 25.91 52.88C30.18 53.14 34.45 53.25 38.72 53.27C42.99 53.29 47.25 53.21 51.51 53.01C55.76 52.79 60.04 52.58 64.24 51.85C60.02 52.41 55.75 52.45 51.5 52.51C47.25 52.54 42.99 52.45 38.74 52.27C34.49 52.09 30.25 51.81 26.03 51.38C25.39 51.32 24.76 51.24 24.12 51.17C23.84 50.87 23.56 50.57 23.3 50.27C23.66 50.29 24.02 50.32 24.38 50.34C29.03 50.6 33.67 50.72 38.32 50.73C42.96 50.75 47.61 50.66 52.24 50.48C56.87 50.26 61.52 50.06 66.11 49.37C61.5 49.9 56.86 49.93 52.23 49.98C47.6 50 42.96 49.92 38.34 49.73C33.71 49.55 29.09 49.27 24.49 48.84C23.63 48.76 22.76 48.67 21.9 48.57C21.68 48.28 21.46 47.99 21.24 47.7C21.87 47.74 22.5 47.78 23.14 47.81C28.13 48.07 33.12 48.17 38.11 48.19C43.1 48.2 48.09 48.12 53.07 47.93C58.05 47.72 63.04 47.52 67.98 46.86C63.02 47.35 58.03 47.38 53.06 47.43C48.08 47.45 43.1 47.36 38.13 47.19C33.16 47.01 28.19 46.74 23.24 46.32C22.19 46.23 21.15 46.13 20.11 46.03C19.93 45.75 19.76 45.48 19.6 45.2C20.86 45.27 22.11 45.33 23.37 45.39C28.54 45.61 33.72 45.69 38.89 45.68C44.06 45.68 49.23 45.58 54.39 45.4C59.55 45.19 64.72 45 69.85 44.39C64.7 44.83 59.54 44.86 54.38 44.9C49.22 44.92 44.06 44.84 38.9 44.68C33.74 44.52 28.59 44.28 23.45 43.89C21.84 43.77 20.24 43.63 18.63 43.48C18.49 43.22 18.37 42.96 18.24 42.69C19.83 42.77 21.41 42.85 23 42.9C28.42 43.09 33.84 43.16 39.26 43.15C44.68 43.13 50.09 43.03 55.51 42.85C60.92 42.65 66.34 42.45 71.72 41.89C66.32 42.28 60.91 42.31 55.5 42.35C50.09 42.36 44.68 42.29 39.28 42.15C33.87 42 28.47 41.76 23.08 41.4C21.21 41.28 19.34 41.13 17.48 40.97C17.38 40.71 17.27 40.46 17.18 40.2C19.09 40.29 21.01 40.36 22.92 40.42C28.56 40.58 34.2 40.64 39.83 40.61C45.46 40.58 51.1 40.48 56.73 40.3C62.36 40.1 67.99 39.91 73.6 39.4C67.98 39.75 62.35 39.78 56.72 39.8C51.09 39.8 45.47 39.75 39.84 39.61C34.22 39.47 28.6 39.25 22.99 38.92C20.86 38.79 18.73 38.64 16.61 38.48C16.53 38.22 16.46 37.96 16.39 37.7C18.19 37.77 19.99 37.84 21.79 37.89C27.76 38.05 33.73 38.1 39.7 38.08C45.67 38.05 51.63 37.95 57.6 37.77C63.56 37.58 69.53 37.39 75.47 36.91C69.51 37.22 63.55 37.25 57.59 37.27C51.63 37.27 45.67 37.22 39.71 37.08C33.75 36.94 27.8 36.72 21.85 36.39C19.9 36.28 17.95 36.15 16 36.02C15.98 35.9 15.96 35.79 15.94 35.67C21.17 35.75 45.25 35.71 45.25 35.71C49.79 35.61 54.34 35.6 58.88 35.41L72.51 34.94C77.05 34.66 81.6 34.49 86.14 34.11C86.19 34.11 86.24 34.06 86.24 34.01C86.24 33.95 86.2 33.91 86.14 33.91L15.74 33.84C15.73 33.63 15.72 33.42 15.72 33.22H88.16C88.16 44.83 76.04 61.3 47.7 61.3L47.68 61.28ZM94.06 30.9C94.06 31.24 93.9 31.48 93.78 31.6C93.64 31.74 93.4 31.9 93.06 31.9H36.63C36.07 31.29 36.14 30.47 36.42 29.9H93.06C93.61 29.9 94.06 30.35 94.06 30.9ZM28.37 10.46C28.69 10.46 29.08 10.27 29.68 9.71001C31.72 7.79001 30.06 6.39 34.14 5.62C37.01 5.09 37.73 4.05 38.62 4.05C39 4.05 39.4 4.24 40.01 4.73C41.24 5.73 42.61 6.58 43.64 6.58C44.33 6.58 44.86 6.20001 45.12 5.24001C45.6 3.41001 45.07 1.28999 46.09 1.28999C46.42 1.28999 46.92 1.52 47.68 2.05C50.74 4.22 52.14 2.94 52.27 4.98C52.39 6.88 52.07 10.54 53.55 10.54C53.66 10.54 53.79 10.52 53.93 10.47C55.71 9.88 55.5 6.19 57.31 6.19C57.45 6.19 57.59 6.20999 57.76 6.25999C60.06 6.89999 61.08 8.05 62.36 9.58C63.25 10.65 63.74 11.86 64.94 11.86C65.45 11.86 66.08 11.64 66.92 11.11C68.69 9.99 69.56 9.08 70.38 9.08C70.87 9.08 71.35 9.41 71.99 10.22C73.72 12.39 74.61 13.03 76.27 14.94C77.77 16.68 78.53 17.26 79.94 17.26C80.09 17.26 80.25 17.26 80.41 17.24C81.55 17.15 82.34 16.19 82.93 16.19C83.24 16.19 83.48 16.45 83.69 17.24C84.31 19.54 85.85 19.41 85.21 20.88C84.57 22.34 81.29 21.06 83.69 22.98C86.1 24.9 87.59 26.3 86.98 28.6H7.21C6.57 25.92 10.27 26.68 10.08 24.13C9.92 22.02 10.72 19.56 11.85 19.56C12.09 19.56 12.34 19.67 12.6 19.92C13.48 20.74 14.37 21.99 15.09 21.99C15.59 21.99 16.01 21.38 16.27 19.57C16.77 16.13 17.28 14.44 18.71 14.44C19.1 14.44 19.55 14.56 20.1 14.81C21.54 15.46 22.5 16.24 23.08 16.24C23.53 16.24 23.75 15.78 23.8 14.44C23.93 11.37 22.4 10.22 25.21 9.71001C25.49 9.66001 25.74 9.64 25.96 9.64C27.32 9.64 27.7 10.46 28.37 10.46ZM26.4 19.57C27.45 20.3 28.54 21.06 29.28 20.81C29.98 20.58 30.36 20.86 30.53 21.04C31.04 21.62 30.8 22.7 30.41 23.51C29.89 24.59 28.85 25.72 27.48 25.72C27.44 25.72 27.4 25.72 27.36 25.72C27.11 25.71 26.92 25.5 26.93 25.25C26.94 25 27.15 24.81 27.4 24.82C28.41 24.86 29.2 23.93 29.6 23.12C29.99 22.32 29.95 21.75 29.85 21.63C29.83 21.61 29.74 21.6 29.56 21.65C28.39 22.04 27.11 21.15 25.88 20.3C24.64 19.44 23.47 18.62 22.63 19.14C22.26 19.37 21.88 19.58 21.52 19.79C19.9 20.69 18.5 21.47 17.72 24.12C17.65 24.36 17.4 24.49 17.16 24.42C16.92 24.35 16.79 24.1 16.86 23.86C17.75 20.86 19.45 19.91 21.09 18.99C21.44 18.79 21.8 18.59 22.16 18.37C23.5 17.54 25.04 18.61 26.4 19.56V19.57ZM55.65 23.75C57.37 24.19 59.33 24.69 59.23 26.17C59.21 26.42 58.99 26.6 58.75 26.59C58.5 26.57 58.31 26.36 58.33 26.11C58.38 25.38 56.74 24.96 55.42 24.62C53.89 24.23 52.45 23.86 52.21 22.87C52.15 22.62 51.97 22.44 51.65 22.32C50.62 21.92 48.62 22.3 47.37 23.14C45.41 24.45 44.82 24.45 42.47 23.16C41.81 22.8 40.85 22.45 40.03 22.85C39.18 23.27 38.57 24.43 38.28 26.21L38.11 27.28L37.47 26.41C37 25.77 35.82 25.3 34.66 25.29C33.98 25.27 32.81 25.43 32.07 26.41C31.92 26.61 31.64 26.65 31.44 26.5C31.24 26.35 31.2 26.07 31.35 25.87C32.07 24.91 33.23 24.39 34.63 24.39H34.67C35.76 24.39 36.82 24.73 37.56 25.25C37.95 23.6 38.65 22.52 39.64 22.04C40.57 21.59 41.7 21.7 42.91 22.37C44.95 23.5 45.21 23.5 46.87 22.39C48.38 21.38 50.67 20.97 51.98 21.48C52.58 21.71 52.96 22.12 53.09 22.66C53.2 23.12 54.61 23.48 55.64 23.75H55.65ZM33.08 21.85C32.14 18.91 32.1 17.24 32.94 16.59C33.42 16.22 34.1 16.25 34.97 16.66C35.06 15.38 35.75 14.33 36.93 13.71C38.03 13.13 39.37 13.06 40.11 13.51C40.25 13.07 40.48 12.33 41.25 11.96C42.02 11.59 43.14 11.69 44.65 12.29C46.57 13.05 48.19 13.08 49.37 13.1C50.45 13.12 51.3 13.14 51.82 13.72C52.2 14.15 52.32 14.8 52.21 15.82C52.04 17.46 52.72 17.67 53.37 17.88C53.72 17.99 54.11 18.12 54.23 18.52C54.35 18.93 54.08 19.37 53.64 19.88C53.48 20.07 53.19 20.09 53.01 19.93C52.82 19.77 52.8 19.49 52.96 19.3C53.17 19.05 53.27 18.89 53.32 18.81C53.25 18.79 53.17 18.76 53.1 18.74C52.39 18.51 51.08 18.09 51.32 15.73C51.4 15 51.34 14.53 51.15 14.32C50.9 14.04 50.22 14.02 49.36 14.01C48.11 13.99 46.4 13.95 44.33 13.13C43.1 12.64 42.17 12.52 41.65 12.77C41.23 12.97 41.1 13.4 40.98 13.78C40.88 14.11 40.77 14.45 40.42 14.55C40.08 14.65 39.81 14.41 39.72 14.33C39.4 14.05 38.35 13.99 37.36 14.51C36.73 14.84 35.7 15.66 35.9 17.39L36.01 18.33L35.21 17.82C34.4 17.3 33.76 17.11 33.5 17.3C33.38 17.4 32.82 18.05 33.94 21.57C34.02 21.81 33.89 22.06 33.65 22.14C33.6 22.15 33.56 22.16 33.51 22.16C33.32 22.16 33.14 22.04 33.08 21.85ZM56.09 21.7C55.9 21.54 55.89 21.25 56.05 21.06C57.39 19.54 58.79 20.24 59.91 20.8C60.96 21.33 61.86 21.78 62.88 21C63.44 20.57 63.92 20.42 64.37 20.53C65.06 20.7 65.41 21.43 65.74 22.14C66.33 23.4 66.67 23.88 67.67 23.45C70.31 22.31 72.52 24.75 73.32 26.2C73.44 26.42 73.36 26.69 73.14 26.81C73.07 26.85 73 26.87 72.92 26.87C72.76 26.87 72.61 26.79 72.53 26.64C72.45 26.5 70.58 23.18 68.03 24.28C66.14 25.09 65.41 23.55 64.93 22.53C64.7 22.04 64.44 21.48 64.16 21.41C64 21.37 63.74 21.48 63.43 21.72C61.96 22.85 60.6 22.16 59.5 21.61C58.29 21 57.56 20.7 56.72 21.66C56.56 21.85 56.27 21.87 56.08 21.7H56.09ZM59.67 15.13C60.98 14.11 63.61 15.11 64.74 15.54C65.16 15.7 65.61 15.55 66.18 15.37C67.23 15.03 68.66 14.57 70.5 15.6C74.9 18.07 75.47 19.19 75.52 19.82C75.54 20.1 75.45 20.35 75.26 20.56C75.4 20.62 75.58 20.69 75.72 20.74C76.41 21.01 77.2 21.31 77.34 21.97C77.42 22.36 77.26 22.76 76.86 23.16C76.66 23.36 76.64 23.46 76.64 23.46C76.74 23.54 77.39 23.68 77.78 23.76C78.56 23.93 79.29 24.09 79.58 24.58C79.7 24.79 79.73 25.03 79.66 25.28C79.6 25.47 79.42 25.6 79.23 25.6C79.19 25.6 79.14 25.6 79.1 25.58C78.86 25.51 78.73 25.26 78.8 25.02C78.71 24.88 77.98 24.73 77.6 24.64C76.76 24.46 75.96 24.29 75.78 23.67C75.62 23.13 76.08 22.67 76.23 22.52C76.45 22.3 76.48 22.18 76.47 22.15C76.43 21.96 75.71 21.69 75.41 21.57C74.81 21.34 74.3 21.14 74.23 20.68C74.2 20.5 74.24 20.23 74.58 19.97C74.65 19.92 74.64 19.89 74.64 19.87C74.63 19.71 74.35 18.77 70.08 16.37C68.59 15.53 67.47 15.9 66.48 16.21C65.8 16.43 65.16 16.64 64.52 16.4C63.63 16.06 61.15 15.12 60.24 15.83C59.94 16.07 59.82 16.52 59.89 17.18C59.92 17.43 59.74 17.65 59.49 17.68C59.24 17.7 59.02 17.53 58.99 17.28C58.88 16.29 59.11 15.56 59.68 15.12L59.67 15.13ZM28.1 17.37C27.63 15.86 27.7 14.67 28.31 13.84C28.93 13 30.08 12.57 31.72 12.57C31.97 12.57 32.17 12.77 32.17 13.02C32.17 13.27 31.97 13.47 31.72 13.47C30.38 13.47 29.48 13.77 29.03 14.37C28.6 14.95 28.57 15.87 28.95 17.1C29.02 17.34 28.89 17.59 28.65 17.66C28.61 17.67 28.56 17.68 28.52 17.68C28.33 17.68 28.15 17.56 28.09 17.36L28.1 17.37ZM37.79 10.88C37.96 10.08 38.23 9.59 38.64 9.34C39.12 9.04 39.65 9.19 40.11 9.31C40.77 9.49 41.16 9.56 41.59 9.03C42.72 7.62 45.6 8.29 47.11 8.91C47.83 9.21 49.51 9.99999 49.41 11.01C49.38 11.26 49.16 11.43 48.92 11.41C48.67 11.39 48.49 11.16 48.52 10.92C48.51 10.7 47.68 10.01 46.14 9.50999C44.37 8.92999 42.79 8.97 42.29 9.59C41.47 10.61 40.51 10.35 39.88 10.18C39.55 10.09 39.27 10.02 39.11 10.11C39.01 10.17 38.83 10.37 38.68 11.07C38.63 11.28 38.45 11.42 38.24 11.42C38.21 11.42 38.18 11.42 38.14 11.41C37.9 11.36 37.74 11.12 37.8 10.87L37.79 10.88ZM24.44 23.05C24.44 23.58 24.01 24.01 23.48 24.01C22.95 24.01 22.52 23.58 22.52 23.05C22.52 22.52 22.95 22.09 23.48 22.09C24.01 22.09 24.44 22.52 24.44 23.05ZM48.64 18C48.18 18 47.81 17.63 47.81 17.17C47.81 16.71 48.18 16.34 48.64 16.34C49.1 16.34 49.47 16.71 49.47 17.17C49.47 17.63 49.1 18 48.64 18ZM58.53 9.50999C58.53 9.04999 58.9 8.68001 59.36 8.68001C59.82 8.68001 60.19 9.04999 60.19 9.50999C60.19 9.96999 59.82 10.34 59.36 10.34C58.9 10.34 58.53 9.96999 58.53 9.50999ZM39.96 19.79C39.5 19.79 39.13 19.42 39.13 18.96C39.13 18.5 39.5 18.13 39.96 18.13C40.42 18.13 40.79 18.5 40.79 18.96C40.79 19.42 40.42 19.79 39.96 19.79ZM70.27 18.58C70.27 19.32 69.67 19.92 68.93 19.92C68.19 19.92 67.59 19.32 67.59 18.58C67.59 17.84 68.19 17.24 68.93 17.24C69.67 17.24 70.27 17.84 70.27 18.58ZM15.51 26.05C15.51 26.68 15 27.2 14.36 27.2C13.72 27.2 13.21 26.69 13.21 26.05C13.21 25.41 13.72 24.9 14.36 24.9C15 24.9 15.51 25.41 15.51 26.05ZM81.64 25.98C81.64 25.31 82.18 24.77 82.85 24.77C83.52 24.77 84.06 25.31 84.06 25.98C84.06 26.65 83.52 27.19 82.85 27.19C82.18 27.19 81.64 26.65 81.64 25.98ZM79.47 19.47C79.47 19.29 79.61 19.15 79.79 19.15C79.97 19.15 80.11 19.29 80.11 19.47C80.11 19.65 79.97 19.79 79.79 19.79C79.61 19.79 79.47 19.65 79.47 19.47ZM71.42 13.28C71.42 12.93 71.71 12.64 72.06 12.64C72.41 12.64 72.7 12.93 72.7 13.28C72.7 13.63 72.41 13.92 72.06 13.92C71.71 13.92 71.42 13.63 71.42 13.28ZM70.81 55.3C70.75 55.18 70.79 55.03 70.92 54.96C82.35 49.04 85.91 41.03 86.88 35.36C86.9 35.22 87.03 35.13 87.17 35.16C87.31 35.18 87.4 35.31 87.37 35.45C86.38 41.24 82.76 49.4 71.15 55.41C71.11 55.43 71.07 55.44 71.03 55.44C70.94 55.44 70.85 55.39 70.81 55.31V55.3Z" fill="#164194"/>
</svg>
