<svg width="99" height="70" viewBox="0 0 99 70" fill="none" xmlns="http://www.w3.org/2000/svg">
<path d="M98.3399 46.7189C98.3399 46.7189 98.3922 46.6979 98.4131 46.6873C98.4549 46.6768 98.4967 46.6663 98.5281 46.6453C98.5699 46.6242 98.6012 46.5927 98.643 46.5611C98.6639 46.5401 98.6953 46.519 98.7162 46.498C98.7685 46.4349 98.8103 46.3717 98.8416 46.2981C98.8416 46.2771 98.8416 46.2666 98.8521 46.2455C98.873 46.1929 98.8834 46.1403 98.8939 46.0877C99.6882 33.9685 95.9152 16.9258 88.4317 10.519C73.6635 -2.11566 47.6492 -0.232531 40.0195 0.640642C15.3744 3.48108 3.42813 10.5822 1.27508 23.6692C0.188102 30.2549 -0.815249 38.8078 0.992894 46.477C2.35161 52.3367 5.24672 57.0076 9.60508 60.3741L10.1068 60.7528C10.2322 60.8475 10.3681 60.9422 10.5039 61.0368C11.3087 61.626 12.1135 62.173 13.0019 62.7306C13.3572 62.9515 13.7335 63.1724 14.0889 63.3723C14.8205 63.8036 15.6043 64.235 16.4927 64.6768C17.1198 64.9924 17.7679 65.2975 18.4263 65.5921C19.1684 65.9182 19.9418 66.2338 20.7152 66.5178C21.6768 66.8966 22.6488 67.2332 23.7044 67.5488C24.4151 67.7697 25.1467 67.9801 25.8888 68.1695C27.2266 68.5061 28.5331 68.7902 29.7978 69.0216C30.4876 69.1374 31.1774 69.2531 31.8776 69.3583C33.4767 69.5897 35.2013 69.7686 37.0094 69.8738C37.6679 69.9158 38.3472 69.9474 39.0161 69.9579C39.7896 69.9895 40.5839 70 41.3887 70C42.6429 70 43.9284 69.9684 45.214 69.9053C45.8934 69.8738 46.5727 69.8317 47.2521 69.7791C51.0878 69.495 55.0699 68.9375 59.0834 68.1274C59.3865 68.0643 59.6164 67.8013 59.6269 67.4962C59.6582 66.8755 60.3899 52.8206 59.9822 47.2344C70.7475 47.6973 91.9017 47.9077 98.3504 46.7189H98.3399ZM40.0299 63.7195C39.7373 65.3711 39.3715 66.9912 38.9743 68.6008C38.3472 68.5798 37.7097 68.5587 37.093 68.5167C36.9467 68.5167 36.8213 68.4956 36.675 68.4851L36.3928 61.8679L35.3162 68.3694C34.6891 68.3168 34.0725 68.2536 33.4767 68.18L33.0796 59.7008L32.0553 68.0012C31.5327 67.9275 31.0206 67.8434 30.498 67.7487L29.9754 56.9971L29.0034 67.4646C28.554 67.37 28.0941 67.2753 27.6342 67.1701L26.9967 53.4834L26.0456 66.7808C25.5753 66.6546 25.1154 66.5178 24.6555 66.3811C24.2897 60.9211 24.1852 55.4085 24.0807 49.9065C23.6417 55.2087 23.1923 60.5214 22.9937 65.8656C22.5338 65.7078 22.0844 65.55 21.635 65.3817C21.1333 59.3221 21.0497 53.1783 21.081 47.0661C20.5062 52.9153 20.0254 58.7855 19.9209 64.7084C19.6073 64.5821 19.2833 64.4664 18.9802 64.3297C18.8966 64.2981 18.8235 64.256 18.7399 64.2139C18.4786 61.5418 18.3113 58.8487 18.2173 56.145C18.0814 52.1789 18.0919 48.1917 18.2173 44.2151C17.747 48.1707 17.3811 52.1473 17.1721 56.1344C17.0467 58.5436 16.984 60.9527 16.984 63.3828C16.7645 63.2671 16.5554 63.1619 16.3464 63.0462C16.0329 60.2163 15.8343 57.3653 15.7298 54.5038C15.5834 50.3483 15.6148 46.1824 15.8343 42.0269C15.2699 46.1613 14.8832 50.3168 14.6846 54.5038C14.5696 57.0181 14.5278 59.5324 14.5696 62.0678C14.4024 61.9731 14.2352 61.8784 14.0784 61.7732C13.7021 58.7645 13.4722 55.7242 13.3572 52.6838C13.2005 48.3495 13.2527 43.9942 13.5767 39.6494C12.9078 43.9521 12.5002 48.3074 12.3121 52.6733C12.1971 55.3033 12.1867 57.9439 12.2598 60.5845C12.1553 60.5108 12.0508 60.4372 11.9463 60.3635C11.5073 57.2075 11.2251 54.0094 11.0997 50.8007C10.922 46.3612 10.9847 41.8902 11.3714 37.4402C10.6502 41.8481 10.2217 46.3191 10.0545 50.8007C9.96044 53.5149 9.97089 56.2291 10.0859 58.9538C10.0545 58.9223 10.0231 58.9013 9.98134 58.8697C9.45875 55.5558 9.1243 52.1894 8.96752 48.8229C8.75849 44.3519 8.81074 39.8493 9.20791 35.3677C8.46584 39.8072 8.05823 44.3098 7.92235 48.8335C7.85964 51.0743 7.85964 53.3256 7.95371 55.5769C7.48338 52.5997 7.15939 49.6014 6.98171 46.5716C6.73087 42.1216 6.76222 37.6295 7.13848 33.1584C6.41731 37.5874 6.0306 42.0795 5.93654 46.5927C5.90518 48.2443 5.93653 49.896 5.97834 51.5582C5.52892 48.9071 5.18401 46.235 4.96452 43.5418C4.59871 39.0076 4.52555 34.4419 4.93317 29.8867C4.18065 34.3998 3.89845 38.9971 3.91935 43.5839C3.92981 45.7405 4.02387 47.8866 4.18065 50.0433C3.564 46.256 3.1982 42.4162 3.08323 38.5658C2.93691 33.3057 3.19819 28.0035 4.06568 22.7856C2.85328 27.9404 2.23665 33.2426 2.03806 38.5658C1.9649 40.6172 1.9858 42.6686 2.03806 44.7201C0.710698 37.6611 1.65134 29.9393 2.64425 23.8797C4.68233 11.4974 16.2628 4.7435 40.1972 1.98722C44.1897 1.52433 48.0882 1.30342 51.8508 1.30342C66.9222 1.30342 79.8195 4.91182 87.5642 11.55C90.2503 13.8434 92.4556 17.7464 94.1279 22.3437C93.0723 20.0924 91.8808 18.4407 90.5952 17.6938C86.9685 15.6108 49.541 14.7692 45.2871 14.6745C45.0259 14.6219 44.8064 14.8008 44.681 15.0112C44.5555 15.2321 44.5555 15.4951 44.681 15.7055C44.7437 15.8107 51.0042 26.2467 54.077 30.6546C57.0348 34.9048 57.7874 38.3449 58.5504 46.5506C59.0416 50.8533 58.4249 64.0456 58.2891 66.865C54.5056 67.6014 50.7534 68.1169 47.1371 68.3904C46.4682 68.443 45.7993 68.4851 45.1408 68.5167C43.4999 68.6008 41.8904 68.6113 40.3226 68.5903C40.2703 66.9492 40.1763 65.308 40.0299 63.6879V63.7195ZM59.8359 45.8668C59.0834 37.9556 58.2159 34.2631 55.1849 29.9077C52.7183 26.3729 48.1614 18.8826 46.4786 16.1052C63.055 16.4735 87.4493 17.5044 89.9054 18.9141C93.5426 21.0077 97.0439 33.3268 97.5038 45.4775C90.5012 46.5506 70.1726 46.3191 59.8359 45.8668ZM53.5231 40.4173C49.311 41.7639 44.9422 42.3636 40.6362 42.3636C29.1915 42.3636 18.1755 38.1765 11.8313 32.8218C6.9608 28.7084 4.60917 23.9112 5.21537 19.2929C5.26763 18.9142 5.60208 18.6511 5.97834 18.7037C6.3546 18.7563 6.61589 19.093 6.56363 19.4717C6.02014 23.6061 8.19411 27.972 12.6988 31.7698C21.1542 38.9024 38.1904 43.889 53.105 39.1129C53.4604 38.9971 53.8471 39.197 53.9621 39.5547C54.077 39.9124 53.8784 40.3016 53.5231 40.4173ZM82.3697 26.7411C83.6135 26.7411 84.6169 25.7312 84.6169 24.4793C84.6169 23.2274 83.6135 22.2175 82.3697 22.2175C81.126 22.2175 80.1226 23.2274 80.1226 24.4793C80.1226 25.7312 81.126 26.7411 82.3697 26.7411ZM80.9065 24.5845C81.0424 24.5319 81.1887 24.6056 81.241 24.7423C81.3246 24.9738 81.7217 25.3946 82.213 25.5313C82.5056 25.6155 82.7565 25.5839 82.9655 25.4261C83.0805 25.342 83.2477 25.363 83.3313 25.4787C83.4149 25.5944 83.394 25.7628 83.279 25.8469C83.0491 26.0152 82.7878 26.1099 82.5056 26.1099C82.3593 26.1099 82.213 26.0889 82.0562 26.0468C81.4187 25.8574 80.8856 25.3314 80.7393 24.9317C80.687 24.7949 80.7602 24.6476 80.896 24.595L80.9065 24.5845ZM74.1234 30.1392C74.1234 28.1614 72.3988 26.5518 70.2771 26.5518C68.1554 26.5518 66.4309 28.1614 66.4309 30.1392C66.4309 32.117 68.1554 33.7265 70.2771 33.7265C72.3988 33.7265 74.1234 32.117 74.1234 30.1392ZM71.7299 32.5798C71.3432 32.8113 70.8729 32.927 70.3817 32.927C69.7859 32.927 69.1484 32.7587 68.584 32.4431C67.6642 31.9171 67.1312 31.0754 67.1312 30.1497C67.1312 30.0024 67.2462 29.8867 67.3925 29.8867C67.5388 29.8867 67.6538 30.0024 67.6538 30.1497C67.6538 30.8861 68.0823 31.5594 68.8348 31.9907C69.7023 32.4851 70.7788 32.5483 71.4582 32.138C71.5836 32.0643 71.7404 32.1064 71.8135 32.2327C71.8867 32.3589 71.8449 32.5167 71.7195 32.5903L71.7299 32.5798ZM84.0629 38.2502C84.0629 38.9761 83.3104 39.5757 82.3802 39.5757C81.45 39.5757 80.6975 38.9866 80.6975 38.2502C80.6975 37.5138 81.45 36.9246 82.3802 36.9246C83.3104 36.9246 84.0629 37.5138 84.0629 38.2502ZM87.2402 31.9381C87.2402 31.37 87.7837 30.8966 88.4631 30.8966C89.1425 30.8966 89.6859 31.3595 89.6859 31.9381C89.6859 32.5167 89.1425 32.9796 88.4631 32.9796C87.7837 32.9796 87.2402 32.5167 87.2402 31.9381ZM58.5608 20.7973C58.5608 21.4705 58.0173 22.0281 57.338 22.0281C56.6586 22.0281 56.1151 21.4811 56.1151 20.7973C56.1151 20.1134 56.6586 19.5664 57.338 19.5664C58.0173 19.5664 58.5608 20.1134 58.5608 20.7973ZM66.2533 35.2309C65.2185 35.2309 64.3824 36.0725 64.3824 37.114C64.3824 38.1555 65.2185 38.9971 66.2533 38.9971C67.288 38.9971 68.1241 38.1555 68.1241 37.114C68.1241 36.0725 67.288 35.2309 66.2533 35.2309ZM67.0476 38.0293C66.7236 38.2081 66.4414 38.2923 66.1801 38.2923C66.0338 38.2923 65.8874 38.2607 65.762 38.2081C65.4276 38.0503 65.1872 37.7136 65.0722 37.1876C65.0409 37.0509 65.1245 36.9036 65.2708 36.8721C65.4171 36.8405 65.553 36.9247 65.5843 37.0719C65.6679 37.4191 65.8038 37.64 65.9815 37.7242C66.2219 37.8294 66.5668 37.7031 66.8072 37.5664C66.9326 37.4927 67.0894 37.5453 67.1625 37.6716C67.2357 37.7978 67.1834 37.9556 67.058 38.0293H67.0476ZM65.0304 22.0281C64.3615 22.0281 63.8076 21.6073 63.8076 21.0813C63.8076 20.5553 64.351 20.1345 65.0304 20.1345C65.7098 20.1345 66.2533 20.5553 66.2533 21.0813C66.2533 21.6073 65.7098 22.0281 65.0304 22.0281ZM63.0655 27.7826C63.0655 28.256 62.6474 28.6348 62.1248 28.6348C61.6022 28.6348 61.1842 28.256 61.1842 27.7826C61.1842 27.3092 61.6022 26.9305 62.1248 26.9305C62.6474 26.9305 63.0655 27.3092 63.0655 27.7826ZM74.2174 39.9544C73.0259 39.9544 72.0644 40.9644 72.0644 42.2163C72.0644 43.4682 73.0259 44.4781 74.2174 44.4781C75.4089 44.4781 76.3705 43.4682 76.3705 42.2163C76.3705 40.9644 75.4089 39.9544 74.2174 39.9544ZM74.949 43.4156L74.7923 43.4682C74.5623 43.5523 74.301 43.647 74.0189 43.647C73.6321 43.647 73.2245 43.4682 72.8483 42.8265C72.7751 42.7002 72.8169 42.5424 72.9423 42.4688C73.0677 42.3951 73.2245 42.4372 73.2977 42.5635C73.7262 43.2999 74.0816 43.1736 74.625 42.9737L74.7923 42.9106C74.9281 42.8685 75.0745 42.9422 75.1267 43.0789C75.1685 43.2157 75.0954 43.363 74.9595 43.4156H74.949ZM14.1725 17.8832C13.629 14.0538 15.7611 10.8136 20.5062 8.25722C34.292 0.829994 68.9602 1.30342 77.562 9.03574C77.7605 9.21458 77.771 9.50913 77.6038 9.70901C77.4261 9.90889 77.1335 9.91942 76.9349 9.7511C69.1797 2.77624 35.5253 1.25082 20.9452 9.09885C16.5868 11.4448 14.6219 14.3589 15.1027 17.7569C15.1445 18.0199 14.9563 18.2514 14.7055 18.2935C14.6846 18.2935 14.6637 18.2935 14.6428 18.2935C14.4129 18.2935 14.2143 18.1251 14.1829 17.8832H14.1725ZM49.217 32.685C49.4678 32.664 49.7082 32.8533 49.7291 33.1163C49.75 33.3794 49.5619 33.6108 49.3006 33.6318C47.9523 33.7581 45.862 33.8948 43.3536 33.8948C38.6608 33.8948 32.4838 33.4109 26.8922 31.4542C26.6413 31.37 26.5159 31.0965 26.5995 30.8545C26.6832 30.602 26.9549 30.4758 27.1953 30.56C35.8597 33.5898 46.2382 32.9586 49.217 32.6955V32.685ZM22.0948 15.1374C21.7708 16.8101 22.2621 18.5249 23.5267 20.1029C26.5159 23.8271 33.2677 26.2467 41.1378 26.4045C41.3991 26.4045 41.6082 26.6254 41.5977 26.8884C41.5977 27.1514 41.3782 27.3513 41.1274 27.3513C32.8601 27.183 26.0038 24.7002 22.7951 20.7026C21.3528 18.9036 20.7884 16.9153 21.1646 14.9691C21.2169 14.7061 21.4677 14.5483 21.7186 14.5904C21.9694 14.643 22.1367 14.8849 22.0948 15.1479V15.1374ZM56.3346 41.2695C56.3032 41.1222 56.3973 40.9854 56.5436 40.9644C56.6795 40.9328 56.8258 41.0275 56.8467 41.1748C57.7247 45.7826 57.8919 54.2619 57.317 65.6762C57.317 65.813 57.1916 65.9287 57.0557 65.9287H57.0453C56.899 65.9287 56.7945 65.8025 56.7945 65.6552C57.3588 54.2829 57.2021 45.8457 56.3346 41.28V41.2695Z" fill="#164194"/>
</svg>
