<svg width="1214" height="144" viewBox="0 0 1214 144" fill="none" xmlns="http://www.w3.org/2000/svg">
<path d="M27.8 142L87.2 10.3999L92.4 19.3999H9.2L19.2 9.59989V44.3999H0V1.99989H105.6V15.5999L49 142H27.8Z" fill="#2EAC6A"/>
<path d="M176.425 143.6C165.492 143.6 155.692 140.8 147.025 135.2C138.492 129.6 131.692 121.467 126.625 110.8C121.692 100.133 119.225 87.1999 119.225 71.9999C119.225 56.7999 121.692 43.8666 126.625 33.1999C131.692 22.5332 138.492 14.3999 147.025 8.7999C155.692 3.1999 165.492 0.399902 176.425 0.399902C187.225 0.399902 196.958 3.1999 205.625 8.7999C214.292 14.3999 221.092 22.5332 226.025 33.1999C230.958 43.8666 233.425 56.7999 233.425 71.9999C233.425 87.1999 230.958 100.133 226.025 110.8C221.092 121.467 214.292 129.6 205.625 135.2C196.958 140.8 187.225 143.6 176.425 143.6ZM176.425 125.8C183.758 125.8 190.158 123.8 195.625 119.8C201.225 115.8 205.558 109.8 208.625 101.8C211.825 93.7999 213.425 83.8666 213.425 71.9999C213.425 60.1332 211.825 50.1999 208.625 42.1999C205.558 34.1999 201.225 28.1999 195.625 24.1999C190.158 20.1999 183.758 18.1999 176.425 18.1999C169.092 18.1999 162.625 20.1999 157.025 24.1999C151.425 28.1999 147.025 34.1999 143.825 42.1999C140.758 50.1999 139.225 60.1332 139.225 71.9999C139.225 83.8666 140.758 93.7999 143.825 101.8C147.025 109.8 151.425 115.8 157.025 119.8C162.625 123.8 169.092 125.8 176.425 125.8Z" fill="#2EAC6A"/>
<path d="M363.534 143.6C352.601 143.6 342.801 140.8 334.134 135.2C325.601 129.6 318.801 121.467 313.734 110.8C308.801 100.133 306.334 87.1999 306.334 71.9999C306.334 56.7999 308.801 43.8666 313.734 33.1999C318.801 22.5332 325.601 14.3999 334.134 8.7999C342.801 3.1999 352.601 0.399902 363.534 0.399902C374.334 0.399902 384.068 3.1999 392.734 8.7999C401.401 14.3999 408.201 22.5332 413.134 33.1999C418.068 43.8666 420.534 56.7999 420.534 71.9999C420.534 87.1999 418.068 100.133 413.134 110.8C408.201 121.467 401.401 129.6 392.734 135.2C384.068 140.8 374.334 143.6 363.534 143.6ZM363.534 125.8C370.868 125.8 377.268 123.8 382.734 119.8C388.334 115.8 392.668 109.8 395.734 101.8C398.934 93.7999 400.534 83.8666 400.534 71.9999C400.534 60.1332 398.934 50.1999 395.734 42.1999C392.668 34.1999 388.334 28.1999 382.734 24.1999C377.268 20.1999 370.868 18.1999 363.534 18.1999C356.201 18.1999 349.734 20.1999 344.134 24.1999C338.534 28.1999 334.134 34.1999 330.934 42.1999C327.868 50.1999 326.334 60.1332 326.334 71.9999C326.334 83.8666 327.868 93.7999 330.934 101.8C334.134 109.8 338.534 115.8 344.134 119.8C349.734 123.8 356.201 125.8 363.534 125.8Z" fill="#2EAC6A"/>
<path d="M496.933 143.6C485.999 143.6 476.199 140.8 467.533 135.2C458.999 129.6 452.199 121.467 447.133 110.8C442.199 100.133 439.733 87.1999 439.733 71.9999C439.733 56.7999 442.199 43.8666 447.133 33.1999C452.199 22.5332 458.999 14.3999 467.533 8.7999C476.199 3.1999 485.999 0.399902 496.933 0.399902C507.733 0.399902 517.466 3.1999 526.133 8.7999C534.799 14.3999 541.599 22.5332 546.533 33.1999C551.466 43.8666 553.933 56.7999 553.933 71.9999C553.933 87.1999 551.466 100.133 546.533 110.8C541.599 121.467 534.799 129.6 526.133 135.2C517.466 140.8 507.733 143.6 496.933 143.6ZM496.933 125.8C504.266 125.8 510.666 123.8 516.133 119.8C521.733 115.8 526.066 109.8 529.133 101.8C532.333 93.7999 533.933 83.8666 533.933 71.9999C533.933 60.1332 532.333 50.1999 529.133 42.1999C526.066 34.1999 521.733 28.1999 516.133 24.1999C510.666 20.1999 504.266 18.1999 496.933 18.1999C489.599 18.1999 483.133 20.1999 477.533 24.1999C471.933 28.1999 467.533 34.1999 464.333 42.1999C461.266 50.1999 459.733 60.1332 459.733 71.9999C459.733 83.8666 461.266 93.7999 464.333 101.8C467.533 109.8 471.933 115.8 477.533 119.8C483.133 123.8 489.599 125.8 496.933 125.8Z" fill="#2EAC6A"/>
<path d="M630.331 143.6C619.398 143.6 609.598 140.8 600.931 135.2C592.398 129.6 585.598 121.467 580.531 110.8C575.598 100.133 573.131 87.1999 573.131 71.9999C573.131 56.7999 575.598 43.8666 580.531 33.1999C585.598 22.5332 592.398 14.3999 600.931 8.7999C609.598 3.1999 619.398 0.399902 630.331 0.399902C641.131 0.399902 650.865 3.1999 659.531 8.7999C668.198 14.3999 674.998 22.5332 679.931 33.1999C684.865 43.8666 687.331 56.7999 687.331 71.9999C687.331 87.1999 684.865 100.133 679.931 110.8C674.998 121.467 668.198 129.6 659.531 135.2C650.865 140.8 641.131 143.6 630.331 143.6ZM630.331 125.8C637.665 125.8 644.065 123.8 649.531 119.8C655.131 115.8 659.465 109.8 662.531 101.8C665.731 93.7999 667.331 83.8666 667.331 71.9999C667.331 60.1332 665.731 50.1999 662.531 42.1999C659.465 34.1999 655.131 28.1999 649.531 24.1999C644.065 20.1999 637.665 18.1999 630.331 18.1999C622.998 18.1999 616.531 20.1999 610.931 24.1999C605.331 28.1999 600.931 34.1999 597.731 42.1999C594.665 50.1999 593.131 60.1332 593.131 71.9999C593.131 83.8666 594.665 93.7999 597.731 101.8C600.931 109.8 605.331 115.8 610.931 119.8C616.531 123.8 622.998 125.8 630.331 125.8Z" fill="#2EAC6A"/>
<path d="M817.441 143.6C806.507 143.6 796.707 140.8 788.041 135.2C779.507 129.6 772.707 121.467 767.641 110.8C762.707 100.133 760.241 87.1999 760.241 71.9999C760.241 56.7999 762.707 43.8666 767.641 33.1999C772.707 22.5332 779.507 14.3999 788.041 8.7999C796.707 3.1999 806.507 0.399902 817.441 0.399902C828.241 0.399902 837.974 3.1999 846.641 8.7999C855.307 14.3999 862.107 22.5332 867.041 33.1999C871.974 43.8666 874.441 56.7999 874.441 71.9999C874.441 87.1999 871.974 100.133 867.041 110.8C862.107 121.467 855.307 129.6 846.641 135.2C837.974 140.8 828.241 143.6 817.441 143.6ZM817.441 125.8C824.774 125.8 831.174 123.8 836.641 119.8C842.241 115.8 846.574 109.8 849.641 101.8C852.841 93.7999 854.441 83.8666 854.441 71.9999C854.441 60.1332 852.841 50.1999 849.641 42.1999C846.574 34.1999 842.241 28.1999 836.641 24.1999C831.174 20.1999 824.774 18.1999 817.441 18.1999C810.107 18.1999 803.641 20.1999 798.041 24.1999C792.441 28.1999 788.041 34.1999 784.841 42.1999C781.774 50.1999 780.241 60.1332 780.241 71.9999C780.241 83.8666 781.774 93.7999 784.841 101.8C788.041 109.8 792.441 115.8 798.041 119.8C803.641 123.8 810.107 125.8 817.441 125.8Z" fill="#2EAC6A"/>
<path d="M950.839 143.6C939.906 143.6 930.106 140.8 921.439 135.2C912.906 129.6 906.106 121.467 901.039 110.8C896.106 100.133 893.639 87.1999 893.639 71.9999C893.639 56.7999 896.106 43.8666 901.039 33.1999C906.106 22.5332 912.906 14.3999 921.439 8.7999C930.106 3.1999 939.906 0.399902 950.839 0.399902C961.639 0.399902 971.372 3.1999 980.039 8.7999C988.706 14.3999 995.506 22.5332 1000.44 33.1999C1005.37 43.8666 1007.84 56.7999 1007.84 71.9999C1007.84 87.1999 1005.37 100.133 1000.44 110.8C995.506 121.467 988.706 129.6 980.039 135.2C971.372 140.8 961.639 143.6 950.839 143.6ZM950.839 125.8C958.172 125.8 964.572 123.8 970.039 119.8C975.639 115.8 979.972 109.8 983.039 101.8C986.239 93.7999 987.839 83.8666 987.839 71.9999C987.839 60.1332 986.239 50.1999 983.039 42.1999C979.972 34.1999 975.639 28.1999 970.039 24.1999C964.572 20.1999 958.172 18.1999 950.839 18.1999C943.506 18.1999 937.039 20.1999 931.439 24.1999C925.839 28.1999 921.439 34.1999 918.239 42.1999C915.172 50.1999 913.639 60.1332 913.639 71.9999C913.639 83.8666 915.172 93.7999 918.239 101.8C921.439 109.8 925.839 115.8 931.439 119.8C937.039 123.8 943.506 125.8 950.839 125.8Z" fill="#2EAC6A"/>
<path d="M1084.24 143.6C1073.3 143.6 1063.5 140.8 1054.84 135.2C1046.3 129.6 1039.5 121.467 1034.44 110.8C1029.5 100.133 1027.04 87.1999 1027.04 71.9999C1027.04 56.7999 1029.5 43.8666 1034.44 33.1999C1039.5 22.5332 1046.3 14.3999 1054.84 8.7999C1063.5 3.1999 1073.3 0.399902 1084.24 0.399902C1095.04 0.399902 1104.77 3.1999 1113.44 8.7999C1122.1 14.3999 1128.9 22.5332 1133.84 33.1999C1138.77 43.8666 1141.24 56.7999 1141.24 71.9999C1141.24 87.1999 1138.77 100.133 1133.84 110.8C1128.9 121.467 1122.1 129.6 1113.44 135.2C1104.77 140.8 1095.04 143.6 1084.24 143.6ZM1084.24 125.8C1091.57 125.8 1097.97 123.8 1103.44 119.8C1109.04 115.8 1113.37 109.8 1116.44 101.8C1119.64 93.7999 1121.24 83.8666 1121.24 71.9999C1121.24 60.1332 1119.64 50.1999 1116.44 42.1999C1113.37 34.1999 1109.04 28.1999 1103.44 24.1999C1097.97 20.1999 1091.57 18.1999 1084.24 18.1999C1076.9 18.1999 1070.44 20.1999 1064.84 24.1999C1059.24 28.1999 1054.84 34.1999 1051.64 42.1999C1048.57 50.1999 1047.04 60.1332 1047.04 71.9999C1047.04 83.8666 1048.57 93.7999 1051.64 101.8C1054.84 109.8 1059.24 115.8 1064.84 119.8C1070.44 123.8 1076.9 125.8 1084.24 125.8Z" fill="#2EAC6A"/>
<path d="M1179.88 59.9999V5.99989H1192.72V59.9999H1179.88ZM1158.64 38.9999V26.9999H1213.96V38.9999H1158.64Z" fill="#2EAC6A"/>
</svg>
