<svg width="162" height="64" viewBox="0 0 162 64" fill="none" xmlns="http://www.w3.org/2000/svg">
<rect width="162" height="64" fill="#012D72"/>
<path fill-rule="evenodd" clip-rule="evenodd" d="M35.4 44L40.0721 28.9V44H47.1279V20H37.593L33.0163 32L28.5349 20H19V44H26.0558V28.9L30.8233 44H35.4ZM111.012 34.7C113.205 34.5 115.398 32.9 115.398 30.3V24.9V24.4C115.112 21.7 113.205 20.2 111.012 20H92.8953V44H99.9512V34.7H102.716L107.293 44H115.398L109.963 34.7H111.012ZM109.105 28.4C109.105 28.9 109.009 29.4 108.151 29.4H99.9512V24.7H108.151C109.105 24.7 109.105 25.4 109.105 25.8V28.4ZM68.2953 24.7V20H49.9884V44H68.486V39.3H57.0442V34.2H68.2953V29.5H57.0442V24.7H68.2953ZM77.0674 24.7H70.393V20H90.7977V24.7H84.1233V44H77.0674V24.7ZM137.614 20H122.644C120.356 20.2 118.544 21.4 118.258 24.1V39.6C118.544 42.3 120.451 43.8 122.644 43.9H137.614C139.902 43.7 141.714 42.3 142 39.6V24.1C141.714 21.4 139.807 20.2 137.614 20ZM134.944 38.2C134.944 38.5 134.849 39.2 133.991 39.3H126.363C125.505 39.2 125.314 38.5 125.314 38.2V25.7C125.314 25.4 125.505 24.9 126.363 24.8H133.991C134.849 24.9 134.944 25.5 134.944 25.7V38.2Z" fill="#FFE500"/>
</svg>
