<svg width="188" height="35" viewBox="0 0 188 35" fill="none" xmlns="http://www.w3.org/2000/svg">
<path d="M100.371 29.1302V5.87061H114.972V11.273H106.46V29.1302H100.371Z" fill="#E30613"/>
<path d="M133.342 29.1302V20.0206H124.297V29.1302H118.209V5.87061H124.297V14.5509H133.342V5.87061H139.431V29.1302H133.342Z" fill="#E30613"/>
<path d="M174.763 29.1302V11.273H167.652V5.87061H188.001V11.273H180.855V29.1302H174.763Z" fill="#E30613"/>
<path d="M158.693 29.1268V15.874L149.001 29.1268H143.91V5.87354H149.999V18.9884L159.528 5.87354H164.784V29.1268H158.693Z" fill="#E30613"/>
<path d="M65.3828 29.1302V15.3071L59.3039 22.6097L53.2251 15.3071V29.1302H47.1367V5.87061H53.1455L59.3039 13.8684L65.4624 5.87061H71.471V29.1302H65.3828Z" fill="#E30613"/>
<path d="M83.0294 20.9493H88.6876L85.8585 13.6564L83.0294 20.9493ZM91.8609 29.1266L90.5866 25.8677H81.1211L79.8466 29.1266H73.7266L83.0901 5.87012H88.7197L98.0863 29.1266H91.8609Z" fill="#E30613"/>
<path d="M-0.00585938 10.5965C3.56934e-05 7.78737 1.1124 5.09508 3.08769 3.10905C5.06297 1.12302 7.74023 0.0050796 10.5333 0H34.8645V5.38633H10.5397C9.16724 5.39223 7.85267 5.94294 6.88192 6.91867C5.91119 7.89438 5.36281 9.21616 5.35611 10.5965L5.32424 19.6389C5.21319 20.7974 4.72376 21.8862 3.93237 22.7356C3.141 23.5848 2.09226 24.1465 0.949927 24.3331L-0.00585938 24.4805V10.5965Z" fill="#E30613"/>
<path d="M-0.00390625 35.0001V29.6136H24.3272C25.7 29.6069 27.0145 29.0554 27.9852 28.0793C28.9557 27.103 29.5041 25.7809 29.5108 24.4004V15.8194C29.5175 14.5744 29.9641 13.3724 30.7706 12.428C31.5771 11.4836 32.6912 10.8583 33.9137 10.6637L34.8696 10.5195V24.4004C34.8636 27.2098 33.7514 29.9024 31.7761 31.8889C29.801 33.8755 27.1238 34.994 24.3304 35.0001H-0.00390625Z" fill="#E30613"/>
<path d="M20.6081 24.4997V17.5369L17.4348 21.3467L14.2648 17.5369V24.4997H10.0625V10.7983H14.0418L17.4348 15.2042L20.8279 10.7983H24.8072V24.4997H20.6081Z" fill="#E30613"/>
</svg>
