<svg width="194" height="23" viewBox="0 0 194 23" fill="none" xmlns="http://www.w3.org/2000/svg">
<g clip-path="url(#clip0_524_2542)">
<path d="M183.69 7.0158C184.591 5.94069 185.471 4.87621 186.366 3.82413C187.083 2.98282 187.777 2.11583 188.555 1.33297C189.594 0.286201 192.078 0.298582 193.11 1.13812C193.757 1.66328 193.99 2.35317 193.992 3.12629C194.003 8.44073 194 13.7543 193.99 19.0687C193.987 20.6761 192.953 21.6892 191.332 21.6724C190.737 21.6662 190.127 21.6405 189.552 21.5023C188.337 21.211 187.829 20.2891 187.822 19.0802C187.807 16.3889 187.813 13.6967 187.81 11.0054C187.809 10.8389 187.81 10.6724 187.81 10.5059C187.766 10.4856 187.722 10.4652 187.678 10.4448C186.35 11.9972 185.02 13.5506 183.649 15.1518C182.312 13.5949 180.985 12.0504 179.555 10.3846C179.541 10.6831 179.528 10.838 179.527 10.9939C179.523 13.6161 179.543 16.2392 179.503 18.8606C179.494 19.4079 179.342 19.9844 179.121 20.4892C178.779 21.273 178.006 21.5749 177.237 21.6493C176.395 21.7308 175.53 21.7893 174.701 21.3952C173.939 21.0321 173.345 20.2926 173.345 19.4477C173.337 13.9438 173.33 8.43985 173.342 2.9359C173.346 1.3498 174.447 0.705058 175.729 0.551851C177.524 0.337538 178.8 1.14433 179.863 2.5232C180.976 3.96583 182.18 5.33673 183.349 6.73508C183.433 6.83603 183.554 6.90599 183.69 7.0158Z" fill="#264796"/>
<path d="M161.076 22.0925C158.323 22.1252 155.963 21.5894 153.896 20.1114C151.925 18.7006 150.567 16.8347 149.921 14.4728C149.365 12.436 149.325 10.3699 149.771 8.33396C150.391 5.51335 151.963 3.29848 154.437 1.77172C156.798 0.314922 159.389 -0.0242519 162.109 0.206887C164.219 0.386662 166.125 1.05969 167.805 2.34026C169.675 3.76695 170.929 5.59656 171.514 7.90353C172.021 9.89876 172.079 11.8975 171.634 13.8821C170.869 17.2917 168.822 19.6889 165.631 21.1192C164.09 21.8099 162.81 22.0278 161.076 22.0925ZM165.894 11.0394C166.033 8.63947 164.391 6.1793 161.961 5.7551C160.546 5.50802 159.188 5.59213 157.94 6.37588C156.364 7.36597 155.646 8.85996 155.516 10.6639C155.436 11.7735 155.579 12.8628 156.099 13.8653C156.842 15.2991 157.991 16.229 159.6 16.5017C161.203 16.7745 162.723 16.5717 164.013 15.4895C165.366 14.3533 165.929 12.8593 165.894 11.0394Z" fill="#264796"/>
<path d="M6.17809 7.7C7.92005 7.7 9.59028 7.71594 11.2614 7.69646C14.864 7.65572 17.3091 9.75545 18.1416 13.0047C18.8881 15.9165 18.2177 18.544 15.8178 20.5614C14.7533 21.455 13.4984 21.7543 12.1355 21.7481C9.09878 21.7348 6.06296 21.7454 3.02626 21.7392C2.30273 21.7375 1.58717 21.6764 0.96105 21.2451C0.140104 20.6792 0.00195228 19.8361 0.00195228 18.9302C0.00195228 14.0647 -0.000704882 9.19931 0.000180713 4.33476C0.000180713 3.85211 0.0356043 3.36857 0.0276339 2.88681C0.01435 2.01096 0.728139 1.14043 1.53403 0.882722C2.06804 0.711803 2.64368 0.592264 3.2016 0.588721C6.9273 0.563925 10.6548 0.547982 14.3805 0.586948C16.5333 0.609974 17.0957 2.06322 16.7344 3.96547C16.5431 4.96885 15.7204 5.5613 14.5842 5.54713C11.9796 5.51436 9.37331 5.54712 6.76878 5.51435C6.26222 5.50815 6.14621 5.68175 6.17189 6.13163C6.20023 6.62756 6.17809 7.12614 6.17809 7.7ZM8.71886 16.741V16.7454C8.95974 16.7454 9.20151 16.7561 9.44239 16.7437C10.0915 16.7082 10.7717 16.7693 11.3836 16.5975C12.4012 16.3115 12.8192 15.6012 12.8493 14.4402C12.8758 13.4174 12.5615 12.5566 11.5528 12.1404C11.1675 11.9809 10.7168 11.9305 10.2943 11.9207C9.08904 11.8924 7.88197 11.9189 6.67668 11.9048C6.33484 11.9003 6.17455 11.9863 6.17809 12.3635C6.19226 13.6901 6.1896 15.0167 6.171 16.3434C6.16658 16.6772 6.30296 16.7507 6.59963 16.7454C7.30545 16.7321 8.01215 16.741 8.71886 16.741Z" fill="#264796"/>
<path d="M136.981 13.6226C136.981 15.4451 136.989 17.2207 136.978 18.9963C136.973 19.696 136.857 20.3991 136.301 20.8747C135.937 21.1855 135.479 21.4804 135.022 21.569C133.867 21.7948 132.695 21.8453 131.663 21.0881C131.078 20.6604 130.799 20.0431 130.797 19.3559C130.78 13.8838 130.78 8.41177 130.791 2.94059C130.793 1.66977 131.711 0.684134 133.059 0.577863C133.768 0.522956 134.505 0.588465 135.203 0.73016C136.493 0.990524 136.954 2.06123 136.971 3.12394C136.996 4.7118 136.982 6.29967 136.984 7.88753C136.985 8.09299 136.984 8.29755 136.984 8.534C137.161 8.55525 137.293 8.58358 137.426 8.58446C138.755 8.588 140.085 8.5765 141.413 8.5951C141.816 8.6013 141.954 8.47113 141.949 8.05933C141.929 6.47147 141.955 4.8836 141.939 3.29574C141.923 1.71761 142.604 0.899325 144.019 0.615051C144.984 0.42022 145.987 0.452989 146.9 0.904641C147.555 1.22788 147.92 1.81149 148.046 2.52439C148.109 2.87863 148.137 3.24348 148.138 3.60392C148.145 8.62699 148.147 13.65 148.143 18.6731C148.143 19.6411 148.007 20.5807 147.124 21.1785C146.821 21.3839 146.449 21.5451 146.09 21.5982C144.977 21.7603 143.863 21.8214 142.864 21.1368C142.283 20.7392 141.991 20.16 141.976 19.4896C141.936 17.7131 141.947 15.9348 141.938 14.1575C141.938 13.9883 141.938 13.82 141.938 13.6226C140.28 13.6226 138.667 13.6226 136.981 13.6226Z" fill="#264796"/>
<path d="M25.9645 6.88971C26.7031 6.88971 27.3726 6.8711 28.0403 6.89412C29.3138 6.9384 30.5979 6.91537 31.8546 7.08806C33.6532 7.33603 34.9914 8.38899 35.8894 9.93523C36.9654 11.7869 37.3559 13.8353 37.1265 15.9422C36.8644 18.3598 35.1455 20.9245 32.4967 21.5125C32.0663 21.6082 31.6181 21.6702 31.178 21.6719C28.2617 21.6861 25.3446 21.7224 22.4292 21.6631C20.6536 21.6268 19.7875 20.688 19.7751 19.0346C19.7352 13.7716 19.7521 8.50858 19.7636 3.24551C19.7671 1.58591 20.8343 0.568325 22.4912 0.546185C23.3768 0.534672 24.2464 0.547961 25.0107 1.08109C25.6501 1.52654 25.9503 2.16154 25.9601 2.92314C25.976 4.21522 25.9645 5.5073 25.9645 6.88971ZM25.9928 16.7055C27.145 16.7055 28.2458 16.7073 29.3466 16.702C29.4644 16.702 29.5839 16.6701 29.6991 16.6391C31.6668 16.1087 31.9139 13.9133 31.3418 12.4184C31.0655 11.6966 30.4571 11.2104 29.7239 11.1529C28.4964 11.0563 27.2557 11.1272 25.9928 11.1272C25.9928 12.9799 25.9928 14.813 25.9928 16.7055Z" fill="#264796"/>
<path d="M85.738 11.0621C85.738 8.4576 85.7327 5.85308 85.7407 3.24855C85.746 1.34896 86.8379 0.62899 88.354 0.582053C91.404 0.488181 94.4621 0.469564 97.5112 0.584691C99.5515 0.661737 101.049 1.8387 102.103 3.56383C103.028 5.07819 103.267 6.72097 103.048 8.46736C102.861 9.94984 102.478 11.3685 101.652 12.6128C100.319 14.6186 98.3515 15.4051 95.9994 15.3785C94.8269 15.3652 93.6534 15.3909 92.4818 15.3634C92.0169 15.3528 91.9071 15.5202 91.9106 15.9647C91.9186 17.186 91.8964 18.4099 91.8362 19.6302C91.8025 20.3174 91.4422 20.8594 90.8303 21.1933C89.5453 21.8964 88.2141 21.8672 86.9238 21.2686C86.086 20.8807 85.7478 20.0916 85.7443 19.1865C85.7346 16.4784 85.7407 13.7703 85.7407 11.0621H85.738ZM91.9212 4.66814C91.9212 6.56419 91.9257 8.28492 91.9169 10.0065C91.9151 10.3041 92.04 10.3988 92.3181 10.3944C93.3002 10.3802 94.2858 10.4209 95.2635 10.3545C96.1145 10.2969 96.8513 9.94896 97.2401 9.11296C97.6829 8.16006 97.6687 7.19562 97.2906 6.22501C97.0444 5.59359 96.5902 5.03567 95.9765 4.94622C94.6613 4.75494 93.3187 4.75227 91.9212 4.66814Z" fill="#264796"/>
<path d="M58.5864 22.17C55.8977 22.046 53.6456 21.7423 51.5415 20.7522C49.5391 19.8099 48.0735 18.3239 47.0665 16.3481C46.1916 14.6327 45.8551 12.7987 45.9029 10.9168C45.9905 7.40186 47.2074 4.39175 50.1652 2.27075C51.4644 1.33911 52.9301 0.786512 54.4834 0.440247C56.3945 0.0142765 58.3331 0.0372794 60.2424 0.28436C61.9242 0.502215 63.5483 1.02296 64.7271 2.40359C66.0395 3.93921 65.6251 6.12133 63.8441 6.85105C63.5156 6.98566 63.087 7.04143 62.7478 6.9573C61.5194 6.65531 60.3142 6.26476 59.0929 5.93355C57.2057 5.42168 55.3849 5.49344 53.7599 6.71467C52.8034 7.43288 52.4226 8.49381 52.2039 9.62648C51.9577 10.9035 52.0338 12.1725 52.3916 13.4097C52.8388 14.9551 53.9379 16.0816 55.6364 16.3924C56.2094 16.4978 56.8081 16.6501 57.3696 16.5792C58.3295 16.4579 59.2745 16.194 60.2185 15.9585C61.1289 15.7309 62.0225 15.4324 62.9364 15.2243C63.6307 15.0658 64.6607 15.7211 65.1088 16.5244C65.858 17.8678 65.6561 18.9216 64.3967 20.1402C63.4598 21.0453 62.2997 21.5412 61.0536 21.8078C60.1176 22.0088 59.1558 22.0894 58.5864 22.17Z" fill="#264796"/>
<path d="M78.6575 5.54146C78.6575 5.80094 78.6575 6.00551 78.6566 6.2092C78.6549 10.4361 78.6513 14.6639 78.6496 18.8909C78.6496 19.8145 78.5264 20.7099 77.6258 21.2031C77.191 21.4422 76.6773 21.6211 76.1867 21.6574C75.4092 21.7141 74.6174 21.7725 73.8558 21.405C73.1102 21.0455 72.6576 20.5035 72.5753 19.6976C72.5044 19.0131 72.492 18.3205 72.4911 17.6324C72.4832 13.8023 72.4787 9.9721 72.4982 6.14191C72.5009 5.65041 72.3787 5.4839 71.8712 5.50427C70.9413 5.54147 70.0053 5.54679 69.0772 5.48922C68.2881 5.44051 67.546 5.19874 67.1448 4.42119C66.6435 3.45147 66.6639 2.02123 67.4016 1.22243C67.7266 0.869962 68.3209 0.584823 68.7955 0.579509C73.3156 0.531687 77.8357 0.544061 82.3567 0.554688C83.4468 0.558231 84.3112 1.44206 84.3554 2.64115C84.3758 3.17693 84.2988 3.75081 84.1146 4.25294C83.7745 5.18104 82.9349 5.45378 82.0414 5.49718C81.077 5.54412 80.1099 5.51312 79.1437 5.51755C79.0091 5.51843 78.8736 5.52995 78.6575 5.54146Z" fill="#264796"/>
<path d="M38.3842 11.115C38.3842 8.49461 38.4072 5.87326 38.3754 3.25191C38.3576 1.79068 39.0174 0.928986 40.3352 0.647368C41.3554 0.430398 42.395 0.434832 43.3532 0.918365C44.2299 1.36116 44.5053 2.20515 44.562 3.10579C44.6178 3.98164 44.5896 4.86367 44.5896 5.74306C44.5896 10.1223 44.5966 14.5024 44.578 18.8826C44.5735 19.7974 44.3654 20.691 43.502 21.1957C43.076 21.4446 42.5579 21.619 42.0682 21.6571C41.2897 21.7182 40.5017 21.7528 39.7401 21.3932C39.0192 21.0523 38.3983 20.2942 38.3956 19.4954C38.3877 16.7022 38.3931 13.9091 38.3931 11.115C38.3904 11.115 38.3878 11.115 38.3842 11.115Z" fill="#264796"/>
<path d="M110.755 9.4971C113.377 9.4971 115.503 7.3711 115.503 4.74855C115.503 2.126 113.377 0 110.755 0C108.132 0 106.006 2.126 106.006 4.74855C106.006 7.3711 108.132 9.4971 110.755 9.4971Z" fill="#E31E24"/>
<path d="M122.783 9.58206C125.406 9.58206 127.532 7.45606 127.532 4.83351C127.532 2.21097 125.406 0.0849609 122.783 0.0849609C120.161 0.0849609 118.035 2.21097 118.035 4.83351C118.035 7.45606 120.161 9.58206 122.783 9.58206Z" fill="#F6B511"/>
<path d="M110.489 22.1035C113.111 22.1035 115.237 19.9775 115.237 17.3549C115.237 14.7324 113.111 12.6064 110.489 12.6064C107.866 12.6064 105.74 14.7324 105.74 17.3549C105.74 19.9775 107.866 22.1035 110.489 22.1035Z" fill="#264796"/>
<path d="M122.815 22.0713C125.437 22.0713 127.563 19.9453 127.563 17.3227C127.563 14.7002 125.437 12.5742 122.815 12.5742C120.192 12.5742 118.066 14.7002 118.066 17.3227C118.066 19.9453 120.192 22.0713 122.815 22.0713Z" fill="#722E85"/>
</g>
<defs>
<clipPath id="clip0_524_2542">
<rect width="194" height="23" fill="white"/>
</clipPath>
</defs>
</svg>
