<svg width="162" height="64" viewBox="0 0 162 64" fill="none" xmlns="http://www.w3.org/2000/svg">
<path d="M0 35.4893C2.77687 41.9767 9.24059 46.5276 16.7736 46.5276C13.9967 40.0374 7.53295 35.4893 0 35.4893Z" fill="#12B36A"/>
<path d="M16.7754 46.5271C22.3091 46.5271 27.0738 43.2529 29.2237 38.5464C23.6912 38.5464 18.9266 41.8205 16.7754 46.5271Z" fill="#12B36A"/>
<path fill-rule="evenodd" clip-rule="evenodd" d="M16.7757 37.4552C24.3242 37.4552 30.4438 31.3642 30.4438 23.8477C30.4438 16.3341 24.3242 10.2402 16.7757 10.2402C9.22563 10.2402 3.10742 16.3341 3.10742 23.8477C3.10742 31.3642 9.22563 37.4552 16.7757 37.4552ZM16.7757 30.6524C20.5492 30.6524 23.609 27.6061 23.609 23.8479C23.609 20.0897 20.5492 17.0448 16.7757 17.0448C13.0005 17.0448 9.94077 20.0897 9.94077 23.8479C9.94077 27.6061 13.0005 30.6524 16.7757 30.6524Z" fill="#FEBE10"/>
<path d="M104.716 23.848H110.433V45.9105H104.716V37.3183H94.7328V45.9105H89.0155V23.848H94.7328V31.9789H104.716V23.848ZM113.126 29.3206H120.244V45.9105H125.961V29.3206H132.992V23.848H113.126V29.3206ZM160.715 41.1118V45.8015C159.74 46.2871 158.523 46.529 157.101 46.529C154.131 46.529 152.636 45.2423 152.036 43.17L151.941 43.3088C150.212 45.4703 147.819 46.529 144.717 46.529C141.746 46.529 139.219 45.4264 137.093 43.1757C135.01 40.925 133.946 38.1449 133.946 34.8793C133.946 31.6165 135.01 28.8802 137.093 26.6296C139.219 24.3803 141.746 23.231 144.717 23.231C147.682 23.231 149.999 24.202 151.707 26.1794V23.8495H157.425V39.4557C157.425 40.7891 158.034 41.4757 159.253 41.4757C159.823 41.4743 160.31 41.3538 160.715 41.1118ZM151.941 34.8778C151.941 33.0716 151.365 31.5712 150.168 30.4232C149.016 29.2327 147.553 28.658 145.78 28.658C144.007 28.658 142.545 29.2313 141.392 30.4232C140.24 31.5712 139.664 33.0716 139.664 34.8778C139.664 36.6884 140.24 38.1888 141.392 39.3807C142.545 40.5272 144.007 41.1005 145.78 41.1005C147.553 41.1005 149.016 40.5272 150.168 39.3807C151.365 38.1888 151.941 36.6884 151.941 34.8778ZM41.914 23.848L41.7434 32.1375C41.7035 35.4936 41.5813 37.1512 41.0936 39.0495C40.6471 40.8697 39.794 41.3837 38.4561 41.3837C38.0081 41.3837 37.6029 41.3426 37.2773 41.2208V45.9105C37.7237 46.1526 38.456 46.2729 39.43 46.2729C43.4495 46.1526 45.3989 44.2642 46.3743 40.8683C47.0639 38.4422 47.1862 36.5821 47.3085 33.7936L47.4364 29.319H54.5357V45.9091H60.2529V23.8466H41.914V23.848ZM69.4495 36.3685C70.0651 40.1337 73.0638 41.3666 76.1066 41.3666C78.1227 41.3666 80.2356 40.5824 81.5352 39.409L85.0613 42.9408C82.9556 45.2622 80.0237 46.529 76.0169 46.529C70.4078 46.529 63.6412 43.2324 63.6412 34.8793C63.6412 26.5277 70.1576 23.231 75.6914 23.231C82.6911 23.231 85.5874 26.5051 85.5874 30.1755C85.5888 36.176 77.9279 38.9476 69.4495 36.3685ZM79.381 30.8252C79.381 29.1138 77.6805 28.3494 75.7752 28.3494C72.8648 28.3494 70.3424 29.5725 69.576 32.7206C75.5065 34.4263 79.381 33.1538 79.381 30.8252Z" fill="#003991"/>
</svg>
