<svg width="41" height="55" viewBox="0 0 41 55" fill="none" xmlns="http://www.w3.org/2000/svg">
<path d="M39.0893 6.25832C37.6544 4.2903 35.8141 3.20125 33.6234 3.0133C31.4928 2.8364 29.3951 3.59375 28.0588 4.4285L29.2692 2.02929C29.4882 1.59809 29.4718 1.0895 29.2199 0.669358C28.9679 0.249219 28.5243 0.000457232 28.0423 0.000457232H11.1514C8.22667 -0.0271835 5.72918 1.20559 4.79262 1.74182C4.43662 1.94636 4.23398 2.32781 4.26684 2.73689C4.2997 3.13492 4.54617 3.4666 4.9186 3.59928C6.86292 4.31241 8.65388 5.8216 9.82047 7.72328C10.6365 9.05556 11.0309 10.7195 11.0309 12.8147C11.0309 16.3804 9.33302 19.7636 6.485 21.8753C2.49777 24.8384 0.131727 29.4047 0.00575644 34.4021C-0.125691 39.3996 1.99937 44.0874 5.83324 47.2551L8.88391 49.7759C9.25087 50.0799 9.50281 50.5111 9.58496 50.9866L9.7164 51.7384C9.93001 52.938 10.7735 53.9275 11.9072 54.3145C13.2271 54.7733 15.2536 55 18.0962 55C20.9387 55 22.9652 54.7789 24.2851 54.32C25.4243 53.9331 26.2623 52.9435 26.4759 51.7384L26.6073 50.9866C26.6895 50.5111 26.9414 50.0855 27.3084 49.7759L30.3591 47.2551C34.067 44.1925 36.192 39.6594 36.192 34.8223C36.192 32.7934 35.8196 30.8088 35.0857 28.9237C35.1076 27.7462 36.0606 25.8888 37.1669 23.7328C39.7301 18.7519 43.2354 11.9302 39.0784 6.25279L39.0893 6.25832ZM10.7625 50.7765C10.7625 50.7765 10.7351 50.7433 10.7406 50.7267C10.7461 50.7102 10.768 50.7046 10.7789 50.7102C11.9674 51.0418 13.1943 51.2353 14.4211 51.368C15.648 51.4952 16.8857 51.556 18.1181 51.556C19.3504 51.5615 20.5882 51.5117 21.815 51.3846C23.0418 51.2574 24.2687 51.0584 25.4572 50.7212C25.4736 50.7212 25.4955 50.7267 25.501 50.7433C25.501 50.7599 25.501 50.7765 25.4846 50.7875C24.3563 51.3625 23.1185 51.7329 21.8807 51.9485C20.6375 52.1806 19.3778 52.2636 18.1235 52.2746C16.8638 52.258 15.6041 52.1641 14.3664 51.9319C13.1286 51.7107 11.9017 51.3459 10.768 50.782L10.7625 50.7765ZM29.0939 47.3933C29.0939 47.3933 29.0665 47.4154 29.0501 47.4209C24.7945 50.2292 19.0437 50.7875 14.6073 48.2833C13.0902 47.4264 12.0167 46.072 11.2993 45.0106C10.6365 43.7392 10.1436 42.3737 9.84238 40.953C10.0943 43.0316 10.7516 45.0825 11.8086 46.9289C12.0989 47.443 12.422 47.9405 12.7671 48.427C12.7561 48.416 12.7452 48.4049 12.7342 48.3939C11.9181 47.5149 11.1733 46.5696 10.5434 45.5524C9.27825 43.507 8.50601 41.1409 8.2705 38.703C8.31979 41.152 8.91678 43.6175 10.0669 45.8288C10.4503 46.564 10.894 47.2716 11.3759 47.9516C10.5106 46.9952 9.71093 45.9725 9.0537 44.8558C8.39646 43.7336 7.8652 42.5285 7.50373 41.2626C7.13677 40.0021 6.93958 38.6809 6.87386 37.3597C6.84648 38.6864 6.95054 40.0242 7.23534 41.3289C7.51467 42.6391 7.96926 43.9105 8.57172 45.1212C8.97154 45.9283 9.44804 46.6912 9.96287 47.4264C9.93549 47.3933 9.90811 47.3656 9.88072 47.3325C8.90035 46.2213 8.02403 45.0162 7.34489 43.6949C6.65479 42.3792 6.14543 40.9585 5.87158 39.4825C5.58678 38.0065 5.51558 36.4862 5.59774 34.977C5.42247 36.4807 5.40057 38.012 5.59774 39.5267C5.78395 41.0414 6.22211 42.534 6.84648 43.9382C7.30655 44.9719 7.87615 45.9559 8.52243 46.8791C8.49505 46.846 8.46767 46.8183 8.44028 46.7907C7.37775 45.5579 6.44667 44.2091 5.74014 42.7386C5.04457 41.2626 4.57355 39.676 4.36542 38.0341C4.31613 37.625 4.29421 37.2104 4.25588 36.8013L4.23398 35.5575L4.29422 34.3137L4.3928 33.0698L4.22301 34.3081L4.09157 35.552L4.04228 36.8069C4.05871 37.227 4.05871 37.6416 4.08609 38.0617C4.20658 39.7368 4.59545 41.3952 5.23077 42.9597C5.71822 44.1427 6.34808 45.2649 7.07104 46.3153C6.99984 46.2324 6.92317 46.1494 6.85197 46.0665C5.68537 44.6347 4.66666 43.0703 3.99299 41.3399C3.30837 39.6207 2.93593 37.7632 2.9195 35.8837C2.87568 34.0041 3.18788 32.1356 3.58222 30.2837C3.10572 32.1079 2.69494 33.9709 2.64565 35.8781C2.57445 37.7798 2.85925 39.7091 3.48362 41.5279C3.9875 43.0371 4.74881 44.4523 5.63608 45.7625C5.55393 45.663 5.46082 45.5634 5.37866 45.4639C4.11896 43.8884 3.06738 42.1415 2.41562 40.2233C1.75291 38.3105 1.51193 36.2596 1.61599 34.2197C1.72553 32.1687 2.24037 30.1676 2.84831 28.1995C2.15273 30.1344 1.54479 32.1245 1.34214 34.1976C1.14497 36.2651 1.29832 38.3824 1.89531 40.3946C2.06509 40.9806 2.2787 41.5555 2.51421 42.1139C1.27641 39.7921 0.635606 37.1607 0.706807 34.4298C0.77253 31.9476 1.41882 29.576 2.55803 27.4754C14.1637 29.7806 26.109 28.4759 28.6174 28.0945C28.4695 27.8623 28.3162 27.6357 28.1464 27.409C16.5078 29.0453 5.48273 27.2542 2.95237 26.7899C3.07287 26.5908 3.19882 26.3918 3.33027 26.1928C7.19152 26.9889 18.3152 28.3377 27.6699 26.8009C27.4727 26.5687 27.2701 26.3476 27.0565 26.1375C16.7379 27.5914 6.27141 25.9938 3.80678 25.5239C4.67761 24.3796 5.71276 23.3458 6.90126 22.4613C8.64293 21.1733 9.99026 19.4208 10.8228 17.3865C10.8228 17.3533 10.8228 17.3257 10.8337 17.2925C10.8337 17.2814 10.8447 17.2649 10.8501 17.2538C11.8196 14.9375 12.181 12.2951 11.6607 9.78528C11.3978 8.53592 10.8885 7.33078 10.1217 6.29702C9.36041 5.25773 8.33622 4.41744 7.1751 3.8204C8.37456 4.32899 9.47542 5.10847 10.3353 6.12565C11.2007 7.1373 11.8196 8.35901 12.192 9.6526C12.8164 11.886 12.7726 14.2797 12.192 16.5462C12.307 16.5407 12.422 16.5296 12.5425 16.5241C13.0354 15.0425 13.2162 13.4283 13.1012 11.8307C12.9588 9.91242 12.4001 7.98863 11.3705 6.3136C12.548 7.88359 13.3093 9.78528 13.6434 11.7644C13.9008 13.3178 13.8953 14.9375 13.5722 16.513C13.6653 16.513 13.7584 16.513 13.8515 16.5186C14.0487 15.6838 14.1856 14.8269 14.2349 13.9646C14.3061 12.7152 14.2239 11.4327 13.7748 10.2331C14.3937 11.3608 14.6676 12.6654 14.7826 13.959C14.8538 14.8214 14.8428 15.6893 14.7716 16.5573C14.8757 16.5628 14.9798 16.5683 15.0784 16.5738C15.2372 15.7501 15.3029 14.8822 15.2974 14.0143C15.5384 14.8546 15.7301 15.7225 15.8068 16.6236C16.4202 16.6733 17.0391 16.7342 17.647 16.7894C21.3933 17.1543 22.8282 17.1322 24.0934 16.9774C23.4855 14.4953 23.5786 11.9136 24.1701 9.50334C24.8109 6.91064 26.0104 4.47273 27.6754 2.4439C26.1528 4.58329 25.156 7.06543 24.7068 9.61391C24.2632 12.1624 24.4001 14.8159 25.271 17.1819V17.193L25.3203 17.3146C26.1309 19.3545 27.5001 21.1346 29.2856 22.4558C30.2167 23.1468 31.0711 23.9484 31.8324 24.8384C32.8785 26.0657 33.7219 27.4477 34.3354 28.9569L34.4066 29.1559C35.1186 30.9581 35.48 32.8763 35.48 34.8223C35.48 39.4438 33.4481 43.7723 29.9045 46.7022L29.0775 47.3877L29.0939 47.3933ZM10.6913 0.697001C12.6301 0.509044 14.5197 0.774392 16.3928 0.824146C18.2714 0.90154 20.161 0.912598 22.0505 0.929182H24.8876C25.8351 0.945766 26.7771 0.929181 27.7247 0.884956C25.857 1.25534 23.9565 1.39355 22.067 1.49306C20.1719 1.58703 18.2714 1.60914 16.3709 1.54281C15.4179 1.49858 14.4704 1.42672 13.5284 1.35485C12.5863 1.27746 11.6553 1.22218 10.7296 1.26087C8.87843 1.33274 7.04912 1.86896 5.2472 2.43836C6.95054 1.60914 8.75246 0.879427 10.6913 0.702526V0.697001ZM19.6461 14.6169C19.8324 14.6169 19.9857 14.7717 19.9857 14.9596C19.9857 15.1476 19.8324 15.3024 19.6461 15.3024C19.4599 15.3024 19.3066 15.1476 19.3066 14.9596C19.3066 14.7717 19.4599 14.6169 19.6461 14.6169ZM18.8684 13.0635C18.8684 12.7871 19.093 12.5604 19.3668 12.5604C19.6407 12.5604 19.8652 12.7871 19.8652 13.0635C19.8652 13.3399 19.6407 13.5665 19.3668 13.5665C19.093 13.5665 18.8684 13.3399 18.8684 13.0635ZM18.5617 14.5284C18.5617 14.9209 18.244 15.2416 17.8552 15.2416C17.4663 15.2416 17.1486 14.9209 17.1486 14.5284C17.1486 14.1359 17.4663 13.8153 17.8552 13.8153C18.244 13.8153 18.5617 14.1359 18.5617 14.5284ZM34.4668 4.15762C35.7155 4.50036 36.8219 5.26325 37.6927 6.20856C38.5581 7.15941 39.2263 8.33138 39.5001 9.61391C40.0478 12.1679 39.5823 14.7496 38.8484 17.1322C38.4705 18.3318 38.0159 19.4982 37.4956 20.6315C36.9588 21.7592 36.3837 22.8649 35.7265 23.9207C36.2413 22.7875 36.7507 21.6542 37.1724 20.4933C37.6215 19.3379 38.0104 18.1659 38.3171 16.9774C38.6183 15.7833 38.8758 14.5837 38.9798 13.3675C39.0894 12.1569 39.0729 10.9351 38.8046 9.77422C38.569 8.61884 37.9666 7.5519 37.1888 6.66187C36.4111 5.76631 35.4143 5.06977 34.3025 4.6828C33.1852 4.29583 31.9474 4.29029 30.7918 4.63304C29.6197 4.94814 28.5626 5.58941 27.5439 6.29702C28.4641 5.46779 29.5047 4.74914 30.6877 4.30136C31.8762 3.87016 33.2181 3.79829 34.4613 4.15762H34.4668ZM29.7237 21.8809C26.5088 19.4982 24.8273 15.6009 25.2545 11.6262C26.1418 12.1016 26.821 12.2232 27.3687 12.0131C28.1738 11.7091 28.475 10.7472 28.7708 9.81845C28.9022 9.40936 29.0391 8.9837 29.2144 8.61884C29.554 7.90571 30.2769 7.34736 31.197 7.08754C32.3308 6.76691 33.5686 6.97145 34.5873 7.64035C35.6827 8.36454 38.0761 10.6366 36.6576 16.0487C35.9291 18.8293 34.3792 21.621 32.1829 24.1363C31.4435 23.3016 30.622 22.5387 29.7292 21.8753L29.7237 21.8809ZM35.1624 34.8278C35.1624 38.7141 33.6726 42.3737 30.9725 45.1323C30.9451 45.1599 30.9122 45.1709 30.8739 45.1709C30.8356 45.1709 30.8027 45.1599 30.7753 45.1323C30.7206 45.077 30.7206 44.9885 30.7753 44.9388C33.4262 42.2355 34.8885 38.6422 34.8885 34.8278C34.8885 32.998 34.549 31.2069 33.8753 29.4876L33.815 29.3162C33.596 28.791 33.3495 28.2659 33.0702 27.7739C33.0318 27.7075 33.0537 27.6246 33.1249 27.5859C33.1907 27.5472 33.2728 27.5693 33.3112 27.6412C33.5905 28.1443 33.8479 28.675 34.0724 29.2222L34.1327 29.3936C34.8173 31.135 35.1678 32.9648 35.1678 34.8278H35.1624ZM30.978 27.5583C30.7972 27.6025 30.5234 27.4201 30.3426 27.1215L29.6799 26.0436C29.4663 25.7008 29.4718 25.347 29.6799 25.2973L31.0766 24.9435C31.2628 24.8937 31.5421 25.0927 31.7228 25.3912L32.3636 26.4748C32.5663 26.8175 32.5608 27.1547 32.3527 27.2045L30.9725 27.5527L30.978 27.5583ZM29.6909 27.1602C29.8935 27.503 29.8881 27.8402 29.6799 27.89C29.4992 27.9342 29.2253 27.7518 29.0446 27.4532L28.3819 26.3752C28.1683 26.0325 28.1738 25.6787 28.3819 25.629H28.3983C28.5845 25.5792 28.8639 25.7727 29.0446 26.0767L29.6854 27.1602H29.6909ZM29.0884 23.2353C27.1989 21.8366 25.731 19.9571 24.8492 17.7956C24.8219 17.7237 24.8493 17.6463 24.9259 17.6131C24.9917 17.5855 25.0738 17.6131 25.1067 17.6905C25.9666 19.8023 27.4015 21.6432 29.2527 23.0086C29.784 23.4066 30.2988 23.8434 30.7753 24.3132C30.8301 24.3685 30.8301 24.4515 30.7753 24.5067C30.7479 24.5344 30.7151 24.551 30.6767 24.551C30.6384 24.551 30.6055 24.5399 30.5836 24.5123C30.1126 24.0534 29.6142 23.6222 29.0884 23.2353Z" fill="white"/>
</svg>
