<svg width="34" height="52" viewBox="0 0 34 52" fill="none" xmlns="http://www.w3.org/2000/svg">
<path d="M26.0029 23.6844V49.9243C26.0029 49.9929 25.948 50.0467 25.8781 50.0467C25.8083 50.0467 25.7533 49.9929 25.7533 49.9243V23.6844C25.7533 23.6159 25.8083 23.562 25.8781 23.562C25.948 23.562 26.0029 23.6159 26.0029 23.6844ZM25.369 17.0363C25.6235 17.4231 25.7583 17.8686 25.7583 18.3239V19.112C25.7583 19.1806 25.8132 19.2344 25.8831 19.2344C25.953 19.2344 26.0079 19.1806 26.0079 19.112V18.3239C26.0079 17.8245 25.8582 17.3301 25.5786 16.9042L23.7865 14.2067C23.1725 13.2864 22.853 12.2192 22.853 11.1226V8.22933C22.853 8.1608 22.7981 8.10695 22.7282 8.10695C22.6584 8.10695 22.6034 8.1608 22.6034 8.22933V11.1226C22.6034 12.2681 22.9429 13.3843 23.5819 14.3438L25.374 17.0412L25.369 17.0363ZM34 29.1331C34 30.4794 32.8868 31.5711 31.519 31.5711C31.0148 31.5711 30.5356 31.4193 30.1213 31.1403C29.1828 31.3361 28.1195 31.4536 27.0313 31.4976V49.9243C27.0313 50.8055 26.3624 51.5349 25.4738 51.628C23.8315 51.7993 20.422 52 13.5181 52C6.6143 52 3.20481 51.7944 1.55748 51.628C0.668916 51.5398 0 50.8055 0 49.9243V18.3239C0 17.6434 0.199669 16.9776 0.584047 16.3999L2.37615 13.7025C2.88532 12.9339 3.15489 12.0429 3.15489 11.1226V7.74958C2.8354 7.62229 2.61077 7.31877 2.61077 6.96629C2.61077 6.86838 2.63074 6.78027 2.66069 6.69215C2.33621 6.56976 2.1016 6.26624 2.1016 5.90397C2.1016 5.434 2.49096 5.05215 2.96519 5.05215H3.57421C4.21317 4.10243 6.13009 3.68142 10.2185 3.56392H10.2285C10.2933 3.56392 10.3532 3.55903 10.4131 3.55413L10.2634 2.55545C9.76421 -0.851817 17.2571 -0.851817 16.7579 2.55545L16.6081 3.55413C20.8263 3.66673 22.8031 4.09263 23.4471 5.05215H24.0561C24.5303 5.05215 24.9197 5.434 24.9197 5.90397C24.9197 6.26624 24.6851 6.57466 24.3606 6.69215C24.3905 6.78027 24.4105 6.86838 24.4105 6.96629C24.4105 7.32367 24.1859 7.62229 23.8664 7.74958V11.1226C23.8664 12.0429 24.136 12.9339 24.6451 13.6976L26.4372 16.395C26.8166 16.9727 27.0213 17.6385 27.0213 18.319V21.6234L32.118 28.7072C32.3577 29.0401 32.2778 29.4954 31.9383 29.7304C31.8784 29.7744 31.8085 29.8038 31.7437 29.8234C31.8185 29.8479 31.8984 29.8626 31.9783 29.8626C32.138 29.8626 32.2978 29.8136 32.4375 29.7206C32.7969 29.4709 32.8868 28.9814 32.6322 28.6289L31.2544 26.7147C31.3393 26.705 31.4242 26.6952 31.509 26.6952C32.8768 26.6952 33.99 27.7869 33.99 29.1282L34 29.1331ZM25.4039 50.9915C25.963 50.9328 26.3823 50.4775 26.3823 49.9243V23.2732L18.2505 11.9793H16.2188C15.4051 11.9793 14.7412 11.3331 14.7412 10.5302V9.85954C14.7412 9.06157 15.4001 8.41047 16.2188 8.41047H19.5534C20.3671 8.41047 21.031 9.05667 21.031 9.85954V10.5302C21.031 11.01 20.7914 11.4359 20.422 11.6953L18.8545 9.52175C18.5899 9.15458 18.0758 9.07136 17.7064 9.32593C17.6065 9.39447 17.5266 9.48748 17.4667 9.58539C17.8012 9.3602 18.2655 9.43852 18.5001 9.76652L26.3873 20.7178V18.3141C26.3873 17.756 26.2226 17.2077 25.9081 16.7328L24.116 14.0354C23.5369 13.164 23.2274 12.1506 23.2274 11.1128V7.80343H8.37645L7.67259 10.7358L7.80736 7.80343H7.30817L7.0486 9.47769V9.4581C7.01365 9.791 6.92379 10.0309 6.83893 10.305C6.75407 10.5694 6.65922 10.8288 6.55439 11.0883C6.34972 11.6023 6.13507 12.1164 5.83057 12.5814C6.06519 12.0821 6.20495 11.5534 6.33974 11.0247C6.40463 10.7603 6.45954 10.4911 6.50946 10.2267C6.55439 9.96724 6.60431 9.6784 6.59433 9.4581L6.61928 7.80343H6.15504C6.15504 7.80343 5.90045 10.1973 5.81059 10.8925C5.66583 11.5828 5.34635 12.1653 5.03185 12.7479C4.70738 13.3255 4.35295 13.8787 3.98355 14.4221C4.28805 13.8396 4.58257 13.2521 4.83716 12.6549C5.08676 12.0576 5.33137 11.4408 5.38628 10.8337C5.40125 10.2316 5.38629 9.54133 5.39627 8.89512V7.79853H4.96696L4.82219 9.65393C4.7523 10.4617 4.71238 11.2254 4.61753 12.0723C4.46278 12.9339 3.96358 13.6144 3.5143 14.2753C3.05006 14.9362 2.57583 15.5873 2.13654 16.258C2.51593 15.5481 2.93025 14.8578 3.32961 14.1627C3.71898 13.4724 4.12831 12.7577 4.18822 12.0136C4.20819 11.2645 4.18322 10.4274 4.18322 9.63924L4.16825 7.79853H3.81882V11.1079C3.81882 12.1506 3.51431 13.164 2.93026 14.0354L1.14814 16.723C2.54088 16.9384 3.9586 17.0804 5.3813 17.1881C7.06357 17.3203 8.75084 17.4084 10.4431 17.4818C13.8276 17.6385 17.2122 17.6825 20.6067 17.7756C17.2221 17.9273 13.8326 18.128 10.4381 18.2162C8.74085 18.2651 7.0386 18.2945 5.33635 18.2896C3.79385 18.2798 2.24636 18.2406 0.683891 18.0987C0.678899 18.1721 0.668916 18.2406 0.668916 18.3141V49.9145C0.668916 50.2915 0.868593 50.6195 1.16811 50.8153C1.15313 50.7663 1.12817 50.7223 1.11319 50.6733C1.05329 50.4824 1.00836 50.2866 0.988392 50.0761C0.973416 49.9831 0.973416 49.8313 0.973416 49.7579L1.42768 19.0435L1.88195 49.7579C1.88195 49.8607 1.88195 49.8852 1.89693 49.9635C1.91689 50.1054 1.95682 50.2523 2.00175 50.3894C2.07663 50.6195 2.19644 50.8349 2.33122 51.0405C2.36117 51.0405 2.39612 51.0454 2.43107 51.0503C2.40611 50.9768 2.37116 50.9083 2.3462 50.8349C2.29628 50.6586 2.25635 50.4824 2.23139 50.2915C2.22141 50.2083 2.21641 50.0663 2.2214 50.0026L2.67566 22.4361L3.12993 49.7677C3.13492 49.9292 3.12993 50.0908 3.14491 50.1838C3.16488 50.3062 3.19483 50.4383 3.23976 50.5607C3.30465 50.7614 3.40449 50.9475 3.5193 51.1237C3.55924 51.1237 3.59418 51.1237 3.62912 51.1286C3.61415 51.0845 3.59418 51.0454 3.5792 51.0013C3.53428 50.8447 3.49934 50.6831 3.47937 50.5118C3.45941 50.3111 3.47937 50.1789 3.47438 50.0418L3.92864 25.8287L4.38291 50.0369C4.3879 50.1789 4.38291 50.3257 4.39789 50.4041C4.41286 50.5118 4.44281 50.6244 4.47776 50.7321C4.53267 50.8936 4.60753 51.0405 4.69739 51.1825C4.74232 51.1825 4.78226 51.1825 4.82718 51.1874C4.82718 51.1776 4.8222 51.1727 4.81721 51.1629C4.77727 51.0209 4.74731 50.8789 4.73234 50.7272C4.71237 50.546 4.73234 50.4334 4.73234 50.316L5.1866 29.2212L5.64087 50.3111C5.64087 50.4334 5.64087 50.5656 5.65585 50.6244C5.67082 50.7125 5.69579 50.8104 5.72574 50.8985C5.76568 51.0111 5.81559 51.1188 5.87549 51.2265C5.9304 51.2265 5.99031 51.2265 6.05021 51.2314C6.03024 51.1384 6.00528 51.0503 5.99529 50.9475C5.98032 50.7663 5.99529 50.7027 5.99529 50.5901L6.44956 32.6138L6.90383 50.5803C6.90383 50.6733 6.90382 50.8153 6.91381 50.8447C6.92379 50.9181 6.94376 50.9964 6.96872 51.0699C6.98869 51.1335 7.01865 51.1971 7.0486 51.2608C7.12348 51.2608 7.19336 51.2608 7.26824 51.2657C7.26824 51.2314 7.25326 51.202 7.24827 51.1678L7.70254 36.0113L8.16179 51.0503C8.16179 51.0503 8.16179 51.0601 8.16179 51.0699C8.17177 51.1237 8.18674 51.1874 8.20671 51.2461C8.2117 51.2608 8.22169 51.2755 8.22668 51.2902C8.31155 51.2902 8.40639 51.2901 8.49126 51.295L8.95052 39.4088L9.40977 51.2853V51.295C9.40977 51.295 9.41477 51.3097 9.41477 51.3146C9.52958 51.3146 9.6394 51.3146 9.75421 51.3146L10.1985 42.8014L10.6478 51.3244C10.7776 51.3244 10.8974 51.3244 11.0321 51.3244L11.4565 46.1939L11.8808 51.3293C12.0505 51.3293 12.2202 51.3293 12.3949 51.3293L12.7094 49.5865L13.0239 51.3293C13.1987 51.3293 13.3634 51.3293 13.5381 51.3293C20.412 51.3293 23.7965 51.1286 25.4239 50.9573L25.4039 50.9915ZM8.63103 6.75089L8.5262 7.17681H23.5519C23.6717 7.17681 23.7715 7.08379 23.7715 6.96629C23.7715 6.8488 23.6717 6.75089 23.5519 6.75089H8.63103ZM24.0661 5.68857H8.51123C8.45632 5.84522 8.47628 5.99699 8.52121 6.11448H24.0661C24.1859 6.11448 24.2807 6.02146 24.2807 5.90397C24.2807 5.78648 24.1859 5.68857 24.0661 5.68857ZM22.5136 5.05215C21.4253 4.41084 18.8295 4.24929 16.5582 4.19055C15.6846 4.16607 14.6912 4.15628 13.5181 4.15628C12.345 4.15628 11.3466 4.16607 10.4731 4.19055C10.4082 4.19055 10.3333 4.19055 10.2684 4.20034C10.2584 4.20034 10.2484 4.20034 10.2384 4.20034C9.87901 4.21013 9.50462 4.22482 9.12024 4.2444C8.73586 4.40105 8.49125 4.60666 8.42636 4.80248C8.39641 4.88571 8.40639 4.96893 8.44133 5.05215H22.5086H22.5136ZM11.0072 2.45264L11.107 3.12822C11.8209 3.11354 15.2054 3.11354 15.9192 3.12822L16.0191 2.45754C16.074 2.08059 15.9891 1.76728 15.7545 1.50781C15.3352 1.03295 14.4766 0.739217 13.5082 0.739217C12.5397 0.739217 11.6811 1.03295 11.2618 1.50781C11.0322 1.77217 10.9423 2.08059 10.9972 2.45754L11.0072 2.45264ZM27.0313 26.7735C27.7152 26.798 28.3891 26.8616 29.028 26.9497L27.0313 24.1789V26.7735Z" fill="white"/>
</svg>
