<svg width="33" height="50" viewBox="0 0 33 50" fill="none" xmlns="http://www.w3.org/2000/svg">
<path d="M32.3235 26.9035C32.3076 26.6182 32.1688 23.8766 32.3116 19.4501C32.4622 14.773 31.4076 12.741 27.8831 11.2719C26.2101 10.1074 23.5459 9.08948 19.6487 9.83366C18.0827 10.1306 16.033 9.82595 14.6771 9.62159C14.3005 9.56375 13.9952 9.52133 13.7494 9.49434C13.8882 8.9391 13.8446 8.5111 13.8287 8.39157L14.134 7.79392C14.134 7.79392 14.1459 7.76692 14.1459 7.7515C14.1459 7.61655 14.1141 7.4546 14.0468 7.25795C14.4194 7.07287 14.8555 7.09986 15.1846 7.33507C15.478 7.54714 15.8189 7.69752 16.1995 7.77849C16.2748 7.79392 16.3462 7.80163 16.4215 7.80163C16.5603 7.80163 16.6951 7.77464 16.814 7.72065C18.3285 7.03046 18.8835 5.78116 19.0778 5.09868C19.1531 4.81335 19.0778 4.50873 18.8716 4.29666C17.4484 2.85843 15.8784 3.93036 14.9229 4.59742C14.7406 4.43933 14.4551 4.2851 14.2291 4.17713C17.5633 2.88928 17.9241 1.6477 17.4206 0.182476C17.377 0.0629444 17.266 -0.00646084 17.1352 0.0051067C17.0083 0.0166742 16.9092 0.109215 16.8933 0.228746C16.6436 1.86362 14.5621 2.96254 12.1596 2.73505C12.0209 2.67335 11.8781 2.6078 11.7275 2.54611C10.9901 2.24921 10.2606 2.09883 9.55488 2.09883C8.84919 2.09883 8.11574 2.24921 7.38229 2.54611C7.23164 2.6078 7.08891 2.6695 6.95015 2.73505C4.54365 2.96254 2.46622 1.86362 2.21645 0.228746C2.20059 0.105359 2.10147 0.0166742 1.97461 0.00125086C1.84378 -0.0103167 1.7288 0.0590885 1.68519 0.17862C1.18169 1.63999 1.54247 2.88157 4.87668 4.16942C4.65466 4.28124 4.36525 4.43547 4.18288 4.58971C3.22741 3.92265 1.65744 2.85072 0.234158 4.28895C0.0319644 4.49717 -0.0473272 4.80563 0.0279998 5.09097C0.222264 5.77345 0.777305 7.01889 2.29177 7.71294C2.41468 7.76692 2.54551 7.79392 2.68427 7.79392C2.75959 7.79392 2.83096 7.7862 2.90628 7.77078C3.28688 7.68595 3.62784 7.53943 3.92122 7.32736C4.24631 7.09601 4.68242 7.06516 5.05509 7.25024C4.98769 7.44689 4.95994 7.60884 4.95994 7.74765C4.95994 7.76307 4.95994 7.77849 4.97183 7.79006L5.2771 8.38772C5.25728 8.51882 5.20178 9.03164 5.40793 9.67942C5.45947 9.84908 5.54669 10.173 5.64184 10.5701C5.69338 10.7783 5.74889 11.0135 5.80836 11.268C5.80836 11.268 5.93126 11.8194 5.99073 12.1125C5.96694 12.1973 5.95108 12.2783 5.92729 12.3631C5.88368 12.4441 5.84007 12.5212 5.79646 12.6022C5.79646 12.6022 5.78853 12.6099 5.78853 12.6137C3.96483 15.7524 2.60101 19.6776 2.56929 20.792C2.56137 21.1043 2.47811 21.486 2.38296 21.9294C2.34331 22.1107 2.30367 22.2996 2.26402 22.5001C2.00632 23.8342 1.88342 25.4344 2.92611 27.2235C3.19173 32.5292 5.07094 36.8978 5.33657 37.4878C5.28503 37.8965 5.06698 39.8553 5.59823 40.9388C5.57445 41.4362 5.61409 41.9297 5.64977 42.4078C5.70924 43.1713 5.76475 43.8923 5.59427 44.6442C5.34846 45.7894 4.92425 46.8536 4.29785 47.8986C4.28992 47.914 4.28199 47.9294 4.27803 47.9448C3.79435 49.3214 3.71506 49.6838 3.71109 49.6992C3.69524 49.7725 3.71506 49.8496 3.76263 49.9075C3.81021 49.9653 3.88554 50 3.96086 50H6.82329C6.98584 50 7.14442 49.9614 7.28714 49.892C7.58845 49.7494 7.84615 49.5913 8.04438 49.4216C8.24261 49.2481 8.31793 48.9666 8.22278 48.7199C8.17917 48.6003 8.14746 48.4962 8.12764 48.3921C7.9968 47.8137 8.10385 47.2431 8.39326 46.9385C8.78576 46.5375 8.64303 46.0786 8.48048 45.5426C8.42101 45.3421 8.34965 45.1147 8.29018 44.8525C8.27432 44.7946 8.26243 44.7252 8.25054 44.6558C8.07213 43.6263 8.02456 41.0082 8.42498 39.9864C8.84522 38.9144 8.97209 37.4724 8.31001 36.6665C8.11971 36.439 8.25847 36.1228 8.46066 35.7334C8.52409 35.6138 8.57563 35.5059 8.60735 35.4133C8.71043 35.1203 8.87694 34.8581 9.08706 34.6306C9.42009 35.3401 9.88791 35.7411 10.5659 35.4133C11.113 35.1473 10.9583 34.1525 11.8662 33.8209C12.8217 33.4739 13.0556 33.2425 13.8366 33.4199C13.8366 33.4469 13.8366 33.4739 13.8327 33.5008C13.8089 33.8556 13.7891 34.1949 13.7692 34.5149C13.686 35.8606 13.6225 36.9248 13.2895 38.0045C13.2102 38.2551 13.1666 38.5212 13.1587 38.8103C13.123 40.0635 13.2182 41.5403 13.4481 43.3255C13.46 43.4296 13.4798 43.5492 13.5036 43.6841C13.6027 44.3049 13.7534 45.2457 13.5551 46.1673C13.4045 46.8691 13.2142 47.6672 12.9842 48.5386C12.9842 48.5386 12.9842 48.5425 12.9842 48.5464C12.9842 48.5502 12.9842 48.5579 12.9803 48.5618C12.7979 49.2288 12.6671 49.6761 12.6671 49.6761C12.6433 49.7532 12.6591 49.8342 12.7107 49.8959C12.7583 49.9576 12.8336 49.9961 12.9168 49.9961H16.9647C17.044 49.9961 17.1193 49.9614 17.1708 49.8997C17.2184 49.8381 17.2343 49.7571 17.2144 49.6838L16.9488 48.7006C16.9488 48.6736 16.9409 48.6505 16.929 48.6273L16.8061 48.1685H16.9528C17.036 48.1685 17.1114 48.1299 17.1589 48.0682C17.2065 48.0027 17.2224 47.9217 17.1986 47.8446C17.1986 47.833 16.8775 46.8344 16.5682 45.6892C16.3819 44.9797 16.3026 44.1892 16.2392 43.5569C16.2273 43.4219 16.2114 43.2947 16.1995 43.1752C16.2748 42.9245 16.3898 42.6276 16.5088 42.3192C16.7783 41.6213 17.0836 40.8308 17.1034 40.1599L17.1272 39.1959C17.151 38.4093 17.2184 36.0765 17.6506 34.3376C18.3919 34.353 19.0302 34.2951 19.5456 34.1679C19.6685 34.1371 19.7795 34.1101 19.8945 34.0831C20.2672 34.6075 20.8936 35.1396 21.405 35.4403C21.8371 36.9364 22.7252 40.4761 22.3763 43.2253C22.3208 43.6649 22.2415 44.035 22.1503 44.3319C21.8094 45.026 21.4724 45.774 21.2464 46.2753C20.9848 46.8613 20.8064 47.2701 20.8064 47.2701C20.7746 47.3472 20.7826 47.4359 20.8301 47.5053C20.8777 47.5747 20.957 47.6171 21.0442 47.6171H23.7838C24.1049 47.6171 24.3903 47.4937 24.5846 47.2701C24.7828 47.0387 24.8582 46.738 24.8027 46.4179L24.6441 45.5465L24.7432 45.0105C24.87 45.0028 24.989 44.9566 25.0841 44.8756C25.2546 44.7291 25.3101 44.4939 25.2348 44.2972L25.1238 43.8461C25.1238 43.661 25.1238 42.6161 25.1595 41.3359C25.1991 39.8823 25.2665 38.6831 25.3537 37.7616C25.5559 37.7616 25.7343 37.6459 25.8136 37.4646C25.885 37.3027 25.9603 37.0983 26.0039 36.8708C26.0594 37.0791 26.1387 37.2719 26.2378 37.4377C26.3251 37.588 26.4955 37.6767 26.6581 37.6574C26.8325 37.6497 26.9832 37.5456 27.0506 37.3875C27.225 36.9672 27.221 36.52 27.1854 36.2115C27.2726 36.1652 27.3598 36.1151 27.447 36.065C27.7047 36.8284 27.9822 37.5109 28.1765 37.9659C28.7633 39.3347 29.0923 41.2781 28.9417 42.4888C28.7989 43.6186 28.9337 45.2804 28.9615 45.5735L28.4421 47.5477C28.4223 47.6209 28.4421 47.7019 28.4897 47.7636C28.5373 47.8253 28.6126 47.86 28.6919 47.86H32.0578C32.1292 47.86 32.1966 47.8292 32.2481 47.779C32.2957 47.7289 32.3195 47.6595 32.3155 47.5901C32.3155 47.5901 32.2799 47.1505 32.2045 46.5413C31.9984 44.9566 31.7367 43.8692 31.4275 43.3101C30.8566 42.2729 30.2302 38.9106 30.5909 37.3066C30.8169 36.3118 30.7971 33.5433 30.7693 30.3352C30.7495 28.041 30.7337 25.6696 30.805 23.7648C30.805 23.7648 31.0191 16.593 31.0191 16.4194C31.0191 15.6984 30.8566 14.9889 30.5394 14.2987C31.0389 14.9234 31.368 15.9028 31.5187 17.2793C31.6812 18.7754 31.6733 23.0708 31.6693 25.6388V26.649C31.1896 27.4317 31.261 27.825 31.3561 28.3726C31.4195 28.735 31.4988 29.1823 31.4394 29.8841C31.2847 31.6924 31.9746 32.1243 32.0063 32.1397C32.0222 32.1474 32.042 32.1552 32.0578 32.1552C32.0777 32.1552 32.1014 32.1474 32.1173 32.1359C32.149 32.1127 32.1649 32.0703 32.153 32.0356C32.153 32.0241 31.8834 31.01 32.6842 29.9496C33.5089 28.8545 32.4741 27.1348 32.3314 26.9151L32.3235 26.9035ZM5.24539 7.90188L5.23349 7.8826C5.62202 7.56642 6.15724 7.90188 6.13742 8.4417C5.97883 8.5111 5.83214 8.51881 5.71321 8.50339C5.78853 8.45712 5.84404 8.36072 5.84404 8.24505C5.84404 8.09082 5.74096 7.96357 5.61806 7.96357C5.50308 7.96357 5.4119 8.06768 5.39604 8.20649L5.24142 7.90188H5.24539ZM5.30089 5.27219L4.87668 6.10891C4.75378 6.10891 4.31767 6.13205 3.97276 6.29785C3.62387 6.47136 3.22345 6.51377 2.84682 6.42123C2.13716 6.24387 1.24116 5.87756 1.01122 5.11796C0.967605 4.96372 1.035 4.79407 1.17773 4.70538C1.39578 4.57043 1.60987 4.50102 1.83585 4.50102C2.2442 4.50102 2.6803 4.72466 3.20759 5.18736C3.96483 5.85057 4.94011 5.45727 5.30089 5.27219ZM13.8604 7.90188L13.7098 8.19878C13.6899 8.06382 13.5988 7.96357 13.4877 7.96357C13.3609 7.96357 13.2578 8.09082 13.2578 8.24891C13.2578 8.35687 13.3093 8.44941 13.3807 8.49953C13.2618 8.5111 13.123 8.49953 12.9724 8.43399C12.9525 7.89417 13.4917 7.55871 13.8763 7.87489L13.8644 7.89417L13.8604 7.90188ZM13.8049 5.27219C14.1657 5.45727 15.141 5.85057 15.8982 5.18736C16.7109 4.47018 17.3215 4.32751 17.9281 4.70538C18.0708 4.79407 18.1382 4.96372 18.0946 5.11796C17.8646 5.87756 16.9686 6.24772 16.259 6.42123C15.8823 6.51377 15.4819 6.47136 15.133 6.29785C14.7881 6.13205 14.352 6.10891 14.2291 6.10891L13.8049 5.27219ZM10.5024 17.8615C9.94738 17.9811 10.0742 17.4065 10.1853 17.1212C10.3002 16.8359 10.0544 16.9014 10.1853 16.6238C10.3161 16.3462 10.6689 16.1611 10.1853 16.1611C9.70157 16.1611 9.87205 16.6238 9.57867 16.5968C9.56678 16.5968 9.55885 16.593 9.55092 16.593C9.54299 16.593 9.53506 16.5968 9.52317 16.5968C9.22979 16.6238 9.40026 16.1611 8.91659 16.1611C8.43291 16.1611 8.78575 16.3462 8.91659 16.6238C9.04742 16.9014 8.80161 16.8359 8.91659 17.1212C9.02759 17.4065 9.15446 17.9811 8.59942 17.8615C8.12367 17.7574 8.30604 18.0775 8.55581 18.4129C8.46066 18.4206 8.37344 18.4245 8.28622 18.4283C8.18314 18.2818 8.04438 18.1314 7.90165 17.9695C7.60431 17.6417 7.27129 17.2716 7.25939 16.9515C7.24353 16.4696 7.37436 15.8642 7.59638 15.7292C7.63603 15.7061 7.69946 15.683 7.8065 15.7408C8.11971 15.9066 8.33776 15.7331 8.5122 15.5981C8.7025 15.4478 8.83333 15.3591 9.05138 15.4709C9.20996 15.5519 9.37251 15.5789 9.55092 15.548C9.72932 15.5789 9.89187 15.5519 10.0505 15.4709C10.2725 15.3552 10.3993 15.4439 10.5936 15.5981C10.768 15.737 10.9821 15.9066 11.2993 15.7408C11.4063 15.683 11.4737 15.7061 11.5094 15.7292C11.7314 15.8642 11.8623 16.4696 11.8464 16.9515C11.8345 17.2716 11.5015 17.6456 11.2041 17.9695C11.0614 18.1276 10.9227 18.2818 10.8196 18.4283C10.7363 18.4283 10.6491 18.4206 10.55 18.4129C10.7958 18.0775 10.9821 17.7574 10.5064 17.8615H10.5024ZM7.44969 21.6788C6.4863 20.5606 5.55859 17.9772 5.73303 15.7524C5.73699 15.6984 5.78457 15.656 5.84007 15.6637C5.89558 15.6676 5.93522 15.7138 5.93126 15.7678C5.76078 17.9464 6.66471 20.4681 7.60431 21.5554C8.53202 22.6351 8.29415 24.3856 8.28622 24.4627C8.27829 24.5129 8.23864 24.5476 8.1871 24.5476C8.18314 24.5476 8.17917 24.5476 8.17521 24.5476C8.11971 24.5399 8.08402 24.4897 8.09195 24.4396C8.09195 24.4242 8.32586 22.6968 7.45762 21.6827L7.44969 21.6788ZM10.1734 20.9693C10.1654 20.9963 10.1575 21.0195 10.1496 21.0465C9.84033 21.1583 9.57074 21.1737 9.206 20.6455C9.206 20.6416 9.19807 20.6339 9.19411 20.63C9.17428 20.6107 9.1505 20.6069 9.12274 20.6069C9.11878 20.0632 9.08706 19.5581 9.01966 19.1262C9.16635 19.1262 9.31304 19.1262 9.45577 19.1185H9.54695C9.68571 19.1185 9.8443 19.1224 9.99892 19.1224C10.3716 19.1224 10.7562 19.1108 11.0495 19.0106C10.6927 19.7046 10.324 20.4912 10.1694 20.9655L10.1734 20.9693ZM17.8091 10.4506C19.2959 10.3812 20.5843 10.1961 21.2583 9.9609C21.3099 9.94162 21.3654 9.96861 21.3852 10.0187C21.405 10.0689 21.3773 10.1228 21.3257 10.1421C20.6319 10.385 19.3236 10.574 17.8171 10.6434C17.8171 10.6434 17.8171 10.6434 17.8131 10.6434C17.7616 10.6434 17.718 10.6048 17.714 10.5508C17.714 10.4969 17.7536 10.4544 17.8091 10.4506ZM12.0922 2.91627C12.5164 3.12063 12.8455 3.3327 13.0794 3.50236C12.6988 3.69515 12.4688 4.20027 12.4609 4.22726C12.457 4.23883 12.453 4.25039 12.453 4.26582C12.453 4.6861 12.8098 5.31075 13.1864 5.9701C13.3093 6.18603 13.4322 6.40196 13.5432 6.61403C13.5432 6.78368 13.5195 7.21554 13.3292 7.35049C13.0635 7.53943 12.6988 7.79777 12.671 8.46483C12.671 8.48411 12.675 8.50339 12.6869 8.51882C12.8138 8.72317 13.1389 8.83499 13.2499 8.86199C13.3014 8.9391 13.3173 9.24371 13.3014 9.64087C13.1785 11.1793 12.4728 13.6471 12.2191 15.5249C12.1636 15.1277 12.0962 14.7267 11.7671 14.5069C11.2676 14.1715 11.335 13.3425 11.3627 13.0263C11.3786 12.8682 11.335 12.7795 11.2993 12.7024C11.2517 12.5983 11.2002 12.4865 11.2676 12.1279C11.2834 12.0392 11.3072 11.9428 11.327 11.8387C11.4618 11.1832 11.6482 10.2886 11.4936 9.84523C11.3389 9.40566 11.5094 8.85042 11.7235 8.47254C11.9971 7.99442 11.7473 7.24253 11.5729 6.83767C11.4777 6.61017 11.5292 6.32869 11.7116 6.10505C11.9455 5.81587 12.3261 5.68862 12.7622 5.75417C12.8058 5.76188 12.8494 5.73875 12.8653 5.70019C12.8851 5.66163 12.8732 5.61536 12.8415 5.58837C12.227 5.04855 11.8504 4.31594 11.9812 3.91879C12.0446 3.73371 12.2191 3.62575 12.5006 3.5949C12.5442 3.59104 12.5799 3.5602 12.5878 3.51778C12.5957 3.47537 12.5759 3.43295 12.5402 3.41367C12.2627 3.2633 12.0486 3.06665 11.9019 2.82759C11.9693 2.85843 12.0327 2.88542 12.1001 2.91627H12.0922ZM6.57352 3.41367C6.53387 3.43295 6.51802 3.47537 6.52594 3.51778C6.53387 3.5602 6.56956 3.59104 6.61317 3.5949C6.89465 3.62189 7.06909 3.73371 7.13253 3.91879C7.26732 4.31594 6.88672 5.04855 6.27221 5.58837C6.24049 5.61536 6.2286 5.66163 6.24842 5.70019C6.26825 5.73875 6.30789 5.76188 6.3515 5.75417C6.78761 5.68862 7.16821 5.81972 7.39815 6.10505C7.58052 6.32869 7.63206 6.61017 7.53691 6.83767C7.36247 7.24253 7.1127 7.99442 7.38626 8.47254C7.60035 8.84656 7.77479 9.40566 7.6162 9.84523C7.46159 10.2848 7.64792 11.1832 7.78272 11.8348C7.80254 11.939 7.82633 12.0353 7.84218 12.124C7.90958 12.4826 7.85804 12.5906 7.81047 12.6986C7.77479 12.7757 7.73118 12.8644 7.74703 13.0263C7.77479 13.3386 7.84219 14.1676 7.34265 14.5031C7.01359 14.7229 6.94222 15.1239 6.89069 15.521C6.744 14.4414 6.45062 13.169 6.20085 11.9852C6.20085 11.9852 6.20085 11.9814 6.20085 11.9775C6.02244 11.1369 5.87179 10.3465 5.81232 9.70642C5.7925 9.23215 5.81628 8.92753 5.8599 8.85813C5.9709 8.83114 6.296 8.72317 6.42287 8.51882C6.43476 8.50339 6.43872 8.48411 6.43872 8.46483C6.41494 7.79777 6.05019 7.53943 5.76475 7.33893C5.61013 7.23096 5.56255 6.84538 5.56652 6.61788C5.67752 6.40581 5.80043 6.18988 5.92333 5.97396C6.29996 5.31461 6.65678 4.68996 6.65678 4.26967C6.65678 4.2581 6.65678 4.24268 6.64885 4.23111C6.63695 4.20798 6.41097 3.69901 6.03037 3.50622C6.26428 3.33656 6.59334 3.12449 7.01755 2.92013C7.08099 2.88928 7.14838 2.86229 7.21182 2.83144C7.06909 3.0705 6.855 3.2633 6.57352 3.41753V3.41367ZM4.23045 32.2323C4.23045 32.2323 4.21063 32.2361 4.2027 32.2361C4.15909 32.2361 4.11945 32.2091 4.10755 32.1667C3.76263 31.037 3.35428 29.4599 3.38203 28.3687C3.38203 28.3147 3.41771 28.28 3.48511 28.2762C3.54062 28.2762 3.58423 28.3224 3.58026 28.3764C3.56044 29.217 3.80624 30.5126 4.29785 32.1127C4.31371 32.1629 4.28199 32.2168 4.23045 32.2323ZM8.01663 46.5953C7.65981 46.9655 7.50123 47.5593 7.56863 48.1916C7.39022 48.1068 7.19199 48.0567 6.99376 48.0605C6.64885 48.0682 6.30789 48.2147 6.00658 48.4847C6.00262 48.3343 5.93126 48.1955 5.80836 48.0837C5.59427 47.8947 5.26521 47.8292 4.87668 47.887C5.44758 46.8768 5.848 45.8473 6.08588 44.7483C6.10966 44.6442 6.12949 44.5401 6.14535 44.4399C6.20878 44.382 6.25635 44.3628 6.28807 44.3589C6.40304 44.3473 6.53784 44.5363 6.67263 44.7175C6.86293 44.9758 7.07306 45.265 7.39815 45.2959C7.41797 45.2959 7.43383 45.2959 7.45366 45.2959C7.57656 45.2959 7.70342 45.2535 7.83426 45.1763C7.88183 45.3614 7.93337 45.5349 7.97698 45.6853C8.14349 46.2251 8.18314 46.4141 8.0087 46.5914L8.01663 46.5953ZM8.15539 35.182C7.35058 34.4609 7.26732 32.5677 6.58145 32.1513C5.77268 31.6577 4.9084 30.4509 4.92029 28.5307C3.81021 27.6322 2.88646 25.8393 2.60101 24.0579C2.60894 23.5412 2.6803 23.0515 2.76752 22.5965C2.80717 22.4037 2.84682 22.2148 2.88646 22.0374C2.98954 21.5709 3.07676 21.1698 3.08469 20.8113C3.09262 20.4411 3.27895 19.7008 3.58819 18.7677C3.38203 19.6931 3.27895 20.4295 3.29085 20.8035C3.30671 21.274 3.17588 21.8639 3.08073 22.5502C3.0609 24.7442 4.34146 27.3739 5.83611 28.5307C6.75193 29.109 6.94223 28.7736 7.10874 28.2916C7.38229 28.7389 7.751 29.1862 8.09195 29.6219C8.10385 29.7722 8.12367 29.9303 8.15142 30.0961C8.1871 30.3043 8.21882 30.4933 8.24261 30.6745C8.36551 31.5459 8.52409 33.0227 8.88883 34.1178C8.56374 34.407 8.31397 34.7733 8.15935 35.1781L8.15539 35.182ZM16.4651 47.6672C16.3859 47.6672 16.3105 47.7019 16.263 47.7636C16.2154 47.8253 16.1995 47.9063 16.2193 47.9795V47.995C15.9815 47.8677 15.7198 47.7945 15.47 47.7945H15.4621C15.133 47.7945 14.8476 47.9101 14.6177 48.1299C14.4155 48.0142 14.1459 47.9294 13.8604 47.9603C13.8009 47.968 13.7296 47.9795 13.6582 48.0027C13.8168 47.378 13.9516 46.7997 14.0626 46.2714C14.0705 46.229 14.0745 46.1866 14.0824 46.1442C14.6811 45.7509 15.0775 45.8511 15.4304 45.9475C15.6484 46.0053 15.8705 46.067 16.1083 45.9784C16.2986 46.6724 16.485 47.3009 16.596 47.6634H16.4651V47.6672ZM16.6475 38.1086C16.1599 37.3413 14.7604 39.4543 13.6741 38.98C13.6741 38.9299 13.6741 38.8759 13.6741 38.8258C13.682 38.579 13.7177 38.3592 13.7851 38.151C14.1379 37.0135 14.2053 35.9223 14.2886 34.5458C14.3084 34.2257 14.3282 33.8903 14.352 33.5355C14.3877 33.0651 14.4036 32.5716 14.4036 32.0742C14.4036 32.0742 14.4036 31.4997 14.4036 31.3184C14.4036 29.109 14.4036 27.6515 13.7217 26.4601C13.6582 26.3521 13.5274 26.302 13.4085 26.3482C13.2895 26.3907 13.2182 26.5102 13.2419 26.6297C13.6582 28.7659 13.1983 30.0923 12.6591 31.0292C12.4371 30.7092 12.2151 30.3892 11.8742 30.3236C11.0178 30.1578 10.324 29.2093 10.1456 27.185C10.1813 26.9382 10.213 26.6876 10.2289 26.4177C10.2447 26.1632 10.2447 25.8933 10.2289 25.6118C10.1496 24.3239 10.1139 22.8086 10.6689 21.1236C10.8751 20.4951 11.5134 19.1957 11.9455 18.4592C11.9455 18.4592 11.9455 18.4592 11.9455 18.4553C12.0843 18.3628 12.2032 18.2433 12.2944 18.1006C12.5719 17.6726 12.6354 17.0402 12.4609 16.4079C12.4847 16.0608 12.5244 15.683 12.5719 15.2897C15.4264 12.579 19.4584 13.4196 18.5743 16.1804C17.6743 18.999 19.7597 14.719 20.9372 16.4156C22.1147 18.1122 21.0641 15.7138 21.2861 13.8669C21.5081 12.0238 22.9631 9.82595 24.4934 12.0315C26.0237 14.237 28.2518 18.999 27.5739 15.602C26.9475 12.4595 29.3421 13.597 30.4918 16.4233C30.4918 16.593 30.3887 20.738 30.3808 20.8884C29.8099 21.1776 28.5769 20.7457 29.1875 22.5502C29.354 23.0438 29.4333 23.4178 29.4333 23.7031C29.4333 24.7442 28.3708 24.6324 26.555 25.1221C24.2397 25.7506 27.6571 26.8958 25.1119 30.1231C24.3903 31.037 24.0335 31.33 23.8194 31.33C23.2684 31.33 23.6212 29.4599 21.2861 31.0948C19.2998 32.4868 19.2364 31.2953 19.2126 30.2234C19.2205 30.2041 19.2324 30.1848 19.2364 30.1617C19.843 26.1362 19.0897 20.8035 18.5902 19.8781C18.5307 19.7663 18.3959 19.7162 18.277 19.7586C18.158 19.7972 18.0827 19.9206 18.1065 20.0401C18.7091 23.2096 18.3523 27.2505 17.9519 30.0846C17.821 30.9984 17.6942 31.7233 17.6228 32.1552L17.5832 32.3865C17.5197 32.7644 17.3294 33.497 17.1907 34.0175C16.8418 35.3131 16.707 36.9634 16.6475 38.1086ZM28.6443 37.8078C28.6047 37.8078 28.565 37.7847 28.5531 37.7461C28.5214 37.6652 28.462 37.5379 28.3866 37.3798C28.0259 36.6125 27.2805 35.0162 27.2171 33.47C27.2171 33.416 27.2567 33.3736 27.3122 33.3697C27.3717 33.3697 27.4113 33.4083 27.4153 33.4623C27.4787 34.9699 28.2122 36.5431 28.569 37.2989C28.6443 37.4646 28.7038 37.5919 28.7395 37.6767C28.7593 37.7268 28.7355 37.7808 28.684 37.8001C28.6721 37.804 28.6602 37.8078 28.6483 37.8078H28.6443ZM27.1061 29.8224C27.6215 29.2209 28.0933 28.5576 28.5095 27.8443C28.5373 27.798 28.5968 27.7826 28.6443 27.8096C28.6919 27.8366 28.7078 27.8944 28.68 27.9407C28.2598 28.6618 27.7801 29.3365 27.2567 29.9458C27.2369 29.9689 27.2092 29.9805 27.1814 29.9805C27.1576 29.9805 27.1378 29.9727 27.118 29.9573C27.0744 29.9226 27.0704 29.8609 27.1061 29.8224ZM21.9323 36.1228C21.9204 36.0727 21.9521 36.0187 22.0076 36.0071C22.0631 35.9956 22.1147 36.0264 22.1266 36.0804C22.2415 36.5508 22.6261 38.1973 22.8124 39.7396C22.8204 39.7936 22.7807 39.8399 22.7252 39.8476C22.7252 39.8476 22.7173 39.8476 22.7133 39.8476C22.6657 39.8476 22.6221 39.8129 22.6142 39.7627C22.4279 38.2358 22.0433 36.5932 21.9323 36.1267V36.1228ZM24.7234 44.49C24.7234 44.49 24.6758 44.5054 24.6322 44.4823C24.5608 44.4476 24.4736 44.4476 24.4022 44.4823C24.3309 44.517 24.2793 44.5825 24.2674 44.6635L24.1168 45.4925C24.1128 45.5234 24.1128 45.5504 24.1168 45.5812L24.2199 46.1442C23.423 45.7663 22.8521 46.1943 22.6539 46.3832C22.5349 46.2753 22.2851 46.0863 21.9838 46.0709C21.9521 46.0709 21.9204 46.0709 21.8847 46.0786C22.0909 45.6198 22.3486 45.0568 22.6182 44.5093C22.7292 44.1507 22.8164 43.7497 22.8759 43.2831C22.9591 42.6353 22.971 41.949 22.9433 41.2549C23.4983 40.2023 24.2714 39.5661 24.6639 40.3488C24.652 40.6573 24.6401 40.9812 24.6322 41.3166C24.5965 42.7279 24.5965 43.8576 24.5965 43.8692C24.5965 43.8885 24.5965 43.9078 24.6044 43.927L24.7273 44.4322C24.7273 44.4322 24.7432 44.4823 24.7273 44.4939L24.7234 44.49ZM27.0228 35.7064C26.9435 35.7527 26.8642 35.7951 26.781 35.8298C26.6739 35.876 26.6145 35.9879 26.6383 36.0997C26.67 36.2693 26.7215 36.6781 26.6065 37.0598C26.4995 36.8361 26.4361 36.5662 26.4281 36.2848C26.4281 36.2115 26.3885 36.1421 26.329 36.0958C26.2695 36.0496 26.1903 36.0341 26.1149 36.0496C25.996 36.0765 25.8771 36.092 25.7581 36.0997C25.6907 36.1035 25.6233 36.1344 25.5797 36.1845C25.5361 36.2346 25.5123 36.3002 25.5163 36.3696C25.5401 36.6626 25.441 36.9788 25.3498 37.2102C25.2467 36.894 25.2031 36.5585 25.2427 36.358C25.2546 36.2925 25.2427 36.2231 25.1991 36.1652C25.1595 36.1112 25.096 36.0727 25.0286 36.0611C24.874 36.038 24.7194 36.0033 24.5687 35.957C23.4151 35.6138 22.8283 34.7656 22.5428 34.1101C22.4675 33.9404 22.3605 33.79 22.2296 33.6666C22.3129 33.6319 22.4001 33.6049 22.4834 33.5702C23.2446 33.2618 23.978 32.8762 24.6679 32.4251C24.9057 32.2708 25.1357 32.105 25.3577 31.9392C25.7462 31.65 26.1149 31.3416 26.4559 31.0138C26.8404 31.5421 26.8246 32.1127 26.8087 32.9263V33.1037C26.7929 33.6821 26.9515 34.5072 27.2726 35.5522C27.1893 35.6061 27.1061 35.6601 27.0228 35.7064ZM31.6217 46.175C31.483 46.1056 31.3323 46.0709 31.1856 46.0825C30.9993 46.0979 30.7456 46.1904 30.5116 46.5259C30.4165 46.3331 30.2341 46.1519 30.0161 46.0516C29.8099 45.9552 29.5879 45.9437 29.3698 45.9976L29.461 45.6506C29.469 45.6236 29.469 45.5928 29.469 45.5658C29.469 45.5465 29.2985 43.7073 29.4452 42.5428C29.5205 41.949 29.4848 41.2125 29.3738 40.4491C29.6513 39.9555 29.6434 39.6856 30.139 40.6303C30.3332 41.8449 30.6544 42.9785 30.9596 43.5415C31.138 43.8615 31.3878 44.5787 31.6217 46.1789V46.175ZM8.63906 17.287C8.61924 17.3564 8.55184 17.4991 8.29811 17.4991C8.26639 17.4991 8.23071 17.4991 8.19107 17.4914C8.02059 17.4682 7.91355 17.422 7.86201 17.3487C7.80254 17.2677 7.82236 17.1675 7.84218 17.0711C7.86201 16.967 7.8858 16.8629 7.82236 16.7626C7.6836 16.5428 7.55674 16.0377 7.66774 15.9567C7.6836 15.9452 7.73118 15.922 7.79065 15.9876C7.92148 16.138 7.96509 16.2691 8.00473 16.3732C8.05231 16.512 8.08799 16.6045 8.28622 16.6894C8.53202 16.7896 8.7025 17.0749 8.64303 17.287H8.63906ZM10.8077 17.4991C10.554 17.4991 10.4826 17.3564 10.4667 17.287C10.4073 17.0749 10.5777 16.7896 10.8235 16.6894C11.0218 16.6084 11.0535 16.5158 11.105 16.3732C11.1407 16.2691 11.1883 16.138 11.3191 15.9876C11.3786 15.922 11.4262 15.9452 11.442 15.9567C11.5491 16.0339 11.442 16.5197 11.2874 16.7626C11.224 16.8629 11.2478 16.967 11.2676 17.0711C11.2874 17.1675 11.3072 17.2677 11.2478 17.3487C11.1962 17.422 11.0892 17.4644 10.9187 17.4914C10.8791 17.4952 10.8434 17.4991 10.8117 17.4991H10.8077ZM23.5657 25.045C23.6926 24.1466 23.752 23.2366 23.7441 22.3305C23.7441 21.4243 23.6727 20.5182 23.5498 19.6159C23.4904 19.1648 23.4032 18.7175 23.304 18.2702L23.1455 17.6032C23.0781 17.3834 23.0146 17.1636 22.9552 16.94C23.3794 17.7651 23.6569 18.6597 23.8512 19.5658C24.0454 20.4719 24.1326 21.4012 24.1445 22.3305C24.1445 23.2597 24.0692 24.189 23.871 25.099C23.6727 26.0051 23.3754 26.9035 22.8759 27.6901C23.0424 27.2582 23.2049 26.8302 23.304 26.3829C23.3635 26.1632 23.419 25.9434 23.4587 25.7197C23.5062 25.4961 23.5419 25.2725 23.5736 25.0488L23.5657 25.045ZM24.0811 18.8101C23.9344 17.9772 23.7164 17.1559 23.4468 16.3423C23.6609 16.7163 23.8274 17.1135 23.9899 17.5145C24.1406 17.9194 24.2635 18.3319 24.3784 18.7484C24.6005 19.5851 24.7154 20.4411 24.767 21.3009C24.8066 22.1608 24.7789 23.0284 24.6401 23.8805C24.5013 24.7288 24.2793 25.5771 23.8829 26.3444C24.0018 25.9318 24.1049 25.5192 24.1683 25.099C24.2436 24.6825 24.3031 24.2622 24.3348 23.8419C24.4022 23.0014 24.4181 22.1569 24.3705 21.3164C24.3309 20.4758 24.2278 19.6352 24.0811 18.8024V18.8101ZM24.6044 18.0119C24.43 17.2484 24.208 16.4927 23.9344 15.7485C24.767 17.1173 25.2031 18.7021 25.3815 20.2869C25.544 21.8716 25.4489 23.5142 24.8899 25.0103C25.0207 24.2275 25.0762 23.4448 25.096 22.6621C25.1079 21.8793 25.0722 21.1004 24.989 20.3254C24.9097 19.5504 24.7789 18.7792 24.6044 18.0158V18.0119ZM25.6114 19.3345C25.3696 17.9078 24.9811 16.5158 24.426 15.1509C25.2625 16.3809 25.7462 17.8191 26 19.2728C26.2458 20.7303 26.2537 22.2379 25.9008 23.6684C25.9405 22.2032 25.8572 20.7611 25.6114 19.3345ZM26.2339 18.3551C25.9167 17.0557 25.4806 15.7909 24.9137 14.5494C25.7542 15.6406 26.2854 16.94 26.6184 18.2625C26.9396 19.5889 27.0664 20.9693 26.9078 22.3227C26.7532 20.9732 26.559 19.6506 26.2339 18.3512V18.3551ZM26.551 35.5637C26.5669 35.6138 26.5391 35.6678 26.4876 35.6871C26.1823 35.7874 25.885 35.8298 25.5995 35.8298C24.1604 35.8298 23.0067 34.7231 22.6935 33.9327C22.6737 33.8826 22.7014 33.8286 22.749 33.8093C22.8005 33.79 22.856 33.817 22.8759 33.8633C23.1613 34.592 24.5886 36.0997 26.4202 35.5059C26.4717 35.4905 26.5272 35.5174 26.5471 35.5676L26.551 35.5637ZM14.8278 33.0921C14.9229 34.8697 14.7049 36.4737 14.5027 37.5071C14.4947 37.5533 14.4511 37.5842 14.4036 37.5842C14.3956 37.5842 14.3917 37.5842 14.3837 37.5842C14.3282 37.5726 14.2926 37.5225 14.3044 37.4724C14.5027 36.4506 14.7207 34.862 14.6256 33.1037C14.6256 33.0497 14.6652 33.0034 14.7207 33.0034C14.7762 32.9996 14.8238 33.042 14.8238 33.096L14.8278 33.0921Z" fill="white"/>
</svg>
