<svg width="24" height="24" viewBox="0 0 24 24" fill="none" xmlns="http://www.w3.org/2000/svg">
<path d="M7.5918 3.50879C7.84874 3.47769 8.10891 3.53068 8.33301 3.66016C8.55657 3.78946 8.73261 3.98809 8.83398 4.22559L10.584 8.30957C10.6617 8.49095 10.694 8.68916 10.6768 8.88574C10.6595 9.0822 10.5934 9.2715 10.4854 9.43652L9.03613 11.6504L9.03516 11.6533C9.01704 11.6808 9.00618 11.7123 9.00391 11.7451C9.00168 11.7776 9.00755 11.8104 9.02148 11.8398C9.69461 13.2145 10.809 14.324 12.1865 14.9912C12.2164 15.0054 12.2502 15.0123 12.2832 15.0098C12.316 15.0073 12.3477 14.9959 12.375 14.9775L12.3779 14.9756L14.5586 13.5215C14.7242 13.4111 14.9151 13.3434 15.1133 13.3252C15.3115 13.307 15.5114 13.3386 15.6943 13.417L19.7725 15.165C20.0108 15.2663 20.2102 15.4428 20.3398 15.667C20.4693 15.8911 20.5223 16.1513 20.4912 16.4082V16.4111C20.3468 17.5408 19.7952 18.5795 18.9404 19.332C18.0856 20.0846 16.9856 20.4999 15.8467 20.5C12.5722 20.4999 9.43165 19.1992 7.11621 16.8838C4.87317 14.6407 3.58249 11.6233 3.50391 8.45996L3.5 8.15332C3.50006 7.01444 3.91542 5.9144 4.66797 5.05957C5.42055 4.20475 6.45915 3.65316 7.58887 3.50879H7.5918ZM7.71387 4.50098C6.82597 4.61479 6.0095 5.0488 5.41797 5.7207C4.82642 6.39289 4.50005 7.25789 4.5 8.15332L4.51367 8.71582C4.65284 11.5203 5.82832 14.1818 7.82324 16.1768C9.95114 18.3046 12.8374 19.4999 15.8467 19.5C16.7421 19.5 17.6071 19.1736 18.2793 18.582C18.9514 17.9903 19.3854 17.1734 19.499 16.2852C19.5034 16.2443 19.4942 16.2026 19.4736 16.167C19.4526 16.1308 19.4204 16.1024 19.3818 16.0859L19.3799 16.085L15.2998 14.3359C15.2698 14.3232 15.2366 14.3183 15.2041 14.3213C15.1716 14.3243 15.1404 14.3354 15.1133 14.3535L12.9336 15.8057L12.9346 15.8066C12.7633 15.9221 12.5644 15.9912 12.3584 16.0068C12.1524 16.0224 11.9455 15.984 11.7588 15.8955L11.7559 15.8936C10.174 15.1287 8.89413 13.8547 8.12207 12.2764L8.12012 12.2734C8.03113 12.0879 7.9918 11.8821 8.00586 11.6768C8.02002 11.4713 8.0875 11.2723 8.20117 11.1006L9.64844 8.88867C9.66619 8.86154 9.67782 8.83015 9.68066 8.79785C9.68342 8.76567 9.67775 8.73283 9.66504 8.70312L7.91504 4.62012L7.91406 4.61816C7.8976 4.57964 7.86923 4.54742 7.83301 4.52637C7.79705 4.50557 7.75512 4.4964 7.71387 4.50098Z" fill="#424E67"/>
</svg>
