<svg width="32" height="32" fill="none" xmlns="http://www.w3.org/2000/svg"><path d="M16.035 32h-.07C7.162 32 0 24.838 0 16.035v-.07C0 7.162 7.162 0 15.965 0h.07C24.838 0 32 7.162 32 15.965v.07C32 24.838 24.838 32 16.035 32zm-.07-30.917c-8.206 0-14.882 6.676-14.882 14.882v.07c0 8.206 6.676 14.882 14.882 14.882h.07c8.206 0 14.882-6.676 14.882-14.882v-.07c0-8.206-6.676-14.882-14.882-14.882h-.07z" fill="#424E67"/><path d="M7.447 15.382c.039-.02.078-.038.116-.056.662-.305 1.332-.59 2.002-.876.036 0 .096-.041.13-.055l.156-.066.297-.127c.2-.085.397-.17.597-.254l1.191-.508 2.385-1.015 2.384-1.015 2.384-1.015 2.385-1.015c.176-.075.368-.188.557-.221.16-.028.314-.083.474-.113.304-.057.639-.08.93.045.1.044.193.105.27.182.369.363.317.96.239 1.47l-1.632 10.683c-.074.488-.175 1.025-.563 1.333-.328.262-.794.29-1.2.18-.405-.112-.762-.346-1.112-.576-1.453-.957-2.908-1.915-4.36-2.873-.346-.227-.731-.524-.727-.937.002-.249.151-.47.303-.667 1.263-1.64 3.086-2.766 4.441-4.33.192-.22.342-.619.08-.746-.157-.076-.336.027-.479.125l-5.375 3.716c-.584.404-1.197.82-1.902.919-.63.09-1.265-.085-1.875-.264a92.792 92.792 0 01-1.53-.462c-.27-.083-.55-.173-.759-.363-.209-.19-.329-.508-.203-.76.08-.159.233-.259.394-.34h.002z" fill="#424E67"/></svg>