<svg width="32" height="32" fill="none" xmlns="http://www.w3.org/2000/svg"><path d="M16.035 32h-.07C7.162 32 0 24.838 0 16.035v-.07C0 7.162 7.162 0 15.965 0h.07C24.838 0 32 7.162 32 15.965v.07C32 24.838 24.838 32 16.035 32zm-.07-30.917c-8.206 0-14.882 6.676-14.882 14.882v.07c0 8.206 6.676 14.882 14.882 14.882h.07c8.206 0 14.882-6.676 14.882-14.882v-.07c0-8.206-6.676-14.882-14.882-14.882h-.07z" fill="#424E67"/><path d="M18.582 20c-3.079 0-5.584-2.863-5.585-6.382.001-.892.637-1.617 1.415-1.617a1.274 1.274 0 01.706.217.092.092 0 01.04.064l.325 2.343a.098.098 0 01-.02.075c-.18.228-.408.392-.664.474l-.123.039.046.136c.42 1.221 1.275 2.197 2.345 2.679l.118.054.035-.141c.072-.292.215-.554.414-.76a.072.072 0 01.066-.021l2.051.372c.024.004.045.02.057.044a1.777 1.777 0 01.19.807c0 .891-.636 1.617-1.416 1.617z" fill="#424E67"/><path d="M23.967 15.287a8.078 8.078 0 00-2.471-5.173A7.575 7.575 0 0016.26 8c-4.267 0-7.738 3.59-7.738 8 0 1.48.395 2.923 1.143 4.18l-1.668 3.816 5.34-.588a7.453 7.453 0 003.735.549 7.73 7.73 0 00.723-.116c3.573-.746 6.181-4.025 6.202-7.798V16c0-.24-.01-.48-.03-.712v-.001zm-10.424 6.446l-2.955.325.882-2.02-.176-.245a6.476 6.476 0 01-1.21-3.792c0-3.521 2.77-6.386 6.176-6.386 3.191 0 5.896 2.574 6.156 5.86.014.176.022.353.022.527l-.002.152c-.065 2.945-2.056 5.447-4.84 6.084-.213.049-.43.086-.648.11a5.936 5.936 0 01-3.293-.558l-.112-.056v-.001z" fill="#424E67"/></svg>