<svg width="32" height="32" fill="none" xmlns="http://www.w3.org/2000/svg"><path d="M16.035 32h-.07C7.162 32 0 24.838 0 16.035v-.07C0 7.162 7.162 0 15.965 0h.07C24.838 0 32 7.162 32 15.965v.07C32 24.838 24.838 32 16.035 32zm-.07-30.917c-8.206 0-14.882 6.676-14.882 14.882v.07c0 8.206 6.676 14.882 14.882 14.882h.07c8.206 0 14.882-6.676 14.882-14.882v-.07c0-8.206-6.676-14.882-14.882-14.882h-.07z" fill="#424E67"/><path d="M21.1 9c.403 0 .767-.001 1.067.023.312.026.643.084.968.25a2.5 2.5 0 011.092 1.092c.166.325.224.656.25.968.024.3.023.664.023 1.067v7.2c0 .403.001.767-.023 1.067a2.537 2.537 0 01-.25.968 2.5 2.5 0 01-1.092 1.092 2.537 2.537 0 01-.968.25c-.3.024-.664.023-1.067.023H10.9c-.403 0-.767.001-1.067-.023a2.537 2.537 0 01-.968-.25 2.5 2.5 0 01-1.093-1.092 2.539 2.539 0 01-.249-.968c-.024-.3-.023-.664-.023-1.067v-7.2c0-.403-.001-.767.023-1.067a2.54 2.54 0 01.25-.968c.24-.47.622-.853 1.092-1.093.325-.165.656-.223.968-.249C10.133 9 10.497 9 10.9 9h10.2zm-3.565 7.073a2.5 2.5 0 01-3.07 0L9.5 12.211V19.6c0 .436.001.704.018.904.007.093.016.15.024.183l.01.032a.501.501 0 00.222.226l.007.003c.006.002.015.006.031.01.035.008.091.017.184.024.2.017.468.018.904.018h10.2c.436 0 .704-.001.904-.018.093-.007.15-.016.183-.024l.032-.01.008-.003a.501.501 0 00.218-.218l.003-.008.01-.032c.008-.034.017-.09.024-.183.017-.2.018-.468.018-.904v-7.2l-.001-.19-4.964 3.863zm-1.842-1.579c.18.14.433.14.614 0L20.8 11h-9.6l4.493 3.494z" fill="#424E67"/></svg>