<svg width="20" height="20" viewBox="0 0 20 20" fill="none" xmlns="http://www.w3.org/2000/svg">
<path d="M17.5 13.8532V6.14673C17.5 6.03583 17.4705 5.92693 17.4145 5.8312C17.3585 5.73547 17.2781 5.65636 17.1814 5.60199L10.3064 1.73481C10.2129 1.68218 10.1073 1.65454 10 1.65454C9.89266 1.65454 9.78714 1.68218 9.69359 1.73481L2.81859 5.60199C2.72193 5.65636 2.64148 5.73547 2.58549 5.8312C2.52951 5.92693 2.5 6.03583 2.5 6.14673V13.8532C2.5 13.9641 2.52951 14.073 2.58549 14.1687C2.64148 14.2644 2.72193 14.3435 2.81859 14.3979L9.69359 18.2651C9.78714 18.3177 9.89266 18.3454 10 18.3454C10.1073 18.3454 10.2129 18.3177 10.3064 18.2651L17.1814 14.3979C17.2781 14.3435 17.3585 14.2644 17.4145 14.1687C17.4705 14.073 17.5 13.9641 17.5 13.8532Z" stroke="#424E67" stroke-linecap="round" stroke-linejoin="round"/>
<path d="M13.8298 11.9149V7.85242L6.25 3.67188" stroke="#424E67" stroke-linecap="round" stroke-linejoin="round"/>
<path d="M17.4132 5.83025L10.0735 10L2.58594 5.82947" stroke="#424E67" stroke-linecap="round" stroke-linejoin="round"/>
<path d="M10.0733 10L10 18.3454" stroke="#424E67" stroke-linecap="round" stroke-linejoin="round"/>
</svg>
