<svg width="20" height="20" viewBox="0 0 20 20" fill="none" xmlns="http://www.w3.org/2000/svg">
<path d="M7.5 11.4864V3.75C7.5 3.08696 7.76339 2.45107 8.23223 1.98223C8.70107 1.51339 9.33696 1.25 10 1.25C10.663 1.25 11.2989 1.51339 11.7678 1.98223C12.2366 2.45107 12.5 3.08696 12.5 3.75V11.4864L12.5006 11.4856C13.1672 12.0062 13.6547 12.722 13.8951 13.533C14.1354 14.344 14.1166 15.2098 13.8413 16.0096C13.566 16.8094 13.0478 17.5033 12.3592 17.9945C11.6706 18.4857 10.8459 18.7498 10 18.7498C9.15414 18.7498 8.32937 18.4857 7.64076 17.9945C6.95215 17.5033 6.43405 16.8094 6.15873 16.0096C5.8834 15.2098 5.8646 14.344 6.10493 13.533C6.34527 12.722 6.83275 12.0062 7.49939 11.4856L7.5 11.4864Z" stroke="#424E67" stroke-linecap="round" stroke-linejoin="round"/>
<path d="M10 16.25C10.8629 16.25 11.5625 15.5504 11.5625 14.6875C11.5625 13.8246 10.8629 13.125 10 13.125C9.13706 13.125 8.4375 13.8246 8.4375 14.6875C8.4375 15.5504 9.13706 16.25 10 16.25Z" stroke="#424E67" stroke-linecap="round" stroke-linejoin="round"/>
<path d="M10 13.125V6.875" stroke="#424E67" stroke-linecap="round" stroke-linejoin="round"/>
</svg>
