<svg width="118" height="106" fill="none" xmlns="http://www.w3.org/2000/svg"><g clip-path="url(#clip0_524_2792)"><path d="M55.338 59.691c-2.08.75-3.96 1.936-5.333 3.642-.986 1.225-1.664 2.663-2.594 3.931-.934 1.264-2.224 2.406-3.792 2.603-1.238.158-2.467-.288-3.7-.486-.783-.122-1.653-.11-2.371.17l-1.956-7.877c.108-.19.215-.375.327-.56.615-1.035 1.261-2.059 2.056-2.963l16.01-3.899 1.353 5.44zm-38.941-4.483l17.54 4.27-.767 3.09-.839 3.36-7.739 31.12-6.354-9.59-.408-.617-.65.356-10.127 5.578 7.03-28.264 2.063-8.3.251-1.007m-.582-.952l-.443 1.774-2.064 8.299L5.84 94.351l11.727-6.459L24.927 99l8.179-32.882.838-3.361.958-3.856-19.087-4.649z" fill="#173B91"/><path d="M33.945 62.757l-.839 3.361c-1.121.072-2.303.51-3.364.929-1.549.616-3.15 1.189-4.822 1.264-1.669.079-3.437-.403-4.566-1.62-.447-.482-.783-1.059-1.246-1.525-1.19-1.2-3.081-1.48-4.742-1.133a8.778 8.778 0 00-1.057.292l2.063-8.3c1.03-.13 2.12.084 3.094.475 1.377.553 2.59 1.43 3.86 2.196a26.993 26.993 0 009.855 3.56c.594.09 1.217.169 1.736.481.008.008.02.012.028.02zm19.458-7.549l1.162 4.673 8.182 32.897-10.126-5.577-.65-.356-.408.616-6.355 9.592-6.885-27.688-1.956-7.876-.499-2.007 2.3-.56 15.235-3.71m.583-.96l-16.01 3.899-3.074.75.69 2.773 1.957 7.877L44.873 99l7.36-11.108 11.728 6.459-8.622-34.66-1.353-5.439z" fill="#173B91"/><path d="M42.393 66.297c-1.249 0-2.582-.403-4-.826-1.448-.434-2.949-.889-4.394-.889-1.445 0-2.946.45-4.395.889-1.412.427-2.75.826-3.999.826-.507 0-.958-.064-1.373-.198-1.68-.541-2.914-2.169-4.103-3.74-.883-1.162-1.793-2.367-2.898-3.165-1.126-.814-2.579-1.303-3.98-1.782-1.952-.663-3.792-1.287-4.817-2.678-.807-1.102-.978-2.567-1.038-3.86-.024-.485-.032-.975-.044-1.469-.028-1.477-.056-3.002-.491-4.333-.415-1.26-1.277-2.473-2.112-3.642-1.153-1.62-2.347-3.29-2.347-5.084 0-1.793 1.194-3.464 2.347-5.08.835-1.173 1.7-2.386 2.112-3.65.435-1.327.463-2.856.49-4.333.037-2.03.073-3.95 1.083-5.321 1.021-1.387 2.865-2.015 4.817-2.678 1.405-.479 2.854-.972 3.98-1.782 1.105-.794 2.012-1.995 2.894-3.152.59-.779 1.201-1.588 1.86-2.248.746-.762 1.485-1.256 2.25-1.501a4.299 4.299 0 011.374-.202c1.25 0 2.582.403 3.995.826 1.45.435 2.95.889 4.4.889 1.448 0 2.945-.45 4.394-.889 1.413-.427 2.75-.826 4-.826.51 0 .957.068 1.372.202 1.685.537 2.914 2.165 4.108 3.74.878 1.162 1.788 2.367 2.898 3.165 1.125.81 2.578 1.303 3.98 1.781 1.95.664 3.795 1.288 4.817 2.679 1.006 1.37 1.042 3.29 1.082 5.32.027 1.478.055 3.007.495 4.334.41 1.264 1.277 2.477 2.115 3.654 1.154 1.616 2.343 3.29 2.343 5.076 0 1.785-1.193 3.464-2.347 5.08-.834 1.173-1.7 2.382-2.111 3.646-.436 1.327-.468 2.856-.495 4.333-.04 2.035-.076 3.95-1.082 5.325-1.022 1.39-2.866 2.019-4.818 2.678-1.4.479-2.854.968-3.98 1.782-1.105.798-2.015 2.003-2.897 3.164-1.194 1.576-2.423 3.204-4.108 3.745-.407.13-.87.198-1.369.198l-.008-.004z" fill="#EAECF7"/><path d="M42.394 6.79c.467 0 .874.06 1.25.182 1.56.497 2.698 2.006 3.907 3.598.898 1.185 1.824 2.414 2.982 3.248 1.173.845 2.654 1.35 4.087 1.836 1.892.644 3.676 1.249 4.622 2.536.934 1.272.97 3.129 1.006 5.096.028 1.505.06 3.062.511 4.444.431 1.323 1.313 2.56 2.167 3.76 1.17 1.64 2.272 3.189 2.272 4.852 0 1.663-1.106 3.215-2.275 4.854-.855 1.197-1.737 2.434-2.168 3.753-.455 1.387-.483 2.943-.51 4.448-.037 1.967-.073 3.828-1.007 5.1-.946 1.292-2.734 1.896-4.626 2.54-1.429.486-2.91.987-4.083 1.833-1.158.833-2.084 2.062-2.982 3.247-1.21 1.596-2.347 3.105-3.911 3.606a4.065 4.065 0 01-1.246.178c-1.19 0-2.498-.395-3.88-.81-1.476-.446-3.005-.904-4.514-.904-1.509 0-3.034.458-4.514.904-1.386.415-2.695.81-3.88.81a4.11 4.11 0 01-1.25-.178c-1.56-.501-2.702-2.006-3.907-3.602-.898-1.185-1.828-2.414-2.986-3.247-1.173-.846-2.654-1.351-4.087-1.837-1.888-.644-3.676-1.248-4.622-2.536-.747-1.02-.906-2.414-.962-3.646-.024-.474-.032-.972-.04-1.454-.028-1.505-.056-3.061-.511-4.448-.431-1.32-1.313-2.552-2.164-3.749-1.17-1.639-2.275-3.191-2.275-4.858 0-1.667 1.106-3.212 2.271-4.855.855-1.197 1.733-2.434 2.168-3.753.455-1.383.483-2.943.51-4.448.037-1.967.073-3.824 1.003-5.096.95-1.287 2.734-1.896 4.626-2.536 1.433-.486 2.914-.991 4.087-1.837 1.154-.83 2.08-2.054 2.978-3.235.583-.77 1.185-1.564 1.828-2.212.698-.715 1.381-1.173 2.091-1.398a3.945 3.945 0 011.246-.182c1.19 0 2.494.395 3.88.81 1.476.446 3.005.904 4.514.904 1.509 0 3.034-.458 4.514-.904 1.386-.415 2.695-.81 3.88-.81m0-.794C39.752 6 36.75 7.714 34 7.714S28.248 6 25.606 6a4.77 4.77 0 00-1.497.221c-.926.296-1.708.877-2.415 1.6-1.652 1.667-2.914 4.073-4.702 5.36-2.578 1.861-7.001 1.991-8.885 4.547-1.86 2.532-.63 6.727-1.629 9.765C5.517 30.428 2 33.095 2 36.346c0 3.25 3.517 5.917 4.478 8.848.56 1.703.42 3.765.515 5.696.072 1.521.296 2.955 1.114 4.073 1.884 2.556 6.307 2.686 8.885 4.547 2.559 1.844 4.043 5.976 7.117 6.964.483.154.982.217 1.497.217 2.642 0 5.644-1.714 8.394-1.714s5.752 1.714 8.394 1.714c.511 0 1.014-.063 1.493-.217 3.078-.988 4.558-5.12 7.117-6.964 2.582-1.86 7.005-1.987 8.885-4.547 1.86-2.532.635-6.727 1.633-9.769C62.48 42.263 66 39.601 66 36.346c0-3.255-3.52-5.918-4.478-8.853-.998-3.038.227-7.233-1.633-9.765-1.88-2.556-6.303-2.686-8.885-4.547-2.559-1.844-4.04-5.976-7.113-6.96A4.77 4.77 0 0042.394 6z" fill="#173B91"/><path d="M34 16.939c10.813 0 19.61 8.706 19.61 19.407 0 6.186-3.02 12.052-8.078 15.698A19.616 19.616 0 0134 55.754c-10.813 0-19.61-8.707-19.61-19.408 0-6.913 3.764-13.356 9.82-16.82A19.734 19.734 0 0134 16.939zm0-.79c-3.712 0-7.192.98-10.19 2.694-6.107 3.491-10.218 10.021-10.218 17.503 0 11.155 9.136 20.197 20.408 20.197a20.48 20.48 0 0012.003-3.859c5.097-3.674 8.406-9.623 8.406-16.338 0-11.155-9.136-20.198-20.409-20.198z" fill="#173B91"/><path d="M48.138 50.914A20.476 20.476 0 0134 56.543c-11.272 0-20.408-9.042-20.408-20.197 0-7.103 3.704-13.348 9.308-16.947-3.876 3.674-6.287 8.845-6.287 14.577 0 11.155 9.137 20.197 20.409 20.197 4.1 0 7.92-1.197 11.116-3.259zm-2.778-39.55c.343.782.586 1.568 1.013 2.319.4.7.886 1.347 1.45 1.928a10.23 10.23 0 004.047 2.587c.886.3 1.84.454 2.682.87.842.414 1.357 1.046 1.68 1.868.623 1.591.391 3.322.531 4.985.14 1.663.61 3.31 2.251 4.033.08.035.132-.06.068-.11-1.277-.976-1.604-2.833-1.676-4.334-.072-1.501.116-3.188-.415-4.709-.56-1.596-1.892-2.433-3.493-2.82-.842-.206-1.72-.316-2.53-.628a9.286 9.286 0 01-2.24-1.245 9.842 9.842 0 01-2.051-2.09c-.575-.79-1.13-1.726-1.274-2.666 0-.027-.048-.011-.036.016l-.008-.004zM17.211 63.53l-3.668 10.998 2.123-11.388 1.545.39z" fill="#173B91"/><path d="M15.762 63.4l-3.668 10.994 2.123-11.384 1.545.39zm3.303.494l-3.669 10.994 2.124-11.389 1.545.395zm1.748.98l-3.668 10.994 2.119-11.385 1.549.391zm1.779.174l-3.668 10.994 2.123-11.385 1.545.391zm3.102 1.54l-3.516 10.164 2.06-10.547 1.456.383zm1.963.142l-3.516 10.165 2.06-10.547 1.456.383zm2.08-.596l-3.516 10.164 2.06-10.547 1.456.383zm2.08-.676l-3.516 10.168 2.06-10.55 1.456.382z" fill="#173B91"/><path d="M24.041 65.723L20.37 76.717l2.124-11.389 1.548.395zm16.239 1.569l1.716 11.452-3.277-11.116 1.56-.336zm1.816-.506l1.72 11.456-3.277-11.116 1.557-.34zm2.006.103l1.716 11.451-3.277-11.116 1.56-.335zm1.67-.64l1.72 11.456-3.277-11.116 1.556-.34zm2.742-2.449l2.147 12.976-3.616-12.652 1.469-.324zm1.443-1.284l2.148 12.976-3.62-12.653 1.472-.323zm1.651-1.289l2.147 12.977-3.616-12.652 1.469-.325zm1.523-1.045l2.148 12.976-3.62-12.652 1.472-.324zm1.502-.482l2.147 12.976-3.616-12.653 1.469-.324zm-7.305 6.063l1.72 11.451-3.276-11.112 1.556-.34zM30.395 33.818c.69-.206.898-.411 2.075-2.33 1.178-1.92 3.046-2.742 3.74-3.908.695-1.165 1.11-1.848 1.038-2.808-.072-.96.068-2.26 1.317-2.33 1.25-.072 2.978.888 2.978 2.67 0 1.781-1.593 5.072-1.453 5.585.14.514 3.46.514 4.155.652.695.138 1.8 1.027 1.66 2.88-.14 1.852.372 3.29.012 4.795-.359 1.505-.842 2.125-1.189 3.22-.347 1.094.347 1.848-1.038 2.603-1.385.754-4.29 1.37-6.646.754-2.355-.616-4.985-.138-5.26-.683-.276-.545-1.038-2.398-1.386-5.412-.347-3.014 0-5.688 0-5.688h-.003zm-1.449-.205s-5.4-.411-5.883-.344c-.483.067-1.11.822-1.11 2.054 0 1.233.69 8.635 1.525 9.797.834 1.161 1.94 1.303 2.63 1.098.69-.206 4.155-.755 4.155-1.233 0-.477-1.265-2.733-1.385-5.96-.095-2.604.068-5.412.068-5.412z" fill="#173B91"/><path d="M25.242 36.804c.547 0 .99-.439.99-.98a.985.985 0 00-.99-.98.985.985 0 00-.99.98c0 .541.443.98.99.98z" fill="#EAECF7"/><path d="M6.814 33.864c-.747 1.26-1.39 2.762-1.134 4.25.24 1.38 1.301 2.415 2.163 3.446.52.624.966 1.283 1.214 2.058.247.774.34 1.659.363 2.504.048 1.706-.112 3.496.523 5.127.527 1.351 1.629 2.485 3.141 2.608.14.011.164-.202.032-.237-1.337-.352-2.279-1.557-2.686-2.82-.503-1.565-.335-3.236-.435-4.852-.084-1.39-.355-2.773-1.19-3.926-.754-1.051-1.816-1.873-2.466-2.995-.982-1.698-.368-3.547.535-5.127.023-.043-.04-.079-.064-.035h.004z" fill="#173B91"/></g><defs><clipPath id="clip0_524_2792"><path fill="#fff" transform="translate(2 6)" d="M0 0h64v93H0z"/></clipPath></defs></svg>