<svg width="118" height="106" fill="none" xmlns="http://www.w3.org/2000/svg"><g clip-path="url(#clip0_524_2790)"><path d="M77.343 79.139c-2.808 3.014-7.217 8.658-10.426 9.757-3.209 1.103-16.293 3.417-21.79 4.275-3.864.606-22.595-.456-23.663-.908-1.069-.452-2.542-6.49-2.807-13.278-.27-6.787.865-11.975.865-11.975 1.474-.456 4.455-1.161 6.061-2.82 1.243-1.29 3.656-2.31 6.008-2.74a13.07 13.07 0 011.996-.225 7.32 7.32 0 012.484.349v.004c2.194.688 4.078 2.21 8.252 2.882 5.614.904 10.901 1.642 13.746 4.404 2.393 2.326 2.695 5.145 1.474 5.962-.464.311-1.47.498-2.323.606a67 67 0 007.432-.46c1.884-.228 3.503-.552 4.22-.962 2.082-1.203 11.675-7.995 13.683-9.355 2.004-1.356 4.008-1.182 4.944.841.936 2.028-7.353 10.624-10.16 13.643h.004z" stroke="#173B91" stroke-width="2.06" stroke-miterlimit="10"/><path d="M57.224 75.432c-4.297.257-13.216-1.439-16.913-.129-2.56.909-2.807 3.38-3.077 4.89" stroke="#173B91" stroke-width="2.06" stroke-miterlimit="10"/><path d="M18.039 92.313c-.017.576-2.228 1.14-4.53 1.6-2.028.411-4.128.743-4.86.942-1.565.423-4.041.045-5.834-2.65-1.789-2.69-2.886-19.53-2.816-22.33.046-1.646.568-2.902 1.21-3.686.446-.543.952-.858 1.403-.908 1.093-.124 13.175 1.136 13.175 1.136s-.543 6.37-.489 12.283c.066 7.327 2.766 12.522 2.737 13.613h.004z" fill="#173B91"/><path d="M7.456 74.943a2.789 2.789 0 002.787-2.791 2.789 2.789 0 00-2.787-2.79 2.789 2.789 0 00-2.786 2.79 2.789 2.789 0 002.786 2.79z" fill="#fff" stroke="#173B91" stroke-width="3.41" stroke-miterlimit="10"/><path d="M64.897 74.852l.1-4.242v-.021l.919-39.903a1.104 1.104 0 00-1.105-1.132H36.254c-.617 0-1.118.502-1.105 1.123a2879.435 2879.435 0 00.368 17.62c.17 6.9.373 13.107.555 13.277 0 .004.004.004.004.004m-.928-30.37l30.768.008" stroke="#173B91" stroke-width="2.06" stroke-miterlimit="10"/><path d="M65.94 33.94s-7.494-1.575-7.407-6.215c.078-4.076 5.32-4.835 1.958-8.663-.849-.966-3.13-1.14-4.302-.97-3.114.444-6.16 3.728-5.747 6.917.257 1.99 1.553 3.674 2.82 5.162 0 0 0 .009.004.009 1.52 1.787 2.993 3.292 2.584 4.702-.617 2.11-4.489 4.234-9.499 2.351-5.005-1.878-9.995-.054-10.98 4.702" stroke="#173B91" stroke-width="2.06" stroke-miterlimit="10"/><path d="M71.489 9.724v.854c1.11 0 2.02.332 2.637.958a2.77 2.77 0 01.795 1.924c0 .813-.402 1.758-1.536 1.758-3.333 0-6.207.195-7.61 2.567-.162.274-.302.386-.348.419-.157-.133-.406-.759-.195-1.746.472-2.202 2.53-5.743 6.041-5.871h.216v-.855m0-.008c-.083 0-.166 0-.249.004-4.099.15-6.347 4.238-6.844 6.548-.348 1.621.253 2.79 1.014 2.79.357 0 .75-.257 1.098-.845 1.089-1.841 3.304-2.148 6.877-2.148s3.358-6.349-1.896-6.349zM43.25 7.854h.215c3.511.129 5.569 3.67 6.04 5.872.212.978-.032 1.609-.19 1.746-.062-.038-.198-.154-.351-.415-1.404-2.372-4.278-2.567-7.61-2.567-1.135 0-1.537-.95-1.537-1.758 0-1.39 1.077-2.882 3.433-2.882m0-.85c-5.259 0-5.42 6.348-1.897 6.348 3.524 0 5.789.307 6.878 2.148.347.59.74.846 1.097.846.762 0 1.362-1.169 1.014-2.79-.497-2.31-2.745-6.394-6.844-6.548-.083 0-.165-.004-.248-.004zm-3.076 56.705l.79-20.136.787 20.136h-1.577zm7.01 1.174l.786-20.132.787 20.132h-1.573zm6.57.394l.787-19.809.79 19.809h-1.577zm5.947 9.757l.791-31.224.787 31.224H59.7zM35.43 44.813l-.46.979c.117-.61.415-.933.46-.979z" fill="#173B91"/><path d="M64.995 70.589v.02l-.34 4.363c-2.509.31-5.494.46-7.431.46.852-.108 1.859-.294 2.322-.605 1.222-.817.92-3.637-1.474-5.963-2.844-2.762-8.132-3.5-13.746-4.404-4.173-.672-6.057-2.194-8.252-2.882v-.004c-.182-.17-.385-6.378-.554-13.278.736 1.381 1.689 6.73 4.823 8.986 8.504 6.112 9.498 2.405 15.469 5.57 5.97 3.163 9.187 7.737 9.187 7.737h-.004zm-9.042 16.988c2-.377 4.008-.659 6.003-1.078 1.81-.381 3.685-.75 5.354-1.584 1.668-.833 2.948-2.115 4.256-3.354A255.661 255.661 0 0076 77.26a439.23 439.23 0 002.365-2.364c.836-.842 1.623-1.713 2.43-2.584.199-.215-.108-.522-.323-.323-2.91 2.716-5.71 5.553-8.579 8.318-1.325 1.273-2.629 2.662-4.198 3.641-1.57.979-3.416 1.38-5.213 1.791-1.085.25-2.174.498-3.246.797-1.072.298-2.19.684-3.3.978-.041.013-.025.075.017.067v-.005z" fill="#173B91"/></g><defs><clipPath id="clip0_524_2790"><path fill="#fff" transform="translate(0 7)" d="M0 0h88v88H0z"/></clipPath></defs></svg>