<svg width="162" height="64" fill="none" xmlns="http://www.w3.org/2000/svg"><path d="M0 35.49a18.232 18.232 0 0016.774 11.038A18.228 18.228 0 000 35.489zm16.775 11.037a13.674 13.674 0 0012.449-7.98 13.677 13.677 0 00-12.449 7.98z" fill="#12B36A"/><path fill-rule="evenodd" clip-rule="evenodd" d="M16.776 37.455c7.548 0 13.668-6.09 13.668-13.607 0-7.514-6.12-13.608-13.668-13.608-7.55 0-13.669 6.094-13.669 13.608 0 7.516 6.119 13.607 13.669 13.607zm0-6.803c3.773 0 6.833-3.046 6.833-6.804 0-3.758-3.06-6.803-6.833-6.803-3.775 0-6.835 3.045-6.835 6.803s3.06 6.804 6.835 6.804z" fill="#FEBE10"/><path d="M104.716 23.848h5.717v22.063h-5.717v-8.593h-9.983v8.593h-5.718V23.848h5.718v8.13h9.983v-8.13zm8.41 5.473h7.118v16.59h5.717V29.32h7.031v-5.473h-19.866v5.473zm47.589 11.79v4.69c-.975.486-2.192.728-3.614.728-2.97 0-4.465-1.287-5.065-3.359l-.095.139c-1.729 2.161-4.122 3.22-7.224 3.22-2.971 0-5.498-1.103-7.624-3.353-2.083-2.251-3.147-5.031-3.147-8.297 0-3.262 1.064-5.999 3.147-8.25 2.126-2.249 4.653-3.398 7.624-3.398 2.965 0 5.282.971 6.99 2.948v-2.33h5.718v15.607c0 1.333.609 2.02 1.828 2.02.57-.002 1.057-.122 1.462-.364zm-8.774-6.233c0-1.806-.576-3.307-1.773-4.455-1.152-1.19-2.615-1.765-4.388-1.765-1.773 0-3.235.573-4.388 1.765-1.152 1.148-1.728 2.649-1.728 4.455 0 1.81.576 3.31 1.728 4.503 1.153 1.146 2.615 1.72 4.388 1.72 1.773 0 3.236-.574 4.388-1.72 1.197-1.192 1.773-2.693 1.773-4.503zM41.914 23.848l-.17 8.29c-.04 3.356-.163 5.013-.65 6.912-.447 1.82-1.3 2.334-2.638 2.334-.448 0-.853-.041-1.179-.163v4.69c.447.242 1.179.362 2.153.362 4.02-.12 5.969-2.009 6.944-5.405.69-2.426.812-4.286.934-7.074l.128-4.475h7.1v16.59h5.717V23.847H41.914v.001zm27.535 12.52c.616 3.766 3.615 4.999 6.658 4.999 2.016 0 4.129-.785 5.428-1.958l3.526 3.532c-2.105 2.321-5.037 3.588-9.044 3.588-5.61 0-12.376-3.297-12.376-11.65 0-8.351 6.517-11.648 12.05-11.648 7 0 9.896 3.274 9.896 6.944.002 6.001-7.66 8.773-16.138 6.193zm9.932-5.543c0-1.711-1.7-2.476-3.606-2.476-2.91 0-5.433 1.224-6.199 4.372 5.93 1.705 9.805.433 9.805-1.896z" fill="#003991"/></svg>