<svg width="162" height="64" fill="none" xmlns="http://www.w3.org/2000/svg"><path fill="#012D72" d="M0 0h162v64H0z"/><path fill-rule="evenodd" clip-rule="evenodd" d="M35.4 44l4.672-15.1V44h7.056V20h-9.535l-4.577 12-4.481-12H19v24h7.056V28.9L30.823 44H35.4zm75.612-9.3c2.193-.2 4.386-1.8 4.386-4.4v-5.9c-.286-2.7-2.193-4.2-4.386-4.4H92.895v24h7.056v-9.3h2.765l4.577 9.3h8.105l-5.435-9.3h1.049zm-1.907-6.3c0 .5-.096 1-.954 1h-8.2v-4.7h8.2c.954 0 .954.7.954 1.1v2.6zm-40.81-3.7V20H49.988v24h18.498v-4.7H57.044v-5.1h11.251v-4.7h-11.25v-4.8h11.25zm8.772 0h-6.674V20h20.405v4.7h-6.675V44h-7.056V24.7zm60.547-4.7h-14.97c-2.288.2-4.1 1.4-4.386 4.1v15.5c.286 2.7 2.193 4.2 4.386 4.3h14.97c2.288-.2 4.1-1.6 4.386-4.3V24.1c-.286-2.7-2.193-3.9-4.386-4.1zm-2.67 18.2c0 .3-.095 1-.953 1.1h-7.628a1.12 1.12 0 01-1.049-1.1V25.7c0-.3.191-.8 1.049-.9h7.628c.858.1.953.7.953.9v12.5z" fill="#FFE500"/></svg>