<svg width="32" height="32" viewBox="0 0 32 32" fill="none" xmlns="http://www.w3.org/2000/svg">
<path d="M16.0352 32H15.9648C7.16189 32 0 24.8381 0 16.0352V15.9648C0 7.1619 7.16189 0 15.9648 0H16.0352C24.8381 0 32 7.1619 32 15.9648V16.0352C32 24.8381 24.8381 32 16.0352 32ZM15.9648 1.08317C7.75871 1.08317 1.08317 7.75873 1.08317 15.9648V16.0352C1.08317 24.2413 7.75871 30.9168 15.9648 30.9168H16.0352C24.2413 30.9168 30.9168 24.2413 30.9168 16.0352V15.9648C30.9168 7.75873 24.2413 1.08317 16.0352 1.08317H15.9648Z" fill="#424E67"/>
<path d="M21.0996 9C21.5031 9 21.8667 8.9989 22.167 9.02344C22.4788 9.04894 22.81 9.10705 23.1348 9.27246C23.6052 9.51214 23.9879 9.89483 24.2275 10.3652C24.393 10.69 24.4511 11.0212 24.4766 11.333C24.5011 11.6333 24.5 11.9969 24.5 12.4004V19.5996C24.5 20.0031 24.5011 20.3667 24.4766 20.667C24.4511 20.9788 24.393 21.31 24.2275 21.6348C23.9879 22.1052 23.6052 22.4879 23.1348 22.7275C22.81 22.893 22.4788 22.9511 22.167 22.9766C21.8667 23.0011 21.5031 23 21.0996 23H10.9004C10.4969 23 10.1333 23.0011 9.83301 22.9766C9.5212 22.9511 9.18996 22.893 8.86523 22.7275C8.39483 22.4879 8.01214 22.1052 7.77246 21.6348C7.60705 21.31 7.54894 20.9788 7.52344 20.667C7.4989 20.3667 7.5 20.0031 7.5 19.5996V12.4004C7.5 11.9969 7.4989 11.6333 7.52344 11.333C7.54894 11.0212 7.60704 10.69 7.77246 10.3652C8.01214 9.89483 8.39483 9.51214 8.86523 9.27246C9.18996 9.10704 9.52119 9.04894 9.83301 9.02344C10.1333 8.9989 10.4969 9 10.9004 9H21.0996ZM17.5352 16.0732C16.6324 16.7754 15.3676 16.7754 14.4648 16.0732L9.5 12.2109V19.5996C9.5 20.0361 9.50124 20.3039 9.51758 20.5039C9.52518 20.5969 9.53394 20.6533 9.54199 20.6875C9.54576 20.7035 9.54981 20.7133 9.55176 20.7188C9.55335 20.7232 9.5543 20.7258 9.55469 20.7266C9.60262 20.8206 9.67936 20.8974 9.77344 20.9453C9.77423 20.9457 9.77677 20.9466 9.78125 20.9482C9.78673 20.9502 9.7965 20.9542 9.8125 20.958C9.84671 20.9661 9.90313 20.9748 9.99609 20.9824C10.1961 20.9988 10.4639 21 10.9004 21H21.0996C21.5361 21 21.8039 20.9988 22.0039 20.9824C22.0969 20.9748 22.1533 20.9661 22.1875 20.958C22.2035 20.9542 22.2133 20.9502 22.2188 20.9482C22.2232 20.9466 22.2258 20.9457 22.2266 20.9453C22.3206 20.8974 22.3974 20.8206 22.4453 20.7266C22.4457 20.7258 22.4466 20.7232 22.4482 20.7188C22.4502 20.7133 22.4542 20.7035 22.458 20.6875C22.4661 20.6533 22.4748 20.5969 22.4824 20.5039C22.4988 20.3039 22.5 20.0361 22.5 19.5996V12.4004C22.5 12.3335 22.4991 12.2702 22.499 12.2109L17.5352 16.0732ZM15.6934 14.4941C15.8739 14.6345 16.1261 14.6345 16.3066 14.4941L20.7998 11H11.2002L15.6934 14.4941Z" fill="#424E67"/>
</svg>
