<svg width="36" height="36" viewBox="0 0 36 36" fill="none" xmlns="http://www.w3.org/2000/svg">
<path d="M19 4.5C19 3.94772 18.5523 3.5 18 3.5C17.4477 3.5 17 3.94772 17 4.5L19 4.5ZM17 21C17 21.5523 17.4477 22 18 22C18.5523 22 19 21.5523 19 21H17ZM24.7071 18.7071C25.0976 18.3166 25.0976 17.6834 24.7071 17.2929C24.3166 16.9024 23.6834 16.9024 23.2929 17.2929L24.7071 18.7071ZM19.0607 22.9393L18.3536 22.2322L19.0607 22.9393ZM16.9393 22.9393L17.6464 22.2322L16.9393 22.9393ZM12.7071 17.2929C12.3166 16.9024 11.6834 16.9024 11.2929 17.2929C10.9024 17.6834 10.9024 18.3166 11.2929 18.7071L12.7071 17.2929ZM5.5 24C5.5 23.4477 5.05228 23 4.5 23C3.94772 23 3.5 23.4477 3.5 24H5.5ZM32.5 24C32.5 23.4477 32.0523 23 31.5 23C30.9477 23 30.5 23.4477 30.5 24H32.5ZM29.043 31.0095L28.589 30.1185L29.043 31.0095ZM31.0095 29.043L31.9005 29.497L31.0095 29.043ZM4.99047 29.043L4.09946 29.497L4.99047 29.043ZM6.95704 31.0095L6.50305 31.9005H6.50305L6.95704 31.0095ZM18 4.5L17 4.5L17 21H18H19L19 4.5L18 4.5ZM24 18L23.2929 17.2929L18.3536 22.2322L19.0607 22.9393L19.7678 23.6464L24.7071 18.7071L24 18ZM16.9393 22.9393L17.6464 22.2322L12.7071 17.2929L12 18L11.2929 18.7071L16.2322 23.6464L16.9393 22.9393ZM19.0607 22.9393L18.3536 22.2322C18.1583 22.4275 17.8417 22.4275 17.6464 22.2322L16.9393 22.9393L16.2322 23.6464C17.2085 24.6228 18.7915 24.6228 19.7678 23.6464L19.0607 22.9393ZM4.5 24H3.5V24.3H4.5H5.5V24H4.5ZM11.7 31.5V32.5H24.3V31.5V30.5H11.7V31.5ZM31.5 24.3H32.5V24H31.5H30.5V24.3H31.5ZM24.3 31.5V32.5C25.5436 32.5 26.5365 32.5008 27.337 32.4354C28.1492 32.369 28.8512 32.2296 29.4969 31.9005L29.043 31.0095L28.589 30.1185C28.2721 30.28 27.8627 30.3858 27.1742 30.442C26.4739 30.4992 25.5766 30.5 24.3 30.5V31.5ZM31.5 24.3H30.5C30.5 25.5766 30.4992 26.4739 30.442 27.1742C30.3858 27.8627 30.28 28.2721 30.1185 28.589L31.0095 29.043L31.9005 29.497C32.2296 28.8512 32.369 28.1493 32.4354 27.337C32.5008 26.5365 32.5 25.5436 32.5 24.3H31.5ZM29.043 31.0095L29.4969 31.9005C30.5318 31.3732 31.3732 30.5318 31.9005 29.497L31.0095 29.043L30.1185 28.589C29.783 29.2475 29.2475 29.783 28.589 30.1185L29.043 31.0095ZM4.5 24.3H3.5C3.5 25.5436 3.49922 26.5365 3.56463 27.337C3.63099 28.1493 3.77043 28.8512 4.09946 29.497L4.99047 29.043L5.88148 28.589C5.72004 28.2721 5.61424 27.8627 5.55799 27.1742C5.50078 26.4739 5.5 25.5766 5.5 24.3H4.5ZM11.7 31.5V30.5C10.4234 30.5 9.52606 30.4992 8.82584 30.442C8.1373 30.3858 7.72787 30.28 7.41103 30.1185L6.95704 31.0095L6.50305 31.9005C7.14882 32.2296 7.85075 32.369 8.66298 32.4354C9.46353 32.5008 10.4564 32.5 11.7 32.5V31.5ZM4.99047 29.043L4.09946 29.497C4.62677 30.5318 5.46816 31.3732 6.50305 31.9005L6.95704 31.0095L7.41103 30.1185C6.75247 29.783 6.21703 29.2475 5.88148 28.589L4.99047 29.043Z" fill="white"/>
</svg>
