<svg width="32" height="32" viewBox="0 0 32 32" fill="none" xmlns="http://www.w3.org/2000/svg">
<path d="M16.0352 32H15.9648C7.16189 32 0 24.8381 0 16.0352V15.9648C0 7.1619 7.16189 0 15.9648 0H16.0352C24.8381 0 32 7.1619 32 15.9648V16.0352C32 24.8381 24.8381 32 16.0352 32ZM15.9648 1.08317C7.75871 1.08317 1.08317 7.75873 1.08317 15.9648V16.0352C1.08317 24.2413 7.75871 30.9168 15.9648 30.9168H16.0352C24.2413 30.9168 30.9168 24.2413 30.9168 16.0352V15.9648C30.9168 7.75873 24.2413 1.08317 16.0352 1.08317H15.9648Z" fill="#424E67"/>
<path d="M7.44663 15.3818C7.48567 15.3624 7.52473 15.3439 7.56279 15.3265C8.22452 15.0215 8.89504 14.7359 9.56458 14.4504C9.60069 14.4504 9.66119 14.4086 9.69535 14.395C9.74707 14.3727 9.79881 14.3513 9.85054 14.329C9.95009 14.2863 10.0496 14.2445 10.1482 14.2017C10.3473 14.1172 10.5454 14.0328 10.7446 13.9483C11.1418 13.7793 11.539 13.6103 11.9362 13.4403C12.7307 13.1023 13.5262 12.7633 14.3206 12.4253C15.1151 12.0874 15.9105 11.7484 16.705 11.4104C17.4995 11.0724 18.2949 10.7334 19.0894 10.3954C19.8839 10.0574 20.6793 9.71847 21.4738 9.38048C21.6504 9.30472 21.8417 9.19206 22.0311 9.15904C22.1902 9.13088 22.3453 9.07648 22.5054 9.04637C22.8089 8.98907 23.1437 8.96576 23.4346 9.09105C23.5351 9.13475 23.6278 9.19594 23.7049 9.27267C24.0738 9.63592 24.0221 10.2323 23.944 10.7431C23.4004 14.3037 22.8568 17.8653 22.3122 21.4259C22.238 21.9144 22.1365 22.4505 21.749 22.7594C21.4211 23.0207 20.9545 23.0498 20.5495 22.9391C20.1444 22.8274 19.7872 22.5933 19.4369 22.3631C17.9836 21.4055 16.5293 20.4478 15.0761 19.4902C14.7306 19.2629 14.346 18.9657 14.3499 18.5529C14.3519 18.3043 14.5012 18.0829 14.6535 17.8857C15.9164 16.2462 17.7386 15.1196 19.0943 13.5559C19.2856 13.3354 19.4359 12.9372 19.1733 12.81C19.0172 12.7342 18.8376 12.8372 18.6951 12.9352C16.9031 14.1736 15.1122 15.4129 13.3202 16.6512C12.7356 17.0553 12.1227 17.471 11.418 17.57C10.7875 17.6594 10.1531 17.4846 9.54311 17.3059C9.03168 17.1563 8.52121 17.0028 8.01272 16.8445C7.74236 16.761 7.46322 16.6707 7.25436 16.4813C7.04549 16.2919 6.92546 15.9733 7.05137 15.7208C7.13042 15.5625 7.28366 15.4624 7.4447 15.3808L7.44663 15.3818Z" fill="#424E67"/>
</svg>
