<svg width="32" height="32" viewBox="0 0 32 32" fill="none" xmlns="http://www.w3.org/2000/svg">
<path d="M16.0352 32H15.9648C7.1619 32 0 24.8381 0 16.0352V15.9648C0 7.1619 7.1619 0 15.9648 0H16.0352C24.8381 0 32 7.1619 32 15.9648V16.0352C32 24.8381 24.8381 32 16.0352 32ZM15.9648 1.08317C7.75872 1.08317 1.08317 7.75873 1.08317 15.9648V16.0352C1.08317 24.2413 7.75872 30.9168 15.9648 30.9168H16.0352C24.2413 30.9168 30.9168 24.2413 30.9168 16.0352V15.9648C30.9168 7.75873 24.2413 1.08317 16.0352 1.08317H15.9648Z" fill="#424E67"/>
<path d="M18.582 20.0005C15.503 20.0005 12.998 17.1367 12.9972 13.6178C12.998 12.7258 13.6336 12.0005 14.4124 12.0005C14.4924 12.0005 14.5717 12.0082 14.6475 12.0236C14.8144 12.0554 14.9729 12.1199 15.1187 12.2172C15.1398 12.2317 15.1541 12.2548 15.1575 12.2818L15.4828 14.6254C15.487 14.6524 15.4794 14.6803 15.4634 14.7005C15.2839 14.9279 15.0546 15.0916 14.7992 15.1735L14.6762 15.213L14.7225 15.3488C15.1423 16.5703 15.997 17.5461 17.0665 18.0277L17.1854 18.0816L17.2199 17.941C17.2916 17.6491 17.4349 17.3871 17.6338 17.1819C17.6481 17.1665 17.6675 17.1588 17.6869 17.1588C17.6911 17.1588 17.6953 17.1588 17.7004 17.1598L19.7511 17.5316C19.7755 17.5364 19.7957 17.5518 19.8084 17.5759C19.8927 17.7426 19.9492 17.9246 19.9778 18.1154C19.9913 18.2001 19.9972 18.2897 19.9972 18.3831C19.9972 19.2742 19.3625 19.9995 18.582 20.0005Z" fill="#424E67"/>
<path d="M23.9671 15.287C23.7975 13.3065 22.9198 11.4693 21.4956 10.1144C20.0628 8.75138 18.204 8.00049 16.2601 8.00049C11.9935 8.00049 8.52213 11.5895 8.52213 16.0005C8.52213 17.4809 8.91711 18.9231 9.66492 20.1793L7.99719 23.996L13.3368 23.408C14.2654 23.8012 15.2481 24.0005 16.2592 24.0005C16.5251 24.0005 16.7979 23.9863 17.0716 23.9569C17.3125 23.9302 17.5561 23.8911 17.7953 23.8412C21.3683 23.0948 23.9765 19.8163 23.9972 16.0432V16.0005C23.9972 15.7603 23.9869 15.5201 23.9662 15.2879L23.9671 15.287ZM13.5425 21.7327L10.5883 22.0583L11.4703 20.0379L11.2939 19.7932C11.281 19.7754 11.2681 19.7576 11.2535 19.7371C10.4876 18.6437 10.0831 17.3519 10.0831 16.0014C10.0831 12.48 12.8541 9.61526 16.2601 9.61526C19.451 9.61526 22.1556 12.1891 22.4164 15.4747C22.4302 15.6508 22.4379 15.8279 22.4379 16.0023C22.4379 16.0521 22.437 16.101 22.4362 16.1535C22.3708 19.0992 20.3803 21.601 17.5956 22.238C17.3831 22.287 17.1654 22.3243 16.9485 22.3483C16.7231 22.375 16.4916 22.3884 16.2618 22.3884C15.4434 22.3884 14.6483 22.2247 13.8971 21.9008C13.8136 21.8661 13.7318 21.8288 13.6552 21.7905L13.5434 21.7345L13.5425 21.7327Z" fill="#424E67"/>
</svg>
