<svg width="88" height="88" fill="none" xmlns="http://www.w3.org/2000/svg"><path d="M59.324 44.904c-.016-.286-.155-3.027-.012-7.454.15-4.677-.904-6.709-4.429-8.178-1.673-1.165-4.337-2.182-8.234-1.438-1.566.297-3.616-.008-4.972-.212a22.52 22.52 0 00-.928-.128c.14-.555.096-.983.08-1.102l.305-.598s.012-.027.012-.043a1.56 1.56 0 00-.1-.493 1.106 1.106 0 011.139.077c.293.212.634.363 1.014.444.076.015.147.023.223.023a.953.953 0 00.392-.081 4.08 4.08 0 002.264-2.622.84.84 0 00-.206-.802c-1.424-1.439-2.994-.367-3.95.3-.181-.158-.467-.312-.693-.42 3.334-1.288 3.695-2.53 3.192-3.994a.269.269 0 00-.286-.178.263.263 0 00-.242.224c-.25 1.635-2.33 2.733-4.733 2.506-.14-.062-.282-.127-.432-.189-.738-.297-1.467-.447-2.173-.447s-1.44.15-2.173.447a9.18 9.18 0 00-.432.189c-2.406.227-4.484-.871-4.734-2.506a.266.266 0 00-.241-.228.273.273 0 00-.29.178c-.503 1.461-.142 2.703 3.192 3.99-.222.112-.512.267-.694.42-.956-.666-2.526-1.738-3.949-.3a.848.848 0 00-.206.802 4.09 4.09 0 002.264 2.622.965.965 0 00.392.08c.076 0 .147-.007.222-.022.38-.085.722-.232 1.015-.444a1.107 1.107 0 011.134-.077 1.54 1.54 0 00-.095.498c0 .015 0 .03.012.042l.305.598a2.98 2.98 0 00.13 1.291c.053.17.14.494.235.891.051.208.107.444.166.698 0 0 .123.551.183.845-.024.084-.04.165-.064.25-.043.081-.087.158-.13.24 0 0-.008.007-.008.01-1.824 3.14-3.188 7.065-3.22 8.179-.008.312-.09.694-.186 1.137-.04.182-.08.37-.119.571-.258 1.334-.38 2.934.662 4.724.266 5.305 2.145 9.674 2.41 10.264-.051.409-.269 2.367.262 3.45-.024.498.016.992.052 1.47.06.763.115 1.484-.056 2.236a10.543 10.543 0 01-1.296 3.255.23.23 0 00-.02.046c-.484 1.376-.563 1.739-.567 1.754a.247.247 0 00.052.209.26.26 0 00.198.092h2.862c.163 0 .321-.039.464-.108.302-.143.56-.3.757-.47a.635.635 0 00.179-.702 2.105 2.105 0 01-.095-.328c-.131-.578-.024-1.149.265-1.453.393-.401.25-.86.087-1.396-.059-.2-.13-.428-.19-.69-.016-.058-.028-.128-.04-.197-.178-1.03-.225-3.648.175-4.67.42-1.072.547-2.514-.115-3.32-.19-.227-.052-.543.15-.933.064-.12.116-.227.147-.32.103-.293.27-.555.48-.782.333.71.8 1.11 1.479.782.547-.266.392-1.26 1.3-1.592.956-.347 1.19-.578 1.97-.401 0 .027 0 .054-.003.08-.024.356-.044.695-.064 1.015-.083 1.346-.146 2.41-.48 3.49a2.91 2.91 0 00-.13.805c-.036 1.253.06 2.73.29 4.515a6.2 6.2 0 00.055.36c.099.62.25 1.56.051 2.482-.15.702-.34 1.5-.57 2.372v.007c0 .004 0 .012-.005.016-.182.667-.313 1.114-.313 1.114a.232.232 0 00.044.22.26.26 0 00.206.1h4.048a.27.27 0 00.206-.096.249.249 0 00.043-.216l-.265-.983a.156.156 0 00-.02-.074l-.123-.459h.147a.251.251 0 00.246-.324c0-.011-.322-1.01-.63-2.155-.187-.71-.266-1.5-.33-2.132-.012-.135-.028-.262-.04-.382.076-.25.19-.547.31-.856.27-.698.575-1.488.594-2.16l.024-.963c.024-.787.091-3.12.524-4.858.74.015 1.38-.043 1.895-.17.123-.03.233-.058.349-.085.372.525.999 1.057 1.51 1.357.432 1.496 1.32 5.036.971 7.785-.055.44-.134.81-.226 1.107-.34.694-.678 1.442-.904 1.943-.261.586-.44.995-.44.995a.249.249 0 00.024.235c.048.07.127.112.214.112h2.74c.32 0 .606-.123.8-.347.199-.231.274-.532.219-.852l-.159-.872.1-.535a.576.576 0 00.34-.135.522.522 0 00.15-.579l-.11-.45c0-.186 0-1.23.035-2.511.04-1.454.108-2.653.195-3.574.202 0 .38-.116.46-.297.071-.162.146-.367.19-.594.055.208.135.4.234.567a.44.44 0 00.42.22.444.444 0 00.393-.27c.174-.42.17-.868.134-1.176.088-.047.175-.097.262-.147.258.763.535 1.446.73 1.9.586 1.37.915 3.313.765 4.524-.143 1.13-.008 2.791.02 3.085l-.52 1.974a.254.254 0 00.25.312h3.366a.27.27 0 00.19-.081.254.254 0 00.068-.189s-.036-.44-.111-1.049c-.207-1.584-.468-2.672-.777-3.23-.571-1.038-1.198-4.4-.837-6.004.226-.995.206-3.764.178-6.972-.02-2.294-.035-4.665.036-6.57 0 0 .214-7.172.214-7.346 0-.72-.162-1.43-.48-2.12.5.624.829 1.604.98 2.98.162 1.496.154 5.792.15 8.36v1.01c-.48.783-.408 1.176-.313 1.724.063.362.143.81.083 1.511-.154 1.808.536 2.24.567 2.256a.133.133 0 00.052.015.11.11 0 00.06-.02.092.092 0 00.035-.1c0-.01-.27-1.025.531-2.085.825-1.096-.21-2.815-.353-3.035l-.008-.011zM32.245 25.902l-.011-.02c.388-.316.923.02.903.56a.792.792 0 01-.424.061.301.301 0 00.131-.258c0-.154-.103-.281-.226-.281-.115 0-.206.104-.222.242l-.155-.304h.004zm.056-2.63l-.424.837c-.123 0-.56.023-.904.189a1.65 1.65 0 01-1.126.123c-.71-.177-1.606-.543-1.836-1.303a.371.371 0 01.167-.413 1.23 1.23 0 01.658-.204c.408 0 .844.224 1.372.686.757.664 1.732.27 2.093.085zm8.56 2.63l-.151.297c-.02-.135-.111-.235-.222-.235-.127 0-.23.127-.23.285 0 .108.051.2.123.25a.81.81 0 01-.409-.065c-.02-.54.52-.875.904-.56l-.012.02-.004.008zm-.056-2.63c.36.185 1.336.579 2.093-.085.813-.717 1.423-.86 2.03-.482.143.09.21.259.167.413-.23.76-1.126 1.13-1.836 1.303a1.65 1.65 0 01-1.126-.123c-.345-.166-.781-.19-.904-.19l-.424-.836zm-3.303 12.59c-.555.12-.428-.456-.317-.74.115-.286-.13-.22 0-.498.131-.278.484-.463 0-.463-.483 0-.313.463-.606.436-.012 0-.02-.004-.028-.004s-.016.004-.028.004c-.293.027-.123-.436-.606-.436-.484 0-.131.185 0 .463.13.277-.115.212 0 .497.11.285.237.86-.318.74-.475-.104-.293.217-.043.552a7.057 7.057 0 01-.27.015c-.103-.146-.242-.297-.384-.459-.298-.327-.63-.697-.643-1.017-.016-.482.115-1.088.337-1.223.04-.023.104-.046.21.012.314.166.532-.008.706-.143.19-.15.321-.239.54-.127a.77.77 0 00.499.077.78.78 0 00.5-.077c.221-.116.348-.027.543.127.174.139.388.309.705.143.107-.058.175-.035.21-.012.222.135.353.74.337 1.223-.011.32-.344.694-.642 1.017a5.21 5.21 0 00-.384.46c-.084 0-.17-.008-.27-.016.246-.335.432-.656-.044-.551h-.004zm-3.052 3.817c-.964-1.118-1.891-3.702-1.717-5.927a.095.095 0 01.107-.088c.056.004.095.05.091.104-.17 2.178.734 4.7 1.673 5.787.928 1.08.69 2.83.682 2.908a.098.098 0 01-.099.085h-.012a.096.096 0 01-.083-.108c0-.016.234-1.743-.634-2.757l-.008-.004zm2.723-.71c-.008.027-.016.05-.023.078-.31.111-.58.127-.944-.401 0-.004-.008-.012-.012-.016-.02-.02-.044-.023-.071-.023a10.311 10.311 0 00-.103-1.48c.146 0 .293 0 .436-.009h.091c.139 0 .297.004.452.004.373 0 .757-.011 1.05-.111-.356.694-.725 1.48-.88 1.954l.004.004zm7.636-10.518c1.487-.07 2.775-.255 3.45-.49a.1.1 0 01.126.058c.02.05-.008.104-.06.123-.693.243-2.001.432-3.508.501h-.004a.099.099 0 01-.099-.092.1.1 0 01.095-.1zm-5.717-7.535c.424.205.754.417.987.586-.38.193-.61.698-.618.725-.004.012-.008.023-.008.039 0 .42.357 1.045.733 1.704.123.216.246.432.357.644 0 .17-.023.601-.214.736-.266.19-.63.448-.658 1.115 0 .02.004.038.016.054.127.204.452.316.563.343.051.077.067.382.051.779-.123 1.538-.828 4.006-1.082 5.884-.055-.397-.123-.798-.452-1.018-.5-.335-.432-1.164-.404-1.48.016-.159-.028-.248-.064-.325-.047-.104-.099-.216-.031-.574.015-.089.04-.185.059-.29.135-.655.321-1.55.167-1.993-.155-.44.015-.995.23-1.372.273-.479.023-1.23-.151-1.635-.095-.228-.044-.51.139-.733.233-.29.614-.416 1.05-.35a.094.094 0 00.103-.055.092.092 0 00-.023-.112c-.615-.54-.992-1.272-.86-1.67.063-.184.237-.292.519-.323a.096.096 0 00.087-.077.098.098 0 00-.048-.104 1.656 1.656 0 01-.638-.586l.198.088h-.008zm-5.518.498c-.04.019-.056.061-.048.104a.096.096 0 00.087.077c.282.027.456.139.52.324.134.397-.246 1.13-.86 1.67a.092.092 0 00-.025.111c.02.039.06.062.104.054.436-.065.816.066 1.046.351.182.224.234.505.139.733-.175.404-.424 1.156-.15 1.634.213.375.388.934.23 1.373-.155.44.03 1.338.166 1.99.02.104.043.2.06.289.067.359.015.467-.033.575-.035.077-.079.165-.063.327.028.313.095 1.142-.404 1.477-.33.22-.4.62-.452 1.018-.147-1.08-.44-2.352-.69-3.536v-.008c-.179-.84-.33-1.63-.389-2.27-.02-.475.004-.78.048-.849.11-.027.436-.135.563-.34a.087.087 0 00.016-.053c-.024-.667-.389-.926-.674-1.126-.155-.108-.202-.494-.199-.721.111-.212.234-.428.357-.644.377-.66.734-1.284.734-1.704 0-.012 0-.027-.008-.039-.012-.023-.238-.532-.619-.725.234-.17.563-.381.988-.586.063-.03.13-.058.194-.089a1.63 1.63 0 01-.639.587v-.004zM31.23 50.232s-.02.004-.028.004a.097.097 0 01-.095-.07c-.345-1.129-.754-2.706-.726-3.797 0-.054.036-.089.103-.093.056 0 .1.046.095.1-.02.841.226 2.137.718 3.737.016.05-.016.104-.067.12zm3.786 14.363c-.357.37-.516.964-.448 1.597a1.293 1.293 0 00-.575-.131c-.345.007-.686.154-.987.424a.562.562 0 00-.199-.401c-.214-.19-.543-.255-.931-.197.57-1.01.971-2.04 1.209-3.139a4.62 4.62 0 00.06-.308c.063-.058.11-.077.142-.081.115-.012.25.177.385.358.19.259.4.548.725.579h.056c.123 0 .25-.042.38-.12.048.185.1.359.143.51.167.54.206.728.032.905l.008.004zm.138-11.413c-.804-.721-.888-2.614-1.574-3.03-.808-.494-1.673-1.701-1.66-3.621-1.11-.899-2.034-2.692-2.32-4.473a8.55 8.55 0 01.166-1.462c.04-.192.08-.381.12-.559.102-.466.19-.867.198-1.226.008-.37.194-1.11.503-2.043-.206.925-.309 1.661-.297 2.035.016.471-.115 1.06-.21 1.747-.02 2.194 1.26 4.824 2.755 5.98.916.579 1.106.244 1.273-.238.273.447.642.894.983 1.33.012.15.032.308.06.474.035.208.067.397.09.579.123.87.282 2.348.647 3.443a2.722 2.722 0 00-.73 1.06l-.004.004zm8.31 12.485a.25.25 0 00-.246.312v.016c-.238-.127-.5-.2-.749-.2h-.008c-.329 0-.614.115-.844.335a1.272 1.272 0 00-.758-.17c-.06.008-.13.02-.202.043a42.31 42.31 0 00.405-1.732c.008-.042.011-.084.02-.127.598-.393.995-.293 1.347-.197.218.058.44.12.678.031.19.694.377 1.323.488 1.685h-.13v.004zm.182-9.558c-.487-.768-1.887 1.345-2.973.871v-.154a2.41 2.41 0 01.111-.675c.353-1.138.42-2.229.504-3.605l.063-1.01c.036-.47.052-.964.052-1.462v-.756c0-2.209 0-3.666-.682-4.858a.256.256 0 00-.314-.112.25.25 0 00-.166.282c.416 2.136-.044 3.462-.583 4.4-.222-.32-.444-.64-.785-.706-.856-.166-1.55-1.115-1.728-3.139.035-.247.067-.497.083-.767a6.853 6.853 0 000-.806c-.08-1.288-.115-2.803.44-4.488.206-.629.844-1.928 1.277-2.665v-.004a1.21 1.21 0 00.348-.354c.278-.428.341-1.06.167-1.693.024-.347.063-.725.11-1.118 2.855-2.711 6.887-1.87 6.003.89-.9 2.819 1.186-1.461 2.363.236 1.178 1.696.127-.702.35-2.55.221-1.842 1.676-4.04 3.206-1.834 1.53 2.205 3.759 6.967 3.08 3.57-.626-3.142 1.77-2.005 2.919.821 0 .17-.103 4.315-.111 4.465-.571.29-1.804-.142-1.194 1.662.167.494.246.868.246 1.153 0 1.041-1.062.93-2.878 1.42-2.315.628 1.102 1.773-1.443 5-.722.914-1.079 1.207-1.293 1.207-.55 0-.198-1.87-2.533-.235-1.986 1.392-2.05.2-2.073-.872.008-.019.02-.038.023-.061.607-4.026-.146-9.358-.646-10.284a.258.258 0 00-.313-.12.25.25 0 00-.17.282c.602 3.17.245 7.21-.155 10.045-.131.913-.258 1.638-.33 2.07l-.039.231c-.063.378-.254 1.111-.392 1.631-.35 1.296-.484 2.946-.544 4.092zm11.997-.301c-.04 0-.079-.023-.09-.062a6.7 6.7 0 00-.167-.366c-.361-.768-1.106-2.364-1.17-3.91a.1.1 0 01.095-.1c.06 0 .1.038.103.092.064 1.508.797 3.081 1.154 3.837.075.166.135.293.17.378a.093.093 0 01-.055.123.117.117 0 01-.036.008h-.004zm-1.538-7.986c.515-.601.987-1.264 1.404-1.978a.1.1 0 01.134-.034.094.094 0 01.036.13c-.42.722-.9 1.397-1.423 2.006a.099.099 0 01-.139.011.092.092 0 01-.012-.135zm-5.174 6.3a.096.096 0 01.076-.115c.055-.011.107.02.119.073.114.47.5 2.117.685 3.66.008.054-.031.1-.087.108h-.012a.1.1 0 01-.099-.085c-.186-1.527-.57-3.17-.682-3.636v-.004zm2.791 8.368s-.047.015-.09-.008a.267.267 0 00-.23 0 .24.24 0 00-.136.181l-.15.83a.33.33 0 000 .088l.103.563c-.797-.378-1.368.05-1.566.24-.12-.109-.369-.298-.67-.313-.032 0-.064 0-.1.008.207-.46.465-1.022.734-1.57.111-.358.198-.76.258-1.226.083-.648.095-1.334.067-2.028.555-1.053 1.328-1.689 1.72-.906a64.04 64.04 0 00-.03.968c-.037 1.41-.037 2.54-.037 2.552 0 .02 0 .039.008.058l.123.505s.016.05 0 .062l-.004-.004zm2.3-8.784c-.08.047-.159.09-.242.124a.24.24 0 00-.143.27c.032.17.084.578-.032.96a1.945 1.945 0 01-.178-.775.245.245 0 00-.099-.19c-.06-.045-.139-.06-.214-.045a2.278 2.278 0 01-.357.05.26.26 0 00-.178.084.258.258 0 00-.064.186c.024.293-.075.609-.166.84-.103-.316-.147-.651-.107-.852a.244.244 0 00-.044-.193.272.272 0 00-.17-.104 3.16 3.16 0 01-.46-.104c-1.154-.343-1.74-1.191-2.026-1.847a1.376 1.376 0 00-.313-.443c.083-.035.17-.062.253-.097a12.744 12.744 0 002.875-1.63c.388-.29.757-.598 1.098-.926.384.528.369 1.099.353 1.912v.178c-.016.578.143 1.403.464 2.448-.084.054-.167.108-.25.154zm4.599 10.469a.834.834 0 00-.436-.093c-.187.016-.44.108-.674.444a1.06 1.06 0 00-.496-.474.958.958 0 00-.646-.054l.091-.347a.307.307 0 00.008-.085c0-.02-.17-1.859-.024-3.023.075-.594.04-1.33-.071-2.094.277-.493.27-.763.765.181.194 1.215.515 2.348.82 2.911.179.32.429 1.038.663 2.638v-.004zM35.639 35.287c-.02.07-.087.212-.34.212-.033 0-.068 0-.108-.008-.17-.023-.278-.069-.329-.142-.06-.081-.04-.181-.02-.278.02-.104.044-.208-.02-.308-.138-.22-.265-.725-.154-.806.016-.012.063-.035.123.03.13.151.174.282.214.386.047.139.083.232.281.316.246.1.416.386.357.598h-.004zm2.169.212c-.254 0-.325-.143-.341-.212-.06-.212.11-.497.357-.598.198-.08.23-.173.281-.316.036-.104.083-.235.214-.385.06-.066.107-.043.123-.031.107.077 0 .563-.155.806-.063.1-.04.204-.02.308.02.096.04.197-.02.278-.05.073-.158.115-.328.142-.04.004-.076.008-.107.008h-.004zm12.758 7.546c.127-.898.186-1.808.178-2.715 0-.906-.071-1.812-.194-2.714-.06-.451-.147-.898-.246-1.346l-.159-.667c-.067-.22-.13-.44-.19-.663.424.825.702 1.72.896 2.626.194.906.282 1.835.294 2.764 0 .93-.076 1.859-.274 2.769-.198.906-.496 1.805-.995 2.591.166-.432.329-.86.428-1.307.06-.22.115-.44.155-.663.047-.224.083-.447.115-.671l-.008-.004zm.515-6.235a17.499 17.499 0 00-.634-2.468c.214.374.38.772.543 1.172.15.405.273.818.388 1.234.222.837.337 1.693.389 2.553.04.86.012 1.727-.127 2.58-.139.848-.36 1.696-.757 2.463.119-.412.222-.825.285-1.245.076-.416.135-.837.167-1.257.067-.84.083-1.685.035-2.526-.04-.84-.142-1.68-.289-2.514v.008zm.523-.798a18.481 18.481 0 00-.67-2.264c.833 1.37 1.27 2.954 1.448 4.539.162 1.585.067 3.227-.492 4.723.13-.782.186-1.565.206-2.348a19.145 19.145 0 00-.107-2.337 19.09 19.09 0 00-.385-2.31v-.003zm1.007 1.322a19.861 19.861 0 00-1.185-4.183c.837 1.23 1.32 2.668 1.574 4.122.246 1.457.254 2.965-.1 4.395a21.933 21.933 0 00-.289-4.334zm.623-.979a21.268 21.268 0 00-1.32-3.806c.84 1.092 1.371 2.391 1.704 3.714.322 1.326.448 2.706.29 4.06-.155-1.35-.349-2.672-.674-3.972v.004zm.317 17.209a.1.1 0 01-.063.123c-.306.1-.603.143-.889.143-1.439 0-2.592-1.107-2.905-1.897a.096.096 0 01.055-.124.1.1 0 01.127.054c.285.729 1.713 2.237 3.544 1.643a.105.105 0 01.127.062l.004-.004zm-11.723-2.472a18.394 18.394 0 01-.325 4.415c-.008.046-.052.077-.1.077h-.02c-.055-.011-.09-.062-.079-.112.199-1.021.417-2.61.322-4.368 0-.054.04-.1.095-.1a.095.095 0 01.103.092l.004-.004z" fill="#fff"/></svg>