<svg width="96" height="63" fill="none" xmlns="http://www.w3.org/2000/svg"><path d="M24.98 8.43c-3.17.58-2.86 2.54-2.65 3.83.1.6.21 1.28.17 2.12 0 .08 0 .15-.01.22-.06-.04-.13-.07-.19-.11-.45-.26-1.01-.58-1.67-.87-.72-.32-1.35-.48-1.92-.48-2.82 0-3.32 3.46-3.73 6.24-.06.41-.12.71-.18.94-.18-.18-.37-.38-.52-.54-.26-.27-.52-.55-.8-.81-.62-.58-1.23-.7-1.64-.7-.44 0-1.08.14-1.69.79-1.12 1.21-1.5 3.52-1.37 5.17.03.34 0 .42-.86.91-.84.48-2.36 1.36-2.02 3.46H2.29c-.63 0-1.21.26-1.62.67-.41.42-.67.99-.67 1.63 0 1.27 1.02 2.3 2.29 2.3h3.62c0 6.8 3.76 14.05 10.07 19.39 5.38 4.56 15.25 9.99 31.7 9.99s26.32-5.43 31.7-9.99C85.68 47.25 89.44 40 89.44 33.2h3.62c.64 0 1.21-.26 1.63-.67.41-.42.67-.99.67-1.63a2.3 2.3 0 00-2.3-2.3h-4.75c.55-2.72-1.19-4.5-3.04-6.02.45-.23.87-.59 1.13-1.18.68-1.56-.12-2.46-.6-3-.34-.38-.65-.74-.86-1.5-.35-1.33-1.03-2.01-2.02-2.01-.62 0-1.13.31-1.57.59-.35.22-.71.44-1.04.47-.13 0-.26.02-.38.02-.79 0-1.2-.15-2.68-1.87-.72-.83-1.29-1.42-1.84-1.99-.74-.76-1.43-1.48-2.4-2.69-.64-.81-1.45-1.63-2.63-1.63-.96 0-1.73.55-2.7 1.24-.42.3-.89.63-1.45.99-.78.49-1.16.55-1.29.55-.22 0-.46-.31-.93-.96-.19-.26-.4-.56-.64-.85-1.22-1.46-2.49-2.97-5.25-3.74-.27-.08-.54-.11-.8-.11-1.82 0-2.5 1.72-2.96 2.85-.15.39-.36.92-.57 1.23-.15-.72-.17-2.01-.18-2.7 0-.49-.01-.96-.04-1.38-.13-2.05-1.44-2.4-2.39-2.65-.69-.18-1.56-.41-2.75-1.26-.99-.7-1.69-1-2.34-1-1.87 0-1.97 2.01-2.02 3.09-.03.59-.06 1.26-.21 1.83-.07.26-.14.35-.16.37h-.06c-.43 0-1.39-.41-2.81-1.56-.59-.48-1.32-.97-2.21-.97-.68 0-1.21.27-1.76.56-.64.34-1.45.75-2.95 1.03-3.04.57-3.69 1.65-4.21 2.99-.19.5-.36.93-.9 1.43-.19.18-.33.28-.42.34-.03-.02-.07-.04-.1-.06-.43-.26-1.15-.71-2.32-.71-.31 0-.64.03-.98.09zm22.7 52.85c-2.77 0-5.37-.16-7.83-.45-.37-.11-.73-.23-1.08-.35h2.15c2.97-.04 5.93-.13 8.89-.3 2.96-.19 5.92-.39 8.84-.93-2.94.37-5.9.42-8.85.44-2.95 0-5.91-.07-8.86-.2-1.86-.09-3.72-.21-5.58-.34-.65-.29-1.29-.6-1.9-.93 2.19.09 4.37.13 6.56.14 3.43 0 6.86-.09 10.27-.29 3.41-.23 6.85-.48 10.19-1.24-3.37.59-6.8.67-10.2.74-3.41.04-6.82-.04-10.23-.21-3.12-.16-6.24-.4-9.34-.74-.58-.37-1.13-.75-1.67-1.14 3.28.19 6.57.3 9.85.32 3.93.02 7.85-.06 11.77-.25 3.91-.23 7.85-.45 11.7-1.21-3.88.59-7.8.64-11.71.71-3.91.03-7.83-.06-11.73-.25-3.9-.19-7.8-.48-11.68-.91l-.28-.03c-.38-.32-.75-.65-1.12-.98h.07c4.27.26 8.54.37 12.81.39 4.27.02 8.53-.06 12.79-.26 4.25-.22 8.53-.43 12.73-1.16-4.22.56-8.49.6-12.74.66-4.25.03-8.51-.06-12.76-.24s-8.49-.46-12.71-.89c-.64-.06-1.27-.14-1.91-.21-.28-.3-.56-.6-.82-.9.36.02.72.05 1.08.07 4.65.26 9.29.38 13.94.39 4.64.02 9.29-.07 13.92-.25 4.63-.22 9.28-.42 13.87-1.11-4.61.53-9.25.56-13.88.61-4.63.02-9.27-.06-13.89-.25-4.63-.18-9.25-.46-13.85-.89-.86-.08-1.73-.17-2.59-.27l-.66-.87c.63.04 1.26.08 1.9.11 4.99.26 9.98.36 14.97.38 4.99.01 9.98-.07 14.96-.26 4.98-.21 9.97-.41 14.91-1.07-4.96.49-9.95.52-14.92.57-4.98.02-9.96-.07-14.93-.24-4.97-.18-9.94-.45-14.89-.87-1.05-.09-2.09-.19-3.13-.29-.18-.28-.35-.55-.51-.83 1.26.07 2.51.13 3.77.19 5.17.22 10.35.3 15.52.29 5.17 0 10.34-.1 15.5-.28 5.16-.21 10.33-.4 15.46-1.01-5.15.44-10.31.47-15.47.51-5.16.02-10.32-.06-15.48-.22s-10.31-.4-15.45-.79c-1.61-.12-3.21-.26-4.82-.41-.14-.26-.26-.52-.39-.79 1.59.08 3.17.16 4.76.21 5.42.19 10.84.26 16.26.25 5.42-.02 10.83-.12 16.25-.3 5.41-.2 10.83-.4 16.21-.96-5.4.39-10.81.42-16.22.46-5.41.01-10.82-.06-16.22-.2-5.41-.15-10.81-.39-16.2-.75-1.87-.12-3.74-.27-5.6-.43-.1-.26-.21-.51-.3-.77 1.91.09 3.83.16 5.74.22 5.64.16 11.28.22 16.91.19 5.63-.03 11.27-.13 16.9-.31 5.63-.2 11.26-.39 16.87-.9-5.62.35-11.25.38-16.88.4-5.63 0-11.25-.05-16.88-.19-5.62-.14-11.24-.36-16.85-.69-2.13-.13-4.26-.28-6.38-.44-.08-.26-.15-.52-.22-.78 1.8.07 3.6.14 5.4.19 5.97.16 11.94.21 17.91.19 5.97-.03 11.93-.13 17.9-.31 5.96-.19 11.93-.38 17.87-.86-5.96.31-11.92.34-17.88.36-5.96 0-11.92-.05-17.88-.19-5.96-.14-11.91-.36-17.86-.69-1.95-.11-3.9-.24-5.85-.37l-.06-.35c5.23.08 29.31.04 29.31.04 4.54-.1 9.09-.11 13.63-.3l13.63-.47c4.54-.28 9.09-.45 13.63-.83.05 0 .1-.05.1-.1 0-.06-.04-.1-.1-.1l-70.4-.07c-.01-.21-.02-.42-.02-.62h72.44c0 11.61-12.12 28.08-40.46 28.08l-.02-.02zM94.06 30.9c0 .34-.16.58-.28.7-.14.14-.38.3-.72.3H36.63c-.56-.61-.49-1.43-.21-2h56.64c.55 0 1 .45 1 1zM28.37 10.46c.32 0 .71-.19 1.31-.75 2.04-1.92.38-3.32 4.46-4.09 2.87-.53 3.59-1.57 4.48-1.57.38 0 .78.19 1.39.68 1.23 1 2.6 1.85 3.63 1.85.69 0 1.22-.38 1.48-1.34.48-1.83-.05-3.95.97-3.95.33 0 .83.23 1.59.76 3.06 2.17 4.46.89 4.59 2.93.12 1.9-.2 5.56 1.28 5.56.11 0 .24-.02.38-.07 1.78-.59 1.57-4.28 3.38-4.28.14 0 .28.02.45.07 2.3.64 3.32 1.79 4.6 3.32.89 1.07 1.38 2.28 2.58 2.28.51 0 1.14-.22 1.98-.75 1.77-1.12 2.64-2.03 3.46-2.03.49 0 .97.33 1.61 1.14 1.73 2.17 2.62 2.81 4.28 4.72 1.5 1.74 2.26 2.32 3.67 2.32.15 0 .31 0 .47-.02 1.14-.09 1.93-1.05 2.52-1.05.31 0 .55.26.76 1.05.62 2.3 2.16 2.17 1.52 3.64-.64 1.46-3.92.18-1.52 2.1 2.41 1.92 3.9 3.32 3.29 5.62H7.21c-.64-2.68 3.06-1.92 2.87-4.47-.16-2.11.64-4.57 1.77-4.57.24 0 .49.11.75.36.88.82 1.77 2.07 2.49 2.07.5 0 .92-.61 1.18-2.42.5-3.44 1.01-5.13 2.44-5.13.39 0 .84.12 1.39.37 1.44.65 2.4 1.43 2.98 1.43.45 0 .67-.46.72-1.8.13-3.07-1.4-4.22 1.41-4.73.28-.05.53-.07.75-.07 1.36 0 1.74.82 2.41.82zm-1.97 9.11c1.05.73 2.14 1.49 2.88 1.24.7-.23 1.08.05 1.25.23.51.58.27 1.66-.12 2.47-.52 1.08-1.56 2.21-2.93 2.21h-.12a.449.449 0 01-.43-.47c.01-.25.22-.44.47-.43 1.01.04 1.8-.89 2.2-1.7.39-.8.35-1.37.25-1.49-.02-.02-.11-.03-.29.02-1.17.39-2.45-.5-3.68-1.35-1.24-.86-2.41-1.68-3.25-1.16-.37.23-.75.44-1.11.65-1.62.9-3.02 1.68-3.8 4.33-.07.24-.32.37-.56.3a.447.447 0 01-.3-.56c.89-3 2.59-3.95 4.23-4.87.35-.2.71-.4 1.07-.62 1.34-.83 2.88.24 4.24 1.19v.01zm29.25 4.18c1.72.44 3.68.94 3.58 2.42-.02.25-.24.43-.48.42a.449.449 0 01-.42-.48c.05-.73-1.59-1.15-2.91-1.49-1.53-.39-2.97-.76-3.21-1.75-.06-.25-.24-.43-.56-.55-1.03-.4-3.03-.02-4.28.82-1.96 1.31-2.55 1.31-4.9.02-.66-.36-1.62-.71-2.44-.31-.85.42-1.46 1.58-1.75 3.36l-.17 1.07-.64-.87c-.47-.64-1.65-1.11-2.81-1.12-.68-.02-1.85.14-2.59 1.12-.15.2-.43.24-.63.09a.448.448 0 01-.09-.63c.72-.96 1.88-1.48 3.28-1.48h.04c1.09 0 2.15.34 2.89.86.39-1.65 1.09-2.73 2.08-3.21.93-.45 2.06-.34 3.27.33 2.04 1.13 2.3 1.13 3.96.02 1.51-1.01 3.8-1.42 5.11-.91.6.23.98.64 1.11 1.18.11.46 1.52.82 2.55 1.09h.01zm-22.57-1.9c-.94-2.94-.98-4.61-.14-5.26.48-.37 1.16-.34 2.03.07.09-1.28.78-2.33 1.96-2.95 1.1-.58 2.44-.65 3.18-.2.14-.44.37-1.18 1.14-1.55.77-.37 1.89-.27 3.4.33 1.92.76 3.54.79 4.72.81 1.08.02 1.93.04 2.45.62.38.43.5 1.08.39 2.1-.17 1.64.51 1.85 1.16 2.06.35.11.74.24.86.64.12.41-.15.85-.59 1.36-.16.19-.45.21-.63.05a.445.445 0 01-.05-.63c.21-.25.31-.41.36-.49-.07-.02-.15-.05-.22-.07-.71-.23-2.02-.65-1.78-3.01.08-.73.02-1.2-.17-1.41-.25-.28-.93-.3-1.79-.31-1.25-.02-2.96-.06-5.03-.88-1.23-.49-2.16-.61-2.68-.36-.42.2-.55.63-.67 1.01-.1.33-.21.67-.56.77-.34.1-.61-.14-.7-.22-.32-.28-1.37-.34-2.36.18-.63.33-1.66 1.15-1.46 2.88l.11.94-.8-.51c-.81-.52-1.45-.71-1.71-.52-.12.1-.68.75.44 4.27.08.24-.05.49-.29.57-.05.01-.09.02-.14.02a.45.45 0 01-.43-.31zm23.01-.15a.456.456 0 01-.04-.64c1.34-1.52 2.74-.82 3.86-.26 1.05.53 1.95.98 2.97.2.56-.43 1.04-.58 1.49-.47.69.17 1.04.9 1.37 1.61.59 1.26.93 1.74 1.93 1.31 2.64-1.14 4.85 1.3 5.65 2.75.12.22.04.49-.18.61-.07.04-.14.06-.22.06-.16 0-.31-.08-.39-.23-.08-.14-1.95-3.46-4.5-2.36-1.89.81-2.62-.73-3.1-1.75-.23-.49-.49-1.05-.77-1.12-.16-.04-.42.07-.73.31-1.47 1.13-2.83.44-3.93-.11-1.21-.61-1.94-.91-2.78.05-.16.19-.45.21-.64.04h.01zm3.58-6.57c1.31-1.02 3.94-.02 5.07.41.42.16.87.01 1.44-.17 1.05-.34 2.48-.8 4.32.23 4.4 2.47 4.97 3.59 5.02 4.22.02.28-.07.53-.26.74.14.06.32.13.46.18.69.27 1.48.57 1.62 1.23.08.39-.08.79-.48 1.19-.2.2-.22.3-.22.3.1.08.75.22 1.14.3.78.17 1.51.33 1.8.82.12.21.15.45.08.7a.46.46 0 01-.43.32c-.04 0-.09 0-.13-.02a.447.447 0 01-.3-.56c-.09-.14-.82-.29-1.2-.38-.84-.18-1.64-.35-1.82-.97-.16-.54.3-1 .45-1.15.22-.22.25-.34.24-.37-.04-.19-.76-.46-1.06-.58-.6-.23-1.11-.43-1.18-.89-.03-.18.01-.45.35-.71.07-.05.06-.08.06-.1-.01-.16-.29-1.1-4.56-3.5-1.49-.84-2.61-.47-3.6-.16-.68.22-1.32.43-1.96.19-.89-.34-3.37-1.28-4.28-.57-.3.24-.42.69-.35 1.35a.45.45 0 01-.4.5.458.458 0 01-.5-.4c-.11-.99.12-1.72.69-2.16l-.01.01zM28.1 17.37c-.47-1.51-.4-2.7.21-3.53.62-.84 1.77-1.27 3.41-1.27.25 0 .45.2.45.45s-.2.45-.45.45c-1.34 0-2.24.3-2.69.9-.43.58-.46 1.5-.08 2.73a.447.447 0 01-.43.58c-.19 0-.37-.12-.43-.32l.01.01zm9.69-6.49c.17-.8.44-1.29.85-1.54.48-.3 1.01-.15 1.47-.03.66.18 1.05.25 1.48-.28 1.13-1.41 4.01-.74 5.52-.12.72.3 2.4 1.09 2.3 2.1-.03.25-.25.42-.49.4a.441.441 0 01-.4-.49c-.01-.22-.84-.91-2.38-1.41-1.77-.58-3.35-.54-3.85.08-.82 1.02-1.78.76-2.41.59-.33-.09-.61-.16-.77-.07-.1.06-.28.26-.43.96-.05.21-.23.35-.44.35-.03 0-.06 0-.1-.01a.444.444 0 01-.34-.54l-.01.01zM24.44 23.05a.96.96 0 11-1.92 0 .96.96 0 011.92 0zM48.64 18c-.46 0-.83-.37-.83-.83 0-.46.37-.83.83-.83.46 0 .83.37.83.83 0 .46-.37.83-.83.83zm9.89-8.49c0-.46.37-.83.83-.83.46 0 .83.37.83.83 0 .46-.37.83-.83.83-.46 0-.83-.37-.83-.83zM39.96 19.79c-.46 0-.83-.37-.83-.83 0-.46.37-.83.83-.83.46 0 .83.37.83.83 0 .46-.37.83-.83.83zm30.31-1.21a1.34 1.34 0 11-2.68 0 1.34 1.34 0 012.68 0zm-54.76 7.47a1.15 1.15 0 11-2.3 0 1.15 1.15 0 012.3 0zm66.13-.07c0-.67.54-1.21 1.21-1.21.67 0 1.21.54 1.21 1.21 0 .67-.54 1.21-1.21 1.21-.67 0-1.21-.54-1.21-1.21zm-2.17-6.51c0-.18.14-.32.32-.32s.32.14.32.32-.14.32-.32.32-.32-.14-.32-.32zm-8.05-6.19c0-.35.29-.64.64-.64.35 0 .64.29.64.64 0 .35-.29.64-.64.64-.35 0-.64-.29-.64-.64zm-.61 42.02a.254.254 0 01.11-.34c11.43-5.92 14.99-13.93 15.96-19.6.02-.14.15-.23.29-.2.14.02.23.15.2.29-.99 5.79-4.61 13.95-16.22 19.96-.04.02-.08.03-.12.03-.09 0-.18-.05-.22-.13v-.01z" fill="#164194"/></svg>