<svg width="85" height="79" fill="none" xmlns="http://www.w3.org/2000/svg"><path d="M62.623 55.618H59.47v8.618h3.154v-8.618zm-.6 4.034v.563H60.07v-.563h1.954zm-1.954-.603v-.563h1.954v.563H60.07zm1.954 1.77v.562H60.07v-.563h1.954zm0-2.936H60.07v-.563h1.954v.563zm-1.954 4.095h1.954v.563H60.07v-.563zm1.954-5.757v.496H60.07v-.496h1.954zM60.07 63.64v-.496h1.954v.496H60.07zm-37.692.603h3.154v-8.619h-3.154v8.619zm.6-4.035v-.563h1.954v.563h-1.954zm1.954.61v.563h-1.954v-.563h1.954zm-1.954-1.77v-.562h1.954v.563h-1.954zm0 2.93h1.954v.563h-1.954v-.563zm1.954-4.095h-1.954v-.563h1.954v.563zm-1.954 5.757v-.496h1.954v.496h-1.954zm1.954-7.42v.497h-1.954v-.496h1.954zm36.325 18.612h3.154v-8.619h-3.154v8.619zm.6-4.035v-.563h1.954v.563h-1.954zm1.954.603v.563h-1.954V71.4h1.954zm-1.954-1.769v-.563h1.954v.563h-1.954zm0 2.935h1.954v.563h-1.954v-.563zm1.954-4.094h-1.954v-.563h1.954v.563zm-1.954 5.75v-.496h1.954v.496h-1.954zm1.954-7.412v.495h-1.954v-.495h1.954zm-40.066-.604H20.59v8.619h3.154v-8.619zm-.6 4.028v.563H21.19v-.563h1.954zm-1.954-.603v-.563h1.954v.563H21.19zm1.954 1.77v.562H21.19V71.4h1.954zm0-2.93H21.19v-.562h1.954v.563zm-1.954 4.095h1.954v.563H21.19v-.563zm1.954-5.756v.495H21.19v-.495h1.954zm-1.954 7.412v-.496h1.954v.496H21.19zm-2.2-20.668L0 66.052v1.816l1.634-1.078V79h81.732V66.79L85 67.868v-1.816L66.01 53.553V44.54l1.674 1.561v-2.104l-15.59-14.563a.4.4 0 00.034-.154V13.745h1.834L42.5 0 31.038 13.745h1.834V29.28c0 .053.013.107.033.154L17.316 43.997V46.1l1.674-1.561v9.014zM2.5 66.743l15.283-10.06-.467 21.452H2.5V66.743zm47.468-10.026c.093 0 .166.074.166.167a.165.165 0 01-.166.168h-14.87v20.815a.166.166 0 01-.166.168.166.166 0 01-.167-.168v-21.15h15.203zm1.027 11.198h5.014l-5.014 8.35v-8.35zm6.194-1.34h-5.014l5.014-8.35v8.35zm0 1.97v9.02h-5.414l5.414-9.02zm-6.194-2.6v-9.02h5.414l-5.414 9.02zm-18.163.63h-5.014v-8.35l5.014 8.35zm1.18 9.69l-5.014-8.35h5.014v8.35zm-6.194-7.72l5.414 9.02h-5.414v-9.02zm6.194-2.6l-5.414-9.02h5.414v9.02zm31.132 12.19h-6.708v-22.21a.248.248 0 00-.254-.247H26.811a.247.247 0 00-.247.248v22.21h-6.708V45.678h45.288v32.456zm17.356 0H67.964l-.46-21.257L82.5 66.749v11.386zm-62.61-34.44L42.5 22.571l22.61 21.124H19.883h.007zm25.457-20.567v-5.69l.294-.014-.294-.013v-1.32l2.84-.134-2.84-.134v-1.126l3.434-.134V26.33l-3.434-3.203zm-2.98-21.62l1.407 11.353H41.18l.053-2.078-.9 2.078h-.827L40.8 8.43l-2.347 4.43h-.634l3.16-6.695-4.413 6.695h-.447l5-8.197s-6.447 8.19-6.454 8.197h-.24l7.888-10.716-7.288 8.169 7.348-8.806h-.006zm6.134 11.36l-4.774-9.705 6.494 9.704h-1.72zm-2.314 0l-2.94-9.913 4.88 9.912h-1.94zm-.346 0h-1.727l-1.22-9.946 2.947 9.945zm-10.682 2.231l4.494-.174v.636l-4.494-.207v-.255zm0-1.22v-.14h4.494v.314l-4.494-.174zm0 5.576l4.494-.322v1.14l-4.494-.436v-.382zm0-1.126v-.322l4.494-.247v.89l-4.494-.32zm0-1.494v-.282l4.494-.207v.737l-4.494-.248zm4.827-.503l5.028-.234v1.286l-5.028-.281v-.77zm0-.75v-.67l5.028-.195v1.1l-5.028-.236zm0-1.515v-.329h5.028v.53l-5.028-.194v-.007zm-4.827 8.196l2.84-.436-2.84-.435v-.51l4.494-.435v1.83l-4.494 2.848v-2.862zm4.827-.2v-1.65l.56-.053-.56-.054v-1.193l3.107-.22-3.107-.222v-.931l5.028-.282v5.355L42.5 20.46l-2.514 1.595v.007zm5.361-7.788v-.543h3.434v.677l-3.434-.134zm5.268-1.408l-6.035-9.02 7.522 9.02h-1.487zm.646 15.783l-2.147-2.004v-12.09l1.62-.06-1.62-.06v-.69h2.147v14.91-.006zm19.837 31.645c0-.093.073-.167.16-.174a.18.18 0 01.173.161l.447 16.72a.175.175 0 01-.16.175.18.18 0 01-.173-.16l-.447-16.721zm-57.29.181l-.353 16.681c0 .094-.073.16-.166.16a.171.171 0 01-.167-.173l.353-16.681c0-.094.074-.16.167-.16a.17.17 0 01.167.173zM73.172 77.09V61.502c0-.094.074-.168.167-.168.094 0 .167.074.167.168V77.09a.166.166 0 01-.167.168.166.166 0 01-.166-.168zM11.855 61.67l-.02 15.447a.166.166 0 01-.167.167.166.166 0 01-.166-.167l.02-15.448c0-.093.073-.167.166-.167.094 0 .167.073.167.167zm62.87 15.413l.36-14.315c0-.093.08-.16.167-.16a.17.17 0 01.166.174l-.36 14.315c0 .094-.08.16-.166.16a.171.171 0 01-.167-.174zM9.922 63.103l.353 14.108a.175.175 0 01-.16.174.175.175 0 01-.173-.161l-.354-14.107c0-.094.074-.168.16-.174.107.006.167.073.174.16zm67.277 13.86V64.236c0-.094.073-.167.166-.167.094 0 .167.073.167.167v12.727a.166.166 0 01-.166.167.165.165 0 01-.167-.167zM7.8 64.323v12.78a.166.166 0 01-.166.168.166.166 0 01-.167-.168v-12.78c0-.094.073-.167.167-.167.093 0 .166.073.166.167zm73.22 12.901V66.635c0-.094.074-.167.167-.167.093 0 .167.073.167.167v10.589a.166.166 0 01-.167.168.165.165 0 01-.167-.168zM3.981 66.83v10.46a.165.165 0 01-.167.168.165.165 0 01-.167-.168V66.83c0-.094.074-.168.167-.168.093 0 .167.074.167.168zm17.369-1.481l-.04-18.819c0-.094.073-.167.167-.167.093 0 .166.073.166.167l.04 18.819a.165.165 0 01-.166.167.166.166 0 01-.167-.167zm3.74-.302l.254 12.445a.176.176 0 01-.167.174.164.164 0 01-.166-.16l-.254-12.446c0-.093.073-.167.167-.174.113 0 .167.074.167.161zm-2.767 10.488l-.04 1.97a.16.16 0 01-.166.161.171.171 0 01-.167-.174l.04-1.97c0-.094.08-.148.174-.161.093 0 .166.08.16.174zm1.007-20.748l-.053-8.17c0-.094.073-.167.167-.167.093 0 .166.073.166.167l.054 8.17a.165.165 0 01-.167.167.166.166 0 01-.167-.167zm4.014-8.176l.3 8.169a.17.17 0 01-.16.174.18.18 0 01-.173-.16l-.3-8.17a.17.17 0 01.16-.174c.1 0 .167.067.173.16zm2.427 0l.087 8.169a.165.165 0 01-.167.167.166.166 0 01-.166-.167l-.087-8.17c0-.093.073-.167.167-.167.086-.013.166.074.166.168zm2.3.013l-.38 8.17c0 .087-.08.16-.166.16h-.007c-.093 0-.16-.08-.16-.174l.38-8.17c0-.093.087-.167.174-.16.093 0 .16.08.16.174zm1.4-.007v8.17a.165.165 0 01-.166.167.166.166 0 01-.166-.167v-8.17c0-.094.073-.167.166-.167.094 0 .167.073.167.167zm4.408-.006l.087 8.169a.166.166 0 01-.167.167.165.165 0 01-.166-.167l-.087-8.17c0-.093.073-.167.167-.167.093 0 .166.074.166.168zm2.107.006v8.17a.166.166 0 01-.166.167.165.165 0 01-.167-.167v-8.17c0-.094.073-.167.167-.167.093 0 .166.073.166.167zm2.68 0l-.066 8.17a.165.165 0 01-.167.167.166.166 0 01-.166-.167l.066-8.17c0-.094.074-.167.167-.167.093 0 .167.073.167.167zm1.914 0v8.17a.165.165 0 01-.166.167.166.166 0 01-.167-.167v-8.17c0-.094.073-.167.167-.167.093 0 .166.073.166.167zm2.874 0v8.17a.165.165 0 01-.167.167.166.166 0 01-.166-.167v-8.17c0-.094.073-.167.166-.167.094 0 .167.073.167.167zm1.66-.006l.067 8.169a.165.165 0 01-.167.167.165.165 0 01-.166-.167l-.067-8.17c0-.093.073-.167.167-.167.093 0 .166.074.166.168zm2.748.006v8.17a.166.166 0 01-.167.167.165.165 0 01-.167-.167v-8.17c0-.094.073-.167.167-.167.093 0 .166.073.166.167zm2.393 0l-.12 8.17a.166.166 0 01-.166.167.17.17 0 01-.167-.167l.12-8.17c0-.094.073-.167.167-.167a.17.17 0 01.166.167zm1.52 0l-.02 8.17a.165.165 0 01-.166.167.166.166 0 01-.167-.167l.02-8.17c0-.094.073-.167.167-.167.093 0 .166.073.166.167zm1.58 0v8.17a.166.166 0 01-.166.167.165.165 0 01-.167-.167v-8.17c0-.094.074-.167.167-.167.093 0 .167.073.167.167zm4.035 8.163l.266-8.096c0-.094.08-.16.167-.16.093 0 .167.08.167.174l-.267 8.095c0 .094-.08.161-.167.161a.171.171 0 01-.166-.174zm2.073 10.703V46.53c0-.094.074-.167.167-.167.093 0 .167.073.167.167v18.953a.166.166 0 01-.167.167.166.166 0 01-.167-.167zm-2.96-.51l-.46 12.553c0 .087-.08.16-.167.16a.171.171 0 01-.167-.174l.46-12.552c0-.094.08-.154.174-.161.093 0 .166.08.16.174zm2.127 10.421l.146 2.212c0 .094-.06.174-.153.181h-.013a.167.167 0 01-.167-.154l-.147-2.212c0-.094.06-.174.154-.18.093 0 .173.06.18.153zm-17.703-33.3H62.63c.093 0 .166.073.166.167a.166.166 0 01-.166.168H44.927a.166.166 0 01-.167-.168c0-.094.074-.167.167-.167zm-4.467.167a.166.166 0 01-.167.168h-17.97a.166.166 0 01-.166-.168c0-.094.073-.167.166-.167h17.97c.093 0 .167.073.167.167zm4.4-2.46h15.13c.093 0 .166.074.166.168a.166.166 0 01-.167.168H44.86a.166.166 0 01-.166-.168c0-.094.073-.167.166-.167zm.047-1.997h1.447c.093 0 .167.074.167.168a.165.165 0 01-.167.167h-1.447a.166.166 0 01-.167-.167c0-.094.074-.168.167-.168zm-4.84 0c.093 0 .166.074.166.168a.166.166 0 01-.167.167H38.7a.165.165 0 01-.166-.167c0-.094.073-.168.166-.168h1.367zm-13.483.168c0-.094.073-.168.167-.168h7.321c.093 0 .167.074.167.168a.166.166 0 01-.167.167h-7.321a.165.165 0 01-.167-.167zm24.277-2.466h4.828c.093 0 .166.074.166.167a.166.166 0 01-.166.168H50.86a.166.166 0 01-.166-.168c0-.093.073-.167.166-.167zm-21.59.167c0-.093.074-.167.167-.167h4.587c.094 0 .167.074.167.167a.166.166 0 01-.167.168h-4.587a.166.166 0 01-.167-.168zm21.484-1.675h3.233c.094 0 .167.074.167.167a.166.166 0 01-.166.168h-3.234a.166.166 0 01-.167-.168c0-.093.073-.167.167-.167zm-12.062 0h7.434c.094 0 .167.074.167.167a.166.166 0 01-.167.168h-7.434a.166.166 0 01-.167-.168c0-.093.073-.167.167-.167zm6-2.292h6.875c.093 0 .167.074.167.167a.166.166 0 01-.167.168h-6.874a.165.165 0 01-.167-.168c0-.093.073-.167.167-.167zm-11.381.167c0-.093.073-.167.167-.167h6.72c.094 0 .167.074.167.167a.165.165 0 01-.166.168h-6.721a.165.165 0 01-.167-.168zm2.127-2.198c0-.094.073-.167.167-.167h4.62c.094 0 .167.073.167.167a.165.165 0 01-.167.168h-4.62a.165.165 0 01-.167-.168zm4.807-4.275h4.301c.093 0 .167.073.167.167a.166.166 0 01-.167.168h-4.3a.166.166 0 01-.167-.168c0-.094.073-.167.166-.167zm4.428 1.816h2.253c.094 0 .167.073.167.167a.165.165 0 01-.167.168h-2.253a.165.165 0 01-.167-.168c0-.094.073-.167.167-.167zm5.614 20.004c-.413 0-.633.63-.633 1.26s.22 1.26.633 1.26c.413 0 .633-.63.633-1.26s-.22-1.26-.633-1.26zm0 2.178c-.087 0-.3-.315-.3-.924 0-.61.213-.925.3-.925s.3.315.3.925c0 .61-.213.925-.3.925zm8.535 2.782c-.414 0-.74.536-.74 1.213s.326 1.213.74 1.213c.413 0 .74-.536.74-1.213s-.327-1.213-.74-1.213zm0 2.097c-.194 0-.407-.375-.407-.878 0-.502.213-.877.407-.877.193 0 .406.375.406.877 0 .503-.213.878-.406.878zM26.264 52.95c-.34 0-.613.315-.613.704 0 .389.273.704.613.704.34 0 .614-.315.614-.704 0-.389-.274-.704-.614-.704zm0 1.066c-.153 0-.28-.168-.28-.369 0-.2.127-.368.28-.368.154 0 .28.167.28.368 0 .201-.127.369-.28.369zm14.963-2.48c-.327 0-.594.309-.594.684 0 .375.267.684.593.684.327 0 .594-.309.594-.684 0-.375-.267-.684-.593-.684zm0 1.026c-.14 0-.26-.161-.26-.349 0-.188.12-.348.26-.348s.26.16.26.348c0 .188-.12.349-.26.349zM8.88 73.994c-.333 0-.593.335-.593.764s.26.764.593.764c.334 0 .594-.335.594-.764 0-.43-.26-.764-.594-.764zm0 1.2c-.12 0-.26-.175-.26-.43 0-.254.134-.428.26-.428.127 0 .26.174.26.428 0 .255-.133.43-.26.43zm14.763.596c-.334 0-.594.335-.594.764s.26.764.594.764c.333 0 .593-.335.593-.764s-.26-.764-.593-.764zm0 1.2c-.12 0-.26-.175-.26-.43 0-.254.14-.428.26-.428s.26.174.26.429c0 .254-.134.428-.26.428zm52.415-.262c.386 0 .7-.342.7-.764s-.314-.764-.7-.764c-.387 0-.7.342-.7.764s.313.764.7.764zm0-1.2c.2 0 .366.195.366.43 0 .234-.166.428-.366.428-.2 0-.367-.194-.367-.429 0-.234.167-.428.367-.428zM44.08 26.793h-3.154v6.36h3.154v-6.36zm-2.553 5.757v-.563h1.953v.563h-1.953zm1.953-5.153v.496h-1.953v-.496h1.953zm0 1.655h-1.953v-.563h1.953v.563zm0 .603v.563h-1.953v-.563h1.953zm-1.953 1.166h1.953v.563h-1.953v-.563zm-.6 12.17h3.153v-6.36h-3.154v6.36zm2.553-5.756v.496h-1.953v-.496h1.953zm-1.953 5.153v-.563h1.953v.563h-1.953zm0-2.895h1.953v.563h-1.953v-.563zm0 1.166h1.953v.563h-1.953v-.563zm1.953-1.769h-1.953v-.563h1.953v.563zm6.661-6.085h-3.154v6.36h3.154v-6.36zm-2.553 5.757v-.563h1.953v.563h-1.953zm1.953-5.154v.496h-1.953v-.496h1.953zm0 1.655h-1.953V34.5h1.953v.563zm0 .61v.563h-1.953v-.563h1.953zm-1.953 1.16h1.953v.563h-1.953v-.563zm-12.73 2.332h3.155v-6.36h-3.154v6.36zm2.555-5.757v.496h-1.954v-.496h1.953zm-1.954 5.154v-.563h1.953v.563H35.46zm0-1.73h1.953v.564H35.46v-.563zm0-.602v-.563h1.953v.563H35.46zm1.953-1.166H35.46V34.5h1.953v.563z" fill="#164194"/></svg>