<svg width="118" height="106" fill="none" xmlns="http://www.w3.org/2000/svg"><g clip-path="url(#clip0_524_2794)"><path d="M37.862 9.592v.787h-.128c-3.792.055-7.025 2.076-9.07 3.768-1.58 1.306-2.557 2.51-3.074 3.792-3.745 9.318 4.603 16.363 8.368 18.96a24.736 24.736 0 006.287 3.138c.939.31 1.723.46 2.398.46s1.238-.153 1.688-.472c1.157-.822 1.382-2.615 1.502-4.232l.703-9.468c.186-2.482.376-5.05.151-7.544-.147-1.637-.454-2.88-.958-3.914-1.316-2.683-4.475-4.489-7.863-4.489v-.786m-.004 0c3.458 0 7.02 1.786 8.557 4.925.637 1.298.909 2.75 1.037 4.193.229 2.552.038 5.121-.148 7.674-.233 3.155-.47 6.313-.702 9.468-.132 1.778-.392 3.792-1.832 4.819-.629.448-1.366.617-2.135.617-.88 0-1.8-.22-2.639-.5a25.658 25.658 0 01-6.485-3.237c-6.368-4.394-11.98-11.62-8.646-19.907.663-1.652 1.936-2.978 3.298-4.107 2.717-2.242 6.047-3.894 9.551-3.941h.14l.004-.004z" fill="#173B91"/><path d="M47.393 15.96c-2.395.874-3.575.984-5.604.988-1.813 0-3.85-.59-5.282.527-1.196.932-1.397 2.64-1.603 4.154a34.683 34.683 0 01-.807 4.075c-.097.377-.31.834-.695.814-.474-.024-.551-.684-.567-1.164-.054-1.609-1.121-3.135-2.6-3.721-1.246-.492-2.918-.177-3.504 1.042-.695 1.448.43 3.056 1.292 4.406.648 1.015 1.195 2.206.99 3.398-.206 1.192-1.471 2.238-2.581 1.79-.412-3.08-2.383-5.562-3.963-8.225-1.583-2.663-2.798-5.99-1.52-8.819.457-1.019 1.206-1.872 1.955-2.698.928-1.023 1.878-2.022 2.83-3.025.927-.98 1.92-1.998 3.217-2.352 1.016-.28 2.095-.107 3.143.027 5.53.716 11.127.39 16.704.37.55 0 1.137.008 1.61.295.885.53 1.025 1.79.8 2.804-.462 2.105-1.766 4.713-3.811 5.315h-.004z" fill="#173B91"/><path d="M26.898 32.088c1.261 4.193 1.455 7.965.737 12.288 2.717.925 5.395 2.966 7.747 4.618.48.338 1.016.708 1.595.622 1.11-.166 1.315-1.688 1.234-2.82-.163-2.274-.614-5.358-.776-7.636" stroke="#173B91" stroke-width="2" stroke-miterlimit="10"/><path d="M27.635 44.38c-1.42-.008-2.566 1.145-3.431 2.29-.866 1.144-1.72 2.43-3.058 2.914 4.882 2.018 7.956 6.856 10.711 11.415a39.432 39.432 0 005.849-9.35c2.014 2.061 4.672 4.032 6.07 6.565-.218-2.883-.587-4.472-1.444-6.69-.85-2.192-3.008-3.93-4.227-5.937 0 0 .843 3.883-1.129 4.032-2.096-.975-5.95-3.642-6.854-4.114-.904-.472-2.487-1.129-2.487-1.129v.004z" fill="#173B91" stroke="#173B91" stroke-width="2" stroke-linejoin="bevel"/><path d="M40.869 49.218c6.815 3.194 7.633 6.758 12.108 12.87 1.35 1.85 2.585 3.82 4.261 5.37 1.677 1.55 3.935 2.651 6.183 2.313 3.985-.602 7.917-4.185 9.756-7.816 2.208-4.358 5.465-9.126 8.305-14.794M41.11 25.523c-.02 1.471.341 4.11 1.762 3.792 1.703-.381 1.622-3.174 1.696-4.944.027-.634-.02-1.298-.326-1.853-.307-.555-.928-.972-1.549-.858 0 0-1.544.661-1.587 3.863h.004zm6.019-1.345c.873-1.149 1.47-1.105 1.952-.684.48.42.55 1.144.508 1.785a7.878 7.878 0 01-1.397 3.981c-.179.256-.396.515-.699.578-.302.063-.671-.193-.601-.495m-12.287-7.026c2.2.028 4.397.284 6.543.764m3.629.786c.776 0 1.84.31 2.616.31" stroke="#173B91" stroke-width="2" stroke-miterlimit="10"/><path d="M47.176 19.052c.434-.184.749-.574 1.005-.979a7.057 7.057 0 001.083-3.572c-.408-.314-.738-.464-1.23-.601-.532-.146-1.184-.142-1.53.29-.225.284-.256.685-.178 1.039.077.354.24.685.376 1.019.369.916.579 1.821.474 2.804z" fill="#173B91"/><path d="M21.104 49.58a6.055 6.055 0 00-.38.118C14.984 51.476 10.43 55.96 7.31 61.172c-3.916 6.53-3.749 15.707-.36 23.416.065.158.135.315.209.468.112.256.232.508.36.76.086.18.18.361.276.542.136.264.276.527.423.787a29.967 29.967 0 00.877 1.467 26.903 26.903 0 001.04 1.503 23.81 23.81 0 001.34 1.664c.267.31.546.61.834.904.275.288.562.57.857.842.326.307.66.606 1.005.89.427.357.87.7 1.324 1.018a20.529 20.529 0 001.967 1.25c.486.272.99.5 1.51.69.415.157.842.294 1.273.416.412.118.827.224 1.242.323.299.075.598.141.893.212 4.195.991 8.53 1.59 12.81 1.121 4.285-.464 8.53-2.065 11.694-5.027M81.766 33.87c-.093 6.699-.19 13.397-.283 20.096-.02 1.361-.02 10.392.663 11.565.683 1.172 2.306 1.895 3.412 1.125.966-.67 1.083-2.046 1.102-3.234.113-7.143.252-22.495.217-29.639" stroke="#173B91" stroke-width="2" stroke-miterlimit="10"/><path d="M87.602 33.87h-6.617a.75.75 0 01-.745-.755v-.787a.75.75 0 01.745-.755h6.617a.75.75 0 01.745.755v.787a.75.75 0 01-.745.755zM46.057 87.2c.004.637.043 1.487.163 2.557.299 2.679.423 4.173.664 4.661.24.488 9.667.76 10.87.087 1.2-.669 1.619-3.835 1.933-5.173a8.25 8.25 0 00.124-.787c.105-1.01.144-2.552-.081-3.827-.206-1.192-.645-2.151-1.46-2.214-.609-.048-3.888.692-4.009.236-.12-.457 1.15-4.087 1.15-5.669 0-.538-.137-1.058-.35-1.49h-.004v-.008c-.42-.838-1.133-1.345-1.75-.976-.04.024-.074.044-.109.071-1.114.787-1.308 2.852-1.727 4.036-.062.177-.128.33-.206.46-.601 1.034-1.242 2.175-2.685 4.122-1.184 1.593-1.852 2.286-2.453 2.47 0 0-.078.48-.07 1.444z" stroke="#173B91" stroke-width="2" stroke-miterlimit="10"/><path d="M81.666 41.23c-.753.739-1.944 1.565-2.057 2.62-.14 1.285.776 2.414 1.634 3.374" stroke="#173B91" stroke-width="2.3" stroke-miterlimit="10"/><path d="M59.536 84.69c.066.012.128.02.194.028 3.287.456 7.863-.55 10.312-2.569 4.365-3.59 7.474-9.987 10.195-15.513h.004a149.313 149.313 0 011.54-3.088M46.127 85.757c-3.054 2.238-7.001 2.986-10.758 2.643-3.753-.342-5.565-.334-8.961-1.994-1.8-.881-3.792-2.372-5.166-4.036-.31-.374-.59-.759-.83-1.145-1.27-2.072-2.096-4.826-2.305-7.5-.004-.016-.004-.028-.004-.044-.105-1.341-.05-2.663.178-3.863M37.706 51.65c2.142 5.349 3.633 27.054 2.465 36.369M27.845 55.154c3.644 8.005 5.724 26.8 5.9 33.1M42.6 52.346c2.177 6.71 2.313 23.007 1.339 34.823" stroke="#173B91" stroke-width="2" stroke-miterlimit="10"/><path d="M85.24 43.908h-3.617" stroke="#173B91" stroke-width="2.3" stroke-miterlimit="10"/><path d="M81.68 60.516a14.873 14.873 0 01-5.108-4.374" stroke="#173B91" stroke-width="2" stroke-miterlimit="10"/><path d="M78.606 64.327c-.411 1.188-.834 2.356-1.397 3.477-.563 1.121-1.265 2.25-1.987 3.308a29.852 29.852 0 01-2.255 2.931c-.815.928-1.7 1.978-2.786 2.592-.136.075-.322-.083-.225-.228.675-1.003 1.614-1.833 2.406-2.746a37.667 37.667 0 002.325-2.958 42.883 42.883 0 003.749-6.443c.042-.094.201-.027.166.071l.004-.004zm-57.709 10.2c1.898-.15 3.796-.233 5.698-.315.442-.02.888-.035 1.33-.067.42-.031.85-.106 1.266-.035.772.126.935.963 1.013 1.628.229 1.947.334 3.945.194 5.9-.058.822-.233 1.633-.796 2.258-.496.55-1.218.901-1.917 1.094a6.733 6.733 0 01-2.553.185c-.777-.09-1.619-.24-2.154-.87-.132-.157-.063-.495.19-.464.566.07 1.102.252 1.66.342a5.969 5.969 0 001.98-.02c.598-.11 1.192-.306 1.696-.66.633-.445.819-1.121.87-1.865.108-1.644.034-3.316-.105-4.956a36.75 36.75 0 00-.113-1.137c-.05-.42-.1-.755-.578-.81-.734-.087-1.51-.02-2.247-.012-1.813.024-3.621.067-5.43-.07-.081-.008-.081-.123 0-.13l-.004.004zM11.474 91.78c.268.31.547.609.835.904l15.562-.44-16.397-.465zm-1.338-1.665c.213.291.434.579.66.858l13.847-.417-14.507-.44zm-1.041-1.503c.16.248.326.496.493.74l10.785-.362-11.278-.378zm-.877-1.467c.12.22.249.437.377.654l8.821-.32-9.198-.334zm-.698-1.33c.085.181.178.362.275.543l6.574-.263-6.85-.28zm-.57-1.226c.065.157.135.314.21.468l5.219-.228-5.43-.24zm6.216 8.936c.326.307.66.606 1.005.89l15.808-.43-16.813-.46zm2.329 1.909c.419.303.85.586 1.292.857l15.535-.413-16.827-.444zm3.477 1.938c.415.157.842.295 1.273.417.411.118.827.224 1.242.323l13.257-.339-15.772-.4zm6.059-89.955c-.167.247-.221.519-.337.79a6.847 6.847 0 00-.272.78 5.767 5.767 0 00-.206 1.687c.016 1.077.404 2.167 1.137 2.958.594.645-.341 1.6-.958.971-1.02-1.038-1.525-2.474-1.479-3.93a5.017 5.017 0 01.512-2.064c.152-.311.334-.587.56-.846.224-.26.523-.41.791-.606.151-.11.357.106.256.26h-.004z" fill="#173B91"/></g><defs><clipPath id="clip0_524_2794"><path fill="#fff" transform="matrix(-1 0 0 1 89 7)" d="M0 0h85v93H0z"/></clipPath></defs></svg>