<svg width="1214" height="144" fill="none" xmlns="http://www.w3.org/2000/svg"><path d="M27.8 142L87.2 10.4l5.2 9H9.2l10-9.8v34.8H0V2h105.6v13.6L49 142H27.8zm148.625 1.6c-10.933 0-20.733-2.8-29.4-8.4-8.533-5.6-15.333-13.733-20.4-24.4-4.933-10.667-7.4-23.6-7.4-38.8 0-15.2 2.467-28.133 7.4-38.8 5.067-10.667 11.867-18.8 20.4-24.4 8.667-5.6 18.467-8.4 29.4-8.4 10.8 0 20.533 2.8 29.2 8.4 8.667 5.6 15.467 13.733 20.4 24.4 4.933 10.667 7.4 23.6 7.4 38.8 0 15.2-2.467 28.133-7.4 38.8-4.933 10.667-11.733 18.8-20.4 24.4-8.667 5.6-18.4 8.4-29.2 8.4zm0-17.8c7.333 0 13.733-2 19.2-6 5.6-4 9.933-10 13-18 3.2-8 4.8-17.933 4.8-29.8s-1.6-21.8-4.8-29.8c-3.067-8-7.4-14-13-18-5.467-4-11.867-6-19.2-6-7.333 0-13.8 2-19.4 6-5.6 4-10 10-13.2 18-3.067 8-4.6 17.933-4.6 29.8s1.533 21.8 4.6 29.8c3.2 8 7.6 14 13.2 18s12.067 6 19.4 6zm187.109 17.8c-10.933 0-20.733-2.8-29.4-8.4-8.533-5.6-15.333-13.733-20.4-24.4-4.933-10.667-7.4-23.6-7.4-38.8 0-15.2 2.467-28.133 7.4-38.8 5.067-10.667 11.867-18.8 20.4-24.4 8.667-5.6 18.467-8.4 29.4-8.4 10.8 0 20.534 2.8 29.2 8.4 8.667 5.6 15.467 13.733 20.4 24.4 4.934 10.667 7.4 23.6 7.4 38.8 0 15.2-2.466 28.133-7.4 38.8-4.933 10.667-11.733 18.8-20.4 24.4-8.666 5.6-18.4 8.4-29.2 8.4zm0-17.8c7.334 0 13.734-2 19.2-6 5.6-4 9.934-10 13-18 3.2-8 4.8-17.933 4.8-29.8s-1.6-21.8-4.8-29.8c-3.066-8-7.4-14-13-18-5.466-4-11.866-6-19.2-6-7.333 0-13.8 2-19.4 6-5.6 4-10 10-13.2 18-3.066 8-4.6 17.933-4.6 29.8s1.534 21.8 4.6 29.8c3.2 8 7.6 14 13.2 18s12.067 6 19.4 6zm133.399 17.8c-10.934 0-20.734-2.8-29.4-8.4-8.534-5.6-15.334-13.733-20.4-24.4-4.934-10.667-7.4-23.6-7.4-38.8 0-15.2 2.466-28.133 7.4-38.8 5.066-10.667 11.866-18.8 20.4-24.4 8.666-5.6 18.466-8.4 29.4-8.4 10.8 0 20.533 2.8 29.2 8.4 8.666 5.6 15.466 13.733 20.4 24.4 4.933 10.667 7.4 23.6 7.4 38.8 0 15.2-2.467 28.133-7.4 38.8-4.934 10.667-11.734 18.8-20.4 24.4-8.667 5.6-18.4 8.4-29.2 8.4zm0-17.8c7.333 0 13.733-2 19.2-6 5.6-4 9.933-10 13-18 3.2-8 4.8-17.933 4.8-29.8s-1.6-21.8-4.8-29.8c-3.067-8-7.4-14-13-18-5.467-4-11.867-6-19.2-6-7.334 0-13.8 2-19.4 6-5.6 4-10 10-13.2 18-3.067 8-4.6 17.933-4.6 29.8s1.533 21.8 4.6 29.8c3.2 8 7.6 14 13.2 18s12.066 6 19.4 6zm133.398 17.8c-10.933 0-20.733-2.8-29.4-8.4-8.533-5.6-15.333-13.733-20.4-24.4-4.933-10.667-7.4-23.6-7.4-38.8 0-15.2 2.467-28.133 7.4-38.8 5.067-10.667 11.867-18.8 20.4-24.4 8.667-5.6 18.467-8.4 29.4-8.4 10.8 0 20.534 2.8 29.2 8.4 8.667 5.6 15.467 13.733 20.4 24.4 4.934 10.667 7.4 23.6 7.4 38.8 0 15.2-2.466 28.133-7.4 38.8-4.933 10.667-11.733 18.8-20.4 24.4-8.666 5.6-18.4 8.4-29.2 8.4zm0-17.8c7.334 0 13.734-2 19.2-6 5.6-4 9.934-10 13-18 3.2-8 4.8-17.933 4.8-29.8s-1.6-21.8-4.8-29.8c-3.066-8-7.4-14-13-18-5.466-4-11.866-6-19.2-6-7.333 0-13.8 2-19.4 6-5.6 4-10 10-13.2 18-3.066 8-4.6 17.933-4.6 29.8s1.534 21.8 4.6 29.8c3.2 8 7.6 14 13.2 18s12.067 6 19.4 6zm187.11 17.8c-10.934 0-20.734-2.8-29.4-8.4-8.534-5.6-15.334-13.733-20.4-24.4-4.934-10.667-7.4-23.6-7.4-38.8 0-15.2 2.466-28.133 7.4-38.8 5.066-10.667 11.866-18.8 20.4-24.4 8.666-5.6 18.466-8.4 29.4-8.4 10.8 0 20.533 2.8 29.2 8.4 8.666 5.6 15.466 13.733 20.4 24.4 4.933 10.667 7.4 23.6 7.4 38.8 0 15.2-2.467 28.133-7.4 38.8-4.934 10.667-11.734 18.8-20.4 24.4-8.667 5.6-18.4 8.4-29.2 8.4zm0-17.8c7.333 0 13.733-2 19.2-6 5.6-4 9.933-10 13-18 3.2-8 4.8-17.933 4.8-29.8s-1.6-21.8-4.8-29.8c-3.067-8-7.4-14-13-18-5.467-4-11.867-6-19.2-6-7.334 0-13.8 2-19.4 6-5.6 4-10 10-13.2 18-3.067 8-4.6 17.933-4.6 29.8s1.533 21.8 4.6 29.8c3.2 8 7.6 14 13.2 18s12.066 6 19.4 6zm133.398 17.8c-10.933 0-20.733-2.8-29.4-8.4-8.533-5.6-15.333-13.733-20.4-24.4-4.933-10.667-7.4-23.6-7.4-38.8 0-15.2 2.467-28.133 7.4-38.8 5.067-10.667 11.867-18.8 20.4-24.4 8.667-5.6 18.467-8.4 29.4-8.4 10.8 0 20.533 2.8 29.2 8.4 8.667 5.6 15.467 13.733 20.401 24.4 4.93 10.667 7.4 23.6 7.4 38.8 0 15.2-2.47 28.133-7.4 38.8-4.934 10.667-11.734 18.8-20.401 24.4-8.667 5.6-18.4 8.4-29.2 8.4zm0-17.8c7.333 0 13.733-2 19.2-6 5.6-4 9.933-10 13-18 3.2-8 4.8-17.933 4.8-29.8s-1.6-21.8-4.8-29.8c-3.067-8-7.4-14-13-18-5.467-4-11.867-6-19.2-6-7.333 0-13.8 2-19.4 6-5.6 4-10 10-13.2 18-3.067 8-4.6 17.933-4.6 29.8s1.533 21.8 4.6 29.8c3.2 8 7.6 14 13.2 18s12.067 6 19.4 6zm133.401 17.8c-10.94 0-20.74-2.8-29.4-8.4-8.54-5.6-15.34-13.733-20.4-24.4-4.94-10.667-7.4-23.6-7.4-38.8 0-15.2 2.46-28.133 7.4-38.8 5.06-10.667 11.86-18.8 20.4-24.4 8.66-5.6 18.46-8.4 29.4-8.4 10.8 0 20.53 2.8 29.2 8.4 8.66 5.6 15.46 13.733 20.4 24.4 4.93 10.667 7.4 23.6 7.4 38.8 0 15.2-2.47 28.133-7.4 38.8-4.94 10.667-11.74 18.8-20.4 24.4-8.67 5.6-18.4 8.4-29.2 8.4zm0-17.8c7.33 0 13.73-2 19.2-6 5.6-4 9.93-10 13-18 3.2-8 4.8-17.933 4.8-29.8s-1.6-21.8-4.8-29.8c-3.07-8-7.4-14-13-18-5.47-4-11.87-6-19.2-6-7.34 0-13.8 2-19.4 6-5.6 4-10 10-13.2 18-3.07 8-4.6 17.933-4.6 29.8s1.53 21.8 4.6 29.8c3.2 8 7.6 14 13.2 18s12.06 6 19.4 6zm95.64-65.8V6h12.84v54h-12.84zm-21.24-21V27h55.32v12h-55.32z" fill="#2EAC6A"/></svg>