<svg width="34" height="52" fill="none" xmlns="http://www.w3.org/2000/svg"><path d="M26.003 23.684v26.24a.122.122 0 01-.125.123.122.122 0 01-.125-.123v-26.24c0-.068.055-.122.125-.122s.125.054.125.122zm-.634-6.648c.255.387.39.833.39 1.288v.788c0 .069.054.122.124.122s.125-.053.125-.122v-.788c0-.5-.15-.994-.43-1.42l-1.791-2.697a5.538 5.538 0 01-.934-3.084V8.229a.122.122 0 00-.125-.122.122.122 0 00-.125.122v2.894c0 1.145.34 2.261.979 3.22l1.792 2.698-.005-.005zM34 29.133c0 1.346-1.113 2.438-2.481 2.438-.504 0-.983-.152-1.398-.43a19.3 19.3 0 01-3.09.357v18.426c0 .882-.669 1.61-1.557 1.704-1.643.171-5.052.372-11.956.372s-10.313-.206-11.96-.372A1.715 1.715 0 010 49.924v-31.6c0-.68.2-1.346.584-1.924l1.792-2.697c.51-.77.779-1.66.779-2.58V7.75a.849.849 0 01-.544-.784c0-.098.02-.186.05-.274a.847.847 0 01-.56-.788c0-.47.39-.852.864-.852h.61c.638-.95 2.555-1.37 6.644-1.488h.01c.064 0 .124-.005.184-.01l-.15-.999c-.499-3.407 6.994-3.407 6.495 0l-.15 1c4.218.112 6.195.538 6.84 1.497h.608a.86.86 0 01.864.852c0 .362-.235.67-.56.788.03.088.05.176.05.274a.844.844 0 01-.544.784v3.373c0 .92.27 1.81.78 2.575l1.791 2.697a3.5 3.5 0 01.584 1.924v3.304l5.097 7.084a.723.723 0 01-.374 1.116c.075.025.154.04.234.04a.83.83 0 00.46-.142.776.776 0 00.194-1.092l-1.378-1.914c.085-.01.17-.02.255-.02 1.368 0 2.481 1.092 2.481 2.433l.01.005zm-8.596 21.859c.559-.06.978-.514.978-1.068v-26.65L18.25 11.978h-2.03c-.814 0-1.478-.646-1.478-1.449v-.67c0-.798.66-1.45 1.478-1.45h3.334c.814 0 1.478.647 1.478 1.45v.67c0 .48-.24.906-.609 1.165l-1.567-2.173a.835.835 0 00-1.149-.196.853.853 0 00-.24.26.758.758 0 011.034.18l7.887 10.952v-2.404a2.86 2.86 0 00-.479-1.581l-1.792-2.698a5.276 5.276 0 01-.889-2.922v-3.31H8.377l-.704 2.933.134-2.933h-.499l-.26 1.675v-.02c-.034.333-.124.573-.21.847-.084.264-.179.524-.284.783-.204.514-.419 1.028-.723 1.493.234-.499.374-1.028.509-1.556.065-.265.12-.534.17-.798.044-.26.094-.549.084-.769l.025-1.655h-.464s-.255 2.394-.344 3.09c-.145.69-.465 1.272-.78 1.855a23.14 23.14 0 01-1.047 1.674c.304-.582.599-1.17.853-1.767.25-.597.494-1.214.55-1.821.014-.602 0-1.293.01-1.939V7.8h-.43l-.145 1.855c-.07.808-.11 1.571-.204 2.418-.155.862-.654 1.542-1.104 2.203-.464.661-.938 1.312-1.377 1.983.379-.71.793-1.4 1.193-2.095.389-.69.798-1.405.858-2.15.02-.748-.005-1.586-.005-2.374L4.168 7.8h-.35v3.309a5.24 5.24 0 01-.888 2.927l-1.782 2.688c1.393.215 2.81.357 4.233.465 1.683.132 3.37.22 5.062.294 3.385.157 6.77.2 10.164.294-3.385.151-6.774.352-10.169.44-1.697.05-3.4.078-5.102.074-1.542-.01-3.09-.05-4.652-.191-.005.073-.015.142-.015.215v31.6c0 .377.2.706.5.901-.016-.049-.04-.093-.056-.142a2.887 2.887 0 01-.125-.597c-.015-.093-.015-.245-.015-.318l.455-30.715.454 30.715c0 .103 0 .127.015.206.02.141.06.288.105.425.075.23.194.446.33.651.03 0 .064.005.1.01-.026-.073-.06-.142-.086-.215a3.752 3.752 0 01-.115-.544 1.947 1.947 0 01-.01-.288l.455-27.567.454 27.332c.005.161 0 .323.015.416a2.379 2.379 0 00.374.94c.04 0 .075 0 .11.005-.015-.044-.035-.084-.05-.128a3.042 3.042 0 01-.1-.49c-.02-.2 0-.332-.005-.47L3.93 25.83l.454 24.208c.005.142 0 .289.015.367a1.96 1.96 0 00.3.778c.044 0 .084 0 .13.005 0-.01-.006-.014-.01-.024a2.496 2.496 0 01-.086-.436c-.02-.181 0-.294 0-.411l.455-21.095.454 21.09c0 .122 0 .255.015.313a1.84 1.84 0 00.22.602c.054 0 .114 0 .174.005-.02-.093-.045-.18-.055-.284-.015-.18 0-.244 0-.357l.455-17.976.454 17.966c0 .093 0 .235.01.265.01.073.03.151.055.225.02.063.05.127.08.19.074 0 .144 0 .22.006 0-.035-.016-.064-.02-.098l.454-15.157.459 15.04v.019c.01.054.025.117.045.176.005.015.015.03.02.044.085 0 .18 0 .264.005l.46-11.886.459 11.876v.01s.005.015.005.02h.34l.443-8.514.45 8.523h.384l.425-5.13.424 5.135h.514l.314-1.742.315 1.742h.514c6.874 0 10.259-.2 11.886-.372l-.02.035zM8.63 6.75l-.105.426h15.026c.12 0 .22-.093.22-.21a.22.22 0 00-.22-.216H8.63zm15.435-1.062H8.511a.617.617 0 00.01.425h15.545c.12 0 .215-.093.215-.21a.215.215 0 00-.215-.215zm-1.552-.637c-1.089-.641-3.684-.803-5.956-.861-.873-.025-1.867-.035-3.04-.035s-2.171.01-3.045.035c-.065 0-.14 0-.205.01h-.03c-.359.01-.733.024-1.118.043-.384.157-.629.363-.694.558a.334.334 0 00.015.25h14.073zm-11.507-2.6l.1.676c.714-.014 4.098-.014 4.812 0l.1-.67c.055-.377-.03-.69-.264-.95-.42-.475-1.278-.769-2.247-.769-.968 0-1.827.294-2.246.769-.23.264-.32.573-.265.95l.01-.005zM27.03 26.773c.684.024 1.358.088 1.997.176l-1.997-2.771v2.595z" fill="#fff"/></svg>