<svg width="118" height="67" fill="none" xmlns="http://www.w3.org/2000/svg"><path d="M34.613 12.079c-1.766 2.503-5.032 3.426-5.118.451-.187-6.355-6.444.65-1.7-5.558 1.28-1.667 2.266-1.667 5.152-2.33 2.885-.671.08 3.38 2.812 3.997 2.725.617.62.93-1.146 3.44zm72.817 29.416c-.194.644 1.133 1.84 1.572.61-.246-.51-.886-.69-1.572-.61zm10.062 14.024c-.433.544-1.606 1.786-3.345 1.912-.567.485-1.26.678-1.966.678-.886 0-1.799-.3-2.519-.691a5.58 5.58 0 01-1.066-.724c-2.179-2.503-4.978-4.542-8.357-6.102-2.879-1.096-4.631-3.174-5.338-6.335-.006-.04-.02-.093-.026-.14-1.8-1.952-4.005-4.057-5.358-4.667-1.326-.591-1.92-.28-2.36-.047-.06.033-.112.06-.166.086-.32.14-.88 1.143-1.252 1.806-.374.671-.727 1.302-1.06 1.627-.04.04-.093.073-.14.113.246 1.043.566 2.231.88 3.4.26.983.533 2.005.753 2.889.146.57.22 1.082.206 1.52-.033 1.401 1.046 3.174 2.093 4.887.986 1.62 1.926 3.154 1.952 4.383l2.46 3.48c.033.053.04.119.013.172a.166.166 0 01-.147.086h-5.231a.174.174 0 01-.133-.066.161.161 0 01-.027-.146s.1-.379.14-.824c.046-.537 0-1.215-.493-1.434-.633-.272-1.107-.903-1.266-1.686-.773-3.526-2.386-5.91-3.686-7.823-.246-.365-.486-.717-.713-1.062a6.686 6.686 0 00-1.553-1.693c-2.465-1.906-2.612-4.323-2.552-5.332a16.3 16.3 0 00-2.452.252c-2.233.445-3.512-.963-4.745-2.324-.44-.485-.9-.976-1.413-1.414-.233.438-.46.876-.673 1.308-.873 1.753-1.539 3.326-1.865 4.422-.394 1.288-.574 2.284-.727 3.154-.133.73-.246 1.361-.453 2.019-.14.431-.287.797-.46 1.162-.346.71-.82 1.44-1.5 2.284-.959 2.145-1.272 4.25-1.499 5.797-.166 1.142-.293 1.965-.6 2.47-.12.193-.12.332 0 .558.114.226.327.491.574.797.426.524.96 1.182 1.393 2.118a.43.43 0 01-.394.61H58.29a2.259 2.259 0 01-1.426-.484 2.079 2.079 0 01-.733-1.308c-.114-.797-.32-1.467-.594-1.959a1.99 1.99 0 01-.113-1.686c.487-1.262.973-2.371 1.44-3.44.26-.584.506-1.149.726-1.687.78-1.886 1.28-3.473 1.18-5.093-.067-1.195.253-2.616.62-4.263.14-.63.292-1.288.426-1.979.36-1.806.72-4.203.326-6.766-.006-.066-.026-.126-.033-.193-8.65-1.978-16.3 5.459-24.71 1.315a.567.567 0 01-.067.106c-.513.558-1.186 1.076-1.959 1.54-.153.559-.406 1.083-.7 1.668-.526 1.035-1.18 2.33-1.459 4.468-.413 3.075.473 8.142 2.252 12.916l3.512 3.386a.183.183 0 01-.126.312l-6.418-.026c-.36 0-.713-.12-1.013-.339a1.945 1.945 0 01-.76-1.016 8.798 8.798 0 00-.26-.717c-.24-.604-.486-1.248-.512-1.926-.247-5.345-1.793-10.192-4.832-15.066-.033.08-.066.16-.1.232a.93.93 0 01-1.006.518.94.94 0 01-.786-.837c-.094-.863-.1-1.653-.014-2.35-1.765-.638-3.165-1.441-3.225-1.474l-.72-.412c-.073.1-.133.193-.206.292-.98 1.368-2.173 2.822-3.212 4.084l-.993 1.188c-1.2 1.428-2.326 2.776-3.239 3.985-1.693 2.244-2.206 5.113-2.745 8.154-.26 1.434-.54 2.988-.973 4.482.226.252.44.518.64.797.62.816 1.119 1.673 1.392 2.131.087.153.153.26.187.306.12.126.133.292.06.451-.1.233-.14.319-1.726.319-.647 0-1.553-.013-2.826-.04a2.263 2.263 0 01-1.36-.471 2.2 2.2 0 01-.879-1.68 45.896 45.896 0 00-.126-2.178 2.51 2.51 0 01.246-1.308c.573-1.222 1.206-3.188 1.78-5.532.946-3.844 2.019-11.042 2.125-14.263.027-.684.34-1.328.873-1.826.313-.299.607-.544.893-.79 1.146-.976 2.046-1.747 3.592-5.08.44-.943.806-2.483 1.093-4.595.486-3.526.66-8.061.72-11.747-.14.764-.307 1.634-.514 2.643-1.04 5.073-2.752 6.501-5.23 8.101-2.033 1.308-3.126 3.819-3.473 5.757.207 1.103.234 2.032-.2 3.208C2.62 38.12.76 38.759.546 38.825a.466.466 0 01-.133.02.456.456 0 01-.186-.046c-.014 0-.02-.014-.034-.02a.53.53 0 01-.14-.133s-.006 0-.006-.007c0-.013 0-.02-.014-.033-.006-.02-.02-.033-.026-.06v-.033A.378.378 0 010 38.427v-.08c0-.026.013-.053.02-.08a.245.245 0 01.033-.073c.014-.02.034-.04.047-.06a.59.59 0 01.067-.059c.006-.007.013-.02.026-.027.06-.04.6-.411.44-1.965-.193-1.813.786-2.63 1.253-2.915.18-.996 1.126-4.954 5.031-7.132 4.052-2.264 4.518-9.628 4.518-14.974 0-2.443.793-4.309 2.36-5.55 2.638-2.099 6.517-1.588 6.55-1.581 1.42.332 2.266-.06 3.339-.551 1.2-.551 2.692-1.242 5.35-.963.534.053 1.08.08 1.627.066 2.292-.033 5.178-.265 8.523-.538 1.74-.139 3.572-.285 5.451-.418 2.866-.285 8.423-.883 11.742-1.242C58.167.095 59.076 0 59.103 0c2.032 0 8.67.358 14.954 2.005h.013c.446.113.96.166 1.553.22 3.138.305 7.883.776 13.4 11.4.534 1.01 1.507 2.564 2.593 4.23.06.02.107.06.12.127v.06c1.953 2.974 4.258 6.241 5.165 7.31 1.366 1.607 3.711 4.482 5.491 6.674.44-1.362 1.066-2.192 1.886-2.464 1.099-.365 2.139.379 2.665.857.313.285.607.624.886.956.907 1.062 1.76 2.065 3.579 1.826a.41.41 0 01.253.764c-.073.04-1.506.843-3.098.843-.367 0-.74-.04-1.113-.146a3.437 3.437 0 01-1.7-1.096c.027.213.12.385.16.452.74.677 1.073 1.261 1.4 1.826.286.505.553.976 1.113 1.52 1.326 1.282 2.172 2.637 2.512 4.025 1.446 1.474 2.552 2.762 2.699 4.601.06.83.999 2.33 1.826 3.666.493.79.959 1.534 1.226 2.125v.013c.127.285.2.491.233.67.067.372.287.598.527.837.519.538.913 1.109.04 2.205l.006.013zm-9.163-14.788c-1.079-.033-2.092.551-1.939 1.667.147 1.122 2.792 1.348 3.032.431.32-1.221-.013-2.058-1.093-2.098zm4.558 5.26c-1.452-2.803-3.145-2.624-2.592-1.004.547 1.62 2.419 4.722 3.619 6.13.486.577 1.886-.02.413-1.574-1.473-1.547.02-.75-1.433-3.56l-.007.007zm-10.769 3.253c.154 0 .28-.126.287-.279a.283.283 0 00-.28-.286c-2.585-.013-4.725-1.547-5.204-3.725a.29.29 0 00-.34-.219.287.287 0 00-.22.339c.533 2.437 2.899 4.15 5.757 4.17zm-6.643-18.068c.24 2.171 1.386 4.316 2.185 5.026.527-.232 1.207-.298 1.506-.318-.126-2.41-1.206-3.798-3.691-4.708zm2.565-3.154c-.04-.047-3.925-4.602-5.684-7.437a.164.164 0 00-.227-.053.163.163 0 00-.053.225c1.773 2.862 5.678 7.437 5.718 7.477a.164.164 0 00.233.02.161.161 0 00.02-.232h-.007zm12.255 5.578c-.406 0-1.672-.406-2.525-1.461-1.487-1.833-2.699-2.464-3.599-1.88a.16.16 0 00-.047.22.16.16 0 00.22.046c.747-.478 1.813.126 3.179 1.813.9 1.115 2.252 1.574 2.772 1.574h.027a.156.156 0 10-.007-.312h-.02zm-91.023 1.5c-.086-.04-.18 0-.22.087-1.7 3.844-7.317 10.63-9.17 12.67a.166.166 0 00.014.232c.033.026.073.04.113.04.047 0 .094-.02.12-.054 1.866-2.052 7.51-8.878 9.23-12.762.04-.087 0-.18-.087-.22v.007zM2.052 62.206c.06.79.107 1.533.127 2.21.02.386.193.731.473.97.547-.491 1.726-1.454 2.846-1.766-.154-.193-.307-.398-.473-.571a.423.423 0 01-.1-.418c.46-1.521.746-3.141 1.006-4.575l.06-.34c-.293-.49-.746-.63-1.22-.77-.34-.099-.68-.205-.926-.444C3.312 58.54 2.76 60.2 2.22 61.336a1.68 1.68 0 00-.166.87zm16.287-22.08s.92.532 2.166 1.05c.387.166.806.325 1.246.471a.43.43 0 01.287.485c-.127.69-.134 1.547-.034 2.477 0 .02 0 .06.074.073.06.013.073-.02.08-.04.3-.63.533-1.414.66-2.204.02-.113.08-.22.18-.286a.46.46 0 01.332-.073c.407.08.787.133 1.127.16.406.026.833.033 1.28.026h.412c.114 0 .234.04.32.12a.42.42 0 01.133.312c0 .683.094 1.334.274 1.945.013.06.053.086.113.086.06 0 .1-.026.12-.086.14-.485.3-1.228.286-2.078 0-.22.154-.405.367-.432.353-.053.7-.113 1.033-.18a.431.431 0 01.513.34c.107.53.307 1.308.64 1.952.04.08.126.073.166.066.1-.02.107-.093.107-.113.053-.77-.06-1.607-.153-2.164a.426.426 0 01.293-.479c1.04-.338 2-.79 2.812-1.301.573-.365 1.073-.757 1.466-1.169-1.46-.943-2.492-2.543-4.158-3.559-4.698-2.855-8.057.007-11.202 1.727-.22.279-.413.557-.567.843a21.29 21.29 0 01-1.012 1.667l.66.378-.02-.013zm13.102 17.219a.172.172 0 00.166.113c.02 0 .047 0 .067-.013a.173.173 0 00.1-.233c-1.426-3.645-1.86-7.636-1.22-11.242a.172.172 0 00-.146-.206c-.094-.013-.194.047-.207.146-.653 3.666-.213 7.73 1.24 11.435zm21.817-20.386a.162.162 0 00-.193-.132c-2.332.405-4.271 1.002-5.977 1.534-2.66.823-4.758 1.474-7.19 1.115a.164.164 0 00-.188.14.16.16 0 00.14.185c.474.067.933.1 1.393.1 1.973 0 3.839-.578 5.944-1.228 1.7-.525 3.626-1.123 5.938-1.521a.158.158 0 00.133-.193zm8.444 18.46c-1.14.757-2.593 1.136-3.286 1.289-.013.026-.506 1.195-.766 1.786a79.33 79.33 0 00-1.426 3.4c-.12.325-.1.677.06.962.333.591.566 1.348.693 2.258.04.252.16.465.32.644.52-.57 1.612-1.666 2.672-2.085-.14-.405-.113-.79.12-1.175.213-.359.34-1.189.48-2.152.2-1.334.46-3.074 1.133-4.927zm22.197-11.534c-.026-.086-.126-.133-.213-.106-.087.026-.133.126-.107.212 1.193 3.507 1.806 5.711 1.94 6.94.006.086.08.146.166.146h.02a.162.162 0 00.147-.186c-.133-1.269-.733-3.427-1.953-7.006zm-6.124-13.347a.166.166 0 00.013-.232.168.168 0 00-.233-.013c-2.159 1.952-3.232 4.163-4.591 6.959-.38.79-.78 1.607-1.233 2.496-.04.08-.007.18.073.226.027.013.053.02.073.02a.16.16 0 00.147-.093c.46-.896.853-1.713 1.24-2.503 1.392-2.876 2.399-4.954 4.511-6.86zM94.741 42.73c0-.332 0-.684.027-1.05-1.466-1.513-3.185-3.133-4.518-3.87-.08-.047-.113-.147-.067-.226a.173.173 0 01.227-.067c1.306.717 2.959 2.245 4.392 3.719.146-1.547.58-3.234 1.425-4.363-1.526-1.188-2.365-3.838-2.385-5.91a1.521 1.521 0 011.872-1.487c1.393.339 3.812 1.248 5.218 3.626.16-.206.333-.332.527-.392.066-.02.133-.02.193-.027-1.033-1.534-2.659-2.762-4.905-3.712-2.106-.89-4.125-.471-5.597-.166-.967.2-1.666.346-2.013.007-.2-.193-.246-.505-.147-.983.24-1.182 1.167-2.052 1.913-2.756.533-.498.993-.936.933-1.241-.033-.18-.247-.352-.646-.525-.347-.153-.76-.312-1.2-.491-2.072-.824-4.651-1.853-4.791-3.008-.047-.379.16-.73.606-1.043 1.093-.777 2.52-.272 3.665.14.74.265 1.446.518 1.74.278a.502.502 0 00.12-.159c-1.287-1.945-2.473-3.825-3.086-4.987C82.946 3.825 78.481 3.387 75.53 3.094c-.606-.06-1.173-.113-1.679-.245h-.02a52.055 52.055 0 00-2.186-.518c-.986-.02-2.006.066-3.039.192-.7.976.86 1.076.807 1.66-.067.737 2.619.22 2.805 1.235.194 1.016 2.366-.318 4.279-.823 1.912-.511.766 1.713 0 2.185-.767.471.826 3.028 1.785 5.033.953 2.005-1.339 3.845-2.425 2.762-1.086-1.082-1.913-1.78-1.98.193-.06 1.965-3.378 1.075-3.125.445.253-.638-.38-1.913-1.979-3.447-1.593-1.54-1.846.645-2.359-1.387-.513-2.032-2.932-.379-3.892-2.105-.96-1.72-2.679.451-3.252 2.742-.573 2.284-1.919 2.922-3.385.75.067-3.127.386-2.848 3.065-5.617 2.68-2.763 2.293-1.813 4.932-2.763.333-.12.693-.239 1.046-.365-.933.12-1.846.206-2.719.206-.613 0-1.213-.04-1.786-.14-.666-.112-1.42-.252-2.232-.398-1.846-.338-4.059-.744-6.278-1.042-2.659.285-5.444.577-7.217.757-1.886.132-3.718.279-5.451.418-3.245.259-6.057.485-8.337.538a.662.662 0 01-.086.259c-.247.438-.94.677-2.073.71-1.56.034-2.292.585-2.998 1.116-.447.339-.873.657-1.466.81-.254.066-.294.133-.294.146-.026.06.1.246.194.379.2.285.446.644.34 1.075-.087.359-.4.684-.967 1.003-.313.173-.593.246-.853.246-.84 0-1.433-.804-2.099-1.707-.693-.936-1.466-1.972-2.699-2.556-1.173.146-2.599.537-3.718 1.494-.107.086-.2.186-.294.285-.693 1.09-.626 2.53-.54 4.323.047 1.03.094 2.185.014 3.433.02.319.04.65.053.956 0 .027-.006.047-.013.073-.027 3.931-.173 9.456-.746 13.606l-.1.67c1.14 1.98 1.886-2.383 1.399-5.232-.54-3.114 1.553.764 3.332 3.878 1.786 3.114 4.105-1.547 2.499-4.017-2.992-4.615 4.045-7.822 6.098-3.526.473.996.82 2.882-1.48 6.574-2.212 3.566-1.866 3.917.447 2.795.146-.206.286-.412.426-.63a16.892 16.892 0 001.586-3.181c.486-1.282.853-2.71 1.1-4.25a.434.434 0 01.493-.359c.233.04.4.26.36.492a22.337 22.337 0 01-1.04 4.11c.327 1.892 1.26 2.71 2.959 3.52 1.872.89 3.672-1.973 5.098-.83 1.42 1.148 2.425-5.326 3.125-2.803.7 2.517 2.3-2.238 2.62-.458.312 1.78.02 2.948 2.252 3.52 2.232.57 3.938-3.998 4.638-1.74.7 2.257 1.38 3.04 3.018 2.244 1.66-.803 3.359-3.739 4.639-5.013 1.279-1.275-.853 9.395 1 6.407a4.04 4.04 0 01.346-.49c1.552-3.972 5.304-6.96 7.363-7.737a.433.433 0 01.52.173.433.433 0 01-.073.544c-.034.034-3.259 3.095-4.592 6.953-.666 1.932-.746 3.745-.226 5.385.233.724.406 1.467.513 2.218.406 2.696.033 5.186-.333 7.058-.087.445-.18.87-.273 1.288.12 1.143.52 2.67 1.319 3.845.546.804 1.213 1.315 1.966 1.534.146-.305.273-.624.386-.983.187-.604.3-1.208.427-1.912.16-.897.346-1.92.753-3.254.34-1.142 1.026-2.762 1.919-4.555a52.109 52.109 0 012.466-4.449 41.883 41.883 0 011.779-2.683c1.266-1.773 3.152-4.077 4.985-4.973 3.525-1.733 4.191-6.295 4.724-9.967.06-.425.12-.83.18-1.222a.434.434 0 01.86.04c.526 7.889-2.28 11.428-4.325 14.01-.766.964-1.42 1.807-1.786 2.703.447 1.123.853 3.646-1.066 4.416-2.073.83 1.573 2.716 2.692 2.716.247 0 .533-.053.833-.18 1.66-.683 4.405-2.775 5.171-1.759.293.392.62.684.967.883.113.06.2.146.266.24.027-.047.047-.087.074-.133.646-1.156 1.112-1.933 1.639-2.172l.126-.066c.494-.26 1.413-.744 3.12.026 1.305.585 3.198 2.324 4.87 4.057l.02-.006zm17.88 14.529c-.8-.24-1.593-.71-2.386-1.415 0 0-.013-.006-.013-.013a.117.117 0 00-.033.027c-.107.12-.214.358-.2.81.02.013.04.026.06.033.746.405 1.726.697 2.579.558h-.007zm4.238-3.38c-.266-.273-.626-.651-.74-1.255a2.22 2.22 0 00-.113-.346c-.706-.278-.966.074-1.519 1.13-.52.995-1.26 2.39-3.166 2.264.9.67 1.8.989 2.646.956 1.479-.053 2.512-1.149 2.885-1.614.5-.624.394-.73.014-1.129l-.007-.006zm-1.766.192c-.213.366-.186.77.054.91.239.14.606-.046.813-.412.213-.365.186-.77-.054-.91-.24-.139-.606.047-.813.412zM56.27 6.19c-.406.245-.76.564-1.146.843-.193.14-.366.299-.533.471l-.5.505c-.353.325-.633.71-.933 1.082-1.172 1.508-2.026 3.24-2.652 5.027a23.714 23.714 0 00-1.18 5.545c-.16 1.872-.213 3.791.207 5.63a17.784 17.784 0 010-2.795c.047-.93.154-1.853.3-2.769.287-1.833.693-3.646 1.306-5.392.593-1.746 1.4-3.42 2.44-4.94a14.616 14.616 0 013.93-3.898c-.412.226-.825.458-1.232.697l-.007-.006zm-4.444 2.709a14.508 14.508 0 013.645-3.593c-.38.206-.76.419-1.14.638-.386.212-.706.511-1.066.77-.36.252-.653.584-.966.897-.154.159-.313.312-.467.471l-.413.511c-1.113 1.375-1.932 2.962-2.545 4.602a22.545 22.545 0 00-1.18 5.106 31.17 31.17 0 00-.167 2.61c.027.87.04 1.746.194 2.603a30.1 30.1 0 01.48-5.14c.306-1.686.706-3.353 1.299-4.953a19.39 19.39 0 012.326-4.522zm-1.746-.492a13.895 13.895 0 013.365-3.293c-.353.186-.706.378-1.06.578-.346.199-.66.464-.993.697-.34.226-.6.544-.9.81-.306.272-.559.584-.819.896-1.046 1.249-1.82 2.696-2.412 4.197a20.35 20.35 0 00-1.18 4.681c-.206 1.594-.273 3.208-.1 4.795.06-.797.107-1.587.227-2.371.093-.784.22-1.567.373-2.337.32-1.54.726-3.068 1.3-4.522a18.417 18.417 0 012.192-4.124l.007-.007zm-1.653-.61a13.362 13.362 0 012.992-2.876c-.313.16-.626.319-.94.492-.306.179-.586.398-.886.59-.56.439-1.086.93-1.56 1.468-.952 1.07-1.685 2.324-2.258 3.626a18.297 18.297 0 00-1.2 4.084c-.24 1.394-.353 2.808-.28 4.216.114-.697.194-1.388.34-2.072.114-.684.26-1.368.44-2.038.346-1.342.753-2.663 1.306-3.925.54-1.268 1.22-2.47 2.04-3.565h.006zm-.16-2.338a8.639 8.639 0 00-2.379 2.019c-.68.803-1.226 1.706-1.68 2.656a14.884 14.884 0 00-1.385 6.043c.553-1.993 1.133-3.938 1.992-5.758.846-1.826 1.966-3.506 3.459-4.947l-.007-.013zm-2.999.658c-1.1.71-1.926 1.772-2.539 2.921-.593 1.156-.993 2.41-1.073 3.705.587-1.155 1.073-2.304 1.66-3.4.573-1.108 1.226-2.15 1.946-3.226h.006zm33.933 11.44a.165.165 0 00-.153.18c.28 3.207.346 7.138-1.673 9.084a.16.16 0 000 .232.167.167 0 00.12.053c.047 0 .087-.013.113-.046 2.12-2.045 2.06-6.07 1.773-9.35-.007-.093-.093-.166-.18-.152zm-55.884 23.8c-.086-.014-.173.06-.18.152a.165.165 0 00.154.18c.38.032 1.006.072 1.779.072 2.112 0 5.311-.298 7.603-1.846.04-.026.094-.053.134-.08a.169.169 0 00.04-.232.17.17 0 00-.234-.04c-.08.054-.166.107-.246.16-3.039 1.959-7.664 1.753-9.043 1.633h-.007z" fill="#164194"/></svg>