<svg width="118" height="106" fill="none" xmlns="http://www.w3.org/2000/svg"><g clip-path="url(#clip0_524_2788)"><path d="M13.352 41.195c7.576.519 19.573.351 24.961-1.447l-24.961 1.447z" fill="#EAECF7"/><path d="M13.352 41.195c7.576.519 19.573.351 24.961-1.447" stroke="#173B91" stroke-width="1.73" stroke-miterlimit="10"/><path d="M29.572 63.89c-.869 0-1.748 0-3.543-1.423-1.063-.847-1.285-3.908-4.131-4.294-2.85-.387-3.302-2.38-4.941-4.965a6308.99 6308.99 0 00-5.42-8.515l-.725-.265V41.71l.869-.129c1.674 2.777 3.208 5.304 3.208 5.304s4.182 7.313 5.28 8.28c1.098.972 1.187 1.545 2.46 1.896 1.274.35 1.85.971 2.11 1.498.266.53 1.585 2.925 3.034 3.908.241.163 1.565 1.287 1.791 1.423h.008z" fill="#173B91"/><path d="M20.172 18.168c11.486 0 14.274 1.19 14.917 1.9.17.187.155.316.136.53-.031.3-.724.901-1.328 1.237l-.343.19v.395c-.007.288-.093 7.067-.093 8.206 0 1.42.76 2.351 2.102 3.88 1.196 1.358 2.31 4.2 2.473 5.46.07.566.124 7.797 0 39.041l-.008 2.013c0 .234-.047 2.332-1.616 3.72-1.195 1.058-8.16 1.95-15.212 1.95-3.068 0-6.187-.112-9.013-.327-3.298-.25-6-.628-7.609-1.06-2.854-.773-3.184-1.51-3.57-2.36l-.039-.086c-.315-.694-.307-4.762-.296-8.697v-3.823C.665 63.91.65 46.835 1.168 40.115c.05-.644.097-1.147.152-1.54l.007-.048a7 7 0 01.121-.686c.6-2.407 2.134-3.978 3.045-4.918.416-.43.67-.687.79-.967.265-.625.175-5.53.055-9.54l-.012-.367-.315-.191s-.48-.293-.915-.675c-.577-.503-.608-.749-.608-.749 0-.027.024-.09.098-.171.564-.624 3.313-2.079 16.582-2.079m.004-.69c-16.034 0-17.44 2.114-17.35 2.995.04.398.425.835.838 1.194.49.428 1.012.744 1.012.744s.265 8.635 0 9.256c-.265.616-2.99 2.465-3.87 5.986a7.12 7.12 0 00-.14.808 28.15 28.15 0 00-.156 1.58c-.569 7.332-.499 26.88-.499 31.708 0 5.554-.09 10.394.355 11.365.44.971.79 1.938 4.045 2.82 1.733.468 4.517.842 7.737 1.084 2.822.215 5.98.328 9.064.328 6.6 0 14.16-.796 15.66-2.118 1.495-1.322 1.845-3.26 1.845-4.228 0-.967.18-39.825 0-41.143-.175-1.322-1.32-4.322-2.636-5.815-1.32-1.498-1.935-2.29-1.935-3.436 0-1.147.09-8.198.09-8.198s1.585-.878 1.674-1.76c.09-.88.308-3.17-15.722-3.17h-.012z" fill="#173B91"/><path d="M4.977 22.225c3.34 1.322 9.31 1.801 13.985 1.872 5.276.082 11.61-.484 14.866-1.806M8.819 32.52c.6.243 1.23.422 1.81.586 3.785 1.06 6.331-.265 6.331-1.935 0-1.938-2.46-2.91-5.54-3.44-3.08-.526-5.549.542-5.276 1.939.16.834.56 1.45 1.09 1.91" stroke="#173B91" stroke-width="1.73" stroke-miterlimit="10"/><path d="M8.414 23.094v4.634c-1.5.296-2.442 1.053-2.27 1.942.163.85.576 1.474 1.125 1.95a6.378 6.378 0 01-1.145 1.346C3.738 35.08 2.153 36.1.965 39.288c-.144.39-.303.64-.463.768.086-1.1.183-1.927.296-2.387.88-3.522 3.61-5.374 3.87-5.987.265-.616 0-9.255 0-9.255l3.742.671.004-.004z" fill="#173B91"/><path d="M12.143 87.03c-3.22-.238-6-.612-7.737-1.08-3.258-.882-3.609-1.853-4.045-2.82-.44-.971-.354-5.811-.354-11.365 0-4.825-.066-24.376.494-31.713a28.21 28.21 0 01.156-1.575l.915-.578c2.02 2.029 5.213 2.898 9.796 3.16 1.153 10.44.779 45.971.779 45.971h-.004z" fill="#173B91"/><path d="M5.218 18.956c-.79.53-1.453 1.1-.242 1.806s7.5 1.72 12.557 1.981c5.058.262 13.721-.706 15.481-1.1 1.76-.394 2.465-1.057 2.465-1.057" stroke="#173B91" stroke-width=".87" stroke-miterlimit="10"/><path d="M7.975 21.596c4.174-1.536 13.736-1.404 18.16-1.01 4.422.394 6.466 1.14 6.466 1.14" fill="#EAECF7"/><path d="M7.975 21.596c4.174-1.536 13.736-1.404 18.16-1.01 4.422.394 6.466 1.14 6.466 1.14M9.66 29.265s-2.508 2.035-2.707 2.8c-.198.764-.151 1.252.55 2.527.7 1.276 7.39 12.29 7.39 12.29s4.177 7.313 5.275 8.284c1.098.971 1.188 1.54 2.465 1.895s1.845.968 2.11 1.498c.265.53 1.78 3.378 3.232 4.36 1.452.983 2.398 1.104 4.111.047.043-.791-.175-1.63-1.055-1.365-.88.265-1.584.574-2.418-.398-.833-.97-2.725-4.052-3.562-4.715-.837-.663-1.363-.308-2.508-1.365-1.144-1.057-6.245-9.119-6.245-9.119s-7.518-12.203-7.65-12.73c-.133-.526.747-1.821 1.187-2.036.44-.214 1.012-.698 1.012-.698s0-.44-.308-.706c-.307-.265-.88-.573-.88-.573v.004z" stroke="#173B91" stroke-width="1.73" stroke-miterlimit="10"/><path d="M29.392 63.543s.787 1.205 2.106 1.736c1.32.53 2.025.53 2.99-.441.966-.971 1.936-1.673 2.999-1.938 1.063-.266 3.072-1.233 4.041-1.697.97-.464 1.495-1.474 2.11-2.005.616-.53 1.406-.175 2.286-.791.88-.617.265-2.38-.53-3.612-.79-1.233-1.934-1.408-2.725-1.233-.79.176-1.145 1.409-1.67 1.498-.526.09-2.212.176-3.606.616-1.394.441-2.99 2.29-4.135 2.82-1.144.53-2.11.265-2.99.441-.88.175-1.585 1.057-1.65 2.27 0 0 .416-2.06 2.09-1.638 1.674.421 2.126 1.072 2.881 2.648.6 1.252.191 2.196-.09 2.597-.404.582-1.798 1.003-2.748.051" fill="#EAECF7"/><path d="M29.392 63.543s.787 1.205 2.106 1.736c1.32.53 2.025.53 2.99-.441.966-.971 1.936-1.673 2.999-1.938 1.063-.266 3.072-1.233 4.041-1.697.97-.464 1.495-1.474 2.11-2.005.616-.53 1.406-.175 2.286-.791.88-.617.265-2.38-.53-3.612-.79-1.233-1.934-1.408-2.725-1.233-.79.176-1.145 1.409-1.67 1.498-.526.09-2.212.176-3.606.616-1.394.441-2.99 2.29-4.135 2.82-1.144.53-2.11.265-2.99.441-.88.175-1.585 1.057-1.65 2.27 0 0 .416-2.06 2.09-1.638 1.674.421 2.126 1.072 2.881 2.648.6 1.252.191 2.196-.09 2.597-.404.582-1.798 1.003-2.748.051" stroke="#173B91" stroke-width="1.73" stroke-miterlimit="10"/><path d="M33.826 29.923s4.949 8.538 5.74 10.13c.79 1.59 2.725 4.668 2.464 6.345-.26 1.677.35 3.264.705 4.231.35.968 1.055 2.22.965 2.871" stroke="#173B91" stroke-width="1.73" stroke-miterlimit="10"/><path d="M33.826 26.807s5.389 9.723 6.53 11.841c1.14 2.118 2.55 3.701 2.725 6.607.175 2.906.88 4.318 1.406 5.64.525 1.322 1.452 3.217.903 3.9" stroke="#173B91" stroke-width="1.73" stroke-miterlimit="10"/><path d="M9.582 34.943c1.312.137 18.654 2.684 25.145-2.554L9.582 34.943z" fill="#EAECF7"/><path d="M9.582 34.943c1.312.137 18.654 2.684 25.145-2.554" stroke="#173B91" stroke-width="1.73" stroke-miterlimit="10"/><path d="M7.506 34.596c-1.628-.176-3.049-1.108-3.049-1.108" stroke="#173B91" stroke-width=".87" stroke-miterlimit="10"/><path d="M18.479 87.034l.626-22.426.627 22.426H18.48zm1.445 0l.588-19.696.588 19.696h-1.176zm1.361 0l.53-16.084.53 16.084h-1.06zm1.301 0l.487-13.584.486 13.584h-.973zm1.204 0l.439-11.006.436 11.006h-.876zm1.089 0l.405-9.322.405 9.322h-.81zm-7.877 0l.65-24.212.65 24.212h-1.3zm-1.6-.441l.674-25.753.67 25.753h-1.344zm-3.076 0l.755-32.36.752 32.36h-1.507z" fill="#173B91"/><path d="M13.799 86.594l.697-27.801.697 27.8h-1.394zM11.94 51.488c-.073-2.239.978-4.634 2.274-2.598 1.297 2.036 0-1.895 0-1.895L11.54 43.89l-1.055 2.247 1.457 5.35zm2.42-19.345a1.01 1.01 0 10-.002-2.019 1.01 1.01 0 00.002 2.019zm-6.858-1.958a.65.65 0 10-.001-1.302.65.65 0 000 1.302zm27.21 29.365c.985-.73 1.981-1.506 3.099-2.025.592-.276 1.219-.456 1.861-.588.642-.133 1.34-.18 1.982-.379.085-.027.07-.152-.02-.156-.662-.035-1.335.086-1.981.222a8.556 8.556 0 00-1.873.609c-1.18.55-2.165 1.377-3.135 2.23-.046.04.016.126.067.087zm-6.823-26.931c.023 0 .023-.035 0-.035-.024 0-.024.035 0 .035zm.132-.792c.024 0 .024-.035 0-.035-.023 0-.023.035 0 .035z" fill="#173B91"/><path d="M15.477 22.4s-.308-2.07.53-2.644c.837-.573 4.528-.398 5.057-.351.53.047 1.23.94 1.406 1.29-.88-.175-4.427-.296-5.015-.175-.615.129-.857.343-.88 1.057-.015.488 0 .823 0 .823h-1.098z" fill="#EAECF7" stroke="#173B91" stroke-width=".87" stroke-miterlimit="10"/><path d="M22.47 20.758c.373.464.342 1.939.342 1.939l-.84.039s.05-1.787-.398-2.071c.592-.004.896.093.896.093z" fill="#EAECF7" stroke="#173B91" stroke-width=".87" stroke-miterlimit="10"/><path d="M32.039 76.238c.023 0 .023-.035 0-.035s-.023.035 0 .035zm-2.125 7.945c.705.343 1.37.16 2.087-.067.627-.198 1.258-.409 1.834-.729 1.312-.718 1.826-1.915 1.943-3.362.148-1.786.117-3.608.093-5.402A62.089 62.089 0 0035.548 69c-.015-.128-.214-.132-.206 0 .214 3.241.342 6.483.202 9.727-.062 1.436-.093 3.011-1.304 3.994-.553.449-1.23.722-1.896.956-.756.265-1.585.58-2.399.433-.039-.008-.074.05-.03.074zm5.708-29.462c-.11-.952-.074-1.946-.082-2.906-.008-.96 0-1.938.008-2.905.008-.967.008-1.939.023-2.91.016-.97.133-1.954.055-2.905-.012-.145-.207-.14-.222 0-.11.951-.008 1.95 0 2.905.007.956.015 1.939.035 2.91.02.97.054 1.938.085 2.905.032.968.117 1.947.067 2.906 0 .023.035.02.035 0h-.004zm-4.325-29.607c-.148 1.147-.25 2.302-.222 3.46.011.566.047 1.131.101 1.696.027.277.05.558.105.827.047.238.074.496.261.663.078.07.21.067.269-.035.12-.222.07-.464.05-.71-.027-.292-.074-.585-.109-.873a22.916 22.916 0 01-.124-1.634c-.047-1.135-.043-2.266.074-3.397.027-.262-.37-.254-.405 0v.003z" fill="#173B91"/><path d="M59.728 93.598c-3.656 0-7.367-.132-10.735-.39-3.94-.296-7.176-.748-9.115-1.275-3.574-.967-4.026-1.97-4.5-3.027l-.047-.1c-.413-.906-.401-5.566-.39-10.5 0-.92.004-1.868.004-2.836v-1.708c-.008-7.64-.027-27.933.588-35.932a31.88 31.88 0 01.183-1.853v-.031c.055-.379.105-.675.16-.886.74-2.968 2.608-4.883 3.722-6.025.448-.46.744-.765.857-1.026.323-.757.105-8.737.03-11.163l-.007-.218-.187-.113s-.6-.363-1.145-.842c-.517-.449-.829-.87-.86-1.155-.016-.164.058-.335.218-.515.88-.97 4.645-2.601 19.994-2.601 13.105 0 17.03 1.299 18.015 2.387.323.355.292.651.265.94-.062.608-1.125 1.416-1.783 1.778l-.203.113v.234c-.004.082-.109 8.393-.109 9.743 0 1.54.868 2.601 2.398 4.345 1.468 1.665 2.831 5.156 3.037 6.697.082.616.152 9.169.004 46.431l-.007 2.391c0 1.342-.538 3.382-2.056 4.723-1.507 1.33-9.73 2.414-18.335 2.414h.004z" fill="#EAECF7"/><path d="M58.5 11.803c13.644 0 16.957 1.412 17.72 2.255.203.222.188.378.164.632-.035.354-.864 1.068-1.577 1.466l-.409.226v.468c-.011.343-.109 8.393-.109 9.747 0 1.685.904 2.796 2.5 4.61 1.421 1.61 2.741 4.992 2.94 6.486.082.67.148 9.263 0 46.377l-.008 2.39c0 .278-.055 2.774-1.92 4.424-1.417 1.256-9.695 2.313-18.07 2.313a144.8 144.8 0 01-10.707-.387c-3.917-.296-7.125-.745-9.04-1.263-3.392-.917-3.785-1.794-4.241-2.804l-.047-.106c-.373-.823-.362-5.655-.354-10.331 0-.92.004-1.869.004-2.836v-1.704c-.008-7.637-.027-27.922.588-35.902.058-.76.117-1.36.179-1.829l.008-.058a7.15 7.15 0 01.144-.82c.716-2.858 2.534-4.726 3.62-5.842.5-.51.795-.819.94-1.15.314-.741.21-6.572.061-11.334l-.015-.437-.374-.226s-.572-.347-1.09-.8c-.685-.597-.72-.889-.72-.889 0-.031.027-.105.116-.207.67-.74 3.937-2.473 19.698-2.473m0-.799c-19.047 0-20.718 2.512-20.613 3.557.047.472.507.99.993 1.416.58.51 1.203.881 1.203.881s.312 10.258 0 10.995c-.311.73-3.55 2.929-4.598 7.114a8.866 8.866 0 00-.167.96 35.803 35.803 0 00-.183 1.875c-.67 8.713-.588 31.939-.588 37.672 0 6.595-.105 12.348.42 13.503.522 1.15.938 2.3 4.805 3.35 2.06.558 5.361.998 9.189 1.287 3.352.254 7.105.39 10.765.39 7.838 0 16.825-.944 18.6-2.516 1.776-1.567 2.192-3.872 2.192-5.023 0-1.15.214-47.31 0-48.877-.206-1.572-1.565-5.133-3.13-6.908-1.566-1.782-2.298-2.718-2.298-4.08 0-1.36.106-9.738.106-9.738s1.88-1.041 1.985-2.09c.105-1.046.366-3.768-18.677-3.768H58.5z" fill="#173B91"/><path d="M50.398 39.156c9.002.616 23.249.417 29.654-1.716l-29.654 1.716z" fill="#EAECF7"/><path d="M50.398 39.156c9.002.616 23.249.417 29.654-1.716" stroke="#173B91" stroke-width="2.06" stroke-miterlimit="10"/><path d="M69.668 66.118c-1.028 0-2.076 0-4.21-1.693-1.265-1.002-1.526-4.641-4.905-5.102-3.384-.456-3.921-2.823-5.868-5.897-1.947-3.073-6.436-10.113-6.436-10.113l-.86-.312v-3.23l1.028-.151c1.99 3.3 3.811 6.298 3.811 6.298s4.969 8.686 6.273 9.837c1.304 1.15 1.41 1.833 2.924 2.25 1.515.417 2.196 1.15 2.508 1.779.311.632 1.88 3.475 3.605 4.64.288.196 1.857 1.534 2.13 1.694z" fill="#173B91"/><path d="M40.451 16.624c3.972 1.572 11.062 2.137 16.614 2.223 6.269.098 13.791-.577 17.657-2.145M45.01 28.855c.712.288 1.46.503 2.149.694 4.493 1.26 7.522-.312 7.522-2.297 0-2.301-2.924-3.456-6.58-4.084-3.656-.624-6.588.648-6.269 2.302.187.99.666 1.72 1.293 2.27" stroke="#173B91" stroke-width="2.06" stroke-miterlimit="10"/><path d="M44.53 17.657v5.504c-1.783.354-2.9 1.252-2.694 2.308a3.926 3.926 0 001.339 2.317 7.556 7.556 0 01-1.363 1.595c-2.834 2.512-4.719 3.725-6.128 7.512-.172.464-.362.757-.55.913.102-1.307.219-2.29.355-2.836 1.044-4.184 4.287-6.384 4.598-7.113.312-.734 0-10.995 0-10.995l4.447.8-.004-.005z" fill="#173B91"/><path d="M48.962 93.606h-.004c-3.824-.285-7.13-.725-9.19-1.283-3.87-1.045-4.286-2.2-4.804-3.35-.525-1.15-.42-6.904-.42-13.503 0-5.733-.082-28.955.588-37.672.054-.733.117-1.365.183-1.872l1.086-.686c2.398 2.406 6.195 3.44 11.638 3.752 1.37 12.402.923 54.61.923 54.61v.004z" fill="#173B91"/><path d="M40.735 12.74c-.942.627-1.725 1.306-.288 2.144 1.437.839 8.908 2.04 14.916 2.356 6.008.316 16.299-.838 18.39-1.306 2.09-.468 2.924-1.256 2.924-1.256" stroke="#173B91" stroke-width="1.03" stroke-miterlimit="10"/><path d="M44.01 15.875c4.956-1.825 16.318-1.669 21.57-1.197 5.253.472 7.682 1.353 7.682 1.353" fill="#EAECF7"/><path d="M44.01 15.875c4.956-1.825 16.318-1.669 21.57-1.197 5.253.472 7.682 1.353 7.682 1.353m-27.248 8.955s-2.978 2.418-3.212 3.327c-.233.909-.183 1.486.654 3.003.837 1.518 8.776 14.603 8.776 14.603s4.965 8.685 6.269 9.84c1.304 1.154 1.41 1.833 2.924 2.25 1.515.418 2.196 1.15 2.508 1.779.311.628 2.114 4.01 3.839 5.18 1.724 1.17 2.846 1.31 4.886.054.05-.944-.21-1.935-1.254-1.623-1.043.312-1.88.679-2.873-.472-.993-1.15-3.24-4.812-4.232-5.6-.993-.788-1.62-.367-2.979-1.623S53.903 44.87 53.903 44.87 44.97 30.373 44.81 29.745c-.16-.628.888-2.165 1.41-2.419.521-.253 1.203-.826 1.203-.826s0-.523-.366-.839c-.366-.316-1.044-.679-1.044-.679v.004z" stroke="#173B91" stroke-width="2.06" stroke-miterlimit="10"/><path d="M69.45 65.708s.935 1.431 2.5 2.06c1.565.627 2.402.627 3.55-.523 1.15-1.15 2.298-1.99 3.56-2.301 1.261-.312 3.648-1.467 4.8-2.017 1.153-.55 1.776-1.755 2.508-2.383.732-.628 1.67-.21 2.717-.944 1.048-.733.316-2.827-.626-4.29-.943-1.462-2.298-1.673-3.24-1.466-.942.206-1.359 1.673-1.986 1.778-.627.105-2.628.21-4.282.733-1.655.523-3.551 2.723-4.91 3.35-1.36.629-2.508.317-3.551.523-1.044.207-1.88 1.256-1.959 2.695 0 0 .495-2.449 2.48-1.942 1.986.507 2.523 1.271 3.423 3.148.712 1.486.226 2.609-.105 3.088-.483.695-2.134 1.19-3.267.059" fill="#EAECF7"/><path d="M69.45 65.708s.935 1.431 2.5 2.06c1.565.627 2.402.627 3.55-.523 1.15-1.15 2.298-1.99 3.56-2.301 1.261-.312 3.648-1.467 4.8-2.017 1.153-.55 1.776-1.755 2.508-2.383.732-.628 1.67-.21 2.717-.944 1.048-.733.316-2.827-.626-4.29-.943-1.462-2.298-1.673-3.24-1.466-.942.206-1.359 1.673-1.986 1.778-.627.105-2.628.21-4.282.733-1.655.523-3.551 2.723-4.91 3.35-1.36.629-2.508.317-3.551.523-1.044.207-1.88 1.256-1.959 2.695 0 0 .495-2.449 2.48-1.942 1.986.507 2.523 1.271 3.423 3.148.712 1.486.226 2.609-.105 3.088-.483.695-2.134 1.19-3.267.059" stroke="#173B91" stroke-width="2.06" stroke-miterlimit="10"/><path d="M74.72 25.77s5.88 10.144 6.818 12.032c.939 1.888 3.24 5.542 2.924 7.535-.315 1.993.417 3.877.837 5.028.417 1.15 1.254 2.636 1.15 3.412" stroke="#173B91" stroke-width="2.06" stroke-miterlimit="10"/><path d="M74.72 22.065s6.402 11.552 7.76 14.064c1.36 2.512 3.03 4.396 3.24 7.851.21 3.456 1.043 5.129 1.67 6.7.627 1.572 1.725 3.823 1.071 4.63" stroke="#173B91" stroke-width="2.06" stroke-miterlimit="10"/><path d="M45.916 31.73c1.557.163 22.162 3.186 29.871-3.035L45.916 31.73z" fill="#EAECF7"/><path d="M45.916 31.73c1.557.163 22.162 3.186 29.871-3.035" stroke="#173B91" stroke-width="2.06" stroke-miterlimit="10"/><path d="M43.453 31.316c-1.931-.21-3.621-1.318-3.621-1.318" stroke="#173B91" stroke-width="1.03" stroke-miterlimit="10"/><path d="M56.488 93.61l.744-26.642.744 26.642h-1.488zm1.717 0l.697-23.397.697 23.397h-1.394zm1.615 0l.631-19.107.63 19.107h-1.26zm1.551 0l.576-16.135.58 16.135h-1.156zm1.428 0l.518-13.073.521 13.073h-1.04zm1.293 0l.479-11.073.479 11.073h-.958zm-9.356 0l.771-28.76.775 28.76h-1.546zm-1.9-.523l.794-30.593.798 30.593h-1.592zm-3.652 0l.891-38.444.892 38.444h-1.783z" fill="#173B91"/><path d="M50.928 93.087l.83-33.027.825 33.027h-1.655zm-2.203-41.704c-.086-2.66 1.16-5.504 2.698-3.086 1.538 2.419 0-2.25 0-2.25l-3.177-3.69-1.254 2.668 1.733 6.358zm2.869-22.984a1.196 1.196 0 10-.002-2.393 1.196 1.196 0 00.002 2.393zm-8.141-2.325a.772.772 0 10-.002-1.543.772.772 0 00.002 1.543zm32.316 34.887c1.172-.865 2.355-1.786 3.683-2.402.705-.328 1.448-.542 2.208-.698.759-.156 1.592-.21 2.355-.453.102-.031.082-.18-.023-.183-.787-.043-1.589.101-2.352.265-.763.164-1.514.39-2.223.722-1.402.651-2.574 1.634-3.722 2.648-.055.047.02.148.078.105l-.004-.004zm-8.102-31.993c.027 0 .027-.039 0-.039s-.027.04 0 .04zm.158-.94a.02.02 0 000-.039c-.027 0-.027.04 0 .04z" fill="#173B91"/><path d="M52.921 16.83s-.366-2.46.627-3.14c.993-.678 5.381-.471 6.008-.416.627.054 1.464 1.115 1.67 1.536-1.043-.21-5.26-.35-5.957-.21-.732.152-1.02.41-1.043 1.255-.016.578 0 .976 0 .976H52.92z" fill="#EAECF7" stroke="#173B91" stroke-width="1.03" stroke-miterlimit="10"/><path d="M61.23 14.877c.445.554.406 2.305.406 2.305l-1 .047s.058-2.122-.472-2.461c.705-.004 1.067.109 1.067.109z" fill="#EAECF7" stroke="#173B91" stroke-width="1.03" stroke-miterlimit="10"/><path d="M72.6 80.786a.02.02 0 000-.039c-.027 0-.027.04 0 .04zm-2.53 9.439c1.168.585 2.6-.066 3.726-.515 1.125-.449 2.211-1.112 2.749-2.262.595-1.28.545-2.793.58-4.17.043-1.72.05-3.443.011-5.163a71.636 71.636 0 00-.37-5.92c-.015-.153-.253-.16-.245 0 .261 3.946.413 7.897.226 11.852-.082 1.759-.234 3.565-1.81 4.649-.631.433-1.352.714-2.068.963-.864.3-1.834.663-2.76.484-.051-.008-.086.062-.035.086l-.004-.004zm6.785-35.001c-.144-1.107-.086-2.289-.098-3.404-.011-1.116 0-2.337.008-3.503s.012-2.27.028-3.405c.015-1.135.183-2.363.066-3.502-.016-.172-.242-.168-.265 0-.148 1.104-.012 2.293-.004 3.405.008 1.166.016 2.336.039 3.502s.062 2.27.101 3.405c.04 1.135.16 2.356.082 3.502 0 .028.043.024.039 0h.004zm-5.144-35.168c-.175 1.365-.296 2.734-.265 4.107.016.675.059 1.346.121 2.017.031.327.058.659.125.982.054.285.09.59.307.788.094.086.253.078.316-.039.144-.261.085-.55.058-.842-.031-.347-.09-.694-.129-1.041a26.83 26.83 0 01-.147-1.943c-.055-1.345-.051-2.69.09-4.033.03-.308-.44-.3-.48 0l.004.004z" fill="#173B91"/></g><defs><clipPath id="clip0_524_2788"><path fill="#fff" transform="translate(0 11)" d="M0 0h90v83H0z"/></clipPath></defs></svg>