<svg width="99" height="70" fill="none" xmlns="http://www.w3.org/2000/svg"><path d="M98.34 46.719s.052-.021.073-.032a.334.334 0 00.115-.042c.042-.02.073-.052.115-.084.02-.02.052-.042.073-.063a.799.799 0 00.126-.2c0-.02 0-.031.01-.053.021-.052.031-.105.042-.157.794-12.12-2.979-29.162-10.462-35.569C73.663-2.116 47.649-.233 40.019.641 15.375 3.48 3.43 10.582 1.276 23.669.188 30.255-.815 38.808.993 46.477c1.359 5.86 4.254 10.53 8.612 13.897l.502.379c.125.094.261.19.397.284a41.56 41.56 0 002.498 1.694c.355.22.731.441 1.087.641.731.432 1.515.863 2.404 1.305.627.315 1.275.62 1.933.915a39.94 39.94 0 002.29.926c.96.379 1.933.715 2.988 1.03.711.222 1.443.432 2.185.621 1.338.337 2.644.621 3.909.853.69.115 1.38.231 2.08.336 1.599.232 3.323.41 5.131.516.659.042 1.338.073 2.007.084.774.032 1.568.042 2.373.042a78.345 78.345 0 005.863-.22c3.836-.285 7.818-.843 11.831-1.653a.68.68 0 00.544-.63c.031-.621.763-14.676.355-20.263 10.766.463 31.92.674 38.368-.515h-.01zm-58.31 17a74.842 74.842 0 01-1.056 4.882c-.627-.021-1.264-.042-1.881-.084-.146 0-.272-.021-.418-.032l-.282-6.617-1.077 6.501a47.305 47.305 0 01-1.84-.189l-.396-8.48-1.025 8.301a40.027 40.027 0 01-1.557-.252l-.523-10.752-.972 10.468c-.449-.095-.909-.19-1.369-.295l-.637-13.687-.951 13.298c-.47-.126-.93-.263-1.39-.4-.366-5.46-.47-10.973-.575-16.474-.44 5.302-.889 10.614-1.087 15.959-.46-.158-.91-.316-1.359-.484-.502-6.06-.585-12.204-.554-18.316-.575 5.85-1.056 11.72-1.16 17.642-.314-.126-.638-.242-.94-.378-.084-.032-.158-.074-.241-.116a128.992 128.992 0 01-.523-8.069 181.606 181.606 0 010-11.93 181.46 181.46 0 00-1.045 11.92 139.22 139.22 0 00-.188 7.248c-.22-.116-.429-.221-.638-.337a116.04 116.04 0 01-.616-8.542c-.147-4.156-.115-8.322.104-12.477-.564 4.134-.95 8.29-1.15 12.477a121.451 121.451 0 00-.114 7.564 7.621 7.621 0 01-.492-.295 105.424 105.424 0 01-.72-9.09c-.158-4.334-.105-8.689.219-13.034a117.852 117.852 0 00-1.265 13.024c-.115 2.63-.125 5.27-.052 7.911l-.314-.22A96.964 96.964 0 0111.1 50.8c-.178-4.44-.115-8.91.271-13.36a107.666 107.666 0 00-1.316 13.36c-.095 2.714-.084 5.428.03 8.153-.03-.032-.062-.053-.104-.084a92.119 92.119 0 01-1.013-10.047c-.21-4.471-.157-8.974.24-13.455-.742 4.44-1.15 8.942-1.286 13.465a96.745 96.745 0 00.032 6.744 92.255 92.255 0 01-.972-9.005c-.251-4.45-.22-8.943.156-13.414a96.052 96.052 0 00-1.201 13.435c-.032 1.651 0 3.303.041 4.965a93.291 93.291 0 01-1.013-8.016c-.366-4.534-.44-9.1-.032-13.655-.752 4.513-1.035 9.11-1.014 13.697.01 2.156.105 4.303.262 6.46a87.771 87.771 0 01-1.098-11.478c-.146-5.26.115-10.563.983-15.78-1.213 5.154-1.83 10.457-2.028 15.78-.073 2.051-.052 4.103 0 6.154-1.327-7.059-.387-14.78.606-20.84C4.682 11.497 16.263 4.744 40.197 1.987c3.993-.463 7.891-.684 11.654-.684 15.071 0 27.969 3.609 35.713 10.247 2.686 2.293 4.892 6.196 6.564 10.794-1.056-2.252-2.247-3.903-3.533-4.65-3.626-2.083-41.054-2.925-45.308-3.02-.261-.052-.48.127-.606.337a.687.687 0 000 .695c.063.105 6.323 10.54 9.396 14.949 2.958 4.25 3.71 7.69 4.473 15.896.492 4.302-.125 17.495-.26 20.314a96.927 96.927 0 01-11.153 1.525c-.669.053-1.338.095-1.996.127-1.641.084-3.25.094-4.818.073a84.482 84.482 0 00-.293-4.902v.031zm19.806-17.852c-.753-7.911-1.62-11.604-4.651-15.96-2.467-3.534-7.024-11.024-8.706-13.802 16.576.369 40.97 1.4 43.426 2.81 3.638 2.093 7.139 14.412 7.599 26.563-7.003 1.073-27.331.841-37.668.389zm-6.313-5.45c-4.212 1.347-8.58 1.947-12.887 1.947-11.445 0-22.46-4.188-28.805-9.542-4.87-4.114-7.222-8.91-6.616-13.53a.675.675 0 01.763-.588.678.678 0 01.586.768c-.544 4.134 1.63 8.5 6.135 12.298 8.455 7.132 25.491 12.119 40.406 7.343a.683.683 0 01.857.442.69.69 0 01-.439.862zM82.37 26.741a2.251 2.251 0 002.247-2.262 2.251 2.251 0 00-2.247-2.261 2.251 2.251 0 00-2.247 2.261 2.251 2.251 0 002.247 2.262zm-1.464-2.157a.26.26 0 01.335.158c.084.232.48.653.972.79.293.084.544.052.753-.106a.263.263 0 01.365.053.267.267 0 01-.052.368c-.23.168-.491.263-.773.263-.147 0-.293-.021-.45-.063-.637-.19-1.17-.716-1.317-1.115a.262.262 0 01.157-.337l.01-.01zm-6.783 5.555c0-1.978-1.724-3.587-3.846-3.587s-3.846 1.61-3.846 3.587c0 1.978 1.724 3.588 3.846 3.588s3.846-1.61 3.846-3.588zm-2.393 2.44a2.627 2.627 0 01-1.348.348 3.75 3.75 0 01-1.798-.484c-.92-.526-1.453-1.368-1.453-2.293a.26.26 0 01.261-.263.26.26 0 01.262.263c0 .736.428 1.41 1.18 1.84.868.495 1.945.558 2.624.148a.257.257 0 01.356.095.26.26 0 01-.094.357l.01-.01zm12.333 5.671c0 .726-.753 1.326-1.683 1.326s-1.682-.59-1.682-1.326c0-.736.752-1.325 1.682-1.325.93 0 1.683.589 1.683 1.325zm3.177-6.312c0-.568.544-1.041 1.223-1.041.68 0 1.223.463 1.223 1.041 0 .579-.544 1.042-1.223 1.042-.68 0-1.223-.463-1.223-1.042zm-28.68-11.14a1.222 1.222 0 11-2.446 0 1.222 1.222 0 112.447 0zm7.693 14.433c-1.034 0-1.87.841-1.87 1.883s.836 1.883 1.87 1.883a1.875 1.875 0 001.871-1.883 1.875 1.875 0 00-1.87-1.883zm.795 2.798c-.324.18-.607.263-.868.263a1.09 1.09 0 01-.418-.084c-.334-.158-.575-.494-.69-1.02a.263.263 0 01.199-.316.257.257 0 01.313.2c.084.347.22.568.397.652.24.105.586-.02.826-.158.126-.073.282-.02.355.106.074.126.021.284-.104.357h-.01zm-2.018-16c-.668 0-1.222-.422-1.222-.948s.543-.947 1.222-.947c.68 0 1.223.421 1.223.947s-.543.947-1.223.947zm-1.965 5.754c0 .473-.418.852-.94.852-.523 0-.94-.379-.94-.852 0-.474.417-.853.94-.853.522 0 .94.38.94.853zm11.152 12.171c-1.191 0-2.153 1.01-2.153 2.262s.962 2.262 2.153 2.262c1.192 0 2.154-1.01 2.154-2.262s-.962-2.262-2.154-2.262zm.732 3.462l-.157.052c-.23.084-.491.179-.773.179-.387 0-.794-.179-1.17-.82a.26.26 0 01.093-.358.257.257 0 01.356.094c.428.737.784.61 1.327.41l.167-.062a.274.274 0 01.335.168.276.276 0 01-.167.337h-.011zM14.173 17.883c-.544-3.83 1.588-7.07 6.333-9.626C34.292.83 68.96 1.303 77.562 9.036a.483.483 0 01.042.673c-.178.2-.47.21-.67.042-7.754-6.975-41.409-8.5-55.989-.652-4.358 2.346-6.323 5.26-5.842 8.658a.474.474 0 01-.397.537h-.063a.464.464 0 01-.46-.41h-.01zm35.044 14.802a.477.477 0 01.512.431.473.473 0 01-.428.516 65.201 65.201 0 01-5.947.263c-4.693 0-10.87-.484-16.462-2.44a.47.47 0 01-.293-.6.466.466 0 01.596-.295c8.665 3.03 19.043 2.399 22.022 2.136v-.011zM22.095 15.137c-.324 1.673.167 3.388 1.432 4.966 2.989 3.724 9.74 6.144 17.61 6.301.262 0 .471.221.46.484a.467.467 0 01-.47.463c-8.267-.168-15.123-2.65-18.332-6.648-1.442-1.8-2.007-3.788-1.63-5.734a.48.48 0 01.554-.379c.25.053.418.295.376.558v-.01zm34.24 26.133a.25.25 0 01.209-.306.253.253 0 01.303.21c.878 4.609 1.045 13.088.47 24.502 0 .137-.125.253-.261.253h-.01c-.147 0-.252-.127-.252-.274.565-11.372.408-19.81-.46-24.375v-.01z" fill="#164194"/></svg>