<svg width="188" height="35" fill="none" xmlns="http://www.w3.org/2000/svg"><path d="M100.371 29.13V5.87h14.601v5.403h-8.512V29.13h-6.089zm32.971 0v-9.11h-9.045v9.11h-6.088V5.87h6.088v8.68h9.045V5.87h6.089v23.26h-6.089zm41.421 0V11.273h-7.111V5.871h20.349v5.402h-7.146V29.13h-6.092zm-16.07-.003V15.874l-9.692 13.253h-5.091V5.874h6.089v13.114l9.529-13.114h5.256v23.253h-6.091zm-93.31.003V15.307l-6.08 7.303-6.078-7.303V29.13h-6.088V5.87h6.008l6.159 7.998 6.158-7.997h6.009v23.26h-6.088zm17.647-8.18h5.658l-2.83-7.294-2.829 7.293zm8.83 8.177l-1.273-3.26H81.12l-1.274 3.26h-6.12L83.09 5.87h5.63l9.366 23.257h-6.225zM-.006 10.597a10.65 10.65 0 013.094-7.488A10.528 10.528 0 0110.533 0h24.331v5.386H10.54A5.191 5.191 0 006.882 6.92a5.25 5.25 0 00-1.526 3.678l-.032 9.042a5.282 5.282 0 01-1.392 3.097A5.23 5.23 0 01.95 24.333l-.956.148V10.595zM-.004 35v-5.386h24.331a5.195 5.195 0 003.658-1.535 5.255 5.255 0 001.526-3.679v-8.58a5.266 5.266 0 011.26-3.392 5.211 5.211 0 013.143-1.764l.956-.144V24.4a10.653 10.653 0 01-3.094 7.489A10.531 10.531 0 0124.33 35H-.004z" fill="#E30613"/><path d="M20.608 24.5v-6.963l-3.173 3.81-3.17-3.81V24.5h-4.203V10.798h3.98l3.393 4.406 3.393-4.406h3.98V24.5h-4.2z" fill="#E30613"/></svg>